<svg width="50" height="49" viewBox="0 0 50 49" fill="none" xmlns="http://www.w3.org/2000/svg">
<path d="M6.80008 30.8756C3.28131 20.94 8.48318 10.0331 18.4188 6.51432C28.3544 2.99554 39.2613 8.19742 42.7801 18.133C46.2989 28.0686 41.097 38.9756 31.1614 42.4944C21.2258 46.0131 10.3189 40.8113 6.80008 30.8756Z" fill="url(#paint0_radial_115_11)"/>
<path d="M16.9168 25.1306C16.7915 24.9974 16.7315 24.8107 16.7315 24.6907C16.7315 24.5708 16.7915 24.3841 16.9168 24.2509L17.7843 23.3978C18.0335 23.1446 18.404 23.1446 18.6546 23.3978L18.7132 23.4511L22.1248 27.1159C22.2487 27.2359 22.4353 27.2359 22.5606 27.1159L30.8683 18.494H30.9296C31.1802 18.2408 31.5493 18.2408 31.7985 18.494L32.6687 19.3601C32.9139 19.6 32.9139 19.973 32.6687 20.2262L22.7458 30.5276C22.6192 30.6475 22.4966 30.7144 22.31 30.7144C22.1248 30.7144 22.0022 30.6475 21.8756 30.5276L17.0394 25.3174L16.9168 25.1306Z" fill="white"/>
<defs>
<radialGradient id="paint0_radial_115_11" cx="0" cy="0" r="1" gradientUnits="userSpaceOnUse" gradientTransform="translate(24.9468 2.54827) rotate(89.9993) scale(52.2645 32.9693)">
<stop stop-color="#FEE49A"/>
<stop offset="1" stop-color="#BB8D37"/>
</radialGradient>
</defs>
</svg>
