<svg width="303" height="436" viewBox="0 0 303 436" fill="none" xmlns="http://www.w3.org/2000/svg">
<path fill-rule="evenodd" clip-rule="evenodd" d="M258.738 46.1282C240.81 62.04 252.59 73.714 253.654 78.0585C255.162 84.2153 263.575 88.9463 269.838 88.0801C272.815 87.6669 282.456 85.4413 285.47 82.3629C287.901 79.8842 289.677 76.8721 292.62 71.7414C299.109 60.4405 276.198 30.9226 258.738 46.1282Z" fill="#B78E43" fill-opacity="0.262745"/>
<path fill-rule="evenodd" clip-rule="evenodd" d="M96.1974 296.653C122.455 252.235 15.2601 201.861 1.1246 277.422C-1.72594 292.668 13.7275 342.349 58.6592 328.223C84.5327 320.081 86.1732 313.604 96.1974 296.653Z" fill="#B78E43" fill-opacity="0.262745"/>
<path fill-rule="evenodd" clip-rule="evenodd" d="M147.738 0.577408C147.434 3.6825 147.031 6.77423 146.854 9.8793C146.561 14.9967 146.72 20.1671 146.132 25.2445C145.382 31.7345 141.87 37.0923 137.877 42.1031C135.64 44.9017 133.362 47.6735 131.014 50.3788C128.982 52.7243 128.024 55.376 128.325 58.4678C128.689 62.1459 128.95 65.8507 129.484 69.5155C130.415 75.8856 130.089 82.1359 128.154 88.2794C127.292 90.6115 128.75 88.3994 128.794 88.3594C134.807 82.3492 141.073 78.0313 144.999 70.6217C147.406 66.0774 147.479 65.611 143.874 61.9862C143.034 61.1466 142.165 60.3071 141.478 59.3475C140.148 57.4818 140.521 55.1764 142.305 53.7638C142.862 53.324 143.505 52.9907 144.122 52.6309C145.442 51.8713 146.78 51.1381 148.09 50.3652C149.421 49.5789 150.873 49.4588 151.928 50.5116C153.775 52.364 156.176 53.617 157.349 56.2424C158.785 59.4541 158.419 61.6526 155.094 62.6122C150.672 63.9048 147.943 66.4373 146.132 70.7018C143.513 76.8853 138.864 81.6026 133.624 85.7071C128.929 89.3719 125.684 93.9162 123.707 99.62C121.061 107.269 116.436 113.693 109.389 117.904C105.094 120.463 100.409 122.382 95.9588 124.701C93.1043 126.18 90.2671 127.739 87.5898 129.525C84.4687 131.604 83.2067 134.775 83.1548 138.467C83.1481 138.906 83.1134 139.333 83.0801 139.76C83.0548 140.106 82.8083 140.386 82.4764 140.453H82.4711C82.0073 139.653 81.942 139.133 81.93 138.467C81.8474 134.056 83.5825 130.391 87.3099 128.152C91.9036 125.38 96.7611 123.035 101.524 120.543C103.723 119.397 105.98 118.357 108.199 117.251C105.963 116.371 103.79 115.305 101.515 114.532C98.7015 113.573 95.8482 112.72 92.967 111.987C91.4851 111.614 89.9086 111.587 88.3708 111.454C87.9057 111.414 87.4232 111.574 86.9488 111.628C81.0931 112.4 78.5997 111.081 76.0877 105.777C75.2814 104.071 74.6377 102.285 74.0793 100.926C76.8766 102.085 79.9097 103.178 82.7856 104.591C85.2124 105.79 87.4565 107.349 89.2276 108.416C88.484 106.11 87.6991 103.139 86.5463 100.327C86.0626 99.1406 84.8872 98.181 83.8731 97.3015C82.1406 95.7823 81.6515 94.2495 82.5537 92.4238C83.348 90.8113 85.1058 90.1051 87.1354 90.5315C88.6226 90.838 89.5821 91.651 89.4142 93.2235C89.253 94.756 88.8918 96.2618 88.5187 97.7544C87.146 103.245 90.0059 109.002 95.4871 111.201C93.6081 108.575 92.5073 105.71 92.7419 102.219C93.2909 103.791 93.672 105.217 94.2784 106.523C95.8109 109.868 98.0351 112.333 101.863 113.28C103.96 113.799 105.908 114.759 107.938 115.599C108.527 115.852 109.392 116.318 109.893 116.025C114.166 113.453 114.876 111.494 113.493 106.616C112.538 103.258 108.895 100.633 105.196 100.646C104.505 100.646 103.815 100.646 103.071 100.646C106.434 98.8337 111.478 100.26 114.139 103.578C114.891 104.524 115.426 105.884 115.642 106.963C115.83 107.896 115.83 109.029 115.642 109.975C119.211 106.59 121.526 102.086 119.162 98.0212C116.127 92.8105 111.307 90.8111 105.445 92.317C104.781 92.4903 104.073 92.5039 103.354 92.5838C103.488 89.9052 108.277 85.4942 111.961 85.0278C120.472 83.935 121.99 90.078 123.09 96.8213C124.827 93.9161 125.613 91.1713 125.521 88.3061C125.291 81.1364 123.726 74.1532 120.941 67.5966C118.427 61.6663 113.674 57.4148 108.397 53.8966C107.398 53.2302 105.658 53.2572 104.309 53.5504C103.24 53.7903 102.332 54.0699 101.175 53.9766C100.634 53.9366 99.1079 53.9903 99.1079 52.6576C99.1079 51.3516 100.411 50.845 100.798 50.7784C102.152 50.5385 103.61 50.5116 104.888 50.8714C109.247 52.0708 112.41 55.1496 115.508 58.2413C116.59 59.3208 117.577 60.4934 118.714 61.7461C118.859 57.9613 107.496 34.3865 104.365 31.8544C103.47 33.3736 103.656 36.1324 100.69 35.3995C97.0956 34.4933 96.4959 33.9201 96.4093 31.5746C92.3314 30.1487 91.8849 28.0835 94.7848 24.0589C92.9257 20.9805 93.5667 19.008 96.3626 16.5693C97.6327 15.4632 99.3945 14.1572 100.864 14.2371C102.769 14.3304 104.268 13.4509 105.956 13.3177C108.405 13.1178 110.881 13.3573 111.384 16.6089C111.416 16.8088 111.647 17.0089 111.824 17.1555C114.479 19.4211 114.915 23.3788 112.893 26.2173C112.541 26.7104 112.197 27.5638 112.384 28.0302C113.755 31.5351 112.561 33.4805 108.76 33.7337C108.425 33.747 108.09 33.7871 107.573 33.8404C110.598 39.5175 113.535 45.0347 116.475 50.5519C116.703 49.0993 116.666 47.593 117.009 46.1804C117.63 43.6084 118.026 41.183 117.071 38.491C116.217 36.0789 117.901 33.8804 119.046 31.8414C119.335 31.3217 120.766 31.1482 121.591 31.2948C123.104 31.548 124.326 32.6273 124.388 34.1599C124.446 35.4925 123.946 36.9188 123.442 38.1982C123.132 38.9978 122.443 39.7175 121.766 40.2772C117.774 43.6488 117.613 48.2731 117.642 52.9107C117.648 53.8969 118.06 54.8963 118.427 55.8292C121.711 64.1982 124.446 72.7273 126.151 81.5628C126.513 83.4285 126.696 85.3338 127.03 87.2129C127.212 86.1334 127.652 85.1074 127.883 84.0413C129.195 77.9644 128.546 71.901 127.604 65.8507C127.419 64.678 127.211 63.4787 127.184 62.2927C127.036 55.3229 126.498 48.3129 126.928 41.3697C127.568 31.0284 132.134 22.1262 138.493 14.0504C140.775 11.1452 142.724 7.97388 144.653 4.81549C145.491 3.45618 145.808 1.76347 146.409 0.244247C147.181 0.444153 146.966 0.390839 147.738 0.577408ZM145.284 11.3454C140.543 24.6319 132.595 36.0927 129.412 49.9656C139.904 39.1445 147.592 27.5771 145.284 11.3454ZM144.954 7.37407C144.834 7.36075 140.091 14.0907 137.652 17.3957C131.481 25.7647 128.101 35.0931 127.773 45.5011C127.755 46.0875 127.837 46.6737 127.88 47.3934C129.907 42.6758 131.779 38.1717 133.766 33.7206C137.127 26.2045 140.272 19.2077 143.639 11.6915C144.18 10.4921 144.765 9.06654 144.954 7.37407ZM121.355 99.3935C121.963 96.2085 121.335 92.2641 120 89.9986C118.036 86.6536 115.719 85.5208 111.916 86.2804C109.038 86.8668 106.929 88.6526 105.114 91.0514C112.801 89.2923 117.776 92.6636 121.355 99.3935ZM102.689 26.8043C101.273 23.4726 101.541 20.1937 102.418 16.8887C102.727 15.7293 101.753 14.8503 100.762 15.4233C98.9866 16.4628 97.1622 17.5689 95.7643 19.0348C94.325 20.5407 94.7688 22.5796 96.5266 23.6457C98.4962 24.8451 100.648 25.7381 102.689 26.8043ZM104.18 25.0447C105.761 22.4727 108.362 19.6876 109.66 17.2089C110.363 15.8629 109.627 14.9569 108.09 14.7303C107.62 14.6637 106.435 14.7037 105.683 14.7037C104.008 14.7037 103.271 16.6223 103.511 18.2748C103.863 20.7002 103.514 22.526 104.18 25.0447ZM104.728 26.5505C107.029 26.897 109.523 27.3102 111.47 25.6844C113.383 24.0852 113.763 22.4063 112.526 19.6478C112.381 19.3279 112.163 19.0078 111.867 18.7146C111.642 18.4881 111.283 18.4617 111.029 18.6483C110.786 18.8348 110.551 19.021 110.377 19.2476C109.289 20.6602 108.273 22.1261 107.192 23.552C106.411 24.5782 105.537 25.5377 104.728 26.5505ZM146.544 63.1191V52.6973C145.178 53.4169 144.303 53.7903 143.508 54.2967C141.839 55.3495 141.324 56.9886 142.463 58.5745C143.65 60.227 145.19 61.6398 146.544 63.1191ZM104.808 27.8831C105.148 31.8278 108.375 33.9068 111.132 31.9878C111.648 31.628 111.835 30.3752 111.848 29.8821C111.885 28.4162 110.786 28.0835 110.088 27.9768C108.371 27.697 106.581 27.8831 104.808 27.8831ZM102.697 28.0569C100.703 27.1507 98.7694 26.0975 96.7371 25.2979C96.288 25.1113 95.5364 25.0447 95.1113 25.6577C94.2877 26.8438 93.7547 28.1899 94.4103 29.1761C94.7848 29.7358 95.6017 29.9354 96.1361 29.8288C98.351 29.3757 100.505 28.6299 102.697 28.0569ZM149.839 61.4929C153.034 57.9214 154.232 55.1229 151.901 52.2177C151.377 51.5647 150.003 51.178 149.126 51.3113C147.906 51.5112 147.71 52.6971 147.944 53.8432C150.843 54.0431 151.223 54.5632 150.832 57.575C150.74 58.268 149.947 60.4135 149.839 61.4929ZM155.123 54.8694C154.897 58.3609 151.589 59.9203 150.098 63.0787C151.494 62.6123 152.49 62.3056 153.47 61.9458C156.661 60.7864 158.292 59.8404 155.592 55.7758C155.403 55.4959 155.279 55.1759 155.123 54.8694ZM103.213 29.0427C101.463 29.6157 99.9795 30.0024 98.6002 30.6155C97.5034 31.0952 97.3462 32.6674 98.1871 33.2404C101.309 35.3993 102.758 34.7197 103.125 30.9083C103.169 30.4419 103.17 29.9889 103.213 29.0427ZM86.8315 110.641C82.8842 109.508 79.4886 107.483 76.4262 104.018C78.0986 109.828 82.2232 111.734 86.8315 110.641ZM88.4294 94.996C89.0424 92.9704 88.7532 92.0774 87.2846 91.5844C85.3829 90.9447 83.7957 91.5041 83.232 92.9834C82.6003 94.6625 83.3147 96.1819 84.7553 96.7816C85.2483 95.5555 85.7427 94.3428 86.2345 93.1434C86.9434 93.7431 87.6538 94.3297 88.4294 94.996ZM119.776 41.0099C121.278 39.3174 122.404 37.7586 123.252 35.693C123.818 34.307 122.62 32.6011 121.157 32.2546C121.122 32.2546 121.087 32.2409 121.054 32.2409C120.414 32.1743 119.912 32.7878 120.056 33.4142C120.073 33.4941 120.092 33.5737 120.108 33.6536C120.292 34.4799 120.382 35.2929 120.338 36.1192C120.249 37.9183 119.721 39.1975 119.776 41.0099ZM88.2561 109.335C85.2443 106.31 81.7555 105.098 77.7655 103.965C79.8551 106.67 84.4261 108.989 88.2561 109.335ZM147.771 62.0525C147.979 63.4385 148.336 63.9317 148.707 61.8795C149.053 60.1603 149.448 58.4414 149.711 56.7089C149.747 56.4824 149.646 56.2154 149.521 55.9489C149.362 55.6291 148.967 55.4962 148.641 55.6561C148.359 55.8027 148.102 55.9488 148.003 56.1753C147.657 56.9483 147.367 57.8547 147.411 58.6942C147.465 59.7337 147.517 61.0264 147.771 62.0525ZM118.837 40.4503C119.184 38.6645 119.118 36.079 119.402 34.6264C117.536 35.7192 117.653 38.3714 118.837 40.4503Z" fill="#FAFAFA"/>
<path fill-rule="evenodd" clip-rule="evenodd" d="M99.4678 154.952C99.3439 155.045 99.164 155.032 99.0573 154.912C98.2031 154.006 97.2956 153.126 96.5373 152.126C95.134 150.287 93.836 148.368 92.4994 146.476C92.2248 146.09 91.933 145.703 91.7184 145.277C90.9042 143.691 91.1161 142.012 92.1795 141.399C93.3003 140.746 95.6298 141.599 96.2681 143.064C96.7079 144.077 96.9638 145.237 97.0251 146.343C97.181 149.288 97.3515 152.18 99.5091 154.499C99.6304 154.632 99.6104 154.845 99.4678 154.952ZM95.755 148.395C95.7964 148.382 95.8377 148.369 95.8803 148.355C96.0082 148.302 96.0882 148.182 96.0789 148.049C96.0362 147.249 96.0829 146.423 95.8417 145.69C95.5072 144.677 95.0074 143.651 94.3424 142.824C94.1265 142.558 93.6588 142.291 92.8552 142.678C92.7179 142.758 92.6246 142.811 92.5593 142.958C92.3434 143.411 92.3621 143.998 92.5673 144.331C93.4309 145.703 94.4397 146.982 95.4032 148.288C95.4832 148.408 95.6258 148.448 95.755 148.395Z" fill="#FAFAFA"/>
<path fill-rule="evenodd" clip-rule="evenodd" d="M151.389 218.306C150.71 218.426 150.019 218.48 149.361 218.666C137.6 221.944 125.812 224.956 113.469 225.116C106.831 225.209 100.321 224.717 93.9905 222.678C84.5553 219.653 75.7278 215.321 67.2615 210.204C60.3357 206.019 54.2161 200.995 49.4546 194.345C47.3743 191.44 46.3108 188.482 46.8759 184.977C47.1131 183.511 47.325 182.005 47.8341 180.605C49.5345 175.955 57.1093 163.734 59.2562 158.577C59.2642 158.604 59.2589 158.617 59.2722 158.63C60.0252 159.39 61.2246 159.617 61.8389 159.71C66.959 160.416 71.5966 162.841 75.6199 165.773C81.213 169.851 86.501 174.009 89.7393 180.486C89.8873 180.779 90.0898 181.086 90.347 181.285C85.2336 179.326 73.8075 175.582 70.7357 173.849C67.1935 171.877 63.9619 169.558 60.7342 167.092C61.8669 170.077 63.2995 172.103 70.7357 175.928C77.0512 179.167 88.9597 183.058 91.7783 182.685C92.3433 182.498 92.5672 182.391 92.7191 181.938C92.8431 181.552 92.9644 180.753 92.9337 180.393C92.35 173.623 90.9054 167.039 88.4733 160.696C87.5298 158.244 86.2345 155.965 83.6891 154.659C82.4404 154.006 81.289 153.139 80.1949 152.233C77.6562 150.168 75.1615 149.475 71.6752 150.181C69.8255 150.554 68.1304 151.514 66.6018 152.62C65.4651 153.446 64.5482 154.792 63.5127 155.791C63.1876 156.111 62.7438 156.285 62.2934 156.258C61.0153 156.165 61.4311 154.565 61.5271 154.126C61.6724 153.473 62.2787 150.741 62.332 150.581C64.7121 143.451 68.265 136.761 71.3581 129.911C73.3957 125.394 76.6527 121.836 80.748 119.064C82.7749 117.678 84.8392 116.358 86.8595 114.972C87.1927 114.746 87.4712 114.44 87.803 114.093C88.0016 113.88 87.875 113.506 87.5844 113.506C87.5631 113.506 87.5472 113.506 87.5312 113.506C82.4244 116.292 77.3977 119.21 73.6969 123.834C69.8748 128.619 67.8292 134.349 65.3971 139.867C65.0919 140.559 64.7388 141.226 64.4069 141.905C64.255 141.879 61.4005 148.729 61.1526 149.608C61.1393 149.662 61.126 149.701 61.114 149.755C60.2677 151.834 57.3412 159.456 57.2066 159.763C55.7034 163.148 54.2081 165.226 53.0727 167.092C50.4421 171.41 49.6905 172.916 47.8101 177.42C47.7448 177.58 45.5326 184.31 45.4286 186.882C45.33 189.428 45.995 191.773 47.3956 193.839C48.6643 195.718 50.0809 197.517 51.6295 199.156C56.4897 204.327 61.9509 208.764 68.1863 212.203C70.2373 213.335 71.4607 215.121 71.514 217.4C71.6099 221.491 71.554 225.609 71.3061 229.714C71.2448 230.713 70.4265 232.02 69.5643 232.566C56.0579 241.135 48.8362 253.275 47.9887 269.307C47.2144 283.939 49.8584 298.279 51.1444 312.738C52.1585 324.105 52.9888 335.513 51.8774 346.948C51.7934 347.814 51.8654 348.707 51.8654 349.586C52.1319 349.613 52.3957 349.613 52.6623 349.626C53.0048 346.814 53.5938 344.002 53.6484 341.177C53.903 328.064 53.1487 314.977 51.3323 301.997C49.9063 291.789 48.9868 281.567 49.1721 271.253C49.3453 261.538 51.9026 252.636 57.9209 244.84C62.3893 239.056 67.5893 234.245 74.6884 231.9C82.6749 229.261 90.8468 227.608 99.2865 227.448C99.2918 227.448 99.2958 227.448 99.2998 227.448C99.8169 227.421 99.8089 226.649 99.2918 226.609C90.2404 226.036 81.7448 227.901 72.9892 230.407L72.7813 214.988C73.0319 215.082 73.469 215.241 73.8914 215.428C78.8409 217.68 83.7517 219.999 88.7412 222.144C95.4778 225.036 102.602 226.369 109.886 226.316C116.987 226.263 124.127 226.195 131.1 224.476C137.422 222.93 143.738 221.358 150.049 219.746C150.619 219.599 151.111 219.159 151.638 218.853C151.554 218.666 151.472 218.493 151.389 218.306ZM68.3756 159.896C74.1486 157.617 82.1379 163.295 85.0551 171.85C79.7538 166.333 76.7473 163.707 68.3756 159.896ZM63.5208 157.897C63.5221 157.897 63.5221 157.897 63.5221 157.897C66.2513 153.792 68.3583 152.1 72.808 151.194C75.0535 150.728 77.0965 151.501 78.9289 152.887C80.3895 153.993 82.0166 154.899 83.3999 156.085C84.594 157.111 85.884 158.257 86.5503 159.63C89.698 166.133 90.9534 173.143 91.9369 180.219C91.9662 180.805 91.7783 180.992 91.2159 180.06C90.6336 179.087 90.0645 178.22 89.5235 177.234C87.3859 173.316 85.3509 169.624 83.0934 165.76C79.6312 159.856 74.3099 157.631 67.6053 158.417C66.6045 158.537 65.5864 158.564 64.5762 158.577C64.407 158.577 64.1897 158.564 63.9751 158.55C63.658 158.51 63.4381 158.204 63.5208 157.897Z" fill="#FAFAFA"/>
<path fill-rule="evenodd" clip-rule="evenodd" d="M87.3566 144.477C88.0762 146.863 88.5467 147.343 90.7362 147.196C91.0867 147.169 91.3679 147.516 91.236 147.836C91.22 147.876 91.2013 147.902 91.1773 147.902C89.1504 148.488 88.6466 150.088 87.3793 151.154C85.6135 152.646 83.5572 152.393 82.9389 150.661L82.9362 150.647C82.8296 150.341 83.1521 150.075 83.4346 150.221C84.0556 150.568 84.654 150.954 85.2044 150.887C85.984 150.808 86.7542 150.155 87.4232 149.608C88.1962 148.995 88.1042 148.342 87.4966 147.462C85.6788 144.863 85.347 141.786 85.1964 138.721C85.1857 138.454 85.5508 138.387 85.6255 138.64C86.2065 140.586 86.7702 142.532 87.3566 144.477Z" fill="#FAFAFA"/>
<path fill-rule="evenodd" clip-rule="evenodd" d="M285.615 95.2891C287.345 93.1036 289.424 91.1712 291.496 89.2922C299.39 82.1625 302.567 73.0608 302.752 62.6795C302.811 59.3478 302.815 56.0028 302.827 52.6579C302.828 52.3247 302.701 51.9915 302.627 51.6317C300.808 53.7639 299.21 55.9627 297.284 57.8284C292.556 62.4128 289.332 67.8497 287.76 74.1931C286.941 77.4848 286.456 80.8831 286.076 84.2681C285.133 92.6638 281.424 99.7273 276.084 106.097C272.134 110.815 268.15 115.532 264.461 120.449C261.781 124.021 259.559 127.953 257.142 131.724C256.826 132.217 256.384 133.004 255.701 133.75C255.723 133.15 255.681 132.524 255.735 132.204C256.617 127.033 256.927 121.716 259.773 117.065C259.79 117.025 259.807 116.998 259.822 116.958C260.171 116.185 259.309 115.386 258.532 115.745C258.425 115.799 258.332 115.852 258.255 115.932C254.606 119.664 251.014 123.448 247.408 127.206C247.555 126.087 247.668 124.968 247.835 122.955C248.141 116.092 248.802 109.309 252.128 103.152C254.511 98.7406 257.17 94.4762 259.849 90.2383C263.351 84.6945 265.171 78.0447 270.639 73.7936C270.658 73.7802 270.675 73.7669 270.688 73.7402C273.534 69.8755 271.973 65.4647 267.35 64.3186C266.313 64.0654 265.228 63.932 264.16 63.9054C262.916 63.8788 261.838 64.3983 261.672 65.7443C261.514 67.0103 260.833 67.5303 259.749 68.0101C256.705 69.3694 256.088 71.5283 257.882 74.3935C258.704 75.6995 259.817 76.8318 260.605 78.1644C261.832 80.23 262.991 82.3893 261.572 84.868C260.855 86.1074 260.074 87.3064 259.298 88.5191C255.3 94.756 250.998 100.833 248.7 107.99C248.578 108.363 248.033 108.336 247.965 107.936C247.56 105.617 247.186 103.485 246.811 101.353C245.371 93.144 244.636 85.454 241.996 77.5247C240.466 72.9404 237.405 66.8107 232.814 62.9859C228.158 59.1079 219.808 56.5492 219.808 57.6287C219.808 58.4016 225.094 60.0409 227.46 61.4535C231.286 63.759 235.416 68.3962 236.64 70.635C239.681 76.2322 240.28 77.925 241.996 83.6421C244.292 91.3048 245.568 100.487 246.369 108.669C246.956 114.679 246.223 120.823 246.053 126.9C246.041 127.38 246.045 127.966 246.06 128.592C245.908 128.739 245.75 128.899 245.59 129.059C243.412 131.951 242.777 132.924 241.43 135.669C235.985 146.757 235.268 158.243 238.125 170.091C238.98 173.622 239.98 177.141 241.077 180.606C242.305 184.497 242.08 188.402 241.568 192.333C241.339 194.106 241.015 195.838 240.609 197.531C238.312 200.609 235.2 202.341 231.757 203.501C232.345 202.328 232.221 200.875 231.059 199.769C230.747 199.476 230.665 198.73 230.762 198.237C231.244 195.864 230.755 195.132 228.464 194.505C227.661 194.279 226.9 193.692 226.263 193.119C224.722 191.72 222.87 191.573 221.255 192.853C220.93 193.106 220.648 193.493 220.278 193.613C218.936 194.079 217.722 194.585 217.366 196.184C216.878 198.383 216.395 200.702 217.801 202.608C220.443 206.193 219.689 206.366 217.04 209.204C213.331 213.189 209.268 216.654 204.911 219.679C208.907 213.962 207.799 207.512 201.909 203.314C200.012 201.968 198.135 200.582 196.317 199.129C194.852 197.957 194.09 196.304 194.636 194.492C196.269 189.095 198.528 184.03 203.885 181.219C206.741 179.713 209.677 178.367 212.595 176.994C220.621 173.209 226.633 167.559 229.464 158.923C231.504 152.7 232.188 146.316 231.687 139.8L231.686 139.787C231.6 138.814 230.233 138.6 229.84 139.493C229.817 139.533 229.798 139.587 229.786 139.64C228.827 142.852 227.317 145.784 224.942 148.116C220.683 152.3 216.369 156.431 211.876 160.363C207.041 164.574 203.319 169.398 201.232 175.568C199.824 179.726 197.704 183.644 195.976 187.696C194.948 190.108 193.745 192.48 193.147 195.025C192.867 196.211 192.867 196.584 192.923 197.637C190.151 196.105 189.027 192.853 188.497 190.241C187.451 185.057 188.941 180.366 191.469 175.982C194.786 170.238 198.275 164.587 201.779 158.95C202.183 158.297 203.201 156.565 203.664 155.752C208.087 148.675 211.071 136.095 211.085 136.108C211.844 135.229 212.633 134.349 213.45 133.483C215.106 131.751 216.886 130.125 218.464 128.313C219.906 126.66 221.696 126.42 223.632 126.7C225.106 126.913 226.575 127.26 227.998 127.7C230.989 128.633 232.96 128.179 234.399 126.061C234.567 125.807 234.827 125.54 234.825 125.274C235.644 122.182 236.046 121.556 236.56 119.677C237.227 117.238 236.133 115.066 235.061 112.96C234.953 112.747 234.751 112.534 234.539 112.441C233.118 111.788 231.516 111.428 230.818 109.736C230.725 109.509 230.096 109.375 229.733 109.415C227.894 109.575 226.032 109.669 224.241 110.082C223.247 110.295 222.376 111.081 221.457 111.628C221.167 111.801 220.936 112.094 220.633 112.227C218.696 113.093 218.047 114.039 218.186 116.172C218.27 117.504 218.534 118.811 218.714 120.13C218.819 120.916 218.928 121.689 219.076 122.475C219.513 124.767 218.733 126.433 217.088 128.139C215.174 130.125 213.244 132.111 211.401 134.176C211.886 131.378 212.195 128.526 212.317 125.634C212.579 119.41 211.874 113.107 211.219 106.87C210.925 104.111 211.393 102.006 213.39 100.18C214.044 99.5935 214.704 98.9943 215.329 98.3813C216.536 97.1686 217.853 96.0619 218.985 94.7959C220.679 92.8902 220.767 91.518 219.577 89.2792C219.389 88.9327 219.389 88.4797 219.241 88.1066C218.781 86.9205 218.531 85.5474 217.761 84.6012C216.375 82.8954 214.688 81.4428 213.079 79.9369C212.763 79.6437 212.076 79.2978 211.821 79.4443C209.921 80.5238 208.147 79.6841 206.329 79.2576C206.059 79.1909 205.708 79.2444 205.451 79.3643C202.89 80.5637 200.267 81.8029 199.104 84.5882C198.824 85.2545 198.624 85.801 198.436 86.334C197.519 85.1347 196.589 83.9487 195.639 82.776C195.098 82.0963 194.503 81.3895 194.247 80.6033C193.025 76.8185 191.966 73.0204 194.349 69.249C194.751 68.6093 195.127 67.8503 195.176 67.1173C195.255 65.9446 195.295 64.6647 194.903 63.5852C194.458 62.3592 193.184 61.7862 191.887 61.9728C191.178 62.0661 190.057 62.5726 189.955 63.079C189.55 65.038 188.745 67.2635 190.061 68.9959C191.533 70.9416 191.837 73.0204 191.992 75.2726C192.08 76.512 192.5 77.7384 192.687 78.9778C188.869 75.233 185.056 71.5013 181.129 67.6632C181.539 67.49 181.8 67.3703 182.068 67.2637C185.099 66.0776 185.568 64.1851 183.547 61.693C183.274 61.3465 183.338 60.5739 183.497 60.0942C184.411 57.2423 183.034 54.1368 180.289 52.9774C180.107 52.8974 179.868 52.8041 179.791 52.6442C178.542 50.1255 176.463 50.5786 174.521 51.3649C173.182 51.9113 172.189 53.0178 170.614 53.4309C169.395 53.7508 168.299 55.2564 167.552 56.4958C165.899 59.201 165.89 60.9733 168.197 62.999C166.869 67.0103 167.768 68.5828 171.456 68.6894C172.132 70.5818 172.768 70.8886 175.925 70.7021C178.533 70.5421 177.668 68.3428 178.005 66.8635C181.21 68.1295 196.539 84.3882 197.394 87.5066C196.15 86.787 195.04 86.0807 193.882 85.481C190.563 83.7618 187.194 82.0691 183.334 82.2157C182.203 82.2557 181.023 82.6558 179.981 83.2022C179.684 83.3621 178.75 84.0947 179.088 85.1608C179.432 86.2536 180.66 85.814 181.11 85.7074C182.079 85.4809 182.747 85.0143 183.555 84.5479C184.578 83.9748 185.986 83.4956 186.971 83.7755C190.79 84.8816 194.473 86.3871 197.578 88.7592C197.335 89.4123 197.033 90.1716 196.619 91.1311C196.428 91.3843 196.469 91.8241 196.445 92.1839C196.246 95.2357 197.764 97.1153 201.266 98.4347C202.932 99.061 204.573 99.8202 206.116 100.7C208.139 101.872 209.649 103.405 209.795 106.017C209.951 108.883 210.432 111.721 210.715 114.586C212.077 128.406 209.702 141.572 203.085 153.779C202.816 154.273 202.543 154.779 202.267 155.259C197.015 153.34 192.03 150.741 187.31 147.529C183.938 144.757 182.557 140.786 181.382 136.642C180.229 132.564 178.999 128.486 175.971 125.274C174.827 124.061 173.606 122.888 172.666 121.529C169.645 117.158 165.846 113.68 160.996 111.507C156.988 109.722 152.763 108.856 148.448 110.442C143.868 112.121 142.215 117.318 144.638 122.342C145.351 123.808 146.285 125.181 147.245 126.82C145.463 126.673 143.881 126.42 142.305 126.46C140.728 126.5 139.085 126.54 137.623 127.633C148.179 125.767 154.827 131.191 159.984 139.466C158.912 135.775 156.072 132.204 151.734 129.099C148.887 127.06 146.724 124.581 145.442 121.276C143.247 115.625 146.233 111.095 152.298 110.961C158.36 110.815 163.161 113.493 167.597 117.358C170.34 119.743 171.408 122.529 171.219 126.047C171.09 128.432 171.105 130.831 171.192 133.216C171.444 140 175.042 145.25 180.594 147.116C182.512 147.769 184.392 148.529 186.318 149.142C186.748 149.275 187.356 149.515 187.981 149.608C188.881 150.221 189.75 150.674 190.673 151.234C194.189 153.339 197.951 154.792 201.7 156.192C198.328 162.082 194.438 168.052 191.005 173.929C190.545 174.702 190.105 175.502 189.691 176.288C190 174.263 190.272 172.09 190.049 169.905C189.855 167.999 188.612 165.28 188.358 164.827C187.605 163.521 185.327 160.549 184.6 159.763C183.927 159.03 183.174 158.27 182.292 157.671C182.054 156.311 181.329 154.992 180.229 154.099C178.535 152.726 177.124 152.78 174.771 154.073C173.858 154.579 172.761 155.179 171.809 155.085C167.173 154.646 162.55 154.046 157.941 153.38C156.758 153.207 155.642 152.566 154.584 152.18C159.464 151.913 164.245 151.647 169.057 151.381C169.059 151.248 169.059 151.301 169.063 151.168C165.915 150.888 162.745 151.154 159.594 151.007C157.455 150.914 155.242 150.968 153.203 150.421C148.348 149.128 144.45 146.17 141.172 142.252C138.74 139.334 136.102 136.588 133.221 134.123C132.476 133.483 131.988 133.083 130.988 132.737C130.974 132.723 130.962 132.737 130.952 132.737C130.949 132.737 130.948 132.737 130.946 132.737C130.65 132.883 130.517 133.216 130.737 133.47C130.97 133.723 131.184 133.95 131.29 134.056C134.516 137.321 137.772 140.559 140.963 143.851C141.429 144.331 141.755 145.064 141.885 145.744C142.53 149.075 142.806 152.513 143.764 155.765C144.557 158.443 144.178 160.602 142.764 162.841C141.954 164.134 141.934 165.52 143.041 166.813C143.954 167.879 144.801 168.998 145.588 170.158C146.508 171.517 147.6 172.41 149.344 172.183C151.224 171.944 153.9 169.611 154.33 167.759C154.664 166.319 153.995 165.294 152.815 164.627C152.044 164.188 151.171 163.921 150.323 163.641C148.014 162.855 146.39 161.389 145.721 159.003C145.078 156.711 144.414 154.419 143.924 152.087C143.568 150.395 143.477 148.635 143.22 146.543C145.079 148.009 146.525 149.342 148.158 150.394C149.713 151.394 150.431 152.646 150.659 154.459C151.363 160.016 153.984 164.254 159.436 166.32C161.784 167.199 164.173 167.986 166.808 168.905C164.712 161.815 160.359 157.138 154.208 153.94C156.489 154.233 158.636 154.645 160.771 155.125C162.286 155.472 163.847 155.725 165.273 156.311C167.578 157.244 169.926 158.177 170.645 161.069C170.875 161.989 171.56 162.948 172.361 163.561C173.514 164.454 173.514 164.454 173.446 163.042C173.401 162.042 173.159 160.856 172.532 160.229C170.929 158.617 169.063 157.271 167.282 155.791C169.267 155.338 171.027 156.045 172.454 157.498C173.449 158.51 174.25 159.723 175.089 160.883C176.422 162.708 180.67 162.628 181.887 160.723C181.983 160.576 182.062 160.403 182.119 160.243C182.271 159.803 182.351 159.337 182.369 158.857C188.921 166.52 189.672 171.224 187.043 183.058C187.043 183.431 186.75 184.884 186.88 184.644C186.67 186.363 186.702 188.108 187.056 189.934C188.113 195.371 190.295 200.063 196.27 201.862C198.059 202.408 199.755 203.447 201.32 204.513C205.339 207.245 206.814 211.07 205.463 215.575C204.555 218.6 202.579 221.039 199.996 222.798C200.981 221.425 202.187 219.04 202.335 216.681C202.416 215.375 201.254 214.055 200.383 212.749C199.63 211.617 195.091 209.524 194.87 209.444C190.295 208.018 186.01 208.685 182.512 211.937C179.295 214.922 175.737 215.695 171.61 214.908C171.062 214.802 170.47 214.882 169.9 214.882C170.264 215.561 170.646 215.881 171.076 215.974C175.074 216.854 178.919 216.827 182.232 213.936C182.994 213.269 183.721 212.536 184.555 211.963C186.318 210.777 188.214 209.924 190.672 209.924C189.91 212.856 188.682 215.121 186.223 216.254C183.316 217.587 180.211 218.48 177.245 219.692C176.376 220.052 175.657 220.772 174.884 221.358C174.792 221.438 174.777 221.571 174.855 221.665H174.857C174.925 221.745 175.041 221.758 175.125 221.691C175.862 221.185 176.558 220.572 177.368 220.252C178.855 219.666 180.408 219.226 181.96 218.839C185.953 217.84 189.361 216.081 191.016 212.017C192.215 209.085 192.342 209.018 195.393 210.297C195.449 210.311 199.699 212.136 201.134 215.001C201.699 216.134 201.886 216.694 201.51 218.2C201.32 218.959 199.414 222.398 198.849 223.491C195.763 225.25 192.559 226.835 189.253 228.248C189.27 228.261 189.287 228.261 189.306 228.275C184.392 230.034 179.208 230.873 173.698 230.5C168.367 230.14 163.263 228.995 159.322 224.93C157.554 223.118 157.25 221.345 158.31 219.079C158.562 218.533 158.74 217.96 158.951 217.4C158.727 217.267 158.5 217.147 158.275 217.027C157.679 218.013 156.852 218.933 156.528 220.013C155.458 223.531 158.083 225.543 160.234 227.861C150.05 231.939 142.51 238.456 138.397 248.558C138.055 249.397 137.027 249.73 136.268 249.237C130.754 245.639 125.918 241.268 121.287 236.63C121.035 236.377 120.646 236.724 120.873 237.004H120.879C122.91 239.429 124.855 241.948 127.028 244.227C129.682 247.025 131.611 250.184 132.705 253.862C135.485 263.204 136.2 272.652 133.951 282.207C133.045 286.072 131.882 289.804 129.363 293.002C127.112 295.867 124.939 298.812 122.893 301.824C116.047 311.899 112.672 322.893 113.859 335.193C114.154 338.245 114.159 341.47 113.465 344.429C110.591 356.596 105.691 367.883 97.7752 377.705C95.3378 380.73 95.2739 381.503 91.3505 379.397C89.2636 378.278 87.0394 379.078 84.9311 379.878C83.3999 380.451 83.0627 381.73 82.8002 383.129C82.7282 383.502 82.3911 383.835 82.1819 384.195C81.1451 385.981 81.5529 387.793 83.1574 389.112C83.8197 389.659 84.51 390.339 84.8419 391.098C85.7814 393.284 86.5769 393.657 88.8664 392.844C89.3302 392.684 90.0859 392.658 90.427 392.924C92.6672 394.697 95.5484 393.044 95.7603 390.299C95.8829 388.753 95.9882 387.207 96.0028 385.661C96.0255 383.356 96.3906 381.357 97.9725 379.384C100.843 375.813 103.263 371.881 105.876 368.097C105.999 367.923 106.126 367.737 106.27 367.551C106.476 367.271 106.921 367.444 106.88 367.79C105.832 376.306 105.691 384.422 106.38 392.565C106.484 393.777 106.263 395.057 106.064 396.283C105.678 398.681 104.972 401.053 104.836 403.465C104.736 405.264 105.395 407.277 107.374 407.81C109.081 408.263 111.206 408.943 112.373 406.531C112.482 406.304 112.991 406.237 113.327 406.144C116.158 405.425 117.041 403.106 115.074 400.92C113.784 399.481 112.144 398.295 110.497 397.255C108.734 396.149 107.609 394.856 107.622 392.684C107.661 385.635 107.537 378.572 107.714 371.522C107.794 368.337 108.627 365.178 108.998 361.993C109.112 361.993 109.077 361.993 109.189 361.993C109.38 363.166 109.69 364.326 109.878 365.498C110.18 367.391 110.302 369.323 110.759 371.162C111.804 375.373 112.748 379.357 116.018 382.423C116.582 382.796 116.999 382.916 117.145 382.982C118.294 383.475 119.327 382.329 119.28 381.09C119.275 380.943 119.256 380.81 119.219 380.677C118.485 378.105 116.343 376.666 114.419 375.053C113.579 374.347 112.524 373.481 112.301 372.508C110.883 366.364 109.221 360.261 112.032 353.931C113.561 350.479 114.283 346.681 115.426 342.843C115.71 343.469 115.974 344.043 116.218 344.616C118.354 349.613 120.465 354.61 122.656 359.594C122.7 359.688 122.766 359.781 122.849 359.861C123.45 360.474 124.536 360.034 124.483 359.181C124.482 359.141 124.476 359.101 124.472 359.074C123.45 353.717 125.033 348.627 126.027 343.483C126.09 343.163 126.353 342.59 126.541 342.017C126.916 342.963 127.054 343.856 127.176 344.415C128.108 348.8 128.807 353.251 130.053 357.556C131.771 363.459 133.844 369.269 135.878 375.066C138.629 382.916 139.611 390.845 137.538 399.027C136.702 402.319 135.96 405.677 135.564 409.049C134.804 415.539 135.902 421.763 138.714 427.72C139.858 430.145 140.577 432.771 141.53 435.409C141.725 435.089 141.961 434.823 142.079 434.516C143.247 431.385 144.419 428.253 145.541 425.094C149.024 415.326 149.257 405.691 144.383 396.229C143.101 393.737 141.839 391.205 140.989 388.553C139.098 382.636 137.5 376.625 135.725 370.682C135.039 368.376 134.199 366.111 133.429 363.832C134.243 364.565 134.694 364.978 134.995 365.325C138.965 369.776 143.329 373.028 148.336 376.213C149.779 377.146 151.405 377.625 153.034 378.132C154.859 378.438 155.175 378.172 155.522 377.719C155.618 377.599 155.694 377.452 155.724 377.305C155.919 376.319 154.753 375.12 154.725 375.093C153.318 373.894 151.909 373.68 150.467 373.48C147.573 373.054 144.83 372.508 142.643 370.362C141.707 369.443 140.584 368.723 139.638 367.804C136.05 364.365 132.259 360.954 131.01 355.93C129.672 350.546 128.703 345.068 127.796 339.578C127.547 338.072 127.86 336.353 128.322 334.847C129.572 330.796 131.076 326.825 132.418 322.8C134.71 315.923 136.941 309.033 136.237 301.597C135.982 298.919 135.744 296.227 135.743 293.548C135.74 289.017 135.617 284.446 136.102 279.955C137.254 269.307 136.678 258.939 132.211 249.024C132.202 249.011 132.195 248.984 132.187 248.971C132.038 248.491 132.628 248.118 133.019 248.438C136.51 251.263 139.741 253.808 142.867 256.46C153.819 265.789 162.272 277.117 168.562 289.95C171.218 295.374 172.682 301.384 174.655 307.141C174.841 307.688 175.106 308.367 175.396 309.087C175.645 309.687 176.555 309.406 176.422 308.767C176.006 306.754 175.769 305.755 174.939 302.823C172.818 296.28 171.063 289.697 172.023 282.767C172.71 277.81 173.703 272.879 174.728 267.974C176.067 261.551 175.438 254.688 179.072 248.784C179.08 248.771 179.091 248.744 179.099 248.717C180.413 244.106 177.401 240.509 172.672 241.068C171.61 241.188 170.546 241.441 169.537 241.801C168.363 242.201 167.538 243.081 167.854 244.4C168.151 245.639 167.689 246.345 166.844 247.185C164.468 249.517 164.649 251.756 167.333 253.822C168.562 254.754 170.002 255.434 171.206 256.394C173.079 257.9 174.925 259.526 174.457 262.324C174.222 263.75 173.91 265.149 173.607 266.549C172.051 273.798 170.149 280.995 170.506 288.511C170.523 288.897 170 289.057 169.801 288.711C168.606 286.672 167.508 284.819 166.41 282.94C162.184 275.757 157.471 268.907 151.616 262.95C148.019 259.299 144.136 255.914 140.308 252.489C139.241 251.543 138.804 250.757 139.394 249.291C143.351 239.482 150.524 233.059 160.259 229.368C161.176 229.008 162.434 229.328 163.467 229.594C165.311 230.061 167.069 230.9 168.924 231.287C176.275 232.806 183.442 231.979 190.399 229.247C190.7 229.128 191 229.008 191.301 228.888C191.304 228.888 191.307 228.888 191.31 228.888C191.347 228.874 191.385 228.861 191.422 228.848C194.242 227.715 197.009 226.502 199.501 224.85C204.188 223.344 209.068 223.904 213.956 224.317C214.941 224.41 215.948 225.329 216.769 226.062C218.646 227.741 220.377 229.648 223.021 230.007C223.157 230.034 223.297 230.034 223.438 230.02C224.678 229.887 225.654 228.701 225.009 227.635C224.926 227.502 224.742 227.102 224.291 226.596C220.802 223.797 216.72 223.424 212.403 222.984C210.508 222.798 208.584 222.944 206.673 222.917C205.482 222.904 204.292 222.757 203.1 222.731C203.087 222.624 203.091 222.651 203.077 222.544C206.172 221.732 209.19 220.452 212.333 219.919C219.284 218.746 226.286 217.867 233.262 216.827C235.416 216.508 236.848 217.44 238.194 219.026C239.452 220.519 240.861 221.972 242.467 223.038C244.919 224.677 247.09 223.477 247.399 220.572C247.437 220.226 247.428 219.706 247.639 219.573C249.87 218.08 248.886 216.068 248.192 214.442C247.387 212.549 245.301 212.189 243.542 212.536C241.175 213.016 238.925 214.055 236.6 214.775C235.414 215.148 234.19 215.548 232.962 215.614C224.805 216.094 216.795 217.387 208.511 219.626C208.176 219.719 207.938 219.306 208.187 219.053C208.36 218.88 208.517 218.733 208.676 218.586C212.049 215.468 215.602 212.51 218.731 209.165C220.458 207.312 222.385 206.673 224.657 206.326C225.785 206.153 226.904 205.926 228.019 205.687C228.031 205.713 232.239 204.554 234.299 203.861C238.473 202.435 242.535 200.609 246.788 199.516C253.104 197.903 258.187 194.545 262.756 190.041C267.003 185.856 271.453 181.872 275.942 177.927C278.444 175.742 281.484 174.449 284.762 173.743C285.35 173.609 285.835 173.01 286.368 172.636C285.825 172.357 285.309 171.917 284.737 171.837C278.279 170.837 271.861 171.05 265.503 172.61C256.685 174.782 250.596 180.366 246.221 188.082C245.28 189.747 244.347 191.414 243.389 193.053C244.48 189.442 245.9 185.897 247.238 182.365C248.184 179.846 249.355 177.407 250.537 174.995C253.813 168.292 254.153 161.056 254.43 153.806C254.591 149.568 254.586 145.317 254.843 141.08C254.938 139.52 255.251 137.801 256.018 136.468C258.794 131.67 261.636 126.873 264.785 122.302C267.725 118.038 272.474 116.185 277.044 114.226C278.25 113.706 279.558 113.426 280.755 112.893C283.562 111.654 286.319 112.108 289.176 112.734C290.599 113.04 291.992 113.347 293.729 112.72C293.763 112.707 295.28 111.988 295.442 111.015C295.469 110.855 295.448 110.695 295.402 110.548C295.237 110.002 295.033 109.642 293.218 109.282C291.512 109.189 289.821 109.069 288.147 109.415C282.336 110.641 277.105 112.147 271.822 114.919C271.424 115.132 270.855 115.359 269.833 115.759C271.356 113.893 272.938 112.081 274.392 110.162C278.15 105.218 281.761 100.153 285.615 95.2891ZM289.479 88.946C294.651 78.9111 298.201 68.2761 301.315 57.4816C302.424 70.4217 297.716 83.4022 289.479 88.946ZM287.398 83.7618C288.213 77.8315 289.047 75.0197 291.936 67.8767C293.983 64.2252 295.266 61.7066 299.825 56.989C296.579 68.9829 292.63 80.6699 286.01 91.2912C286.479 88.7725 287.051 86.2805 287.398 83.7618ZM265.228 76.4459C265.148 76.9789 264.411 77.0317 264.248 76.5253C263.777 75.0593 263.367 72.9138 263.908 71.5545C264.008 71.3013 264.261 71.1148 264.531 70.9415C264.811 70.7416 265.186 70.795 265.414 71.0482C265.648 71.3015 265.865 71.5677 265.841 71.8076C265.689 73.3535 265.459 74.9 265.228 76.4459ZM262.679 66.0911C262.891 65.7047 263.193 65.2382 263.572 65.0916C264.893 64.5453 268.833 65.8646 269.831 67.0906C271.073 68.6098 271.188 70.622 269.893 72.5943C269.253 73.5538 268.46 74.4198 267.68 75.2993C267.269 75.7524 266.506 75.5258 266.429 74.9128C266.411 74.7662 266.406 74.6196 266.428 74.5263C267.099 71.1413 265.987 68.5829 263.026 66.7971C262.827 66.6772 262.602 66.2244 262.679 66.0911ZM258.684 73.314C257.57 71.5549 257.91 70.3285 259.694 69.2757C260.604 68.756 261.642 68.383 262.667 68.1031C263.881 67.7833 264.406 68.9028 263.94 69.5158C261.833 72.2344 262.8 75.1932 262.958 78.1117C262.979 78.4982 262.478 78.6847 262.247 78.3648C260.92 76.5391 259.73 74.9798 258.684 73.314ZM229.95 145.917C230.982 148.542 229.217 157.204 226.761 162.242C221.995 172.037 212.582 175.701 203.487 179.779C203.419 179.673 203.435 179.7 203.365 179.593C205.657 177.274 207.943 174.955 210.24 172.636C213.607 169.238 217.045 165.907 220.331 162.442C224.784 157.751 228.07 152.327 229.95 145.917ZM201.6 178.38C203.674 171.29 207.582 165.507 213.331 160.789C217.613 157.271 221.512 153.299 225.529 149.461C226.685 148.369 227.506 146.903 228.603 145.744C228.672 145.784 228.655 145.783 228.724 145.823C228.345 146.689 228.162 147.622 227.813 148.489C224.969 155.592 220.042 161.162 214.713 166.453C210.56 170.584 206.465 174.769 202.343 178.927C202.047 179.22 201.532 178.993 201.562 178.58C201.569 178.5 201.58 178.434 201.6 178.38ZM231.761 126.833C229.38 127.473 227.91 126.58 225.134 125.701C224.631 125.541 223.818 125.314 225.17 125.287C228.065 124.754 230.958 124.221 234.051 123.648C233.923 125.354 233.165 126.46 231.761 126.833ZM231.152 114.466C230.69 113.573 231.051 112.867 231.967 112.88C232.725 112.907 233.936 113.52 234.196 114.067C234.897 115.519 235.424 116.838 235.56 118.437C235.74 120.516 234.508 122.169 232.617 122.635C229.783 123.328 226.887 123.755 224.019 124.315C223.949 124.141 223.961 124.181 223.89 124.008C224.468 123.595 225.01 123.129 225.597 122.729C227.117 121.676 228.708 120.716 230.16 119.583C231.945 118.171 232.197 116.492 231.152 114.466ZM225.715 120.716C226.724 119.277 227.677 117.784 228.778 116.412C229 116.132 229.391 115.998 229.79 115.865C230.098 115.759 230.42 115.972 230.448 116.292C230.489 116.785 230.53 117.264 230.304 117.504C229.044 118.837 227.602 119.997 226.23 121.21C226.058 121.05 225.887 120.889 225.715 120.716ZM225.137 110.948C226.423 110.921 227.706 110.748 228.994 110.682C229.455 110.655 230.213 110.828 230.353 111.068C230.585 111.441 230.497 111.841 230.393 112.334C230.292 112.8 230.04 113.28 229.747 113.666C228.161 115.785 226.559 117.878 224.922 119.957C224.568 120.41 224.12 120.783 223.548 121.316C223.368 121.476 223.077 121.382 223.034 121.142C222.644 118.81 222.225 116.865 222.068 114.906C221.881 112.587 222.597 111.001 225.137 110.948ZM219.825 113.813C219.852 113.76 220.177 113.453 220.241 113.453H220.297C220.87 113.493 221.328 113.947 221.365 114.52C221.537 117.092 221.745 119.664 221.793 122.236C221.804 122.729 221.527 123.222 221.276 123.635C221.164 123.821 220.882 123.782 220.842 123.568C220.326 120.863 219.769 118.158 219.369 115.439C219.284 114.853 219.538 114.453 219.825 113.813ZM174.659 52.5642C175.269 52.3776 176.222 52.0315 176.624 51.9649C177.933 51.7516 178.767 52.298 178.541 53.5773C178.124 55.9361 176.724 58.8814 176.099 61.3735C174.909 59.4944 174.72 57.9083 173.808 56.0292C173.187 54.7498 173.294 53.004 174.659 52.5642ZM167.697 58.6548C168.458 57.0956 169.656 55.7231 170.837 54.4304C171.496 53.7108 172.514 54.1636 172.562 55.1898C172.701 58.1083 173.327 60.8399 175.342 63.1987C173.401 62.8522 171.419 62.666 169.507 62.2129C167.804 61.7998 166.915 60.254 167.697 58.6548ZM170.782 67.3438C170.374 67.5703 169.661 67.6099 169.208 67.25C168.422 66.6237 168.508 65.3846 168.871 64.2119C169.063 63.5988 169.692 63.4655 170.104 63.4922C171.967 63.6388 173.811 63.9853 175.669 64.2119C174.028 65.238 172.473 66.4109 170.782 67.3438ZM173.333 69.5959C172.5 69.3293 172.225 68.0234 172.993 67.3438C173.956 66.4908 175.066 65.7977 176.34 64.8782C176.551 65.6512 176.67 66.0378 176.75 66.4243C177.436 69.6227 176.434 70.542 173.333 69.5959ZM176.931 62.453C177.331 61.4269 177.794 60.414 178.166 59.3745C178.679 57.9486 179.128 56.4823 179.649 55.0564C179.733 54.8298 179.877 54.617 180.028 54.4037C180.187 54.1772 180.489 54.1104 180.733 54.2437C181.047 54.4036 181.307 54.6034 181.505 54.83C183.222 56.7623 183.345 58.2151 182.199 60.0142C181.034 61.8399 178.895 62.1465 176.931 62.453ZM177.343 63.5189C178.787 63.0658 180.196 62.4528 181.663 62.2396C182.263 62.1463 183.244 62.1331 183.59 63.3458C183.707 63.7456 183.879 64.8116 183.553 65.238C181.798 67.5036 178.637 66.6506 177.343 63.5189ZM190.961 65.2511C191.106 66.5038 191.829 68.5959 192.003 70.1418C190.505 68.7558 189.726 66.6237 190.961 65.2511ZM192.114 66.2239C191.934 65.5442 191.653 64.9046 191.286 64.2783C191.252 64.2116 191.217 64.1585 191.185 64.1052C190.908 63.6254 191.154 62.9858 191.694 62.8792C191.723 62.8792 191.753 62.8792 191.782 62.8792C193.063 62.7726 194.474 63.8523 194.373 65.1183C194.217 67.0374 193.702 68.5961 192.913 70.3552C192.404 68.8893 192.504 67.7165 192.114 66.2239ZM205.431 98.6611C202.175 97.4484 200.131 97.208 198.36 94.8492C197.314 93.4633 197.407 91.8777 198.545 90.1719C201.037 92.9838 203.369 95.6093 205.704 98.2479C206.96 99.2607 206.02 98.8877 205.431 98.6611ZM208.549 93.5433C208.266 93.5699 207.983 93.5966 207.7 93.6233C207.303 91.4644 206.796 89.319 206.589 87.1468C206.552 86.747 206.948 86.3206 207.347 85.8942C207.61 85.601 208.068 85.6411 208.283 85.9742C208.56 86.3873 208.825 86.8137 208.831 87.2268C208.859 89.3324 208.66 91.4377 208.549 93.5433ZM208.027 83.6551C205.556 84.7878 204.551 86.5605 205.202 89.1991C205.731 91.3314 206.525 93.41 207.185 95.5156C207.439 96.3285 207.607 97.1682 207.846 97.9811C207.659 98.0877 207.691 98.0746 207.505 98.1678C205.218 95.5292 202.804 92.9969 200.645 90.265C199.202 88.4393 199.262 85.9741 200.956 84.1483C202.255 82.749 203.728 81.883 205.456 81.0301C206.099 80.7236 207.694 81.03 208.42 81.563C209.3 82.2161 209.12 83.1487 208.027 83.6551ZM210.153 95.6893C210.005 94.7698 209.861 94.0902 209.857 93.4105C209.842 90.2521 209.879 87.0933 209.938 83.9349C209.95 83.3485 210.058 82.7224 210.308 82.2027C210.571 81.6696 210.783 81.23 211.281 81.0301C211.588 80.9235 212.423 81.31 212.842 81.6698C214.007 82.6826 215.087 83.7885 216.28 84.7613C218.635 86.667 218.14 88.7063 216.261 90.7452C214.668 92.4777 212.847 93.9964 210.766 95.9021C210.55 96.102 210.201 95.9825 210.153 95.6893ZM211.048 99.807C210.854 99.9669 210.55 99.8071 210.584 99.5539C210.658 98.9675 210.759 98.3008 211.127 97.8477C213.067 95.4622 215.15 93.1968 217.201 90.9046C217.658 90.3849 218.426 90.2917 218.993 90.6782C219.013 90.6915 219.032 90.7052 219.051 90.7185C219.112 90.7585 219.191 91.2912 219.172 91.3712C218.971 92.1841 218.917 92.7437 218.406 93.2368C216.028 95.5023 213.521 97.6348 211.048 99.807ZM179.203 145.53C177.415 144.771 175.955 143.411 174.819 141.399C173.792 139.227 172.824 136.882 172.565 134.536C172.231 131.484 172.412 128.365 172.664 125.114C172.692 124.767 173.165 124.661 173.327 124.981C173.788 125.874 174.255 126.753 174.52 127.7C175.386 130.791 175.919 133.976 176.843 137.041C177.665 139.787 178.746 142.439 179.719 145.037C179.839 145.357 179.515 145.664 179.203 145.53ZM184.484 146.916C182.248 145.837 180.342 144.318 179.548 141.946C178.401 138.521 177.749 134.936 176.856 131.418C176.584 130.338 176.273 129.285 176.094 128.126C176.041 127.779 176.486 127.579 176.698 127.859C176.959 128.192 177.689 129.312 177.836 129.699C179.051 132.857 179.736 135.269 180.802 138.494C181.756 141.372 182.836 144.171 184.753 146.583C184.897 146.77 184.694 147.023 184.484 146.916ZM149.276 164.454C152.282 165.96 153.22 165.587 153.408 166.906C153.576 167.466 153.343 168.319 152.282 168.972C150.027 168.025 148.148 167.466 147.021 163.521C147.139 163.388 149.121 164.387 149.276 164.454ZM151.717 169.718C150.871 171.584 147.939 171.717 146.654 170.024C145.616 168.665 144.554 167.319 143.621 165.88C143.309 165.4 143.12 164.574 143.309 164.081C143.738 162.935 144.438 161.896 145.122 160.656C146.083 164.654 147.122 168.572 151.717 169.718ZM154.349 157.138C156.741 159.843 156.792 159.763 159.421 162.388C159.69 162.682 160.601 163.588 161.226 163.867C161.419 163.961 161.599 163.721 161.463 163.561C159.748 161.495 158.482 159.763 157.731 158.817C157.402 158.417 156.517 157.351 156.383 156.764C159.215 158.39 160.866 159.63 162.617 162.388C162.966 162.948 163.556 163.894 164.179 165.054C164.292 165.267 165.246 166.719 164.684 167.092C164.313 167.292 163.367 166.906 162.416 166.559C156.818 164.574 153.22 161.082 151.906 156.192C151.866 156.045 151.72 154.539 151.906 153.94C152.903 155.072 153.521 156.192 154.349 157.138ZM180.842 156.192C178.775 155.445 176.4 155.645 174.359 155.645C176.588 153.553 179.715 153.566 180.842 156.192ZM175.946 160.629C175.16 159.617 174.495 158.51 173.968 157.138C175.687 158.177 178.734 159.083 180.466 160.136C179.339 161.456 177.46 161.829 175.946 160.629ZM177.084 156.938C178.527 156.072 180.893 157.204 181.406 159.203C180.059 158.51 178.157 157.484 177.084 156.938ZM92.0888 382.996C93.095 382.609 92.3327 383.836 92.0289 384.155C91.052 385.195 89.7127 386.554 88.5853 387.114C88.0109 387.407 87.5272 386.714 87.7377 386.114C87.7724 386.007 87.823 385.928 87.8949 385.875C89.5234 384.302 89.9006 383.928 92.0835 382.982L92.0888 382.996ZM84.6966 381.53C86.4037 379.944 89.0957 379.611 91.096 380.544C91.8929 380.917 91.8423 382.076 91.008 382.356C89.161 382.969 87.194 382.569 85.1244 382.583C84.5687 382.583 84.2901 381.903 84.6966 381.53ZM85.852 387.767C85.5748 388.34 84.8845 388.553 84.3221 388.273C83.877 388.033 83.4652 387.793 83.2427 387.42C82.8615 386.794 82.8135 385.661 83.132 385.008C83.4319 384.395 84.3581 383.928 85.0977 383.729C85.4015 383.649 85.7214 383.622 86.0532 383.622C86.8448 383.622 87.3752 384.435 87.0541 385.168C86.8155 385.701 86.553 386.261 86.3304 386.741C86.1612 387.114 86.0292 387.407 85.852 387.767ZM87.7883 391.978C87.7071 391.991 87.6111 391.991 87.5085 391.978C86.6276 391.884 86.0652 391.005 86.2704 390.139C86.4557 389.366 86.8262 388.953 87.2939 388.606C88.0855 388.007 89.049 387.633 90.0099 387.274C90.6629 387.02 91.3199 387.647 91.1066 388.3C90.5629 389.992 89.161 391.711 87.7883 391.978ZM94.4516 390.472C94.1518 392.271 92.7205 392.978 91.4851 392.178C91.1933 391.991 91.0267 391.631 91.2159 390.499C91.5864 388.273 92.6552 386.9 93.552 384.835C93.7426 384.395 94.1424 384.048 94.4463 383.648L94.4516 383.662C94.7621 383.809 94.9487 384.128 94.9287 384.475C94.8074 386.487 94.7808 388.499 94.4516 390.472ZM110.757 398.574C111.945 399.614 113.219 400.56 114.227 401.746C114.703 402.306 114.97 403.225 114.891 404.025C114.855 404.398 114.211 405.451 113.199 404.785C112.636 404.398 112.636 404.398 112.421 404.051C111.478 402.492 110.911 401.48 110.005 398.761C109.631 397.642 110.232 398.001 110.757 398.574ZM108.659 399.534C110.757 400.827 111.781 404.465 110.829 406.33C110.659 406.663 110.198 406.717 109.97 406.424C108.39 404.372 108.502 401.213 108.659 399.534ZM108.446 406.584C108.484 406.797 108.231 407.01 108.066 406.864C105.683 404.785 104.993 401.519 106.7 399.054C106.8 398.921 107.029 398.961 107.062 399.148C107.521 401.613 107.975 404.052 108.446 406.584ZM117.628 380.331C117.848 380.904 117.149 381.383 116.692 380.997C115.558 379.997 114.93 378.612 114.384 377.159C115.914 377.879 117.065 378.878 117.628 380.331ZM142.366 395.856C148.13 403.932 147.96 417.738 142.363 429.466C143.252 418.258 143.676 407.063 142.366 395.856ZM140.797 429.399C138.189 423.375 137.877 420.576 137.25 416.432C137.063 408.729 137.27 405.811 138.596 399.973C139.159 397.481 139.505 394.95 139.948 392.431C142.403 404.705 141.983 417.032 140.797 429.399ZM154.202 376.546C154.358 376.733 154.229 377.012 153.989 377.026C151.489 377.119 148.9 375.653 148.148 374.533C150.658 373.854 152.582 374.6 154.202 376.546ZM121.476 353.344C109.706 330.209 114.849 312.005 131.287 293.268C130.746 295.107 130.177 296.947 129.672 298.812C127.348 307.341 124.712 315.803 122.817 324.425C120.74 333.887 120.298 343.509 122.1 353.131C122.102 353.131 122.101 353.131 122.101 353.145C122.173 353.518 121.648 353.691 121.476 353.344ZM129.644 326.665C126.95 333.914 124.824 341.297 123.651 348.947L123.595 349.307C123.555 349.56 123.225 349.666 123.057 349.466C122.773 349.133 122.596 348.4 122.652 347.707C121.814 335.94 123.565 324.466 126.846 313.192C128.965 305.902 131.207 298.652 133.4 291.389C133.4 291.389 133.401 291.389 133.404 291.389C133.54 290.936 134.195 291.029 134.229 291.496C134.381 293.734 134.483 295.973 134.751 298.212C135.96 308.22 133.056 317.496 129.644 326.665ZM169.403 243.107C170.45 242.147 174.603 241.988 175.965 242.787C177.66 243.774 178.475 245.626 177.95 247.918C177.689 249.051 177.251 250.143 176.826 251.236C176.603 251.809 175.805 251.85 175.518 251.303C175.449 251.17 175.4 251.05 175.382 250.943C174.828 247.545 172.886 245.532 169.491 244.906C169.26 244.853 168.892 244.52 168.915 244.36C168.979 243.92 169.1 243.387 169.403 243.107ZM172.813 256.007C170.93 254.768 169.268 253.715 167.708 252.529C166.05 251.277 165.934 249.997 167.24 248.398C167.906 247.572 168.751 246.879 169.612 246.252C170.634 245.519 171.52 246.399 171.296 247.119C170.28 250.41 172.221 252.849 173.389 255.514C173.389 255.514 173.39 255.528 173.391 255.528C173.547 255.887 173.138 256.22 172.813 256.007ZM174.044 253.582C173.091 252.383 171.952 250.516 171.981 249.051C171.988 248.784 172.16 248.518 172.348 248.251C172.545 247.972 172.914 247.891 173.213 248.038C173.526 248.198 173.819 248.371 173.88 248.598C174.28 250.104 174.608 251.636 174.933 253.169C175.044 253.689 174.375 254.008 174.044 253.582ZM222.973 227.462C223.434 227.862 223.045 228.621 222.453 228.488C220.932 228.142 219.778 227.142 218.859 225.729C220.37 226.062 221.829 226.489 222.973 227.462ZM247.227 218.066C245.511 219.279 241.774 218.773 240.193 216.881C241.826 216.494 244.935 215.934 247.198 217.2C247.523 217.387 247.535 217.853 247.227 218.066ZM239.443 215.015C241.634 212.976 244.959 213.189 247.359 215.255C247.524 215.401 247.354 215.681 247.135 215.681C244.571 215.575 242.084 215.468 239.575 215.361C239.398 215.348 239.312 215.135 239.443 215.015ZM239.62 218.333C242.436 218.84 243.514 219.253 245.192 219.972C245.574 220.132 245.574 220.132 246.025 220.639C246.838 221.545 245.88 222.331 245.521 222.411C244.732 222.611 243.79 222.478 243.17 222.078C241.848 221.252 240.737 220.132 239.543 219.092C238.898 218.653 238.451 218.12 239.62 218.333ZM226.338 197.29C226.622 196.771 226.976 196.345 227.718 196.051C228.544 195.732 229.496 196.158 229.712 197.024C229.737 197.118 229.751 197.21 229.747 197.29C229.688 198.69 228.171 200.329 226.585 201.102C225.959 201.408 225.257 200.849 225.407 200.169C225.629 199.156 225.861 198.157 226.338 197.29ZM220.679 201.848C220.523 202.714 219.386 202.928 218.905 202.195C217.699 200.342 217.642 197.637 218.971 195.718C219.288 195.265 220.001 195.438 220.075 195.998C220.355 198.037 221.027 199.929 220.679 201.848ZM221.206 195.798C221.302 195.038 221.629 194.065 222.194 193.679C222.799 193.266 223.926 193.159 224.597 193.439C224.99 193.612 225.297 193.986 225.586 194.386C225.952 194.905 225.83 195.625 225.306 195.971C224.972 196.198 224.7 196.371 224.36 196.597C223.914 196.891 223.396 197.224 222.899 197.531C222.228 197.957 221.344 197.543 221.232 196.771C221.186 196.437 221.166 196.118 221.206 195.798ZM221.465 202.835L221.46 202.821C222.076 200.529 222.394 200.102 223.719 198.263C223.763 198.183 223.839 198.13 223.936 198.077C224.507 197.783 225.255 198.17 225.053 198.77C224.654 199.969 223.5 201.489 222.614 202.608C222.34 202.955 221.227 203.874 221.465 202.835ZM229.207 204.1C227.302 204.713 225.305 205.02 223.334 205.433C222.995 205.499 222.649 205.353 222.457 205.073H222.454C222.797 204.713 223.086 204.261 223.495 204.021C225.415 202.835 226.624 201.582 228.772 200.902C229.862 200.555 230.246 200.662 230.473 200.929C231.434 202.035 230.946 203.554 229.207 204.1ZM278.586 174.462C277.341 175.475 275.827 176.181 274.64 177.247C270.522 180.965 266.259 184.551 262.435 188.562C257.3 193.946 251.238 197.397 244.018 198.943C243.953 198.957 243.887 198.97 243.817 198.97C243.4 198.97 243.213 198.436 243.532 198.157C247.983 194.358 252.462 190.587 256.887 186.763C262.564 181.845 268.492 177.341 275.782 175.036C276.679 174.756 277.627 174.649 278.512 174.329C278.554 174.409 278.544 174.382 278.586 174.462ZM261.99 175.062C267.201 172.983 275.967 171.877 278.51 173.103C271.981 174.502 266.327 177.367 261.31 181.459C257.606 184.47 254.03 187.656 250.391 190.761C247.909 192.866 245.417 194.972 242.929 197.091C242.837 197.011 242.859 197.024 242.765 196.957C247.516 188.188 251.867 179.074 261.99 175.062ZM255.44 126.247C253.841 133.816 253.229 141.479 253.199 149.208C253.16 158.99 252.611 168.692 247.952 177.647C246.916 179.633 246.029 181.698 245.095 183.75C244.903 184.164 244.259 184.017 244.287 183.551C244.287 183.551 244.287 183.551 244.287 183.538C244.794 175.982 245.249 168.399 245.83 160.829C246.731 149.129 249.134 137.774 254.067 127.046C254.255 126.393 254.682 125.767 255.067 125.554C255.294 125.42 255.564 125.634 255.512 125.887L255.44 126.247ZM255.468 121.769C255.464 121.782 255.461 121.782 255.459 121.782C250.383 130.151 247.405 139.32 246.018 148.902C244.755 157.644 244.239 166.493 243.41 175.289C243.229 177.208 243.113 179.126 242.968 181.045C234.186 157.724 235.786 138.867 254.954 121.356C255.234 121.103 255.665 121.449 255.468 121.769ZM293.722 110.655C293.943 110.748 293.963 111.054 293.755 111.174C291.552 112.427 289.489 112.441 287.376 110.935C288.475 110.149 291.412 109.695 293.722 110.655Z" fill="#FAFAFA"/>
</svg>
