<svg width="49" height="50" viewBox="0 0 49 50" fill="none" xmlns="http://www.w3.org/2000/svg">
<path d="M8.12908 33.4378C3.68536 24.4046 7.40588 13.4794 16.4391 9.03566C25.4723 4.59194 36.3975 8.31247 40.8413 17.3457C45.285 26.3789 41.5645 37.3041 32.5312 41.7479C23.498 46.1916 12.5728 42.471 8.12908 33.4378Z" fill="#445A68"/>
<path d="M30.0675 19.9145C28.7828 18.0488 26.7479 16.9825 24.4837 16.9825C22.2208 16.9825 20.1858 18.0488 18.9012 19.9145C17.6245 21.7669 17.3286 24.099 18.1109 26.1646C18.3201 26.7377 18.6519 27.2837 19.097 27.7901L24.0372 33.6009C24.1478 33.7342 24.3118 33.8007 24.4837 33.8007C24.6569 33.8007 24.8208 33.7342 24.9328 33.6009L29.8703 27.8038C30.3167 27.284 30.6498 26.7373 30.8564 26.1776C31.64 24.0987 31.3455 21.7669 30.0675 19.9145ZM29.7543 25.7644C29.5957 26.1909 29.3332 26.6176 28.9787 27.0307C28.9787 27.0307 28.9774 27.0307 28.976 27.0307L24.4837 32.308L19.9886 27.0307C19.6341 26.6176 19.3742 26.1912 19.2116 25.7514C18.5653 24.0456 18.8106 22.1134 19.8687 20.5809C20.9308 19.0483 22.6126 18.1687 24.4837 18.1687C26.3561 18.1687 28.0379 19.0483 29.1 20.5809C30.1568 22.1134 30.4033 24.0453 29.7543 25.7644Z" fill="white"/>
<path d="M24.4838 20.4742C22.6687 20.4742 21.1908 21.9531 21.1908 23.7655C21.1908 25.5779 22.6687 27.0574 24.4838 27.0574C26.3015 27.0574 27.7781 25.5779 27.7781 23.7655C27.7781 21.9531 26.3015 20.4742 24.4838 20.4742ZM24.4838 25.8848C23.3164 25.8848 22.3675 24.9382 22.3675 23.7655C22.3675 22.6061 23.3164 21.6468 24.4838 21.6468C25.6512 21.6468 26.6014 22.6061 26.6014 23.7655C26.6014 24.9382 25.6512 25.8848 24.4838 25.8848Z" fill="white"/>
</svg>
