<svg width="375" height="616" viewBox="0 0 375 616" fill="none" xmlns="http://www.w3.org/2000/svg">
<path fill-rule="evenodd" clip-rule="evenodd" d="M272.908 198.667C288.71 217.578 305.56 272.83 286.182 310.517C267.246 348.204 202.128 364.969 190.622 408.667C184.822 431.215 198.494 458.428 173.316 482.762C155.469 500.26 111.892 511.268 78.2082 471.435C41.9787 429.603 38.9336 368.794 34.2294 331.733C29.7916 296.764 60.4133 202.839 91.696 178.105C123.457 153.371 168.942 149.079 204.003 156.076C241.126 163.512 261.835 185.541 272.908 198.667Z" fill="#FAFAFA"/>
<path fill-rule="evenodd" clip-rule="evenodd" d="M196.479 615.321C193.351 615.321 189.639 614.948 185.416 614.189C172.38 611.83 158.397 604.447 143.772 592.2C134.101 590.401 124.397 588.215 114.983 585.43C89.1413 577.794 69.1435 566.706 53.8487 551.54C47.6278 545.37 42.4318 539.946 37.8448 535.175C23.3149 520.037 15.3097 511.694 1.21687 506.67C0.813079 506.537 0.599855 506.084 0.745114 505.684C0.890373 505.271 1.33815 505.057 1.74194 505.204C16.1786 510.348 24.2731 518.784 38.9723 534.096C43.5499 538.867 48.7393 544.277 54.9441 550.434C78.4228 573.715 109.7 584.07 141.416 590.187C140.45 589.348 139.485 588.495 138.516 587.616C125.752 576.035 112.367 560.802 97.5917 541.012C85.8297 525.26 74.7327 512.707 65.3775 504.551C62.6762 505.644 59.7883 506.536 56.6992 507.229C54.6216 507.696 52.4094 507.909 50.1999 507.909C42.3172 507.909 34.4652 505.151 32.8127 501.193C32.0411 499.34 32.1837 496.462 37.2332 493.224C43.6366 489.132 52.9078 492.077 64.7884 502.006C65.0936 502.259 65.4028 502.512 65.7133 502.779C79.7448 496.862 93.4285 482.722 96.4203 443.582C98.1034 421.554 96.5455 402.763 95.2928 387.677C94.6745 380.214 94.1414 373.777 94.1548 368.527C94.1548 368.207 94.3613 367.914 94.6718 367.794C94.9823 367.688 95.3302 367.781 95.5381 368.034C114.927 391.915 139.965 401.404 157.553 405.162C177.636 409.44 194.086 407.801 198.509 406.401C199.095 406.215 200.447 404.389 201.484 401.071C202.41 398.099 204.914 387.704 198.124 378.908C192.531 371.672 182.671 368.673 175.471 366.474C171.11 365.142 167.665 364.089 166.261 362.464C162.567 358.212 164.43 351.523 164.511 351.243C164.579 351.003 164.763 350.803 164.996 350.723C165.232 350.643 165.496 350.669 165.701 350.816C167.471 352.029 168.894 353.148 170.4 354.321C172.232 355.76 174.313 357.386 177.422 359.505C185.002 364.649 191.241 364.636 202.578 364.609C211.456 364.582 220.322 358.626 222.585 355.427C223.094 354.708 223.137 354.334 223.108 354.254C222.802 353.948 222.805 353.468 223.112 353.162C223.415 352.855 223.914 352.855 224.218 353.162C224.511 353.455 224.932 354.121 224.456 355.28C222.926 358.985 212.634 366.141 202.581 366.168C190.939 366.195 184.523 366.208 176.543 360.798C173.39 358.639 171.293 357 169.44 355.547C168.236 354.601 167.087 353.708 165.777 352.775C165.442 354.694 165.111 358.758 167.436 361.45C168.547 362.73 171.964 363.77 175.926 364.982C183.328 367.235 193.463 370.326 199.361 377.962C206.608 387.344 203.957 398.378 202.971 401.537C202.121 404.255 200.624 407.361 198.979 407.88C194.434 409.333 177.615 411.039 157.227 406.681C139.815 402.963 115.204 393.714 95.734 370.726C95.8459 375.484 96.3163 381.134 96.8494 387.544C98.1034 402.696 99.6666 421.54 97.9741 443.702C96.3763 464.598 91.764 479.87 83.8693 490.411C79.4156 496.355 73.8371 500.806 66.9686 503.871C76.3678 512.16 87.0784 524.314 98.843 540.079C113.553 559.776 126.874 574.955 139.564 586.469C141.217 587.962 142.859 589.401 144.497 590.773C157.577 593.186 170.697 594.932 183.332 596.611L185.655 596.917C198.282 598.597 205.779 603.781 207.4 607.885C208.037 609.511 207.834 611.07 206.828 612.296C205.179 614.309 201.619 615.321 196.479 615.321ZM146.926 592.772C160.554 603.78 173.565 610.457 185.695 612.655C200.908 615.401 204.794 612.309 205.622 611.31C206.271 610.51 206.381 609.564 205.95 608.458C204.441 604.646 196.92 599.982 185.452 598.463L183.129 598.156C171.651 596.624 159.348 594.998 146.926 592.772ZM43.5872 492.997C41.527 492.997 39.6879 493.503 38.0741 494.543C35.7886 495.995 33.2712 498.234 34.2533 500.593C36.0498 504.897 47.8251 507.629 56.3581 505.71C58.8848 505.137 61.4768 504.417 64.0728 503.431C63.9795 503.351 63.8822 503.272 63.7889 503.192C55.6518 496.409 48.8912 492.997 43.5872 492.997Z" fill="url(#paint0_radial_4_136)"/>
<path fill-rule="evenodd" clip-rule="evenodd" d="M218.811 354.042C217.689 354.042 216.504 353.935 215.289 353.682C213.113 353.242 210.407 350.976 208.575 349.217C205.139 350.363 201.223 350.843 198.477 350.576C198.05 350.55 197.735 350.164 197.776 349.737C197.816 349.311 198.195 348.99 198.624 349.03C201.007 349.257 204.33 348.897 207.348 347.978C207.168 347.791 207.013 347.631 206.884 347.498C205.454 348.071 201.484 349.484 198.773 348.378C197.954 348.045 197.318 347.524 196.865 346.818C194.865 347.884 190.463 349.523 185.118 350.509C179.456 351.549 170.921 352.189 162.416 349.297C162.353 349.284 162.295 349.257 162.241 349.217C161.666 348.844 161.647 348.377 161.686 348.138C161.828 347.285 162.813 347.045 165.193 346.445C168.32 345.659 173.04 344.459 175.556 341.794C181.715 335.264 191.224 329.614 194.683 329.587C194.705 329.587 194.726 329.587 194.746 329.587C197.131 329.587 199.4 330.813 201.597 331.999C203.155 332.852 204.626 333.638 205.898 333.838C207.072 334.012 208.236 333.559 209.467 333.052C208.17 333.292 206.864 333.385 205.679 332.798C201.869 330.893 202.946 322.604 204.521 315.981C204.73 315.101 205.081 314.235 205.537 313.382C203.747 313.369 202.106 313.235 200.783 312.876C194.016 311.09 189.553 312.369 186.6 313.236C183.714 314.062 181.434 314.728 180.243 310.996C179.474 308.598 179.531 307.026 180.425 306.066C181.922 304.453 185.082 305.213 189.454 306.252C194.782 307.518 201.413 309.104 206.413 306.466C210.946 304.067 213.069 294.099 210.95 285.13C208.964 276.721 204.834 248.415 205.467 241.645C206.087 235.008 209.453 225.8 215.381 221.242C218.534 218.817 222.075 217.924 225.906 218.564C228.034 218.937 229.855 219.19 231.405 219.363C230.532 217.538 229.724 215.712 228.958 213.873C226.468 207.889 225.756 196.455 225.33 189.632C225.21 187.713 225.115 186.194 225.015 185.354C224.683 185.554 224.358 185.647 224.076 185.687C223.13 185.821 222.124 185.341 221.451 184.435C220.702 183.435 220.53 182.156 221.006 181.103C221.47 180.064 222.361 179.517 223.338 179.664C223.771 179.717 224.547 179.997 225.245 181.023C224.985 177.651 222.119 172.014 218.886 165.657C215.895 159.78 212.506 153.117 210.137 146.307C204.612 130.448 203.462 121.027 203.45 120.933C203.4 120.507 203.705 120.107 204.133 120.067C204.568 120.014 204.946 120.321 204.999 120.747C205.009 120.84 206.148 130.115 211.609 145.801C213.942 152.504 217.307 159.114 220.276 164.951C224.516 173.294 227.866 179.877 226.503 183.368C226.447 183.515 226.389 183.648 226.33 183.781C226.413 184.168 226.488 184.595 226.55 185.074C226.664 185.941 226.76 187.526 226.884 189.525C227.305 196.268 228.008 207.542 230.397 213.273C231.27 215.365 232.203 217.444 233.22 219.537C237.92 219.91 239.515 219.323 239.93 218.657C240.58 217.591 238.586 214.899 236.827 212.526C235.68 210.994 234.491 209.382 233.632 207.809C230.45 201.972 229.382 194.669 228.249 186.926C227.701 183.195 227.133 179.33 226.311 175.545C223.811 164.125 223.137 120.107 228.258 96.0397C232.981 73.8377 238.702 58.7656 245.259 51.2494C246.114 50.2633 247.519 49.9296 249.021 50.356C250.351 50.7292 254.829 52.7148 256.52 62.6297C257.777 69.9726 264.052 79.4079 270.697 89.3895C280.791 104.555 292.011 121.413 291.088 137.591C318.459 131.994 357.072 139.191 368.277 144.868C371.725 146.614 373.867 149.519 374.157 152.864C374.444 156.183 372.896 159.447 370.017 161.606C369.923 161.673 369.819 161.726 369.706 161.739C361.47 163.458 355.755 174.213 349.7 185.594C344.023 196.268 338.15 207.303 329.623 211.58C327.883 212.62 325.784 213.166 323.403 213.38C325.253 214.912 326.905 216.498 328.363 218.138C334.848 225.401 336.829 239.913 335.34 246.71C334.02 252.76 328.488 263.661 320.899 269.671C318.848 273.083 316.141 276.068 312.581 277.947C310.63 278.866 308.167 279.306 305.359 279.306C296.867 279.306 285.156 275.281 274.433 268.325C274.415 268.312 274.395 268.298 274.376 268.285C250.299 249.268 239.233 235.102 232.207 221.003C230.408 220.829 228.249 220.55 225.648 220.11C222.261 219.537 219.126 220.336 216.33 222.482C210.774 226.746 207.61 235.489 207.02 241.792C206.413 248.282 210.553 276.668 212.466 284.77C214.523 293.472 212.87 304.813 207.14 307.838C201.623 310.756 194.674 309.104 189.093 307.771C185.677 306.959 182.447 306.186 181.567 307.132C181.117 307.612 181.17 308.784 181.726 310.53C182.431 312.729 183.103 312.623 186.168 311.73C189.285 310.837 193.996 309.464 201.181 311.37C202.537 311.73 204.409 311.863 206.517 311.796C209.14 308.051 213.459 305.026 215.809 304.44C217.554 304.013 219.094 304.467 219.921 305.679C220.869 307.052 220.658 309.051 219.375 310.877C219.282 311.023 219.143 311.116 218.983 311.17C215.698 312.262 211.32 313.115 207.378 313.329C206.753 314.315 206.279 315.341 206.038 316.341C204.056 324.67 204.181 330.307 206.375 331.399C207.368 331.892 208.695 331.626 210.097 331.346C212.943 330.76 216.479 330.04 218.711 335.557C219.17 336.69 219.603 337.849 220.02 338.982C221.715 343.526 223.314 347.831 226.538 350.47C226.714 350.603 226.816 350.816 226.826 351.029C226.835 351.256 226.751 351.469 226.59 351.629C225.196 352.975 222.299 354.042 218.811 354.042ZM210.198 348.604C211.919 350.19 214.039 351.842 215.597 352.162C219.828 353.015 223.186 352.056 224.825 351.029C221.754 348.111 220.13 343.753 218.559 339.515C218.306 338.835 218.046 338.143 217.778 337.45C217.869 337.916 217.914 338.409 217.914 338.889C217.914 341.008 217.107 344.113 213.251 346.925C212.374 347.564 211.331 348.124 210.198 348.604ZM164.338 348.271C179.061 352.589 194.444 346.739 196.724 345.073C196.921 344.94 197.173 344.899 197.405 344.966C197.639 345.033 197.826 345.206 197.91 345.433C198.186 346.152 198.659 346.645 199.361 346.925C201.563 347.831 205.449 346.458 206.76 345.845C207.072 345.699 207.444 345.779 207.673 346.046C207.982 346.392 208.435 346.885 208.979 347.432C210.233 346.939 211.387 346.352 212.332 345.659C215.659 343.234 216.355 340.648 216.355 338.889C216.355 336.584 215.189 334.917 214.188 334.184C213.045 333.358 211.889 333.758 210.097 334.478C208.776 335.024 207.274 335.624 205.662 335.371C204.124 335.144 202.535 334.278 200.852 333.372C198.813 332.266 196.696 331.133 194.698 331.146C191.922 331.173 182.753 336.437 176.689 342.86C173.863 345.872 168.875 347.125 165.573 347.951C165.161 348.057 164.727 348.164 164.338 348.271ZM217.065 305.839C216.791 305.839 216.496 305.879 216.183 305.959C214.375 306.412 210.982 308.758 208.58 311.676C211.761 311.397 215.249 310.744 218.238 309.784C219.016 308.558 219.175 307.345 218.637 306.559C218.313 306.092 217.761 305.839 217.065 305.839ZM275.313 267.033C288.93 275.868 304.649 279.959 311.884 276.547C314.022 275.414 315.836 273.842 317.365 272.016C316.44 272.509 315.492 272.909 314.525 273.229C307.498 275.521 293.059 265.207 280.317 256.105C266.368 246.136 245.095 216.898 245.712 210.528C245.805 209.555 246.286 208.755 247.101 208.209C250.308 206.05 258.633 208.062 263.307 209.462C267.298 210.648 320.63 228.066 324.9 231.158C327.177 232.81 327.715 240.566 327.253 247.082C327.016 250.414 326.138 258.384 322.965 265.647C328.648 259.69 332.76 251.214 333.818 246.376C335.202 240.046 333.269 225.974 327.2 219.164C325.445 217.205 323.396 215.312 321.052 213.5C316.842 213.527 311.904 212.793 306.566 212.007C302.474 211.394 298.241 210.768 293.862 210.395C276.864 208.969 241.527 202.865 237.4 196.735C236.834 195.896 236.885 195.162 237.031 194.696C237.953 191.724 244.381 190.485 256.137 191.031C265.716 191.471 275.773 192.977 280.376 194.176C298.364 198.841 312.169 204.798 321.569 211.927C324.458 211.861 326.935 211.381 328.847 210.235C328.862 210.221 328.88 210.208 328.898 210.208C336.996 206.157 342.753 195.323 348.325 184.848C354.512 173.227 360.363 162.219 369.214 160.26C371.576 158.434 372.842 155.729 372.602 152.997C372.357 150.172 370.574 147.773 367.575 146.254C361.77 143.322 346.718 139.498 329.183 137.872C314.574 136.526 301.43 137.005 290.953 139.218C290.674 141.776 290.077 144.322 289.113 146.827C287.233 151.465 272.057 164.005 263.178 171.068C253.916 178.437 239.506 189.272 238.003 189.486C237.697 189.539 237.406 189.419 237.22 189.192C237.17 189.125 237.127 189.046 237.1 188.966C233.408 178.784 242.195 167.83 250.215 160.42C259.653 151.718 271.629 144.468 279.311 141.163C282.423 139.831 285.849 138.751 289.499 137.938C290.613 122.12 279.437 105.328 269.4 90.2556C262.659 80.1274 256.293 70.5726 254.983 62.8965C253.76 55.7268 250.884 52.5017 248.599 51.8487C247.694 51.5955 246.885 51.7552 246.436 52.275C240.054 59.5912 234.45 74.4241 229.78 96.3729C224.699 120.254 225.357 163.898 227.833 175.212C228.67 179.05 229.239 182.942 229.791 186.7C230.902 194.296 231.951 201.466 235 207.063C235.81 208.542 236.963 210.101 238.076 211.607C240.431 214.765 242.463 217.511 241.258 219.47C240.619 220.51 239.15 221.429 234.025 221.149C240.982 234.782 251.961 248.589 275.313 267.033ZM251.369 208.809C249.823 208.809 248.661 209.036 247.971 209.502C247.536 209.795 247.313 210.168 247.263 210.675C246.742 216.072 267.009 244.683 281.225 254.838C293.048 263.274 307.767 273.789 314.045 271.75C316.039 271.097 317.954 269.991 319.765 268.578C324.295 260.835 325.426 250.774 325.698 246.963C326.287 238.714 325.082 233.21 323.985 232.423C320.082 229.585 268.412 212.607 262.863 210.954C258.12 209.542 254.132 208.809 251.369 208.809ZM251.224 192.47C242.571 192.47 238.947 193.776 238.52 195.162C238.48 195.296 238.45 195.509 238.696 195.868C242.094 200.906 274.584 207.21 293.993 208.849C298.421 209.208 302.679 209.848 306.794 210.461C311.177 211.114 315.278 211.727 318.881 211.901C309.717 205.45 296.693 200.013 279.984 195.682C275.461 194.509 265.538 193.03 256.064 192.59C254.301 192.51 252.69 192.47 251.224 192.47ZM289.336 139.577C285.87 140.377 282.718 141.389 279.928 142.589C272.612 145.747 260.526 153.037 251.273 161.566C243.814 168.456 235.634 178.491 238.308 187.66C244.239 184.155 284.768 153.383 287.661 146.254C288.508 144.055 289.051 141.83 289.336 139.577ZM223.044 181.196C222.698 181.196 222.485 181.609 222.428 181.743C222.139 182.382 222.38 183.075 222.702 183.502C223.03 183.941 223.49 184.195 223.867 184.141C224.151 184.101 224.423 183.901 224.665 183.555C224.187 181.849 223.486 181.263 223.108 181.196C223.086 181.196 223.065 181.196 223.044 181.196Z" fill="url(#paint1_radial_4_136)"/>
<path fill-rule="evenodd" clip-rule="evenodd" d="M86.4081 290.954C85.9763 290.954 85.6271 290.594 85.6271 290.168C85.6271 250.268 86.4987 231.411 91.6601 225.108C98.4486 216.819 116.415 205.984 135.603 203.585C123.942 201.186 110.195 201.959 98.939 214.406C95.4888 218.231 93.4578 219.404 92.1558 218.364C91.1523 217.565 91.1097 215.565 92.0119 211.914C92.7089 209.089 93.9669 205.371 95.6567 201.133C98.9323 192.91 103.105 184.515 105.796 180.717C107.918 177.732 110.265 173.614 112.983 168.843C122.021 152.998 134.402 131.302 152.304 127.757C164.772 125.278 177.757 117.282 181.822 114.63C180.772 114.257 179.831 113.897 178.997 113.564C169.869 120.028 158.17 125.212 136.762 129.077C136.738 129.077 136.714 129.077 136.69 129.077C124.571 130.129 113.08 127.264 109.364 122.293C107.735 119.881 107.019 117.083 106.863 114.231C104.107 107.861 104.284 99.132 105.482 94.8675C106.838 90.0699 112.992 81.5409 119.555 79.1288C120.872 78.649 122.275 78.2357 123.764 77.9159C122.523 77.0496 121.526 76.0635 120.845 74.9441C116.893 69.3469 116.899 60.418 116.907 51.7957C116.915 42.6937 116.923 34.0983 112.411 30.3269C112.327 30.2602 112.255 30.1667 112.207 30.0601C111.086 27.6746 111.213 25.0229 112.548 22.9706C113.887 20.9183 116.275 19.7724 119.101 19.8257C128.006 20.0123 154.48 28.3542 169.86 40.9478C174.81 30.5664 187.401 23.7836 198.739 17.6933C206.223 13.6554 213.289 9.85733 216.506 5.69946C220.962 -0.044281 224.548 0.208679 225.541 0.435211C226.71 0.688416 227.541 1.43503 227.772 2.4212C229.379 9.36432 227.926 20.7714 223.454 36.3101C218.61 53.1416 203.442 80.5678 198.043 86.9113C197.739 87.2711 197.434 87.6307 197.136 88.0038C198.947 86.2314 201.74 84.2857 205.072 81.9535C208.879 79.2882 213.194 76.2636 216.888 72.852C225.532 64.8694 229.339 59.4454 229.376 59.3921C229.623 59.0323 230.108 58.9525 230.461 59.1923C230.814 59.4455 230.902 59.9251 230.656 60.2849C230.503 60.4981 226.732 65.8821 217.944 73.9979C214.175 77.4762 209.814 80.5278 205.968 83.2198C202.364 85.7518 198.912 88.1641 197.341 90.0698C197.835 89.9632 198.212 90.0432 198.438 90.1232C199.185 90.3897 199.629 91.1356 199.572 92.0284C199.51 92.9346 198.927 93.7477 198.043 94.1608C197.249 94.534 196.368 94.4939 195.752 94.0541C195.648 93.9742 195.53 93.8812 195.412 93.7346C195.069 94.2543 194.573 95.0672 193.971 96.0401C191.412 100.198 187.127 107.141 183.542 110.086C182.548 110.899 181.534 111.699 180.491 112.472C181.429 112.832 182.523 113.231 183.814 113.671C184.09 113.751 184.294 114.004 184.337 114.297C184.379 114.59 184.255 114.87 184.013 115.043C183.853 115.15 167.882 126.251 152.605 129.276C135.403 132.688 123.228 154.037 114.339 169.616C111.601 174.413 109.235 178.571 107.067 181.623C102.24 188.419 92.1105 211.714 92.9754 216.712C93.0354 217.071 93.134 217.151 93.134 217.151C93.1406 217.151 94.0695 217.471 97.7863 213.367C105.939 204.345 116.385 200.214 128.838 201.093C132.866 201.386 136.782 202.172 140.394 203.159C141.797 203.092 143.198 203.079 144.601 203.119C157.957 203.452 168.847 208.823 176.106 218.644C176.186 218.751 176.264 218.871 176.342 218.977C180.543 222.389 182.708 226.52 182.322 232.464C181.829 240.06 177.076 255.199 166.435 263.475C159.815 268.619 152 270.391 143.2 268.738C141.043 268.339 138.789 267.565 136.538 266.579C134.762 266.366 132.952 266.046 131.145 265.58C122.708 263.381 116.897 259.477 115.205 254.852C114.915 254.066 114.993 253.493 115.431 253.147C116.342 252.44 117.752 253.333 122.508 256.531C126.408 259.156 131.708 262.728 136.972 265.074C150.181 266.619 162.837 262.115 164.372 260.45C162.998 259.69 161.578 258.091 159.945 256.238C157.155 253.08 153.678 249.148 148.708 247.336C140.514 244.337 131.708 244.457 123.24 247.669C121.603 248.295 119.934 248.975 118.321 249.628C110.275 252.88 102.674 255.958 97.2372 253.546C95.6274 252.84 94.5812 251.721 94.1228 250.215C92.8674 246.097 96.1378 239.686 101.826 230.678C108.673 219.817 125.394 218.711 141.933 218.511C158.35 218.311 171.401 223.229 176.317 225.081C177.05 225.361 177.744 225.614 177.949 225.667H177.953C178.061 225.667 178.245 225.667 178.353 225.641C178.362 225.347 178.156 224.121 175.175 220.017C171.177 216.871 164.999 214.153 156.442 210.768C155.646 210.448 154.752 210.075 153.72 209.649C150.201 208.17 145.555 206.224 140.291 204.731C119.892 205.757 100.01 217.365 92.8674 226.093C88.0352 231.984 87.1863 251.454 87.1863 290.168C87.1863 290.594 86.8359 290.954 86.4081 290.954ZM142.213 266.926C142.641 267.033 143.067 267.126 143.486 267.206C151.831 268.778 159.228 267.099 165.478 262.235C175.72 254.293 180.291 239.687 180.767 232.357C180.925 229.918 180.64 227.813 179.891 225.947C179.863 226.12 179.808 226.267 179.74 226.4C179.325 227.226 178.392 227.226 177.949 227.226H177.905C177.596 227.226 177.21 227.08 175.766 226.533C170.928 224.721 158.061 219.87 141.953 220.07C125.843 220.27 109.574 221.309 103.144 231.504C98.871 238.274 94.4147 245.817 95.614 249.762C95.9392 250.828 96.6748 251.601 97.8676 252.134C102.701 254.266 110.005 251.307 117.737 248.175C119.358 247.522 121.033 246.843 122.684 246.217C131.509 242.858 140.694 242.738 149.244 245.87C154.585 247.816 158.206 251.92 161.114 255.212C162.698 256.998 164.07 258.557 165.224 259.13C166.071 259.556 166.154 260.303 165.965 260.796C165.224 262.781 159.15 264.807 153.82 265.833C151.156 266.353 146.992 266.966 142.213 266.926ZM116.85 254.772C118.573 258.65 124.008 262.115 131.536 264.074C131.538 264.074 131.541 264.074 131.541 264.074C127.862 262.022 124.405 259.69 121.635 257.824C119.876 256.638 117.939 255.332 116.85 254.772ZM177.909 225.667C177.909 225.667 177.907 225.667 177.905 225.667H177.913C177.913 225.667 177.912 225.667 177.909 225.667ZM145.329 204.705C148.851 205.904 151.928 207.197 154.323 208.209C155.349 208.636 156.232 209.009 157.015 209.316C162.826 211.621 167.823 213.673 171.808 215.939C165.132 208.902 156.25 205.131 145.329 204.705ZM109.01 117.869C109.371 119.108 109.899 120.294 110.636 121.387C113.468 125.185 123.51 128.637 136.521 127.531C157.033 123.826 168.48 118.922 177.332 112.818C174.803 111.592 173.66 110.499 173.589 109.326C173.481 107.541 175.733 106.475 178.342 105.235C179.535 104.676 180.771 104.089 181.759 103.436C185.509 100.971 188.555 96.8397 191.777 92.4553C193.384 90.2831 195.046 88.031 196.857 85.8988C202.184 79.6353 217.163 52.5291 221.954 35.8709C226.289 20.8119 227.779 9.36401 226.251 2.76736C226.163 2.38089 225.773 2.07455 225.205 1.95462C223.625 1.60815 220.834 2.66064 217.74 6.6586C214.32 11.0697 207.112 14.9611 199.476 19.0657C188.231 25.1159 175.716 31.8461 171.1 41.9876C173.071 43.6934 174.831 45.4788 176.308 47.3312C180.027 51.9955 185.134 60.565 188.149 69.2139C191.846 79.8085 191.368 87.6044 186.77 91.7356C186.705 91.8023 186.634 91.8421 186.556 91.882C186.292 91.9886 185.988 91.9486 185.744 91.7753C184.213 90.6559 167.231 53.795 167.866 47.7314C168.096 45.8657 168.558 44.1066 169.216 42.4275C163.409 37.5899 155.394 32.9388 145.87 28.9409C134.353 24.1166 123.669 21.4781 119.067 21.3848C116.757 21.3315 114.911 22.1978 113.858 23.8237C112.844 25.3829 112.733 27.395 113.55 29.2473C118.482 33.5251 118.473 42.4005 118.466 51.7957C118.458 60.1914 118.452 68.867 122.132 74.0643C122.144 74.0776 122.156 74.0913 122.167 74.1047C122.945 75.4107 124.285 76.5035 126.008 77.4896C134.312 76.1703 144.964 77.0495 157.79 80.1413C161.086 80.9409 167.916 83.3665 174.087 86.2983C185.628 91.7755 185.132 94.3744 184.968 95.2273C184.894 95.6138 184.654 96.1599 183.937 96.5463C179.243 99.0384 154.938 91.0428 143.764 86.2319C140.902 85.0059 138.043 83.9925 135.274 83.0064C131.688 81.727 128.367 80.5411 125.727 79.1151C123.694 79.4749 121.815 79.9545 120.094 80.5942C114.077 82.8064 108.221 90.9093 106.983 95.2937C106.103 98.4254 105.819 104.369 107.035 109.686C107.66 104.502 109.542 99.7982 110.442 97.7859C112.42 93.3349 115.341 88.7369 117.416 88.4437C121.26 87.924 160.397 94.8271 163.378 95.4401C167.576 96.293 172.845 97.8123 174.113 100.184C174.472 100.864 174.508 101.597 174.219 102.303C172.456 106.541 149.225 117.856 137.098 119.442C126.012 120.907 113.446 122.546 109.724 118.682C109.476 118.428 109.238 118.149 109.01 117.869ZM108.385 113.817C109.031 115.257 109.844 116.563 110.846 117.602C114.025 120.907 126.706 119.241 136.893 117.895C149.897 116.19 171.462 104.862 172.777 101.704C172.891 101.424 172.877 101.184 172.735 100.917C172.003 99.5445 168.3 98.0257 163.069 96.9595C158.752 96.0933 120.864 89.5367 117.632 89.9898C116.755 90.1097 114.194 93.1746 111.868 98.4119C110.774 100.864 108.136 107.514 108.385 113.817ZM195.303 90.336C194.529 91.3488 193.777 92.375 193.032 93.3878C189.726 97.8788 186.6 102.117 182.616 104.729C181.536 105.449 180.251 106.062 179.007 106.648C177.359 107.421 175.1 108.487 175.145 109.233C175.167 109.566 175.64 110.38 178.806 111.779C180.099 110.833 181.341 109.873 182.555 108.873C185.937 106.101 190.136 99.2919 192.643 95.2273C193.397 94.0013 193.993 93.0281 194.357 92.5217C194.537 92.2685 194.717 92.0419 194.891 91.8287C194.895 91.7487 194.903 91.6688 194.914 91.5756C194.962 91.1624 195.094 90.7624 195.303 90.336ZM128.489 78.7286C130.641 79.7014 133.143 80.5944 135.798 81.5273C138.589 82.5268 141.473 83.5529 144.381 84.8056C157.108 90.2828 179.565 97.0927 183.205 95.1603C183.413 95.0537 183.431 94.9738 183.44 94.9339C183.636 93.8944 181.133 91.3758 173.416 87.711C167.343 84.8191 160.642 82.4336 157.425 81.6607C145.922 78.8888 136.232 77.9157 128.489 78.7286ZM196.468 92.402C196.504 92.5885 196.568 92.7218 196.665 92.7885C196.816 92.8951 197.102 92.8814 197.379 92.7481C197.667 92.6149 197.988 92.3215 198.014 91.9217C198.024 91.7885 197.996 91.6152 197.916 91.5886C197.765 91.5353 197.24 91.629 196.468 92.402ZM170.474 43.507C169.965 44.9196 169.603 46.3723 169.415 47.9182C168.853 53.2488 183.54 84.9657 186.349 89.9631C190.745 85.1389 188.997 76.3701 186.678 69.7202C183.74 61.2978 178.609 52.7151 175.089 48.304C173.809 46.7048 172.262 45.1062 170.474 43.507Z" fill="url(#paint2_radial_4_136)"/>
<path fill-rule="evenodd" clip-rule="evenodd" d="M55.9356 412.171C51.8297 412.171 47.6398 409 43.7671 402.99C42.9009 401.63 42.0733 400.164 41.3084 398.659C37.5863 395.433 33.3978 390.476 29.9075 385.398C26.9557 381.121 17.6511 366.648 21.8183 360.198C25.2659 354.68 30.4433 351.016 35.8139 348.577C29.3278 348.138 24.0239 347.471 22.2488 346.498C3.78488 341.581 5.42671 328.614 6.87397 317.18C7.60293 311.41 8.29192 305.946 6.50616 301.828C5.45736 299.402 5.81185 297.004 7.53897 294.885C10.4082 291.353 16.2692 289.54 17.863 289.874C22.0742 290.74 36.6241 294.311 47.1907 303.866C59.3325 314.874 72.1313 327.135 74.9792 334.771C76.0986 337.77 76.7876 340.888 77.4513 343.886C78.4321 348.311 79.3556 352.482 81.5132 355.574C81.9676 356.227 82.6593 356.906 83.5482 357.586C83.5282 356.08 83.4509 354.614 83.3336 353.162C83.0364 349.523 80.1232 343.273 78.56 339.915C78.055 338.822 77.6565 337.969 77.4673 337.476C77.3793 337.25 77.3087 337.036 77.246 336.823C77.2047 336.796 77.1608 336.756 77.1168 336.73C75.2311 335.237 75.2244 330.946 75.2097 325.003C75.2031 321.085 75.1938 316.646 74.5901 312.475C73.1748 302.734 71.1785 297.603 71.1598 297.55C70.9999 297.163 71.1971 296.71 71.5969 296.55C71.9967 296.391 72.4512 296.577 72.6084 296.977C72.6924 297.19 74.6887 302.308 76.1319 312.262C76.753 316.527 76.7636 321.031 76.7703 325.003C76.7769 328.548 76.7836 331.959 77.286 333.945C77.4459 333.652 77.6352 333.465 77.7778 333.359C78.3695 332.892 79.1784 332.905 79.8421 333.372C80.4764 333.811 80.7962 334.584 80.7056 335.424C80.6137 336.25 80.1339 336.943 79.4463 337.223C79.349 337.263 79.233 337.303 79.0931 337.33C79.297 337.796 79.6062 338.462 79.974 339.249C81.6904 342.94 84.569 349.124 84.8875 353.042C85.0381 354.881 85.122 356.733 85.1127 358.652C88.1738 360.558 92.6262 362.384 97.5757 363.703C106.211 365.982 114.063 366.155 119.123 364.169C122.992 362.65 128.217 359.425 131.148 352.629C134.443 344.993 133.767 334.931 129.193 323.537L119.78 300.096C119.759 300.042 119.744 299.989 119.734 299.935C119.727 299.895 118.914 295.498 115.884 294.551C115.644 294.472 115.393 294.431 115.135 294.391C112.695 304.4 106.614 314.448 102.566 320.365C95.606 330.533 87.2183 339.435 84.2545 339.795C83.5042 339.888 82.8872 339.555 82.5633 338.889C81.3666 336.437 84.5623 328.561 87.9566 322.004C92.6249 312.982 98.4819 304.613 104.023 299.029C107.788 295.231 111.097 293.165 113.894 292.845C114.448 290.233 114.727 287.635 114.619 285.156C114.045 272.269 100.234 265.473 89.136 260.022C81.893 256.451 76.1693 253.639 75.1351 249.841C74.6394 248.028 73.7958 248.161 73.4786 248.201C71.373 248.508 67.8948 252.453 65.0176 257.784C61.75 263.847 59.8696 270.444 59.9975 275.428C60.2734 286.342 61.0037 298.056 64.4539 309.837C67.3018 319.565 69.578 322.484 69.5993 322.511C69.8698 322.857 69.8152 323.337 69.482 323.603C69.1488 323.883 68.6624 323.83 68.3892 323.496C68.2906 323.376 65.9185 320.391 62.956 310.277C59.4565 298.323 58.7182 286.489 58.4383 275.468C58.3024 270.151 60.2041 263.434 63.6463 257.05C66.1864 252.333 70.0471 247.135 73.2494 246.669C74.1916 246.522 75.8894 246.696 76.637 249.441C77.4899 252.546 83.2043 255.358 89.8236 258.623C101.291 264.26 115.564 271.27 116.176 285.077C116.286 287.609 116.018 290.22 115.477 292.872C115.778 292.912 116.069 292.979 116.355 293.059C120.064 294.231 121.113 298.869 121.256 299.589L130.641 322.963C135.374 334.744 136.044 345.219 132.579 353.242C130.126 358.932 125.548 363.33 119.691 365.622C114.331 367.728 106.123 367.568 97.1759 365.209C92.4529 363.956 88.2231 362.263 85.078 360.451C84.7622 369.313 82.3274 379.628 75.0432 395.3C75.0325 395.327 75.0219 395.34 75.0099 395.367C69.6566 404.602 61.7939 411.665 56.3114 412.171C56.1848 412.171 56.0595 412.171 55.9356 412.171ZM44.3295 400.937C44.7027 401.564 45.0958 402.177 45.4996 402.776C47.9717 406.468 51.8257 410.839 56.2048 410.612C60.3613 410.239 67.9068 404.495 73.6452 394.607C81.0601 378.655 83.3656 368.367 83.5415 359.492C82.0623 358.492 80.9268 357.466 80.2338 356.466C77.9004 353.122 76.9435 348.804 75.9321 344.233C75.2764 341.274 74.6007 338.222 73.5186 335.317C70.788 328.001 58.1465 315.9 46.1419 305.026C35.8725 295.724 21.6624 292.246 17.5512 291.393C16.5131 291.18 11.2571 292.779 8.74768 295.87C7.39504 297.536 7.12318 299.336 7.9361 301.215C9.89376 305.719 9.1768 311.383 8.41985 317.38C6.98458 328.721 5.49867 340.462 22.7459 345.019C22.8192 345.033 22.8911 345.072 22.9524 345.112C24.6436 346.125 31.3548 346.791 39.2175 347.191C42.084 346.165 44.9185 345.446 47.4826 344.939C57.1803 343.033 65.9132 343.566 68.6224 344.113C69.0356 344.206 70.4349 344.566 71.1345 345.766C71.4357 346.285 71.7129 347.165 71.3157 348.378C71.2731 348.524 71.1425 348.777 70.792 348.91C69.6259 349.35 52.9385 349.496 39.3214 348.79C32.9113 351.149 26.9237 354.961 23.1337 361.038C20.7456 364.743 23.9093 373.951 31.1909 384.519C33.9255 388.49 36.848 392.061 39.5386 394.847C37.1092 389.116 35.7512 383.613 36.5082 382.147C37.3944 380.428 44.4295 375.31 54.2724 368.247C58.7688 365.035 63.016 361.984 63.9875 361.038C66.7687 358.332 70.5868 355.134 72.9602 355.36C73.6226 355.427 74.1663 355.747 74.5354 356.267C76.8809 359.652 69.7432 378.815 64.987 387.904C60.5905 396.299 53.4222 401.217 48.6193 402.243C47.4826 402.496 46.0047 401.977 44.3295 400.937ZM42.5624 397.712C45.0318 399.831 47.0894 400.977 48.2968 400.724C52.7519 399.778 59.4445 395.127 63.6063 387.171C69.2395 376.416 74.738 359.305 73.2534 357.16C73.1468 357.013 73.0189 356.933 72.8123 356.919C71.4876 356.786 68.5198 358.799 65.0749 362.157C64.0195 363.183 60.1188 365.981 55.1786 369.526C48.6087 374.231 38.6764 381.347 37.8968 382.866C37.433 383.853 39.0735 390.796 42.5624 397.712ZM43.7112 347.391C55.1893 347.831 67.5203 347.778 69.9324 347.498C69.9924 347.125 69.9431 346.818 69.7885 346.552C69.49 346.045 68.8303 345.752 68.3093 345.645C65.9078 345.152 54.7828 344.433 43.7112 347.391ZM113.509 294.498C111.194 294.978 108.349 296.884 105.128 300.135C93.635 311.703 83.8134 332.292 83.856 337.503C83.8587 338.049 83.9666 338.223 83.9919 338.249C83.9973 338.249 84.0239 338.249 84.0692 338.249C85.9669 338.023 93.7963 330.413 101.283 319.485C105.197 313.755 111.063 304.093 113.509 294.498ZM78.604 335.784C78.6973 335.81 78.7813 335.81 78.8439 335.784C78.9998 335.717 79.1291 335.504 79.1557 335.251C79.1677 335.144 79.1837 334.811 78.9412 334.638C78.8825 334.611 78.7799 334.544 78.7333 334.584C78.6093 334.678 78.4841 335.077 78.604 335.784Z" fill="url(#paint3_radial_4_136)"/>
<defs>
<radialGradient id="paint0_radial_4_136" cx="0" cy="0" r="1" gradientUnits="userSpaceOnUse" gradientTransform="translate(113.796 330.981) rotate(90) scale(362.247 193.411)">
<stop stop-color="#FEE49A"/>
<stop offset="1" stop-color="#BB8D37"/>
</radialGradient>
<radialGradient id="paint1_radial_4_136" cx="0" cy="0" r="1" gradientUnits="userSpaceOnUse" gradientTransform="translate(268.986 27.5578) rotate(90) scale(415.938 183.52)">
<stop stop-color="#FEE49A"/>
<stop offset="1" stop-color="#BB8D37"/>
</radialGradient>
<radialGradient id="paint2_radial_4_136" cx="0" cy="0" r="1" gradientUnits="userSpaceOnUse" gradientTransform="translate(158.931 -21.2853) rotate(90) scale(397.79 125.36)">
<stop stop-color="#FEE49A"/>
<stop offset="1" stop-color="#BB8D37"/>
</radialGradient>
<radialGradient id="paint3_radial_4_136" cx="0" cy="0" r="1" gradientUnits="userSpaceOnUse" gradientTransform="translate(70.9784 234.311) rotate(90) scale(226.592 111.264)">
<stop stop-color="#FEE49A"/>
<stop offset="1" stop-color="#BB8D37"/>
</radialGradient>
</defs>
</svg>
