<svg width="365" height="406" viewBox="0 0 365 406" fill="none" xmlns="http://www.w3.org/2000/svg">
<path fill-rule="evenodd" clip-rule="evenodd" d="M59.0974 359.872C43.2948 340.962 26.4447 285.71 45.8228 248.022C64.7585 210.335 129.877 193.557 141.383 149.859C147.183 127.311 133.511 100.098 158.689 75.7637C176.536 58.2659 220.113 47.2715 253.797 87.0912C290.033 128.923 293.071 189.732 297.776 226.806C302.213 261.762 271.592 355.687 240.309 380.434C208.548 405.168 163.063 409.446 128.002 402.45C90.8785 395.014 70.1704 372.999 59.0974 359.872Z" fill="#FAFAFA"/>
<path fill-rule="evenodd" clip-rule="evenodd" d="M125.803 381.3C130.874 381.3 135.091 379.714 138.605 376.489C142.629 372.784 145.702 367.054 148.271 358.445C149.199 355.34 149.171 351.795 148.625 348.25C149.301 348.93 149.912 349.503 150.436 349.916C156.42 354.687 177.413 356.859 185.637 354.5C192.652 352.475 192.715 345.799 192.56 343.76C193.877 343.853 197.134 343.786 200.6 341.387C205.267 338.162 208.432 332.072 210.003 323.29C211.85 312.961 210.485 302.873 205.945 293.332C201.426 283.83 194.76 276.98 189.964 272.916C185.474 269.104 178.502 265.719 170.816 263.614C180.423 260.095 194.003 251.899 194.347 242.637C194.74 232.083 185.286 222.954 179.032 216.917C177.072 215.025 175.379 213.386 174.569 212.226C173.235 210.334 173.256 207.309 173.278 204.111C173.308 199.673 173.343 194.649 169.397 191.997C168.514 191.41 167.723 190.89 166.96 190.384C162.25 187.292 159.886 185.733 154.976 179.71C150.969 174.779 144.684 175.299 138.03 175.858C134.737 176.125 131.332 176.405 127.913 176.098C119.515 175.365 109.685 180.696 105.823 184.827C104.526 186.213 103.946 187.399 104.098 188.358C104.285 189.544 105.503 191.637 107.35 194.822C111.244 201.525 117.761 212.733 119.261 224.7C119.776 228.804 119.634 233.442 119.52 237.16C119.393 241.212 119.363 243.024 119.92 243.57C120.06 243.717 120.242 243.784 120.434 243.77C121.364 243.717 121.618 241.985 122.125 232.163C122.36 227.645 122.602 222.968 123.047 221.635C123.307 220.862 123.616 220.422 123.992 220.276C124.8 219.969 126.328 220.862 128.443 222.102C128.768 222.288 129.107 222.488 129.465 222.701C133.547 225.06 136.846 227.965 145.611 238.919C152.859 247.995 151.981 261.908 151.65 267.132C151.593 268.038 151.553 268.677 151.564 269.064C151.621 270.996 152.944 274.008 155.608 278.312C156.029 278.992 157.026 280.964 158.18 283.257C160.148 287.175 162.599 292.039 163.676 293.385L163.829 293.585C164.722 294.704 166.22 296.57 167.45 298.369C169.388 301.208 169.453 302.087 169.39 302.341C169.033 303.767 168.837 304.553 164.46 305.152C160.16 305.725 152.706 301.527 148.265 297.303C146.308 295.437 144.119 292.705 142.188 290.28C139.215 286.562 138.192 285.363 137.439 285.456C137.21 285.496 137.022 285.642 136.924 285.869C136.712 286.348 136.844 286.935 137.042 287.828C137.489 289.853 138.324 293.611 135.43 299.768C132.513 305.979 126.296 311.336 121.756 315.254C120.036 316.733 118.547 318.012 117.556 319.065C113.931 322.93 113.848 323.556 113.054 329.66L113.014 329.953C112.098 336.963 111.046 339.934 110.53 340.281C109.903 339.734 109.285 337.563 108.945 335.91C108.876 335.484 108.811 335.203 108.801 335.177C108.744 334.924 108.503 334.777 108.258 334.831C108.012 334.871 107.853 335.11 107.894 335.363C107.911 335.457 107.955 335.697 108.024 336.03C108.15 336.803 108.295 338.122 108.071 339.215C107.846 340.308 107.731 340.321 105.803 340.641C105.312 340.721 104.703 340.814 103.977 340.961C102.463 341.254 101.844 341.96 101.297 342.573C100.538 343.453 99.8819 344.199 96.1851 343.466C90.2228 342.28 86.8646 333.551 86.4674 329.367L86.4488 329.167C86.3049 327.661 86.2382 326.968 86.7313 326.315C86.9312 326.048 87.2231 325.781 87.6362 325.462C88.084 325.355 88.4704 325.222 88.7756 325.076C91.9713 323.557 103.943 318.239 104.995 318.092C105.304 318.092 105.495 317.906 105.563 317.732C105.603 317.626 105.694 317.266 105.253 316.92C104.966 316.693 102.21 314.801 94.2088 320.052C92.7602 320.998 91.5261 321.784 90.536 322.41C89.0594 323.357 87.9893 324.036 87.2244 324.609C85.0308 325.089 81.358 325.036 78.9139 323.863C77.5786 323.223 76.7671 322.33 76.5059 321.224C75.9062 318.705 74.7961 316.68 73.5114 314.334C72.4586 312.415 71.2632 310.243 70.1357 307.378C68.8098 304.006 68.402 299.995 68.3273 297.143C69.1376 301.247 70.4422 307.418 71.4137 309.377C72.5478 311.682 76.7657 312.228 78.6287 312.135C79.5523 312.082 80.0054 311.909 80.144 311.536C80.2293 311.309 80.164 311.069 79.9681 310.882C79.8108 310.723 79.5976 310.563 79.327 310.35C78.053 309.377 75.4037 307.338 73.7899 302.5C72.3959 298.342 72.38 292.359 72.3666 287.548C72.3613 285.589 72.356 283.737 72.2627 282.217C72.1361 280.152 72.7491 278.1 73.2888 276.301C73.5687 275.368 73.8205 274.528 73.9444 273.782C74.5948 273.808 75.3185 273.915 76.1394 274.035C77.5133 274.248 79.0712 274.475 80.9689 274.435C85.4946 274.355 85.8904 274.835 86.3182 277.886C86.4155 278.566 86.4821 279.312 86.554 280.085C86.8206 283.004 87.1524 286.642 89.4006 290.014C92.3004 294.371 97.6457 295.584 98.9477 295.384C99.2969 295.331 99.3435 295.371 99.5647 295.624C99.8273 295.904 100.226 296.344 101.217 296.543C101.67 296.623 102.058 296.65 102.37 296.663C103.223 296.716 103.479 296.743 103.867 297.929C104.573 300.115 110.018 303.447 112.253 303.447C112.262 303.447 112.272 303.447 112.281 303.447C114.689 303.407 125.882 300.768 132.664 289.134C135.806 283.737 136.938 279.645 137.278 276.207C137.191 279.165 136.906 281.977 136.764 282.777C136.575 283.803 133.727 289.294 130.971 294.598C129.704 297.037 128.391 299.555 127.272 301.781C124.66 306.952 121.163 310.07 117.782 313.095C116.508 314.241 115.19 315.414 113.943 316.68C112.849 317.799 112.044 318.679 111.456 319.332C110.788 320.078 110.155 320.771 109.961 320.771C109.961 320.771 109.961 320.771 109.959 320.771C109.827 320.771 109.433 320.278 109.084 319.851L108.683 319.359C107.057 317.36 105.774 315.787 104.814 312.855C104.21 311.016 103.332 310.723 102.317 310.39C101.396 310.083 100.248 309.697 98.6878 307.951C96.5263 305.512 95.9026 303.38 95.243 301.128C94.9178 300.022 94.5833 298.875 94.0515 297.716C92.4963 294.304 89.27 289.933 89.1327 289.747C89.0594 289.653 88.9501 289.573 88.8288 289.56C88.7049 289.547 88.5823 289.574 88.4837 289.654C88.4811 289.654 87.8947 290.067 86.2649 290.573C84.6444 291.093 82.5108 291.826 80.3599 293.052C79.1205 293.758 78.3889 293.598 78.0371 293.518C77.8558 293.478 77.604 293.425 77.3987 293.625C77.3414 293.678 77.2135 293.838 77.2508 294.078C77.2361 294.318 76.7977 295.224 75.493 295.731C74.964 295.944 74.3536 296.05 73.9098 296.13C73.2674 296.237 72.8411 296.317 72.8064 296.77C72.7691 297.25 73.2995 297.436 74.0337 297.676C75.6942 298.249 78.9899 299.675 80.9796 300.782C80.9276 300.835 80.8729 300.888 80.8156 300.941C79.1218 302.54 77.0149 306.738 78.8446 309.417C80.6024 311.989 85.6798 314.481 86.7899 314.761C87.6908 314.987 89.1647 315.147 90.2402 315.267C90.512 315.294 90.7546 315.32 90.9518 315.347L91.1597 315.374C92.475 315.534 95.9693 315.96 98.0269 315.16C100.296 314.254 101.257 313.655 101.452 313.002C101.528 312.749 101.482 312.482 101.324 312.255C100.757 311.456 99.2716 311.349 96.8128 311.162C96.2691 311.122 95.5975 311.029 94.8858 310.936C93.18 310.709 91.4342 310.483 90.1762 310.656C90.4734 309.87 90.1416 309.39 89.9124 309.177C89.4366 308.724 88.9675 308.511 88.5543 308.311C88.0239 308.058 87.6429 307.884 87.3164 307.311C87.1085 306.938 87.0591 306.711 87.0071 306.458C86.8752 305.832 86.714 305.379 85.5519 304.459C84.3685 303.513 84.1086 302.94 83.8074 302.287C83.6888 302.021 83.5649 301.754 83.3823 301.448C83.2304 301.181 82.8599 300.875 82.3522 300.541C82.6627 299.995 82.7267 299.502 82.812 298.849C82.8773 298.342 82.9558 297.729 83.1651 296.89C83.4103 297.276 83.7461 297.529 84.046 297.743C84.583 298.142 84.9709 298.422 84.9402 299.462C84.9176 300.248 84.8323 300.728 84.7696 301.074C84.6724 301.634 84.6071 301.994 84.9602 302.62L85.0442 302.767C85.5239 303.62 86.1822 304.779 87.307 305.379C88.2039 305.859 88.7343 305.566 89.3486 305.232C89.6818 305.046 90.0576 304.846 90.6146 304.673C92.0139 304.233 94.6766 304.086 95.2256 304.06C95.788 305.499 96.5889 306.978 97.9962 308.564C99.7207 310.51 101.052 310.949 102.023 311.269C102.96 311.575 103.476 311.749 103.933 313.148C104.946 316.24 106.277 317.879 107.964 319.945L108.364 320.438C109.017 321.238 109.377 321.69 109.935 321.704C110.551 321.717 111.019 321.197 112.144 319.958C112.726 319.305 113.522 318.426 114.602 317.333C115.828 316.08 117.136 314.921 118.399 313.788C121.845 310.709 125.408 307.524 128.1 302.194C129.216 299.981 130.526 297.463 131.794 295.024C135.321 288.227 137.477 284.03 137.676 282.937C137.994 281.178 138.767 272.102 137.62 268.824C137.484 268.424 137.347 268.078 137.156 267.865C137.138 267.185 137.142 266.532 137.187 265.866C137.597 259.855 128.693 249.634 122.489 245.689C119.552 243.823 113.624 241.291 107.004 239.865C101.613 238.706 93.9183 237.88 87.8614 240.505C78.1424 244.716 72.228 253.832 69.3868 258.203C69.0643 258.709 68.7831 259.136 68.5512 259.482C67.9715 260.335 67.3638 261.148 66.7774 261.934C65.0117 264.306 63.6164 266.186 63.9802 267.585C64.3467 268.984 66.6282 269.237 69.5134 269.557C70.7221 269.69 71.9708 269.837 73.1555 270.063C76.2926 270.676 80.3199 270.144 81.8458 269.89C81.8431 270.49 81.9951 271.369 82.7533 272.182C83.345 272.822 84.715 273.288 86.4501 273.875C88.2932 274.501 90.3828 275.221 91.8047 276.247C93.801 277.7 96.6142 278.139 99.5927 278.592C100.873 278.792 102.195 278.992 103.436 279.285C104.917 279.632 106.828 280.165 108.851 280.725C112.309 281.698 116.228 282.777 119.06 283.244C123.699 283.99 126.997 281.298 131.991 276.846C134.588 274.528 135.713 271.703 136.331 269.957C136.334 270.01 136.337 270.05 136.341 270.104C136.622 274.715 136.94 279.952 131.864 288.667C128.327 294.731 123.608 298.116 120.276 299.875C116.274 301.994 113.075 302.5 112.269 302.514C112.262 302.514 112.256 302.514 112.248 302.514C110.395 302.514 105.324 299.435 104.749 297.65C104.194 295.944 103.505 295.81 102.427 295.744C102.127 295.73 101.788 295.704 101.394 295.624C100.703 295.491 100.472 295.237 100.248 294.997C99.9805 294.704 99.6447 294.331 98.8038 294.464C97.6817 294.651 92.7988 293.438 90.1722 289.494C88.0546 286.322 87.7468 282.963 87.4763 280.005C87.4043 279.205 87.3363 278.459 87.2363 277.753C86.7166 274.061 85.7758 273.435 80.9516 273.515C79.1285 273.541 77.6146 273.329 76.2766 273.129C75.4663 272.996 74.7201 272.889 74.0271 272.862C74.0231 272.382 73.9311 271.969 73.7152 271.596C73.3967 271.049 72.8504 270.703 72.0468 270.516C68.0209 269.61 67.064 270.437 66.2324 273.409C66.0618 274.022 65.7687 274.608 65.4595 275.221C64.4933 277.14 63.2939 279.526 64.8238 284.603C65.4021 286.509 64.8411 287.535 64.2454 288.628C63.6004 289.8 62.9341 291.026 63.8869 293.145C64.4306 294.344 64.9397 295.144 65.646 295.104C66.6282 295.037 67.0893 293.505 68.2021 289.827C68.4246 289.094 68.6659 288.281 68.9377 287.415C70.6582 281.897 69.3561 279.512 68.5752 278.086C68.4019 277.766 68.2514 277.5 68.1727 277.247C67.9568 276.594 68.4606 276.234 69.9531 275.367C70.4582 275.074 71.0299 274.741 71.619 274.328C72.0401 274.048 72.4932 273.888 72.9956 273.821C72.8704 274.474 72.6438 275.221 72.4013 276.034C71.8389 277.913 71.2018 280.045 71.3378 282.271C71.4297 283.763 71.4351 285.602 71.4404 287.548C71.4538 292.426 71.471 298.489 72.9103 302.793C74.6148 307.898 77.4147 310.057 78.762 311.083C78.806 311.123 78.8473 311.149 78.8886 311.189C78.0824 311.269 76.4752 311.203 74.9347 310.75C73.9645 310.457 72.7091 309.91 72.244 308.977C71.4524 307.365 70.2543 302.367 68.6831 294.092C68.6018 293.665 68.5486 293.371 68.5273 293.278C68.4633 292.985 68.2567 292.892 68.1701 292.879C68.0009 292.825 67.8103 292.892 67.6944 293.025C67.2839 293.478 67.3958 297.303 67.4491 298.302C67.5811 300.821 68.0062 304.499 69.2736 307.711C70.4236 310.629 71.6323 312.842 72.6998 314.787C73.9525 317.066 75.0346 319.052 75.6037 321.438C75.9342 322.837 76.9123 323.93 78.5141 324.689C80.717 325.755 83.7035 325.968 86.013 325.728C85.328 326.608 85.3586 327.501 85.5252 329.26L85.5439 329.46C85.9783 334.017 89.4899 343.08 96.0039 344.373C100.226 345.212 101.124 344.186 101.995 343.186C102.487 342.627 102.951 342.093 104.154 341.867C104.866 341.733 105.468 341.627 105.952 341.547C107.892 341.241 108.621 341.121 108.976 339.415C109.26 340.121 109.594 340.721 109.971 341.027C110.234 341.24 110.54 341.281 110.835 341.161C112.274 340.574 113.315 334.817 113.932 330.073L113.972 329.78C114.749 323.823 114.812 323.343 118.23 319.705C119.189 318.679 120.659 317.413 122.361 315.947C126.964 311.989 133.269 306.551 136.269 300.168C139.295 293.731 138.418 289.76 137.948 287.628C137.855 287.215 137.767 286.815 137.747 286.535C138.478 287.121 140.115 289.174 141.463 290.866C143.413 293.305 145.623 296.063 147.627 297.969C152.222 302.354 160.01 306.685 164.585 306.059C169.111 305.446 169.8 304.526 170.29 302.567C170.69 300.968 167.769 297.023 164.553 292.998L164.401 292.812C163.383 291.532 160.956 286.708 159.008 282.843C157.843 280.538 156.84 278.539 156.396 277.819C153.856 273.728 152.54 270.77 152.49 269.037C152.48 268.691 152.522 268.038 152.575 267.198C152.911 261.868 153.805 247.688 146.334 238.347C137.477 227.259 134.115 224.313 129.929 221.901C129.573 221.688 129.235 221.488 128.911 221.302C126.402 219.836 124.887 218.943 123.666 219.41C123.005 219.663 122.528 220.275 122.168 221.342C121.684 222.794 121.448 227.326 121.199 232.123C121.015 235.681 120.775 240.319 120.418 242.184C120.325 241.092 120.389 239.053 120.446 237.187C120.561 233.442 120.706 228.765 120.181 224.58C118.656 212.426 112.081 201.112 108.152 194.355C106.488 191.49 105.173 189.225 105.014 188.212C104.914 187.586 105.456 186.573 106.5 185.467C110.139 181.562 119.829 176.325 127.83 177.031C131.33 177.337 134.776 177.058 138.108 176.778C144.788 176.218 150.56 175.752 154.258 180.296C159.257 186.426 161.661 188.012 166.449 191.157C167.213 191.664 168.002 192.183 168.883 192.77C172.413 195.142 172.382 199.7 172.352 204.111C172.329 207.456 172.306 210.614 173.809 212.759C174.672 213.985 176.312 215.571 178.39 217.584C184.525 223.514 193.799 232.469 193.421 242.598C193.24 247.488 188.926 251.86 185.338 254.672C181.014 258.043 175.277 261.108 169.597 263.067C169.466 263.12 169.338 263.16 169.208 263.2C164.076 261.948 158.477 261.308 157.11 262.667C156.862 262.921 156.388 263.6 157.298 264.679C158.728 266.372 163.17 266.172 169.248 264.173C169.636 264.267 170.031 264.36 170.43 264.48C178.045 266.545 184.947 269.877 189.366 273.622C196.826 279.952 213.685 297.436 209.09 323.129C207.564 331.658 204.531 337.549 200.073 340.628C195.984 343.453 192.161 342.786 192.123 342.773C191.974 342.746 191.822 342.786 191.712 342.893C191.606 342.999 191.555 343.159 191.582 343.306C191.638 343.639 192.862 351.448 185.381 353.607C177.521 355.873 156.705 353.727 151.014 349.196C150.278 348.61 149.366 347.731 148.336 346.625C147.286 341.307 145.208 336.163 143.621 332.738C139.799 324.489 134.576 317.08 131.73 315.867C130.486 315.334 129.916 316.054 129.728 316.387C128.045 319.359 133.475 328.274 136.863 333.325C140.316 338.469 144.35 343.653 147.446 347.011C148.273 351.382 148.271 355.207 147.383 358.179C144.898 366.508 141.822 372.264 137.977 375.796C133.659 379.767 128.197 381.14 121.278 379.981C112.004 378.435 109.011 375.609 107.222 373.93C106.185 372.958 105.435 372.252 104.114 372.611C102.759 372.998 102.123 372.611 101.316 372.131C100.51 371.638 99.5967 371.092 97.9336 371.252C96.9487 371.332 96.341 371.825 95.7547 372.291C94.3687 373.397 92.7975 374.65 84.2699 369.653C79.1765 366.667 73.2061 362.323 73.462 358.512C73.9937 358.432 75.4264 358.392 76.9323 358.352C82.5894 358.205 93.1213 357.938 101.788 355.14C105.351 353.98 107.894 351.475 110.141 349.263L110.47 348.943C112.285 347.157 113.821 345.092 115.123 342.933C117.309 340.521 118.878 338.136 119.918 336.297C122.532 331.699 123.9 326.861 123.245 324.529C123.151 324.196 122.957 323.516 122.392 323.503C122.39 323.503 122.388 323.503 122.385 323.503C121.695 323.503 121.406 324.369 120.418 327.621C119.316 331.245 117.537 337.123 114.376 342.374C111.036 346.038 106.229 349.743 99.6234 351.528C82.7747 356.086 65.2769 355.3 62.4024 353.767C59.8117 352.368 59.0148 345.185 59.2213 343.959C59.2613 343.706 59.1854 343.493 59.0148 343.346C58.627 343.04 58.0606 343.253 56.8172 343.733C55.0807 344.386 52.4555 345.385 51.1162 344.319C49.6902 343.173 47.6712 334.311 46.1973 327.834C45.1925 323.423 44.3249 319.611 43.6426 317.826C43.2428 316.773 43.0763 315.067 43.1589 312.922C43.1589 312.908 43.1589 312.908 43.1589 312.908C43.4068 306.578 45.7348 297.809 47.7738 295.53C47.7791 295.53 47.7845 295.531 47.7885 295.517C52.1276 295.837 56.7466 295.224 60.2235 293.864C61.5588 293.331 62.0799 292.932 62.0759 292.426C62.0746 292.252 61.9999 291.932 61.5015 291.746C60.3874 291.319 57.1224 291.586 54.4717 292.052C52.4914 292.412 49.0972 293.198 47.4633 294.557C42.867 294.158 38.1601 292.665 34.6046 289.48C33.5198 288.494 32.5509 287.654 31.6967 286.921C28.8915 284.483 27.3469 283.137 27.2696 281.911C27.223 281.178 27.6721 280.365 28.8128 279.099C30.6159 277.087 32.0751 276.78 33.2465 276.54C34.298 276.327 35.2909 276.127 35.8986 274.728C36.4237 273.515 36.1491 271.809 35.8586 269.983C35.4894 267.665 35.1056 265.279 36.3303 263.893C37.8069 262.241 39.2715 259.029 40.8228 255.644C41.8142 253.472 42.8377 251.233 43.8718 249.394C46.4478 244.85 58.6523 238.4 69.3788 234.388C71.1419 233.722 72.757 233.162 74.2496 232.696C77.1268 233.655 80.0907 234.428 83.1278 235.001C88.4251 236.014 92.2898 236.094 93.3332 236.041C94.5526 235.974 95.3229 235.548 95.4415 234.882C95.6214 233.895 94.2861 232.816 91.2396 231.484C86.4568 229.405 81.8111 229.391 74.2736 231.723C71.0886 230.63 67.6904 229.218 64.2415 227.339C62.1812 226.219 60.3048 225.233 58.4911 224.287C48.2083 218.903 42.5432 215.931 39.0077 206.496L38.4493 205.017C34.5553 194.649 31.1917 185.694 33.0254 181.482C35.035 176.858 40.98 171.647 44.2277 171.647C44.2437 171.647 44.2596 171.661 44.2743 171.661C47.0275 171.701 51.4066 178.271 52.8606 180.789C52.9832 181.003 53.2444 181.082 53.4642 180.975C53.6828 180.869 53.7828 180.616 53.6948 180.389C53.6868 180.376 52.8952 178.324 53.0058 175.832C53.1537 172.567 54.7263 170.101 57.6795 168.529C64.56 164.837 84.1326 175.219 92.531 180.829C96.6422 183.561 100.312 184.707 102.113 183.801C102.779 183.468 103.152 182.882 103.194 182.122C103.336 179.417 99.017 173.659 86.4647 165.61C81.0488 162.132 75.7729 160.013 70.7835 159.32C66.7735 158.76 62.9407 159.12 59.3919 160.373C54.3012 162.172 51.3147 165.264 50.4192 166.303C49.377 165.61 46.2 163.771 41.5517 163.505C36.3917 163.198 28.393 164.864 19.5695 174.552C7.77687 187.492 6.50424 193.503 7.51439 196.261C8.00215 197.607 9.04561 198.193 9.85719 198.3C10.6035 198.407 11.3631 198.98 11.8895 199.833C12.7104 201.166 12.8317 202.924 12.2227 204.657C11.5524 206.562 12.2373 207.455 12.8436 208.242C13.498 209.094 14.0657 209.841 12.901 212.173C12.1573 213.666 11.3325 214.852 10.5329 216.011C8.82175 218.49 7.34377 220.622 7.63429 224.42C7.77288 226.219 8.03275 228.072 8.28329 229.857C8.76971 233.322 9.22819 236.587 8.66981 238.666C8.47258 239.412 8.15806 240.412 7.82356 241.478C6.71346 245.037 6.255 246.689 6.36028 247.462C5.22086 249.354 4.30801 251.247 3.58305 253.006C-0.318957 262.468 -0.670744 272.555 0.801837 275.341C1.60276 276.86 2.1371 278.446 2.60886 279.832C3.59102 282.724 4.43999 285.229 7.17326 284.496C7.43446 284.416 7.62765 284.429 7.74092 284.509C8.10074 284.762 8.18067 285.856 8.26596 287.015C8.47386 289.814 8.78706 294.038 13.2101 296.33C14.692 297.103 16.6391 298.102 18.6994 299.168C25.6198 302.727 37.1886 308.67 37.9508 309.457C37.9722 309.483 37.9975 309.51 38.0255 309.537L42.2246 313.109C42.1553 315.307 42.3406 317 42.7763 318.146C43.436 319.891 44.3396 323.85 45.2951 328.048C47.3807 337.203 48.9799 343.786 50.5365 345.039C52.2889 346.451 55.2127 345.332 57.1478 344.585C57.5302 344.452 57.9766 344.279 58.2738 344.186C58.2085 346.198 59.0001 352.981 61.9639 354.58C65.021 356.219 82.5107 357.113 99.8646 352.422C104.686 351.129 108.577 348.837 111.657 346.265C111.08 346.971 110.468 347.637 109.821 348.277L109.489 348.61C107.318 350.742 104.855 353.168 101.502 354.247C92.9641 357.019 82.5187 357.286 76.9083 357.419C73.1075 357.526 72.6198 357.539 72.5652 358.152C72.5625 358.179 72.5585 358.218 72.5545 358.245C72.4892 358.831 72.3386 360.191 73.7565 362.296C75.4464 364.788 78.8246 367.534 83.7994 370.452C92.8788 375.77 94.7125 374.304 96.3317 373.011C96.8568 372.598 97.3098 372.238 98.0188 372.171C99.3795 372.038 100.089 372.465 100.837 372.918C101.716 373.451 102.625 373.997 104.365 373.504C105.142 373.291 105.543 373.624 106.586 374.61C108.452 376.356 111.573 379.301 121.127 380.9C122.761 381.167 124.32 381.3 125.803 381.3ZM130.909 316.6C131.022 316.6 131.171 316.64 131.367 316.72C133.65 317.693 138.663 324.249 142.78 333.124C144.751 337.376 146.19 341.467 147.062 345.212C144.182 341.92 140.684 337.363 137.632 332.805C132.235 324.756 129.515 318.639 130.534 316.84C130.586 316.746 130.668 316.6 130.909 316.6ZM122.342 324.743C122.345 324.756 122.349 324.769 122.353 324.782C122.854 326.555 121.901 330.926 119.112 335.843C118.667 336.629 118.123 337.522 117.474 338.469C119.308 334.471 120.489 330.579 121.306 327.887C121.681 326.648 122.069 325.369 122.342 324.743ZM104.12 317.413C101.81 318.213 95.84 320.864 91.9393 322.61C92.7469 322.104 93.6758 321.504 94.7166 320.824C98.5079 318.332 100.979 317.586 102.386 317.386C103.184 317.266 103.748 317.32 104.12 317.413ZM104.971 318.092C104.975 318.092 104.979 318.092 104.982 318.092C104.978 318.092 104.974 318.092 104.971 318.092ZM100.551 312.762C100.472 312.922 100.035 313.361 97.687 314.294C95.848 315.014 92.4057 314.587 91.2743 314.454L91.0611 314.428C90.8625 314.401 90.616 314.374 90.3414 314.347C89.2913 314.228 87.8534 314.068 87.0152 313.868C86.013 313.615 81.2114 311.243 79.6096 308.897C78.121 306.712 80.0441 302.94 81.4513 301.621C81.5806 301.488 81.6965 301.381 81.8005 301.261C82.2082 301.528 82.4895 301.754 82.5841 301.914C82.7413 302.18 82.8559 302.434 82.9652 302.674C83.3011 303.407 83.6182 304.1 84.9735 305.179C85.9583 305.965 86.0143 306.232 86.1009 306.645C86.1569 306.925 86.2302 307.271 86.51 307.764C86.9818 308.591 87.5788 308.87 88.1585 309.15C88.545 309.337 88.9102 309.496 89.2793 309.856C89.3419 309.91 89.3672 309.977 89.3672 310.057C89.3672 310.523 88.7423 311.256 88.5144 311.456L88.5171 311.469C88.3625 311.629 88.3145 311.762 88.3904 311.962C88.4571 312.149 88.6263 312.268 88.8182 312.268C88.9261 312.268 89.0395 312.215 89.1567 312.122L89.1594 312.135C89.1621 312.122 89.1687 312.122 89.1767 312.109C89.2247 312.069 89.2713 312.029 89.3193 311.976C89.35 311.949 89.3873 311.922 89.4299 311.882C90.1389 311.256 92.9241 311.615 94.7671 311.855C95.4908 311.949 96.1744 312.042 96.7408 312.082C98.5932 312.229 100.195 312.349 100.551 312.762ZM46.6891 295.424C44.5635 298.436 42.6685 306.338 42.2847 311.935L38.6305 308.83C37.7696 307.991 31.7673 304.846 19.1244 298.343C17.0642 297.277 15.1185 296.277 13.6366 295.517C9.67328 293.452 9.39343 289.694 9.19087 286.935C9.07493 285.389 8.99225 284.256 8.27662 283.75C7.92613 283.497 7.47305 283.444 6.92933 283.603C5.11692 284.083 4.53454 282.617 3.48707 279.538C3.00332 278.112 2.45698 276.5 1.62141 274.914C0.264765 272.342 0.696532 262.441 4.43995 253.366C5.12894 251.686 5.99381 249.887 7.06793 248.088C7.5077 248.022 7.98481 247.488 8.63248 246.582C10.858 243.477 32.3643 234.415 41.533 235.148C43.2455 235.282 45.3857 235.241 45.8695 234.308C46.0361 233.988 45.9774 233.616 45.7069 233.296C44.3063 231.63 35.7267 230.191 22.2362 234.402C15.4703 236.508 10.7874 240.905 7.57971 245.569C7.89022 244.37 8.36729 242.851 8.70845 241.758C9.04561 240.679 9.36279 239.666 9.56535 238.906C10.1717 236.641 9.69997 233.282 9.20022 229.724C8.95235 227.952 8.69512 226.126 8.55919 224.34C8.29266 220.875 9.61862 218.97 11.2951 216.531C12.0747 215.411 12.957 214.132 13.7299 212.586C15.1518 209.734 14.3162 208.641 13.5779 207.682C13.0276 206.962 12.5918 206.389 13.0982 204.963C13.7992 202.978 13.6459 200.925 12.6784 199.353C12.0081 198.26 10.9993 197.527 9.97977 197.381C9.79187 197.367 8.83236 197.181 8.38325 195.941C7.63031 193.889 8.17001 188.439 20.2532 175.179C27.0257 167.743 34.354 164.024 41.4437 164.424C46.7956 164.731 50.1886 167.276 50.2219 167.303C50.3205 167.369 50.4431 167.409 50.5657 167.396C50.687 167.369 50.7989 167.316 50.8722 167.209C50.9015 167.169 53.9387 163.265 59.7477 161.226C67.4345 158.534 76.5018 160.306 85.965 166.383C98.1948 174.233 102.391 179.737 102.269 182.069C102.246 182.495 102.058 182.801 101.698 182.974C100.486 183.587 97.3378 182.921 93.0454 180.056C86.2462 175.525 65.0757 163.518 57.2424 167.702C53.1658 169.888 52.1863 173.326 52.081 175.832C52.049 176.578 52.0917 177.298 52.1716 177.937C50.2699 175.072 46.9622 170.767 44.2889 170.727C44.2689 170.727 44.249 170.727 44.229 170.727C40.3376 170.727 34.1608 176.551 32.1764 181.109C30.1921 185.667 33.4545 194.356 37.583 205.337L38.1401 206.829C41.8009 216.584 47.5766 219.609 58.0606 225.113C59.8717 226.059 61.7454 227.032 63.799 228.152C66.6788 229.724 69.6893 231.07 72.805 232.19C71.6256 232.576 70.3796 233.016 69.0523 233.522C58.1712 237.6 45.7495 244.197 43.0656 248.941C42.0115 250.806 40.9786 253.072 39.9791 255.258C38.4599 258.576 37.022 261.721 35.6373 263.28C34.1221 264.986 34.5593 267.718 34.9444 270.13C35.2123 271.81 35.4655 273.395 35.0484 274.355C34.6339 275.314 34.0742 275.421 33.06 275.634C31.8233 275.887 30.1308 276.234 28.1225 278.473C26.7979 279.952 26.2822 280.965 26.3448 281.964C26.4461 283.59 27.9973 284.936 31.089 287.614C31.9419 288.361 32.9068 289.2 33.9862 290.16C37.9642 293.731 42.9696 294.998 46.6891 295.424ZM37.9362 309.43C37.9389 309.43 37.9428 309.444 37.9455 309.444C37.9415 309.444 37.9389 309.43 37.9362 309.43ZM94.8951 303.153C93.9769 303.207 91.6847 303.367 90.3414 303.78C89.6951 303.98 89.2566 304.22 88.9048 304.42C88.3478 304.713 88.1972 304.806 87.7401 304.552C86.8566 304.086 86.2755 303.06 85.8504 302.314L85.7651 302.154C85.5772 301.834 85.5958 301.727 85.6811 301.247C85.7491 300.861 85.8411 300.341 85.8664 299.489C85.9117 297.969 85.1801 297.423 84.5937 296.996C84.3059 296.783 84.058 296.61 83.9074 296.317C83.7235 295.97 83.6848 295.491 83.6635 295.237C83.6489 295.038 83.6155 294.637 83.2091 294.611C82.7893 294.571 82.732 294.811 82.5121 295.69C82.4575 295.904 82.3908 296.17 82.3042 296.503C82.0536 297.489 81.9644 298.169 81.8924 298.729C81.8178 299.302 81.7698 299.675 81.5633 300.048C79.4417 298.835 76.1154 297.45 74.6775 296.93C75.0439 296.85 75.4464 296.757 75.8329 296.597C77.1615 296.077 77.8798 295.144 78.101 294.477C78.6167 294.557 79.5269 294.584 80.8183 293.851C82.8919 292.679 84.9668 291.959 86.542 291.466C87.6015 291.133 88.2611 290.826 88.6343 290.64C89.4272 291.732 91.9367 295.304 93.2093 298.103C93.7118 299.209 94.0235 300.262 94.354 301.394C94.5233 301.968 94.6952 302.554 94.8951 303.153ZM60.8884 292.532C60.6992 292.638 60.3874 292.798 59.8837 292.998C57.1104 294.091 53.1711 294.798 49.0212 294.651C50.3525 293.958 52.4328 293.345 54.9555 292.918C57.9153 292.412 60.0569 292.385 60.8884 292.532ZM73.0996 272.875C72.3826 272.942 71.7216 273.142 71.0939 273.568C70.5329 273.955 69.9771 274.274 69.4881 274.568C68.0581 275.394 66.8242 276.114 67.2919 277.539C67.3972 277.859 67.5664 278.166 67.7623 278.539C68.5179 279.912 69.6573 282.004 68.0528 287.148C67.781 288.014 67.5384 288.827 67.3158 289.56C66.6682 291.692 66.0005 293.918 65.5888 294.171C65.5101 294.118 65.2396 293.892 64.7319 292.759C63.9682 291.066 64.4493 290.187 65.0596 289.067C65.6887 287.921 66.403 286.615 65.7113 284.323C64.2881 279.606 65.3489 277.5 66.287 275.634C66.6175 274.981 66.9294 274.355 67.1253 273.662C67.7863 271.303 68.1714 270.597 71.8429 271.423C72.3813 271.543 72.7331 271.756 72.9144 272.062C73.041 272.276 73.0969 272.555 73.0996 272.875ZM136.227 267.824C136.005 268.064 135.846 268.518 135.612 269.197C135.059 270.797 134.027 273.781 131.375 276.153C126.44 280.551 123.445 283.004 119.207 282.324C116.428 281.884 112.534 280.791 109.099 279.832C107.068 279.272 105.147 278.739 103.649 278.393C102.373 278.086 101.032 277.886 99.734 277.687C96.8701 277.233 94.1648 276.82 92.3498 275.501C90.8132 274.381 88.6543 273.649 86.7486 272.996C85.2654 272.502 83.8661 272.023 83.4303 271.556C82.5174 270.57 82.816 269.464 82.82 269.45C82.8639 269.304 82.8253 269.131 82.716 269.011C82.6067 268.891 82.4428 268.837 82.2856 268.877C82.2336 268.891 77.0216 269.877 73.3328 269.157C72.1121 268.917 70.8421 268.771 69.6147 268.638C67.4918 268.398 65.0837 268.131 64.8771 267.345C64.6253 266.385 66.0312 264.493 67.5211 262.494C68.1128 261.694 68.7244 260.868 69.3148 260.002C69.5547 259.642 69.8372 259.216 70.1637 258.709C72.9556 254.405 78.7674 245.45 88.2292 241.345C99.1263 236.627 116.557 243.011 121.992 246.462C127.869 250.207 136.644 260.202 136.262 265.799C136.215 266.479 136.21 267.145 136.227 267.824ZM167.466 263.747C162.708 265.133 159.026 265.293 158.007 264.08C157.548 263.547 157.711 263.387 157.764 263.334C158.499 262.588 162.259 262.614 167.466 263.747ZM40.4149 234.175C31.4182 234.175 14.5855 241.025 9.30149 244.77C12.3639 240.758 16.6257 237.12 22.5134 235.281C37.3658 230.643 44.5568 233.096 45.0219 233.909C44.8514 234.055 43.9811 234.415 41.6077 234.228C41.2279 234.188 40.828 234.175 40.4149 234.175ZM83.9514 230.857C86.4434 230.857 88.625 231.363 90.8691 232.336C94.5593 233.935 94.5313 234.708 94.53 234.721C94.5126 234.815 94.1302 235.068 93.2826 235.108C93.1853 235.121 85.6852 235.295 75.8089 232.216C79.0019 231.297 81.6126 230.857 83.9514 230.857Z" fill="url(#paint0_radial_4_164)"/>
<path fill-rule="evenodd" clip-rule="evenodd" d="M299.108 255.418C301.56 255.418 303.653 255.058 305.385 254.538C310.369 253.032 312.941 249.981 313.394 248.728C314.034 247.009 314.354 244.783 311.875 241.278C308.903 237.054 302.307 231.71 292.285 225.407C290.433 224.234 288.662 223.181 286.976 222.208C289.966 222.181 293.684 221.648 298.535 220.249C305.132 218.343 308.45 215.505 308.37 211.8C308.224 204.91 295.923 197.541 289.54 195.982C283.519 194.502 278.207 193.956 273.753 194.329C267.622 194.862 263.099 197.167 260.312 201.179C257.107 205.803 256.615 210.627 256.769 213.852C256.934 217.357 257.845 219.743 257.884 219.836C257.944 219.996 258.084 220.103 258.248 220.129C258.414 220.156 258.578 220.089 258.681 219.956C260.457 217.69 262.961 215.425 268.065 215.811C271.836 216.104 276.645 217.77 282.635 220.889C280.488 220.462 278.793 219.756 277.181 219.09C273.761 217.664 270.531 216.318 264.266 217.997C260.367 219.05 258.12 221.022 257.589 223.861C256.415 230.177 264.326 239.173 270.32 243.544C282.962 252.766 292.418 255.418 299.108 255.418ZM284.974 222.141C287.105 223.327 289.38 224.673 291.779 226.193C301.707 232.429 308.21 237.68 311.116 241.812C313.648 245.396 312.915 247.355 312.528 248.408C312.128 249.474 309.73 252.259 305.119 253.645C298.868 255.538 287.849 255.178 270.865 242.784C265.068 238.56 257.399 229.951 258.5 224.034C258.958 221.568 260.98 219.836 264.506 218.903C270.466 217.304 273.412 218.53 276.824 219.943C279.076 220.875 281.484 221.875 284.974 222.141ZM276.61 195.142C280.349 195.142 284.609 195.728 289.327 196.874C295.617 198.407 307.317 205.603 307.437 211.827C307.504 215.052 304.426 217.584 298.282 219.356C292.512 221.022 288.402 221.435 285.223 221.222C278.1 217.304 272.471 215.212 268.135 214.892C263.095 214.519 260.321 216.611 258.497 218.717C257.803 216.305 256.216 208.708 261.072 201.712C263.696 197.927 267.988 195.768 273.833 195.262C274.723 195.182 275.651 195.142 276.61 195.142Z" fill="url(#paint1_radial_4_164)"/>
<path fill-rule="evenodd" clip-rule="evenodd" d="M306.398 319.079C306.704 319.079 306.998 319.052 307.277 318.999C309.143 318.599 310.156 316.973 310.916 315.44C311.622 313.988 312.835 311.975 314.114 309.843C314.847 308.644 315.58 307.417 316.299 306.191C317.326 306.964 318.632 307.711 320.284 308.35C323.896 309.736 326.254 310.056 327.72 309.337C329.04 308.697 329.439 307.391 329.839 306.112C330.199 304.913 330.546 303.779 331.598 303.126C332.624 302.487 333.757 302.153 334.85 301.834C336.383 301.394 337.822 300.981 338.515 299.728C339.048 298.756 339.035 297.409 338.475 295.53C337.289 291.532 339.141 289.707 341.5 287.388C342.633 286.268 343.912 284.989 344.965 283.35C348.07 278.526 348.683 272.782 346.484 269.37C344.978 267.051 343.579 264.999 343.046 264.226C347.79 259.829 353.88 251.406 354.893 249.461C355.586 248.141 354.933 247.182 354.24 246.182C353.6 245.249 352.881 244.196 352.774 242.504C352.641 240.678 353.374 240.239 354.707 239.439C355.759 238.799 357.065 238.013 358.238 236.254C360.89 232.296 362.116 230.484 356.599 219.609C355.786 218.01 354.96 216.597 354.12 215.344C354.493 215.304 354.813 215.185 355.066 214.985C356.852 213.625 357.665 210.56 358.611 207.015C359.304 204.377 360.104 201.379 361.423 198.62C364.555 192.063 365.928 183.814 362.303 181.482C360.504 180.323 357.878 180.469 356.292 180.562C356.439 180.482 356.586 180.389 356.772 180.296C359.624 178.71 361.25 176.857 361.623 174.779C361.97 172.846 361.21 170.767 359.371 168.609C354.653 163.051 341.02 153.883 338.342 152.11C332.931 148.512 327.907 146.833 319.551 149.538C311.569 152.124 305.692 155.762 298.562 162.505C294.844 166.023 291.645 169.115 289.487 171.22C290.726 169.355 292.378 166.969 294.244 164.597C298.029 159.733 310.049 151.111 317.632 147.819C321.03 146.34 323.642 146.087 325.042 145.953C326.081 145.847 326.601 145.794 326.747 145.314C326.921 144.767 326.388 144.314 325.095 143.221C323.109 141.542 321.297 140.97 319.844 140.503C318.472 140.077 317.566 139.783 317.086 138.824C316.593 137.811 315.82 137.424 315.14 137.078C314.101 136.558 313.194 136.105 312.955 133.44C312.755 131.254 310.956 129.375 307.731 128.002C305.278 126.963 303.493 124.764 302.96 122.112C302.68 120.753 302.44 119.686 302.267 118.954C301.92 117.514 301.014 116.928 300.214 116.422C299.455 115.942 298.815 115.542 298.562 114.463C298.215 113.01 297.189 112.81 295.91 112.557C294.471 112.277 292.498 111.891 289.926 109.705C288.288 108.319 287.386 107.146 286.728 106.293C286.019 105.374 285.551 104.761 284.745 104.681C284.027 104.601 283.214 104.934 281.52 106.027C277.607 108.533 269.471 113.757 264.423 129.842C261.096 140.436 258.965 155.615 258.657 168.462C253.238 161.892 244.588 156.068 236.713 150.778C232.987 148.272 229.632 147.739 226.74 149.165C221.404 151.817 219.554 160.133 219.322 164.171C219.049 168.888 217.967 171.727 216.594 175.325C215.843 177.297 214.991 179.536 214.122 182.441C212.895 186.546 212.92 188.892 212.942 190.597C212.96 192.33 212.971 193.276 211.641 194.848C210.192 196.554 203.176 205.763 207.332 219.209C209.154 225.099 208.459 227.392 207.722 229.818C206.971 232.283 206.197 234.828 207.675 240.945C208.662 245.036 210.823 247.982 214.094 249.727C219.356 252.539 227.622 252.099 237.37 248.488C244.16 245.982 249.042 241.038 251.943 237.347C255.08 233.349 256.598 229.977 256.661 229.844C256.71 229.724 256.715 229.604 256.673 229.497C256.649 229.431 254.225 222.648 253.306 212.639C252.439 203.191 260.648 191.104 272.403 184.547C284.267 177.924 298.602 175.472 308.93 178.297L309.316 178.404C320.098 181.349 323.349 182.242 329.773 189.984C330.865 191.304 331.878 192.476 332.771 193.516C335.756 196.967 337.542 199.06 337.315 200.432C337.222 200.992 336.742 201.499 335.836 202.032C335.53 202.205 334.637 202.378 332.211 201.485C331.478 201.218 330.679 200.872 329.826 200.472C328.72 197.541 325.695 194.329 321.124 189.491C315.007 183.001 306.225 177.951 303.733 179.483C303.253 179.776 302.773 180.442 303.293 181.868C304.346 184.84 312.461 190.783 314.927 192.529C319.991 196.141 325.135 199.26 329.066 201.139C329.626 202.938 329.36 204.604 328.187 206.589C325.268 211.493 314.86 217.543 311.289 218.516C310.582 217.517 309.716 216.691 308.61 216.117C307.411 215.491 306.704 215.371 306.305 215.745C306.158 215.878 305.932 216.211 306.198 216.797C306.651 217.864 308.703 219.715 310.676 219.569C310.729 219.569 310.796 219.556 310.849 219.556C312.501 222.301 312.981 226.406 313.341 230.75C313.874 237.333 313.608 237.413 311.555 237.987C311.022 238.146 310.702 238.4 310.622 238.76C310.569 238.973 310.596 239.319 310.996 239.679C312.075 240.639 315.58 241.411 318.405 240.412C319.205 240.132 320.004 239.785 320.777 239.439C321.963 238.919 323.123 238.413 324.269 238.133C324.535 238.759 325.242 239.239 325.948 239.692C327.427 240.665 328.014 241.198 327.334 242.264C326.028 244.263 325.268 244.343 323.429 244.543C322.39 244.663 321.097 244.796 319.298 245.316C317.366 245.889 314.954 247.795 312.835 250.447C311.302 252.339 309.636 255.057 309.969 256.497C310.049 256.843 310.369 257.616 311.649 257.403C314.127 257.003 315.34 255.524 316.873 253.645C317.965 252.313 319.325 250.66 321.524 248.901C324.602 246.449 325.535 246.462 326.934 246.489C327.894 246.502 329.106 246.529 331.238 245.822C333.411 245.103 334.317 244.503 334.477 243.69C334.677 242.691 333.624 241.784 332.038 240.412C331.492 239.932 330.879 239.399 330.226 238.786C328.627 237.294 327.014 236.88 325.415 237C325.628 236.774 325.975 236.481 326.534 236.121C331.958 232.669 334.264 225.619 333.291 221.062C333.024 219.822 332.718 218.996 332.078 218.943C331.278 218.876 330.812 220.049 329.959 222.181C329.533 223.247 329.053 224.473 328.48 225.606C327.987 226.566 327.667 227.365 327.401 228.005C326.574 230.03 326.361 230.577 322.896 231.496C320.324 232.163 318.325 231.963 317.232 230.923C316.206 229.937 315.94 228.205 316.473 225.766C316.859 223.94 317.486 222.861 318.112 222.861C318.125 222.861 318.125 222.861 318.139 222.861C318.965 222.887 320.111 224.606 320.431 226.845C320.671 228.604 321.47 229.697 322.576 229.777C324.229 229.897 325.855 227.698 326.947 223.914C328.187 219.609 327.427 217.437 326.921 215.998C326.601 215.118 326.468 214.665 326.721 214.145C327.334 212.879 328.787 210.867 330.066 210.814C330.612 210.8 331.119 211.173 331.572 211.933C333.011 214.385 334.104 218.463 334.757 220.902C334.983 221.728 335.157 222.381 335.276 222.741C335.396 223.074 335.663 223.274 336.023 223.301C337.102 223.407 339.101 221.808 340.127 220.009C341.087 218.316 341.114 216.69 340.194 215.398C339.115 213.905 337.635 212.799 336.209 211.733C334.357 210.334 332.744 209.134 332.584 207.429C332.491 206.336 332.851 205.549 333.571 205.35C334.41 205.11 335.73 205.683 336.649 207.509C338.182 210.52 337.529 211.293 337.515 211.307C337.529 211.28 337.542 211.28 337.542 211.28L338.115 212C338.342 211.827 339.341 210.774 337.475 207.095C336.303 204.777 334.544 204.097 333.317 204.457C332.411 204.723 331.492 205.656 331.665 207.522C331.865 209.627 333.704 211.014 335.663 212.466C337.022 213.493 338.435 214.558 339.434 215.944C340.5 217.424 339.634 219.13 339.021 220.022C337.968 221.542 336.543 222.394 336.143 222.394C336.023 222.034 335.863 221.435 335.65 220.662C334.983 218.183 333.877 214.026 332.371 211.467C331.732 210.387 330.945 209.854 330.039 209.894C328.213 209.961 326.574 212.346 325.895 213.746C325.455 214.639 325.721 215.411 326.041 216.304C326.534 217.704 327.214 219.636 326.055 223.661C325.002 227.339 323.576 228.911 322.63 228.844C322.017 228.804 321.524 227.991 321.35 226.725C321.017 224.407 319.751 221.994 318.179 221.928C317.352 221.901 316.22 222.514 315.567 225.579C314.967 228.338 315.313 230.363 316.593 231.589C317.939 232.882 320.204 233.149 323.123 232.389C326.867 231.403 327.334 230.63 328.267 228.351C328.52 227.725 328.826 226.952 329.306 226.019C329.893 224.86 330.386 223.62 330.825 222.514C331.212 221.541 331.692 220.342 331.985 219.955C332.078 220.115 332.211 220.475 332.385 221.248C333.291 225.513 331.132 232.096 326.041 235.334C325.002 236.001 324.415 236.6 324.229 237.187C322.936 237.48 321.67 238.04 320.404 238.6C319.644 238.919 318.858 239.266 318.099 239.546C315.273 240.545 312.115 239.506 311.582 238.959C311.635 238.946 311.702 238.919 311.808 238.879C314.674 238.066 314.78 237.093 314.261 230.67C313.914 226.352 313.421 222.235 311.795 219.329C316.046 218.05 326.121 211.88 328.986 207.056C330.146 205.083 330.519 203.378 330.172 201.645C330.785 201.925 331.359 202.151 331.892 202.351C334.037 203.137 335.49 203.298 336.303 202.831C337.462 202.165 338.075 201.445 338.222 200.592C338.542 198.78 336.742 196.701 333.477 192.916C332.585 191.876 331.572 190.704 330.479 189.384C323.869 181.428 320.257 180.429 309.556 177.511L309.183 177.404C298.629 174.512 284.016 177.004 271.953 183.734C266.312 186.879 261.208 191.477 257.579 196.674C253.777 202.112 251.932 207.815 252.384 212.732C253.23 221.941 255.344 228.458 255.738 229.617C254.999 231.176 248.897 243.237 237.049 247.622C227.553 251.126 219.556 251.593 214.53 248.914C211.502 247.301 209.498 244.543 208.575 240.732C207.155 234.855 207.894 232.429 208.609 230.084C209.387 227.525 210.123 225.099 208.219 218.929C204.203 205.949 210.953 197.088 212.349 195.448C213.901 193.623 213.888 192.41 213.867 190.597C213.849 188.945 213.822 186.679 215.01 182.708C215.869 179.83 216.714 177.617 217.459 175.658C218.86 171.98 219.967 169.075 220.247 164.224C220.504 159.76 222.557 152.284 227.153 150.005C229.724 148.725 232.766 149.245 236.198 151.55C244.364 157.041 253.376 163.091 258.629 169.915C258.558 175.352 258.826 180.309 259.486 184.241C259.731 185.706 260.315 186.652 261.128 186.892C261.709 187.079 262.338 186.866 262.855 186.32C264.261 184.827 264.91 180.869 263.013 175.725C262.232 173.619 261.046 171.58 259.556 169.608C259.759 156.628 261.903 140.956 265.307 130.122C270.254 114.356 278.2 109.252 282.02 106.8C283.452 105.881 284.189 105.547 284.644 105.6C285.039 105.64 285.362 106.04 285.994 106.867C286.679 107.746 287.614 108.959 289.327 110.412C292.085 112.757 294.284 113.184 295.723 113.464C297.029 113.717 297.456 113.836 297.656 114.676C298.002 116.115 298.908 116.689 299.708 117.208C300.468 117.675 301.107 118.088 301.36 119.167C301.534 119.887 301.774 120.94 302.04 122.299C302.653 125.244 304.639 127.696 307.371 128.855C309.383 129.722 311.822 131.228 312.035 133.52C312.328 136.691 313.594 137.344 314.727 137.904C315.353 138.224 315.886 138.504 316.26 139.237C316.899 140.556 318.139 140.943 319.564 141.396C320.937 141.822 322.656 142.368 324.495 143.914C324.842 144.221 325.362 144.661 325.641 144.954C325.455 144.981 325.188 145.007 324.948 145.02C323.496 145.167 320.791 145.433 317.259 146.966C309.423 150.378 297.442 158.987 293.511 164.024C289.593 169.035 286.535 174.112 286.503 174.166C286.384 174.365 286.431 174.619 286.615 174.766C286.797 174.912 287.061 174.898 287.228 174.725C287.277 174.685 292.365 169.648 299.188 163.185C306.211 156.535 311.995 152.963 319.844 150.418C327.84 147.833 332.651 149.445 337.822 152.87C345.191 157.761 355.066 164.983 358.678 169.208C360.317 171.154 361.01 172.966 360.717 174.605C360.384 176.405 358.904 178.044 356.319 179.483C354.92 180.269 354.44 180.589 354.587 181.096C354.733 181.589 355.24 181.548 356.346 181.495C357.812 181.402 360.25 181.268 361.796 182.255C364.821 184.214 363.515 192.063 360.584 198.22C359.224 201.058 358.425 204.097 357.705 206.776C356.812 210.161 356.039 213.079 354.507 214.252C354.36 214.359 354.067 214.478 353.507 214.425C348.896 207.962 344.219 206.296 340.86 205.643C340.234 205.523 339.848 205.643 339.674 206.003C339.541 206.296 339.248 206.909 342.406 209.441C344.405 211.04 349.669 214.745 352.974 215.291C353.907 216.65 354.853 218.223 355.773 220.035C361.037 230.417 359.997 231.976 357.465 235.734C356.412 237.334 355.253 238.026 354.227 238.639C352.854 239.465 351.681 240.185 351.841 242.571C351.975 244.516 352.814 245.729 353.481 246.702C354.174 247.715 354.493 248.234 354.08 249.021C353.054 250.993 346.831 259.575 342.153 263.787C342.126 263.8 342.113 263.827 342.086 263.84C341.473 264.4 340.874 264.879 340.327 265.239C339.861 265.572 339.314 265.959 338.688 266.412C333.144 270.397 321.603 278.699 309.21 272.636C295.11 265.746 282.991 258.416 279.044 254.418C278.376 253.739 277.601 252.912 276.781 252.033C272.281 247.235 266.678 241.238 263.135 242.491C262.566 242.691 262.129 243.131 261.839 243.784C259.58 248.834 266.684 266.612 268.131 270.117C268.805 271.756 269.499 273.595 270.238 275.527C271.101 277.806 271.994 280.165 273.02 282.657C276.491 291.093 281.685 301.807 291.139 309.829C298.695 316.226 303.373 319.079 306.398 319.079ZM315.58 305.578C314.834 306.871 314.061 308.164 313.328 309.364C312.035 311.509 310.809 313.535 310.076 315.027C309.143 316.96 308.277 317.839 307.091 318.092C304.439 318.639 299.708 315.88 291.739 309.123C282.437 301.234 277.307 290.64 273.877 282.297C272.856 279.819 271.965 277.473 271.103 275.207C270.363 273.248 269.666 271.41 268.986 269.77C264.75 259.482 261.158 247.581 262.687 244.157C262.869 243.743 263.119 243.49 263.444 243.371C266.416 242.318 272.246 248.555 276.105 252.672C276.929 253.552 277.707 254.391 278.384 255.071C282.398 259.136 294.617 266.532 308.797 273.462C312.088 275.074 315.3 275.714 318.365 275.714C327.334 275.714 334.997 270.21 339.234 267.158C339.847 266.718 340.381 266.332 340.847 266.012C341.327 265.692 341.82 265.305 342.34 264.852C342.926 265.679 344.259 267.651 345.698 269.877C347.404 272.502 347.43 277.806 344.192 282.843C343.179 284.402 341.993 285.589 340.847 286.721C338.382 289.16 336.249 291.266 337.582 295.784C338.062 297.396 338.102 298.542 337.702 299.289C337.196 300.195 335.996 300.541 334.597 300.941C333.491 301.261 332.238 301.621 331.105 302.34C329.759 303.18 329.333 304.592 328.946 305.845C328.587 307.031 328.267 308.044 327.321 308.51C326.121 309.097 323.922 308.764 320.617 307.484C318.991 306.858 317.739 306.138 316.779 305.366C318.885 301.674 320.657 298.089 320.711 295.677C320.777 292.719 319.511 292.105 318.752 291.999C316.713 291.706 313.994 294.478 313.168 297.676C312.755 299.289 312.408 302.66 315.58 305.578ZM318.445 292.905C318.498 292.905 318.565 292.905 318.618 292.918C319.684 293.065 319.804 294.691 319.791 295.65C319.738 297.823 318.045 301.274 316.06 304.739C313.421 302.167 313.701 299.302 314.061 297.903C314.794 295.104 317.006 292.905 318.445 292.905ZM326.508 245.556C325.162 245.556 323.962 245.769 320.95 248.181C318.672 249.994 317.286 251.7 316.166 253.059C314.634 254.911 313.634 256.137 311.502 256.497C310.942 256.59 310.889 256.39 310.862 256.284C310.702 255.564 311.582 253.472 313.554 251.02C315.567 248.514 317.805 246.729 319.564 246.209C321.27 245.702 322.523 245.569 323.523 245.463C325.428 245.263 326.574 245.143 328.107 242.758C329.359 240.825 327.614 239.679 326.454 238.919C325.961 238.599 325.468 238.266 325.228 237.96C326.708 237.787 328.16 238.133 329.586 239.466C330.252 240.092 330.879 240.625 331.438 241.118C332.624 242.145 333.664 243.037 333.571 243.503C333.517 243.783 333.011 244.25 330.959 244.943C328.973 245.596 327.894 245.582 326.947 245.556C326.801 245.556 326.654 245.556 326.508 245.556ZM307.064 216.477C307.251 216.517 307.597 216.637 308.17 216.93C308.983 217.357 309.65 217.93 310.223 218.636C309.343 218.543 308.45 217.984 307.851 217.437C307.424 217.051 307.171 216.691 307.064 216.477ZM340.7 206.549C343.739 207.148 347.923 208.615 352.121 214.119C351.961 214.065 351.788 214.012 351.588 213.932C349.656 213.199 346.991 211.68 344.472 209.841C342.353 208.308 341.114 207.122 340.7 206.549ZM304.892 180.136C305.931 180.136 307.864 180.736 310.502 182.242C313.927 184.174 317.552 187.052 320.457 190.131C324.509 194.435 327.254 197.34 328.52 199.846C319.311 195.195 305.385 184.986 304.159 181.562C303.999 181.095 303.866 180.482 304.226 180.269C304.372 180.176 304.599 180.136 304.892 180.136ZM259.542 171.154C260.64 172.753 261.526 174.379 262.143 176.045C264.025 181.149 263.197 184.6 262.18 185.68C262.026 185.84 261.714 186.106 261.398 186.013C261.053 185.906 260.611 185.346 260.4 184.08C259.798 180.496 259.525 176.045 259.542 171.154Z" fill="url(#paint2_radial_4_164)"/>
<path fill-rule="evenodd" clip-rule="evenodd" d="M243.92 307.377C245.776 307.377 247.765 306.431 249.7 305.512C252.42 304.219 254.987 303.006 256.773 304.525C258.494 305.978 260.355 307.271 262.299 306.858C264.111 306.471 265.737 304.646 267.416 301.127C270.829 293.958 274.862 284.829 274.902 284.736C275.006 284.496 274.901 284.23 274.665 284.123C274.432 284.016 274.158 284.123 274.056 284.362C274.013 284.456 269.987 293.571 266.58 300.728C265.056 303.926 263.593 305.632 262.104 305.952C260.85 306.218 259.479 305.605 257.372 303.819C255.131 301.914 252.168 303.313 249.304 304.672C247.109 305.712 244.84 306.791 243 306.338C240.252 305.672 238.94 302.606 237.672 299.635C237.008 298.075 236.38 296.609 235.561 295.503C234.259 293.744 232.734 294.264 231.388 294.731C229.91 295.251 228.635 295.69 227.282 293.664C225.999 291.745 225.495 289.826 224.91 287.614C224.207 284.962 223.41 281.937 221.044 278.126C216.908 271.45 214.302 266.678 215.722 261.561C217.089 256.617 218.845 255.391 218.864 255.377C219.045 255.244 219.117 255.018 219.035 254.818C218.951 254.604 218.737 254.484 218.523 254.524C218.469 254.538 213.201 255.444 207.526 251.18C201.761 246.848 193.012 231.616 195.724 221.341C197.242 215.584 197.724 207.109 196.952 199.739C196.653 196.86 196.11 193.609 195.145 190.557C195.944 190.197 196.695 189.784 197.384 189.331C201.012 186.985 203.072 183.734 202.893 180.656C202.74 178.03 200.613 175.219 196.903 172.74C190.932 168.755 180.619 165.81 172.09 168.782L171.552 168.968C165.891 170.941 163.003 171.94 160.86 171.94C160.827 171.94 160.794 171.94 160.76 171.94C158.664 171.9 157.133 170.847 154.08 168.755L153.427 168.302C152.13 167.409 151.482 166.343 151.449 165.037C151.334 160.519 158.595 154.909 158.668 154.856C158.872 154.709 158.909 154.415 158.755 154.215C158.6 154.002 158.308 153.962 158.106 154.122C157.791 154.362 150.395 160.066 150.523 165.063C150.564 166.663 151.365 168.009 152.902 169.061L153.553 169.515C160.014 173.966 160.236 173.886 171.856 169.834L172.396 169.648C180.625 166.782 190.602 169.648 196.389 173.513C199.8 175.792 201.834 178.417 201.969 180.722C202.127 183.454 200.225 186.386 196.879 188.558C196.253 188.958 195.572 189.345 194.851 189.678C193.631 186.213 191.819 183.108 189.124 181.322C186.137 179.363 183.106 178.949 180.809 180.202C179.02 181.175 177.922 183.055 177.943 185.093C177.967 187.492 179.452 189.624 182.019 190.957C185.829 192.929 190.476 192.476 194.279 190.93C197.222 200.272 196.774 213.732 194.828 221.102C193.574 225.859 194.554 232.149 197.585 238.826C200.113 244.396 203.798 249.54 206.969 251.926C211.338 255.218 215.426 255.604 217.421 255.55C216.697 256.483 215.682 258.229 214.829 261.308C213.308 266.798 215.991 271.729 220.257 278.606C222.549 282.31 223.327 285.256 224.015 287.854C224.594 290.053 225.143 292.132 226.511 294.171C228.26 296.796 230.163 296.143 231.693 295.61C233.114 295.117 233.959 294.89 234.814 296.05C235.573 297.076 236.178 298.489 236.819 299.994C238.114 303.02 239.581 306.458 242.78 307.244C243.152 307.337 243.534 307.377 243.92 307.377ZM193.987 190.064C190.396 191.53 186.011 191.983 182.444 190.131C180.193 188.958 178.89 187.119 178.868 185.093C178.852 183.388 179.765 181.815 181.252 181.016C183.239 179.936 185.922 180.323 188.614 182.095C191.003 183.681 192.756 186.533 193.987 190.064Z" fill="url(#paint3_radial_4_164)"/>
<path fill-rule="evenodd" clip-rule="evenodd" d="M164.323 160.826C167.401 160.826 171.396 160.16 175.542 159.467C179.809 158.761 184.218 158.014 187.424 158.108C192.937 158.254 195.996 154.922 198.698 151.977C199.963 150.605 201.156 149.299 202.51 148.419C203.52 147.766 205.324 146.807 207.415 145.7C214.606 141.889 225.473 136.145 227.302 130.788C229.688 123.818 234.252 116.981 238.402 111.238C241.422 107.04 242.842 99.9236 243.986 94.2065C244.568 91.3014 245.071 88.7825 245.649 87.4366C246.326 85.864 245.866 83.1586 244.386 80.0002C242.188 75.3093 237.881 69.9656 233.21 68.5796C228.37 67.1537 221.581 71.4982 215.9 76.9621C216.355 74.4434 216.487 72.0445 216.177 69.8589C215.388 64.2884 213.801 60.1572 212.401 56.5057C210.679 52.028 209.317 48.4833 209.973 43.9522C210.084 43.1793 210.207 42.3927 210.326 41.6331C211.53 33.8637 212.778 25.8416 204.976 21.3772C198.845 17.8723 192.871 11.9953 188.918 8.104C187.325 6.5448 186.067 5.30528 185.207 4.61229C181.963 2.02695 170.184 -0.598511 164.748 1.48044C164.1 1.72031 163.472 1.97391 162.859 2.21378C158.443 3.95955 154.63 5.45204 147.991 4.79904C140.212 4.02611 132.3 10.4891 131.967 10.7556C131.827 10.8756 131.768 11.0626 131.818 11.2359C131.866 11.4224 132.014 11.5421 132.195 11.582C132.243 11.582 137.116 12.3287 141.894 13.5947C142.855 13.8612 143.706 13.981 144.531 14.1009C146.248 14.3408 147.73 14.5539 149.665 15.9132C152.643 18.0188 155.463 20.5776 158.192 23.043C160.401 25.042 162.487 26.9342 164.597 28.5467C165.573 29.293 166.644 30.3324 167.885 31.5185C169.6 33.1843 171.543 35.0632 173.808 36.7157C175.498 37.9417 177.391 38.9814 179.06 39.9009C181.255 41.1136 183.15 42.1531 183.994 43.2592C185.572 45.3248 186.145 49.3229 186.329 52.7212C185.129 50.3757 182.838 47.3502 178.607 43.6054C172.432 38.1415 168.183 35.3698 164.769 33.1576C162.049 31.3852 159.901 29.9863 157.899 27.894C156.992 26.9345 156.135 25.9481 155.307 24.9886C151.956 21.1106 148.788 17.4456 142.442 16.0863C132.908 14.0606 125.961 13.0744 120.578 13.0078C114.363 12.9411 110.462 17.5791 108.065 21.0707C107.197 22.3367 104.594 22.5099 102.08 22.6832C99.2903 22.8697 96.6557 23.0429 95.5203 24.5754C94.81 25.5349 94.4182 26.721 94.0037 27.9604C93.1588 30.5058 92.2007 33.3976 88.2574 35.9563C84.1062 38.6483 77.2323 44.2588 77.832 51.615C78.1465 55.4664 77.5375 61.117 76.9977 66.1011C76.7206 68.6465 76.4594 71.0581 76.3608 72.9238C76.0663 78.4276 81.3795 85.091 84.7991 87.9962C87.8162 90.5549 95.3297 99.0838 97.2794 103.575C98.8826 107.266 106.284 115.103 109.175 118.075C107.232 117.435 103.542 115.755 98.8133 111.398C94.8033 107.706 90.7454 101.483 87.1659 95.9921C84.2554 91.5277 81.5075 87.317 79.21 85.1181C74.5724 80.667 67.4866 83.1723 64.083 84.3717C63.5939 84.545 63.1715 84.7046 62.833 84.7979C61.2298 85.291 61.4284 87.9832 61.6803 91.3948C61.9548 95.0996 62.2946 99.7103 60.1997 101.816C58.4046 103.615 57.7143 107.64 58.3992 112.331C59.1948 117.768 61.9908 124.631 67.4493 127.576C76.1369 132.28 83.8742 140.449 86.0625 145.3C87.2805 148.006 91.2931 151.378 96.0494 153.67C101.938 156.522 108.178 157.441 113.618 156.268C120.324 154.815 126.834 155.655 132.576 156.388C137.14 156.975 141.08 157.468 144.04 156.641C148.865 155.295 153.428 151.711 155.135 147.926C156.097 145.794 156.12 143.675 155.202 141.769C154.649 140.636 154.47 139.917 154.651 139.57C154.871 139.17 155.792 138.997 157.101 138.811C158.358 139.037 159.37 139.264 159.762 139.517C159.517 140.57 158.613 144.554 158.159 148.712C157.433 155.335 158.174 159.2 160.361 160.187C161.36 160.64 162.717 160.826 164.323 160.826ZM186.896 157.174C183.669 157.174 179.463 157.881 175.389 158.56C169.497 159.533 163.404 160.546 160.742 159.346C157.108 157.707 159.497 144.448 160.724 139.477C160.756 139.344 160.73 139.21 160.65 139.104C160.468 138.85 160.143 138.637 159.654 138.464C162.511 138.024 166.341 137.171 171.123 134.799C183.501 128.642 185.488 123.765 189.446 114.036L189.881 112.97C190.44 111.598 191.014 110.212 191.593 108.799C195.459 99.4175 199.458 89.702 200.408 84.0516C201.276 78.8942 199.409 72.3244 194.703 63.9687C193.396 61.6499 191.177 60.5702 188.774 61.09C185.74 61.743 182.453 65.0348 181.95 70.9118C181.652 74.3634 181.438 80.1601 181.21 86.3037C180.841 96.2186 180.425 107.467 179.565 110.665C179.078 112.477 178.94 114.676 179.163 116.542C177.673 117.089 175.785 117.848 173.381 118.848C172.284 119.301 171.108 119.66 169.876 119.953C169.72 119.447 169.563 118.954 169.405 118.447C168.734 116.328 168.099 114.316 167.863 112.677C167.618 110.971 166.904 109.252 166.214 107.586C164.541 103.548 162.962 99.7501 167.777 96.2986C168.803 95.5656 169.686 94.9797 170.465 94.4466C175.27 91.235 175.625 90.7549 175.172 81.1865C174.729 71.8579 173.467 60.4105 167.572 54.6135C163.215 50.3356 160.354 47.9899 158.611 48.7096C157.715 49.0827 157.267 50.1625 157.243 52.0282C157.201 55.4131 161.003 62.4628 164.681 69.2726C167.322 74.1635 169.816 78.7878 170.025 80.6536C170.39 83.9186 168.35 89.1558 167.292 89.2624C167.284 89.2758 166.509 89.3158 166.094 85.5976C164.974 75.6294 160.946 60.4768 156.288 57.9581C154.304 56.8787 153.151 55.4527 152.225 54.2933C151.135 52.9473 150.191 51.7747 148.539 52.3744C147.51 52.7475 145.275 52.2949 143.112 51.8551C140.261 51.2821 137.314 50.6957 135.733 51.5753C134.183 52.4415 133.229 54.5066 132.387 56.3456C131.775 57.665 131.143 59.0375 130.522 59.2641C129.079 59.8105 126.203 62.1562 125.157 64.475C124.705 65.4611 124.629 66.3677 124.928 67.1539C125.953 69.8459 125.737 78.6808 124.623 79.587C123.73 80.32 123.222 81.8393 123.39 83.2785C123.514 84.3446 124.12 86.317 126.792 87.6363C128.316 88.3693 130.045 89.5287 131.72 90.6348C134.847 92.7004 137.548 94.4995 139.137 93.9931C140.767 93.4734 141.47 92.4475 143.011 90.2353C143.733 89.1958 144.634 87.9034 145.917 86.2243C147.775 83.8122 149.197 82.7593 150.45 81.8398C151.89 80.787 153.251 79.7871 154.861 77.0551C155.584 75.8158 156.408 74.6832 157.203 73.5771C158.903 71.2183 160.37 69.1791 159.99 67.3667C159.802 66.4738 159.192 65.7279 158.124 65.1016C155.899 63.7956 153.565 63.169 151.312 62.556C149.197 61.983 147.201 61.4368 145.5 60.384C143.196 58.958 142.2 59.6639 140.823 60.6501C139.812 61.3564 138.556 62.2497 136.217 62.7695C132.302 63.649 129.692 66.3538 128.554 68.5927C127.822 70.0319 127.636 71.3916 128.042 72.3245C128.476 73.324 128.815 75.8029 129.143 78.2017C129.539 81.0935 129.948 84.092 130.608 85.5046C131.663 87.7968 135.824 91.3277 137.789 91.6076C138.382 91.6876 138.708 91.4747 138.877 91.2881C139.067 91.0616 139.575 90.7151 140.112 90.342C141.529 89.3825 143.291 88.1696 143.187 86.8236C143.135 86.1439 142.612 85.5578 141.635 85.0914C140.267 84.4251 139.207 84.1848 138.434 83.9982C137.019 83.665 136.641 83.5854 136.318 81.6264C135.973 79.5208 134.992 78.3743 134.043 77.2549C133.36 76.4553 132.652 75.6295 132.15 74.4035C130.944 71.4717 131.887 68.4997 132.557 67.8866C133.071 67.4069 133.624 67.0604 133.927 66.9405C133.91 67.0205 133.878 67.1271 133.826 67.2737C133.348 68.5797 133.586 68.9931 134.206 69.5661C134.488 69.8193 134.84 70.1521 135.203 70.8317C135.686 71.7513 135.664 72.9239 135.641 74.0567C135.618 75.1761 135.596 76.2425 136.092 77.0154C136.297 77.322 136.261 77.5082 136.222 77.6948C136.19 77.8547 136.136 78.1346 136.335 78.3611C136.607 78.6809 137.008 78.6942 139.139 78.6142C140.493 78.5609 141.489 78.8813 142.364 79.1478C143.936 79.6409 145.292 80.0671 147.383 77.8815C148.13 77.0953 148.794 76.5224 149.38 76.016C151.055 74.5634 152.065 73.6971 150.536 71.0185C149.843 69.8191 149.461 68.7932 149.122 67.9003C148.599 66.5143 148.145 65.3146 146.786 64.1685C146.242 63.7154 145.924 63.3157 145.671 62.9959C144.779 61.8765 144.33 61.7299 141.575 62.6361C140.866 62.8626 140.175 63.0755 139.565 63.262C137.331 63.9284 135.984 64.3421 135.752 65.235C135.646 65.6481 135.804 66.0609 136.221 66.5006C136.225 66.5006 136.23 66.501 136.234 66.5143L136.272 66.554C138.508 68.8461 140.535 71.4846 138.62 73.6435C137.707 74.6696 137.63 75.7761 138.405 76.6823C138.777 77.1087 139.31 77.4549 139.923 77.6948C139.663 77.6815 139.391 77.6815 139.105 77.6948C138.473 77.7081 137.582 77.7481 137.159 77.7215C137.202 77.4416 137.208 77.0289 136.869 76.5092C136.529 75.9761 136.547 75.0565 136.566 74.0703C136.59 72.8843 136.617 71.5383 136.022 70.4055C135.585 69.5793 135.152 69.1793 134.836 68.8861C134.439 68.513 134.378 68.4594 134.696 67.5932C134.799 67.3133 135.111 66.4606 134.548 66.0874C133.763 65.5677 132.228 66.9274 131.927 67.2073C130.822 68.2334 130.027 71.6849 131.293 74.7633C131.852 76.1226 132.607 77.0023 133.338 77.8685C134.285 78.9746 135.1 79.9337 135.404 81.7728C135.808 84.2382 136.605 84.5315 138.223 84.9046C138.995 85.0912 139.958 85.3041 141.236 85.9171C141.686 86.1437 142.231 86.4775 142.262 86.8906C142.326 87.7169 140.679 88.8357 139.589 89.5819C138.952 90.0217 138.448 90.3686 138.179 90.6751C138.172 90.6751 138.099 90.7148 137.92 90.6881C136.371 90.4616 132.441 87.2636 131.449 85.1181C130.848 83.8254 130.43 80.7733 130.061 78.0813C129.709 75.5093 129.376 73.0707 128.893 71.9646C128.601 71.2983 128.783 70.1923 129.38 69.0195C130.421 66.9672 132.819 64.4882 136.419 63.6752C138.939 63.1155 140.337 62.1294 141.358 61.3965C142.683 60.4636 143.231 60.0772 145.012 61.17C146.829 62.2894 148.888 62.8491 151.068 63.4488C153.265 64.0485 155.536 64.662 157.654 65.9013C158.484 66.3944 158.952 66.9405 159.083 67.5535C159.378 68.9661 158.022 70.8449 156.452 73.0305C155.644 74.1499 154.807 75.3226 154.062 76.5886C152.55 79.1473 151.322 80.054 149.902 81.0934C148.599 82.0529 147.119 83.1453 145.183 85.664C143.885 87.3565 142.977 88.6629 142.248 89.7023C140.747 91.8745 140.185 92.6739 138.855 93.1003C137.689 93.4735 134.79 91.5549 132.232 89.8624C130.533 88.7296 128.777 87.5698 127.2 86.7969C125.036 85.7441 124.435 84.2386 124.311 83.1725C124.163 81.8931 124.651 80.7598 125.211 80.3067C126.868 78.9474 126.812 69.4861 125.792 66.8208C125.586 66.2744 125.656 65.6081 126.001 64.8485C126.967 62.7162 129.727 60.557 130.846 60.1438C131.826 59.7707 132.476 58.358 133.228 56.7322C134.011 55.0264 134.899 53.1077 136.186 52.388C137.467 51.6684 140.369 52.2548 142.931 52.7746C145.323 53.2543 147.582 53.7075 148.856 53.2411C149.846 52.8813 150.38 53.481 151.504 54.8803C152.482 56.093 153.7 57.6121 155.848 58.7715C160.006 61.0237 164.081 75.976 165.173 85.7044C165.398 87.7167 165.874 90.3555 167.394 90.1956C169.453 89.9557 171.283 83.5586 170.946 80.5468C170.718 78.5079 168.298 74.0301 165.497 68.8328C162.044 62.436 158.131 55.1863 158.17 52.0412C158.188 50.6286 158.463 49.7759 158.964 49.5627C160.479 48.9363 164.832 53.2142 166.923 55.2798C172.59 60.837 173.812 72.0715 174.245 81.2268C174.684 90.5154 174.507 90.6348 169.95 93.6866C169.165 94.2064 168.275 94.8066 167.237 95.5528C161.825 99.4175 163.62 103.748 165.358 107.933C166.027 109.545 166.719 111.211 166.947 112.797C167.193 114.516 167.838 116.568 168.52 118.727C168.67 119.207 168.82 119.687 168.97 120.154C164.157 121.153 158.603 121.166 153.556 121.18C148.172 121.193 143.522 121.193 141.218 122.472C140.26 122.992 139.198 123.711 138.071 124.524C137.916 124.418 137.761 124.325 137.602 124.218C132.521 120.926 125.564 116.422 122.391 111.718C117.53 104.521 105.186 86.224 103.103 81.653C103.96 81.9196 105.385 82.3724 107.077 82.9987C108.002 83.3452 109.017 83.4123 110.191 83.5056C112.72 83.6922 115.866 83.932 119.693 87.0904C123.805 90.4886 128.385 92.1144 129.298 91.7013C129.506 91.608 129.635 91.4213 129.642 91.2081C129.652 90.8749 129.43 90.5415 128.286 89.9418C125.195 88.2893 124.188 87.1438 122.187 84.8383C121.883 84.4785 121.56 84.1185 121.205 83.7054C120.518 82.9324 119.985 82.2527 119.515 81.653C118.139 79.8806 117.147 78.6144 114.007 77.1618C110.855 75.7093 105.579 76.7752 103.144 78.6676C101.941 79.6004 101.802 80.4537 101.9 81.0134C101.901 81.0267 101.904 81.0267 101.905 81.0401C102.37 83.4655 112.132 98.1642 121.622 112.237C124.765 116.901 131.114 121.113 136.422 124.564C134.306 123.831 132.15 123.085 130.024 122.299C122.858 119.634 117.119 121.033 112.963 126.47C111.903 127.856 111.564 128.962 111.931 129.855C112.617 131.521 115.519 131.934 119.195 132.44C120.172 132.574 121.181 132.72 122.203 132.893C124.394 133.253 126.902 132.68 129.871 131.121C132.341 129.842 134.812 128.029 136.993 126.443C137.216 126.283 137.439 126.124 137.661 125.964C137.695 125.977 137.731 125.977 137.764 125.99C138.364 126.204 138.966 126.403 139.571 126.616C141.902 128.162 143.886 129.615 143.845 130.242C143.841 130.321 143.666 130.402 143.613 130.428C140.788 131.774 134.935 131.401 132.123 131.227C130.921 131.147 130.532 131.121 130.325 131.175C130.092 131.241 129.935 131.428 129.933 131.654C129.932 132.014 129.931 132.254 133.963 133.64C136.546 134.519 139.72 135.479 142.901 136.345C146.389 137.305 150.318 137.837 153.473 138.277C153.849 138.33 154.233 138.384 154.614 138.437C154.261 138.61 154.002 138.824 153.836 139.13C153.484 139.783 153.637 140.676 154.369 142.182C155.174 143.835 155.147 145.647 154.292 147.552C152.714 151.044 148.299 154.496 143.79 155.749C141.012 156.535 137.156 156.042 132.695 155.469C126.876 154.723 120.284 153.883 113.422 155.362C108.183 156.495 102.157 155.602 96.4518 152.843C91.1972 150.298 87.8202 146.953 86.9087 144.927C84.6579 139.93 76.7485 131.561 67.8917 126.763C62.7317 123.978 60.0798 117.408 59.3175 112.197C58.6818 107.853 59.2868 104.042 60.8554 102.469C63.2501 100.07 62.8917 95.2191 62.6038 91.3278C62.4106 88.6891 62.208 85.9572 63.1049 85.6907C63.4607 85.5841 63.8925 85.4241 64.3922 85.2508C67.8704 84.0115 74.3431 81.7331 78.5703 85.7844C80.7891 87.9166 83.5091 92.0746 86.389 96.499C89.9991 102.029 94.0917 108.306 98.1843 112.078C105.53 118.847 110.401 119.367 110.605 119.381C110.798 119.407 110.983 119.3 111.066 119.114C111.15 118.94 111.112 118.74 110.975 118.594C110.867 118.487 100.021 107.56 98.1296 103.202C96.0947 98.5243 88.5506 89.9688 85.3975 87.2901C82.1139 84.5049 77.0084 78.1478 77.2856 72.9771C77.3842 71.1381 77.6428 68.7395 77.9187 66.1941C78.4611 61.17 79.0767 55.4796 78.7556 51.535C78.1958 44.6585 84.7831 39.3147 88.7624 36.7294C92.9789 33.9974 94.0344 30.8126 94.8833 28.2539C95.2898 27.0278 95.6429 25.9749 96.2653 25.122C97.1461 23.9359 99.6862 23.7625 102.141 23.6026C104.877 23.4294 107.707 23.2295 108.828 21.6036C111.107 18.272 114.802 13.8609 120.566 13.9409C125.885 14.0075 132.775 14.9804 142.248 16.9927C148.289 18.2854 151.358 21.8305 154.607 25.5886C155.44 26.5614 156.305 27.5605 157.229 28.52C159.305 30.7056 161.493 32.1316 164.264 33.9307C167.653 36.1295 171.869 38.8745 177.992 44.2984C183.87 49.4958 185.836 53.1874 186.409 55.4796C186.414 57.2387 186.341 58.4647 186.338 58.5047C186.323 58.7179 186.458 58.9046 186.663 58.9713C186.868 59.0379 187.091 58.9447 187.199 58.7715C187.255 58.6649 187.872 57.545 187.341 55.3462C187.323 51.6014 186.926 45.5648 184.731 42.6996C183.769 41.4336 181.794 40.3409 179.507 39.0882C177.861 38.182 175.997 37.1557 174.353 35.9563C172.14 34.3438 170.222 32.4913 168.528 30.8522C167.268 29.6394 166.178 28.5869 165.161 27.814C163.08 26.2281 161.008 24.3486 158.815 22.363C156.067 19.8709 153.223 17.299 150.199 15.1668C148.083 13.6609 146.421 13.4347 144.662 13.1815C143.865 13.0616 143.04 12.9545 142.134 12.7013C138.65 11.7684 135.117 11.1289 133.4 10.8357C135.629 9.20984 141.922 5.1188 147.899 5.71851C154.761 6.39815 158.671 4.86563 163.198 3.07988C163.811 2.82668 164.433 2.5864 165.077 2.34653C170.401 0.307571 181.844 3.11946 184.63 5.345C185.452 5.998 186.695 7.21112 188.269 8.77032C192.255 12.6883 198.281 18.6187 204.517 22.1769C211.764 26.3348 210.622 33.6907 209.409 41.4867C209.29 42.2596 209.168 43.0459 209.056 43.8188C208.367 48.5897 209.835 52.4145 211.534 56.8389C212.919 60.437 214.486 64.5285 215.261 69.9923C215.608 72.4444 215.355 75.2431 214.694 78.1483C212.27 80.6137 210.102 83.2385 208.455 85.6107C206.773 88.0228 203.581 92.7271 201.109 96.9916C197.686 102.895 197.745 104.321 198.256 104.934C198.613 105.361 199.235 105.388 200.102 105.001C204.014 103.242 212.882 90.2086 215.563 78.6012C221.311 72.8175 228.325 68.1131 232.949 69.4724C237.319 70.7651 241.506 76.0427 243.546 80.4004C244.895 83.2656 245.362 85.7707 244.797 87.0767C244.182 88.5026 243.67 91.0616 243.077 94.0334C241.954 99.6572 240.553 106.667 237.65 110.692C233.461 116.502 228.851 123.405 226.425 130.495C224.714 135.492 213.613 141.369 206.982 144.887C204.785 146.046 203.049 146.966 202.005 147.646C200.553 148.579 199.321 149.925 198.016 151.351C195.321 154.282 192.533 157.321 187.448 157.174C187.268 157.174 187.083 157.174 186.896 157.174ZM189.964 61.8897C191.571 61.8897 192.969 62.7691 193.895 64.4216C198.494 72.5908 200.325 78.9613 199.494 83.8921C198.561 89.4493 194.583 99.1106 190.736 108.453C190.157 109.852 189.582 111.251 189.023 112.624L188.587 113.69C184.716 123.192 182.774 127.962 170.71 133.973C164.906 136.851 160.524 137.425 157.623 137.811C157.453 137.838 157.286 137.851 157.125 137.878C156.167 137.718 154.998 137.558 153.599 137.358C150.471 136.931 146.576 136.399 143.145 135.452C138.56 134.2 134.784 132.974 132.639 132.174C135.69 132.374 141.157 132.614 144.01 131.268C144.603 130.988 144.751 130.588 144.771 130.295C144.818 129.589 144.153 128.789 142.76 127.723C145.948 128.842 149.156 130.055 152.285 131.454C159.245 134.573 164.544 135.759 169.448 132.054C172.357 129.868 171.475 125.324 170.146 120.847C171.403 120.54 172.606 120.166 173.735 119.7C176.174 118.687 177.945 117.981 179.311 117.475C179.599 118.914 180.14 120.033 180.934 120.393C181.536 120.673 182.496 120.66 183.634 118.994C184.647 117.515 185.21 116.395 184.669 115.729C184.17 115.102 183.092 115.143 180.041 116.222C179.881 114.623 179.98 112.69 180.461 110.904C181.347 107.599 181.747 96.7917 182.135 86.3303C182.363 80.2135 182.576 74.4167 182.872 70.9918C183.337 65.5946 186.269 62.5828 188.969 61.9964C189.308 61.9165 189.64 61.8897 189.964 61.8897ZM169.239 121.046C170.489 125.244 171.343 129.469 168.891 131.321C164.864 134.36 160.618 134.173 152.664 130.614C148.491 128.735 144.193 127.216 139.986 125.777C139.644 125.55 139.285 125.311 138.906 125.071C139.898 124.365 140.83 123.738 141.666 123.285C143.761 122.125 148.301 122.113 153.559 122.099C158.679 122.086 164.317 122.086 169.239 121.046ZM136.589 125.59C136.541 125.63 136.494 125.657 136.447 125.697C134.292 127.27 131.851 129.042 129.44 130.308C126.656 131.76 124.34 132.307 122.357 131.974C121.322 131.8 120.305 131.654 119.32 131.521C116.21 131.094 113.27 130.682 112.789 129.509C112.561 128.962 112.867 128.122 113.7 127.03C117.578 121.952 122.961 120.66 129.702 123.165C131.992 124.018 134.316 124.817 136.589 125.59ZM183.639 116.249C183.871 116.249 183.939 116.302 183.953 116.315C183.963 116.342 184.07 116.715 182.872 118.461C182.52 118.981 181.852 119.793 181.322 119.554C180.813 119.314 180.404 118.408 180.173 117.155C180.564 117.022 180.919 116.902 181.246 116.795C182.616 116.355 183.302 116.249 183.639 116.249ZM214.233 79.9736C211.216 90.808 203.232 102.576 199.723 104.148C199.135 104.415 198.965 104.335 198.964 104.335C198.942 104.308 198.39 103.535 201.91 97.4581C204.366 93.2203 207.542 88.5427 209.216 86.1306C210.602 84.1449 212.325 82.0125 214.233 79.9736ZM110.451 77.402C111.615 77.402 112.724 77.5881 113.619 78.0013C116.554 79.3606 117.441 80.4935 118.786 82.2127C119.264 82.839 119.805 83.5321 120.51 84.3184C120.865 84.7315 121.186 85.0911 121.487 85.4376C123.387 87.6231 124.481 88.8895 127.327 90.4754C125.665 89.889 122.984 88.6092 120.284 86.3837C116.228 83.0254 112.919 82.7721 110.261 82.5855C109.155 82.4922 108.199 82.4258 107.397 82.1326C105.235 81.333 103.506 80.8001 102.813 80.6002C102.891 80.1071 103.388 79.6541 103.712 79.4009C105.201 78.2415 107.957 77.402 110.451 77.402ZM144.012 62.9822C144.466 62.9822 144.639 63.196 144.946 63.5692C145.211 63.9023 145.576 64.3687 146.192 64.8752C147.365 65.8613 147.739 66.8475 148.255 68.2335C148.605 69.153 149.004 70.2057 149.731 71.4851C150.881 73.484 150.436 73.87 148.774 75.3093C148.201 75.8024 147.49 76.429 146.713 77.2419C145.019 79.0143 144.175 78.7478 142.643 78.2681C142.499 78.2281 142.351 78.1746 142.196 78.1347C143.112 78.1347 143.986 77.9481 144.634 77.5217C146.725 76.1624 148.221 73.2575 148.183 72.4846C148.165 72.178 147.972 72.0443 147.89 72.0043C147.786 71.951 147.57 71.8844 147.306 72.0577C146.918 72.3109 144.835 73.5637 141.866 73.5237C141.389 73.5104 140.576 73.4036 140.489 72.6973C140.4 71.9644 141.145 70.9118 142.359 70.6053C143.225 70.3787 143.973 70.3922 144.573 70.4055C145.256 70.4322 145.843 70.4455 146.24 70.0457C146.593 69.6992 146.626 69.1662 146.62 68.7931C146.609 68.1134 146.533 67.42 146.063 67.0336C145.519 66.5938 144.729 66.7537 143.421 67.0069L143.3 67.0336C141.498 67.3934 137.514 66.0208 136.822 65.7809C136.667 65.6077 136.639 65.5014 136.649 65.4614C136.75 65.075 138.458 64.5549 139.832 64.1418C140.447 63.9552 141.145 63.7557 141.865 63.5158C142.989 63.1427 143.612 62.9822 144.012 62.9822ZM146.983 73.2973C146.52 74.2701 145.491 75.8691 144.129 76.7486C142.715 77.6682 140.015 77.1351 139.109 76.0823C138.641 75.5359 138.708 74.9361 139.314 74.2564C139.519 74.0166 139.69 73.7903 139.828 73.5504C140.194 74.1101 140.904 74.4432 141.854 74.4432C144.147 74.4832 145.967 73.7904 146.983 73.2973ZM144.072 69.4724C143.524 69.4724 142.863 69.5123 142.126 69.6989C141.305 69.9121 140.661 70.3654 140.224 70.8851C139.934 69.5125 139.005 68.2068 138.123 67.1806C139.732 67.6604 142.086 68.2198 143.48 67.94L143.601 67.9263C144.499 67.7398 145.274 67.5937 145.48 67.7669C145.571 67.8335 145.681 68.0735 145.695 68.8198C145.7 69.2329 145.621 69.3524 145.587 69.3924C145.471 69.499 145.026 69.4861 144.597 69.4861C144.435 69.4728 144.261 69.4724 144.072 69.4724Z" fill="url(#paint4_linear_4_164)"/>
<defs>
<radialGradient id="paint0_radial_4_164" cx="0" cy="0" r="1" gradientUnits="userSpaceOnUse" gradientTransform="translate(106.446 142.523) rotate(90) scale(304.201 182.037)">
<stop stop-color="#FEE49A"/>
<stop offset="1" stop-color="#BB8D37"/>
</radialGradient>
<radialGradient id="paint1_radial_4_164" cx="0" cy="0" r="1" gradientUnits="userSpaceOnUse" gradientTransform="translate(285.58 189.66) rotate(90) scale(83.7751 49.3137)">
<stop stop-color="#FEE49A"/>
<stop offset="1" stop-color="#BB8D37"/>
</radialGradient>
<radialGradient id="paint2_radial_4_164" cx="0" cy="0" r="1" gradientUnits="userSpaceOnUse" gradientTransform="translate(286.035 88.7115) rotate(90) scale(293.486 136.814)">
<stop stop-color="#FEE49A"/>
<stop offset="1" stop-color="#BB8D37"/>
</radialGradient>
<radialGradient id="paint3_radial_4_164" cx="0" cy="0" r="1" gradientUnits="userSpaceOnUse" gradientTransform="translate(213.349 142.611) rotate(90) scale(209.912 107.444)">
<stop stop-color="#FEE49A"/>
<stop offset="1" stop-color="#BB8D37"/>
</radialGradient>
<linearGradient id="paint4_linear_4_164" x1="20.4853" y1="-20.9615" x2="194.626" y2="206.564" gradientUnits="userSpaceOnUse">
<stop stop-color="#FFEEA0"/>
<stop offset="1" stop-color="#B78E43"/>
</linearGradient>
</defs>
</svg>
