<svg width="27" height="27" viewBox="0 0 27 27" fill="none" xmlns="http://www.w3.org/2000/svg">
<path d="M13.4115 26.7863C13.3262 26.7863 13.2383 26.7863 13.1517 26.7863C11.1034 26.7997 9.20964 26.7462 7.36925 26.6263C5.68211 26.533 4.14158 25.9469 2.91421 24.9474C1.73081 23.9879 0.921878 22.6684 0.511421 21.0692C0.152937 19.6699 0.134294 18.2839 0.116969 16.9645C0.103643 16.005 0.0903118 14.8727 0.0876465 13.7266C0.0903118 12.5672 0.103643 11.4475 0.116969 10.488C0.134294 9.15536 0.152937 7.78263 0.511421 6.38334C0.921878 4.77083 1.73081 3.46527 2.91421 2.50576C4.14158 1.50627 5.68211 0.919878 7.36925 0.813265C9.20964 0.706654 11.1034 0.653191 13.157 0.653191C15.2066 0.653191 17.0976 0.706654 18.9394 0.813265C20.6265 0.919878 22.1671 1.50627 23.3944 2.50576C24.5778 3.46527 25.3867 4.77083 25.7972 6.38334C26.1557 7.78263 26.1744 9.15536 26.1917 10.488C26.205 11.4475 26.2183 12.5672 26.221 13.7266C26.2183 14.8727 26.205 16.005 26.1917 16.9645C26.1837 17.5242 25.7173 17.9773 25.1575 17.964C24.5925 17.964 24.142 17.4976 24.15 16.9378C24.1634 15.9917 24.1767 14.8594 24.1794 13.7266C24.1767 12.5805 24.1634 11.4609 24.15 10.5147C24.134 9.30198 24.1167 8.04965 23.8196 6.89024C23.5184 5.71751 22.9413 4.77085 22.1031 4.07788C21.1969 3.34492 20.0921 2.9319 18.8154 2.85194C17.0177 2.74533 15.168 2.69186 13.157 2.69186C11.1407 2.69186 9.29096 2.74533 7.49321 2.85194C6.21653 2.9319 5.11174 3.34492 4.20554 4.07788C3.3673 4.77085 2.79027 5.71751 2.48909 6.89024C2.19191 8.04965 2.17456 9.30198 2.15857 10.5147C2.14524 11.4609 2.13195 12.5805 2.12929 13.7266C2.13195 14.8594 2.14524 15.9917 2.15857 16.9378C2.17456 18.1372 2.19191 19.3902 2.48909 20.5629C2.79027 21.7357 3.3673 22.682 4.20554 23.3617C5.11174 24.1079 6.21653 24.5206 7.49321 24.6006C9.29096 24.7072 11.142 24.7477 13.1517 24.7477C15.168 24.7477 17.0177 24.7072 18.8154 24.6006C20.0921 24.5206 21.1969 24.1079 22.1031 23.3617C22.7068 22.8686 23.1785 22.242 23.5064 21.4824C23.7302 20.9627 24.3299 20.7362 24.8483 20.9495C25.3654 21.176 25.6026 21.7754 25.3787 22.2951C24.9203 23.3479 24.254 24.2411 23.3944 24.9474C22.1671 25.9469 20.6265 26.533 18.9394 26.6263C17.1763 26.7329 15.3652 26.7863 13.4115 26.7863ZM19.4844 13.7266C19.4844 10.2084 16.6219 7.34314 13.1023 7.34314C9.58545 7.34314 6.72293 10.2084 6.72293 13.7266C6.72293 17.2448 9.58545 20.1101 13.1023 20.1101C16.6219 20.1101 19.4844 17.2448 19.4844 13.7266ZM17.4428 13.7266C17.4428 16.112 15.4958 18.0577 13.1023 18.0577C10.7115 18.0577 8.76453 16.112 8.76453 13.7266C8.76453 11.3278 10.7115 9.38181 13.1023 9.38181C15.4958 9.38181 17.4428 11.3278 17.4428 13.7266ZM20.1974 5.30381C19.3525 5.30381 18.6675 5.98399 18.6675 6.83688C18.6675 7.67646 19.3525 8.3693 20.1974 8.3693C21.0436 8.3693 21.7299 7.67646 21.7299 6.83688C21.7299 5.98399 21.0436 5.30381 20.1974 5.30381Z" fill="white"/>
</svg>
