<svg width="207" height="161" viewBox="0 0 207 161" fill="none" xmlns="http://www.w3.org/2000/svg">
<path fill-rule="evenodd" clip-rule="evenodd" d="M0 0H36.3862V1.87396C31.3203 1.87396 28.987 3.24294 31.9995 9.63153L80.7473 129.372L129.678 8.17127C131.595 3.51673 129.341 1.37745 124.931 1.6914V0.0389186H148.417V1.96762C142.433 2.16232 138.211 4.67274 135.794 10.3616L75.0388 160.81L13.0116 10.5442C10.3594 5.70346 6.62629 2.14655 0.0486788 1.96524L0 0Z" fill="white" fill-opacity="0.4"/>
<path fill-rule="evenodd" clip-rule="evenodd" d="M86.7724 155.748V159.767H207V118.935H205.528C205.528 141.901 202.08 152.736 172.498 152.736H122.82L182.26 6.52852C183.445 3.32084 185.567 2.39846 188.094 2.48121L193.845 2.16117V0.171569H155.989V2.21836L162.064 2.53714C164.031 2.53957 164.557 3.636 163.525 5.91399L108.085 144.93C105.685 151.177 101.151 154.926 93.8259 155.407L86.7724 155.748Z" fill="white" fill-opacity="0.4"/>
</svg>
