<svg width="78" height="80" viewBox="0 0 78 80" fill="none" xmlns="http://www.w3.org/2000/svg">
<path fill-rule="evenodd" clip-rule="evenodd" d="M8.16101 0.000976562H18.2658V0.523872C16.859 0.523872 16.211 0.905864 17.0476 2.68849L30.5854 36.1L44.1739 2.28103C44.7063 0.982258 44.0803 0.385329 42.8556 0.472932V0.0118361H49.3781V0.550006C47.716 0.604334 46.5438 1.30482 45.8725 2.89221L29.0001 44.8722L11.7745 2.94315C11.0379 1.59243 10.0012 0.599935 8.17453 0.549343L8.16101 0.000976562Z" fill="#2C2C2C"/>
<path fill-rule="evenodd" clip-rule="evenodd" d="M32.2586 43.4597V44.5812H65.6471V33.1877H65.2384C65.2384 39.596 64.2808 42.6193 56.0655 42.6193H42.2695L58.7765 1.82265C59.1057 0.927599 59.6949 0.670226 60.3966 0.693315L61.9938 0.604014V0.0488498H51.4809V0.619971L53.168 0.70892C53.7142 0.709599 53.8603 1.01554 53.5736 1.65117L38.1774 40.4411C37.5108 42.1843 36.2517 43.2305 34.2174 43.3646L32.2586 43.4597Z" fill="#2C2C2C"/>
<path d="M4.77557 78.6982V80.001H4.45472L4.44121 79.7262C4.42095 79.4435 4.39055 79.2275 4.35003 79.0782C4.1699 79.0556 3.91097 79.0443 3.57324 79.0443H0C0.0225157 78.7548 0.0405282 78.437 0.0540376 78.091C0.0607923 77.91 0.0641697 77.7268 0.0641697 77.5414V75.8552C0.0641697 75.5522 0.0551634 75.2106 0.0371509 74.8307C0.0326477 74.7402 0.0247672 74.5841 0.0135094 74.3625H0.878111C0.851092 74.6475 0.83308 74.963 0.824073 75.309C0.817318 75.4877 0.813941 75.6698 0.813941 75.8552V78.6032C0.834205 78.6123 0.875859 78.6213 0.938903 78.6304C1.09426 78.6575 1.29915 78.6779 1.55358 78.6914C1.67742 78.7005 1.82715 78.705 2.00277 78.705H2.09733C2.44858 78.705 2.72665 78.6914 2.93154 78.6643C3.13643 78.6372 3.25914 78.6168 3.29967 78.6032V76.1165C3.29967 75.8586 3.29404 75.585 3.28278 75.2955C3.27153 74.9969 3.26139 74.7764 3.25239 74.6339L3.24226 74.4337L3.2355 74.3625H4.1001C4.07759 74.7538 4.06295 75.0693 4.0562 75.309C4.05169 75.5488 4.04944 75.7308 4.04944 75.8552V77.5414C4.04944 77.8874 4.05957 78.2312 4.07984 78.5727C4.08434 78.627 4.08659 78.6677 4.08659 78.6948L4.77557 78.6982Z" fill="#2C2C2C"/>
<path d="M5.43236 79.0443C5.44362 78.8226 5.4515 78.6666 5.456 78.5761C5.47401 78.1961 5.48302 77.8546 5.48302 77.5515V75.8654C5.48302 75.5578 5.47176 75.214 5.44925 74.8341L5.41885 74.3625H7.70532V74.8069C7.50042 74.7775 7.21898 74.7515 6.86098 74.7289C6.63807 74.7153 6.4298 74.7063 6.23617 74.7018V76.3675C6.65496 76.3585 6.96793 76.3483 7.17507 76.337L7.45877 76.3166V76.7611C7.34394 76.7497 7.12329 76.7373 6.79681 76.7237L6.61105 76.7203L6.23617 76.7102V77.5515C6.23617 77.7822 6.23955 77.9982 6.2463 78.1995L6.25306 78.4777L6.26319 78.7084C6.62794 78.7016 6.99382 78.6801 7.36083 78.6439C7.51618 78.6281 7.6389 78.6134 7.72896 78.5998V79.0443H5.43236Z" fill="#2C2C2C"/>
<path d="M12.6051 77.5414C12.6051 77.8874 12.6152 78.2312 12.6355 78.5727C12.6468 78.774 12.658 78.9312 12.6693 79.0443H11.8418L11.8486 78.5252C11.8486 78.4257 11.8508 78.2764 11.8553 78.0774V76.7577C11.8418 76.7554 11.8126 76.7543 11.7675 76.7543L11.6831 76.7509L11.4973 76.7475L10.9941 76.7373H10.6023C10.3794 76.7373 10.1171 76.7396 9.81542 76.7441L9.52835 76.7509L9.44729 76.7543C9.40676 76.7543 9.38087 76.7554 9.36961 76.7577V77.5515C9.36961 77.8931 9.37974 78.2346 9.40001 78.5761L9.4304 79.0443H8.5658C8.57706 78.8226 8.58494 78.6666 8.58944 78.5761C8.60746 78.1961 8.61646 77.8546 8.61646 77.5515V75.8654C8.61646 75.5578 8.6052 75.214 8.58269 74.8341L8.55229 74.3625H9.37974L9.37299 74.8816V75.1055C9.37074 75.1575 9.36961 75.2333 9.36961 75.3328V76.3913C9.38312 76.3935 9.41127 76.3947 9.45405 76.3947L9.5351 76.398C9.74675 76.4071 9.96515 76.4116 10.1903 76.4116C10.2804 76.4139 10.4188 76.415 10.6057 76.415C10.7949 76.415 11.0493 76.4128 11.369 76.4082C11.5176 76.4082 11.6223 76.4071 11.6831 76.4048L11.7675 76.4014C11.8148 76.4014 11.8441 76.4003 11.8553 76.398V75.8552C11.8553 75.5522 11.8441 75.2106 11.8216 74.8307L11.7912 74.3625H12.6558C12.6333 74.7538 12.6186 75.0693 12.6119 75.309C12.6074 75.5488 12.6051 75.7308 12.6051 75.8552V77.5414Z" fill="#2C2C2C"/>
<path d="M14.6004 79.0443C14.6116 78.8226 14.6195 78.6666 14.624 78.5761C14.642 78.1961 14.651 77.8546 14.651 77.5515V74.7018C14.3628 74.7131 14.0465 74.7345 13.702 74.7662L13.2934 74.8069V74.3625H16.7653V74.8069C16.5761 74.782 16.3037 74.7549 15.9479 74.7255C15.7318 74.7119 15.5505 74.704 15.4042 74.7018V77.5515C15.4042 77.9021 15.4121 78.2436 15.4278 78.5761C15.4368 78.7819 15.4447 78.938 15.4515 79.0443H14.6004Z" fill="#2C2C2C"/>
<path d="M18.4219 76.6355L18.5907 76.6457C18.7078 76.6525 18.8226 76.6412 18.9352 76.6118C19.1334 76.5575 19.2887 76.4636 19.4013 76.3302C19.5566 76.147 19.6343 75.8937 19.6343 75.5703C19.6343 75.2604 19.5443 75.0286 19.3641 74.8748C19.2155 74.7504 19.0242 74.6825 18.79 74.6712C18.7585 74.669 18.7101 74.6678 18.6448 74.6678C18.5795 74.6678 18.5299 74.669 18.4962 74.6712C18.4286 74.6735 18.3262 74.6746 18.1888 74.6746V77.5515C18.1888 77.8931 18.199 78.2346 18.2192 78.5761C18.2305 78.7774 18.2417 78.9334 18.253 79.0443H17.3884C17.3996 78.8226 17.4075 78.6666 17.412 78.5761C17.43 78.1961 17.439 77.8546 17.439 77.5515V75.8654C17.439 75.5578 17.4278 75.214 17.4053 74.8341L17.3749 74.3625H17.8916C18.0988 74.3625 18.307 74.3557 18.5164 74.3421C18.6358 74.3354 18.754 74.332 18.871 74.332C19.1953 74.332 19.4497 74.3625 19.6343 74.4236C19.9315 74.5253 20.1398 74.7198 20.2591 75.0071C20.3199 75.1518 20.3503 75.3271 20.3503 75.5329C20.3503 76.0102 20.195 76.3743 19.8842 76.6254C19.7356 76.7475 19.5555 76.838 19.3439 76.8968C19.1345 76.9533 18.9003 76.9782 18.6414 76.9714L18.5401 76.968L18.4219 76.6355Z" fill="#2C2C2C"/>
<path d="M23.0725 75.8654C23.0725 75.5578 23.0613 75.214 23.0387 74.8341L23.0083 74.3625H23.8223V77.5515C23.8223 77.8931 23.8324 78.2346 23.8527 78.5761C23.8639 78.7774 23.8752 78.9334 23.8865 79.0443H23.0219C23.0331 78.8226 23.041 78.6666 23.0455 78.5761C23.0635 78.1961 23.0725 77.8546 23.0725 77.5515V75.8654ZM26.8416 79.0273L26.8146 79.0375C26.7989 79.0465 26.7741 79.0533 26.7403 79.0578C26.6998 79.0624 26.6683 79.0646 26.6458 79.0646C26.5264 79.0646 26.3666 79.0375 26.1662 78.9832C25.9928 78.8973 25.8206 78.7502 25.6494 78.5422C25.5076 78.3725 25.3657 78.1565 25.2239 77.8942C25.1046 77.6793 24.9481 77.4305 24.7544 77.1478C24.6441 76.9488 24.5169 76.804 24.3728 76.7136C24.3165 76.6819 24.2704 76.6627 24.2343 76.6559L24.1499 76.6423L24.0553 76.3336L24.7072 75.4583C24.8242 75.3 24.9717 75.0817 25.1496 74.8035L25.3286 74.5219L25.386 74.427C25.3995 74.3998 25.413 74.3783 25.4265 74.3625L26.1358 74.3659C26.0457 74.4518 25.9095 74.6068 25.7271 74.8307C25.6235 74.9573 25.5188 75.0908 25.413 75.231L24.5113 76.4286C24.8558 76.4308 25.1676 76.5858 25.4468 76.8934C25.6494 77.115 25.8453 77.4294 26.0345 77.8365C26.2348 78.264 26.433 78.5784 26.6289 78.7796C26.7122 78.8656 26.7887 78.921 26.8585 78.9459L26.8416 79.0273Z" fill="#2C2C2C"/>
<path d="M29.5608 79.1528C29.196 79.1528 28.8572 79.0952 28.5442 78.9798C28.2312 78.8645 27.9588 78.7005 27.7269 78.4879C27.4927 78.273 27.3115 78.0141 27.1831 77.711C27.0548 77.4079 26.9906 77.0732 26.9906 76.7068C26.9906 76.1707 27.1144 75.7082 27.3621 75.3192C27.5828 74.9709 27.8957 74.7029 28.301 74.5152C28.6748 74.341 29.0913 74.2539 29.5506 74.2539C29.9176 74.2539 30.2588 74.3116 30.574 74.427C30.8892 74.54 31.1628 74.7029 31.3947 74.9155C31.6266 75.1326 31.8056 75.3927 31.9317 75.6958C32.06 75.9989 32.1242 76.3336 32.1242 76.7C32.1242 77.1048 32.0555 77.4633 31.9182 77.7754C31.7808 78.0876 31.5883 78.3488 31.3406 78.5591C31.1087 78.7559 30.8385 78.904 30.5301 79.0036C30.2239 79.1031 29.9008 79.1528 29.5608 79.1528ZM27.8012 76.6966C27.8012 76.9838 27.8406 77.2564 27.9194 77.5142C27.9982 77.7698 28.1119 77.9937 28.2605 78.1859C28.4114 78.385 28.5915 78.5399 28.8009 78.6507C29.0125 78.7593 29.2467 78.8136 29.5034 78.8136C29.7961 78.8136 30.0719 78.7435 30.3308 78.6032C30.6258 78.4426 30.8566 78.2165 31.0232 77.9247C31.2146 77.5855 31.3102 77.1806 31.3102 76.7102C31.3102 76.4229 31.2708 76.1504 31.192 75.8926C31.1132 75.6347 31.0007 75.4097 30.8543 75.2174C30.7012 75.0184 30.5188 74.8646 30.3072 74.756C30.0978 74.6475 29.8647 74.5932 29.6081 74.5932C29.4707 74.5932 29.3311 74.6113 29.1893 74.6475C29.0474 74.6814 28.9123 74.7334 28.784 74.8035C28.489 74.9641 28.2582 75.1903 28.0916 75.482C27.898 75.819 27.8012 76.2239 27.8012 76.6966Z" fill="#2C2C2C"/>
<path d="M36.1638 78.9493C36.0039 79.0217 35.7799 79.0782 35.4917 79.1189C35.3544 79.1415 35.1844 79.1528 34.9817 79.1528C34.6147 79.1528 34.277 79.0963 33.9685 78.9832C33.6601 78.8679 33.3933 78.7028 33.1681 78.4879C32.9429 78.2753 32.7684 78.0174 32.6446 77.7144C32.523 77.4113 32.4622 77.0754 32.4622 76.7068C32.4622 76.1685 32.5849 75.706 32.8304 75.3192C33.051 74.9686 33.3629 74.7006 33.7659 74.5152C34.1397 74.341 34.5607 74.2539 35.029 74.2539C35.333 74.2539 35.6088 74.2856 35.8565 74.3489C35.9781 74.3783 36.0794 74.41 36.1604 74.4439L36.0659 74.8985C35.9083 74.7877 35.7169 74.7018 35.4917 74.6407C35.3701 74.609 35.2384 74.5932 35.0966 74.5932C34.7881 74.5932 34.5044 74.6633 34.2455 74.8035C33.955 74.9596 33.7265 75.1858 33.5599 75.482C33.3707 75.819 33.2762 76.2239 33.2762 76.6966C33.2762 76.9884 33.3145 77.262 33.391 77.5176C33.4676 77.7732 33.579 77.996 33.7254 78.1859C33.8785 78.385 34.0631 78.5399 34.2792 78.6507C34.4977 78.7616 34.7431 78.817 35.0155 78.817C35.2767 78.817 35.5289 78.7661 35.772 78.6643C35.8689 78.6258 35.9691 78.5738 36.0726 78.5082L36.1638 78.9493Z" fill="#2C2C2C"/>
<path d="M41.5816 74.3625L42.105 77.5583C42.1703 77.9292 42.2413 78.2889 42.3178 78.6372L42.3887 78.9357L42.4124 79.0443H41.4971C41.4814 78.8407 41.4588 78.6044 41.4296 78.3352C41.4003 78.0729 41.3429 77.6635 41.2573 77.1071L41.1425 76.3947C41.0547 75.888 40.9849 75.4583 40.9331 75.1055L39.599 78.2538L39.2478 78.2674C39.2411 78.2515 39.2298 78.2233 39.214 78.1825C39.2185 78.1961 39.2039 78.1588 39.1701 78.0706L39.0384 77.7415L38.8695 77.3208L38.7378 76.9951L38.6804 76.8527L38.4913 76.3811C38.426 76.2273 38.3686 76.0848 38.319 75.9536L38.2785 75.8518C38.2335 75.7478 38.2008 75.6675 38.1806 75.611L38.0961 75.3972L37.9813 75.1156L37.576 77.5447C37.5265 77.8953 37.4803 78.2561 37.4375 78.627L37.424 78.7559C37.4105 78.8622 37.4004 78.9583 37.3936 79.0443H36.8533L36.8702 78.9696L36.9107 78.7661L37.0491 78.0943L37.1302 77.6872L37.2113 77.2699L37.4747 75.8552C37.5445 75.473 37.6064 75.1089 37.6604 74.7628C37.6897 74.5774 37.7089 74.4439 37.7179 74.3625H38.5149C38.5915 74.5547 38.6725 74.7809 38.7581 75.041C38.8369 75.2762 38.9596 75.6087 39.1262 76.0384L39.6126 77.2699L40.2171 75.8654C40.3635 75.5081 40.5008 75.1473 40.6291 74.7832C40.6809 74.6429 40.7293 74.5027 40.7744 74.3625H41.5816Z" fill="#2C2C2C"/>
<path d="M43.388 79.0443C43.3992 78.8226 43.4071 78.6666 43.4116 78.5761C43.4296 78.1961 43.4386 77.8546 43.4386 77.5515V75.8654C43.4386 75.5578 43.4274 75.214 43.4048 74.8341L43.3744 74.3625H45.6609V74.8069C45.456 74.7775 45.1746 74.7515 44.8166 74.7289C44.5937 74.7153 44.3854 74.7063 44.1918 74.7018V76.3675C44.6106 76.3585 44.9235 76.3483 45.1307 76.337L45.4144 76.3166V76.7611C45.2995 76.7497 45.0789 76.7373 44.7524 76.7237L44.5667 76.7203L44.1918 76.7102V77.5515C44.1918 77.7822 44.1951 77.9982 44.2019 78.1995L44.2087 78.4777L44.2188 78.7084C44.5835 78.7016 44.9494 78.6801 45.3164 78.6439C45.4718 78.6281 45.5945 78.6134 45.6846 78.5998V79.0443H43.388Z" fill="#2C2C2C"/>
<path d="M47.3185 79.0443C47.3297 78.8226 47.3376 78.6666 47.3421 78.5761C47.3601 78.1961 47.3691 77.8546 47.3691 77.5515V74.7018C47.0809 74.7131 46.7646 74.7345 46.4201 74.7662L46.0114 74.8069V74.3625H49.4833V74.8069C49.2942 74.782 49.0218 74.7549 48.666 74.7255C48.4499 74.7119 48.2686 74.704 48.1223 74.7018V77.5515C48.1223 77.9021 48.1301 78.2436 48.1459 78.5761C48.1549 78.7819 48.1628 78.938 48.1696 79.0443H47.3185Z" fill="#2C2C2C"/>
<path d="M51.9687 79.1528C51.6039 79.1528 51.2651 79.0952 50.9521 78.9798C50.6391 78.8645 50.3667 78.7005 50.1348 78.4879C49.9006 78.273 49.7194 78.0141 49.591 77.711C49.4627 77.4079 49.3985 77.0732 49.3985 76.7068C49.3985 76.1707 49.5224 75.7082 49.77 75.3192C49.9907 74.9709 50.3037 74.7029 50.7089 74.5152C51.0827 74.341 51.4992 74.2539 51.9586 74.2539C52.3256 74.2539 52.6667 74.3116 52.9819 74.427C53.2971 74.54 53.5707 74.7029 53.8026 74.9155C54.0345 75.1326 54.2135 75.3927 54.3396 75.6958C54.4679 75.9989 54.5321 76.3336 54.5321 76.7C54.5321 77.1048 54.4634 77.4633 54.3261 77.7754C54.1887 78.0876 53.9962 78.3488 53.7486 78.5591C53.5166 78.7559 53.2465 78.904 52.938 79.0036C52.6318 79.1031 52.3087 79.1528 51.9687 79.1528ZM50.2091 76.6966C50.2091 76.9838 50.2485 77.2564 50.3273 77.5142C50.4061 77.7698 50.5198 77.9937 50.6684 78.1859C50.8193 78.385 50.9994 78.5399 51.2088 78.6507C51.4204 78.7593 51.6546 78.8136 51.9113 78.8136C52.204 78.8136 52.4798 78.7435 52.7387 78.6032C53.0337 78.4426 53.2645 78.2165 53.4311 77.9247C53.6225 77.5855 53.7182 77.1806 53.7182 76.7102C53.7182 76.4229 53.6788 76.1504 53.6 75.8926C53.5212 75.6347 53.4086 75.4097 53.2622 75.2174C53.1091 75.0184 52.9267 74.8646 52.7151 74.756C52.5057 74.6475 52.2727 74.5932 52.016 74.5932C51.8786 74.5932 51.739 74.6113 51.5972 74.6475C51.4553 74.6814 51.3202 74.7334 51.1919 74.8035C50.8969 74.9641 50.6662 75.1903 50.4995 75.482C50.3059 75.819 50.2091 76.2239 50.2091 76.6966Z" fill="#2C2C2C"/>
<path d="M54.9917 78.7457C55.1741 78.7457 55.3362 78.6236 55.4781 78.3793C55.6424 78.0898 55.7697 77.6714 55.8597 77.1241C55.9655 76.4569 56.0185 75.6472 56.0185 74.695L55.8361 74.7051C55.7708 74.7074 55.719 74.7097 55.6807 74.7119C55.6424 74.7142 55.612 74.7165 55.5895 74.7187V74.3625H59.0175L59.0108 74.5219C58.9973 74.7504 58.9849 75.0772 58.9736 75.5024C58.9691 75.7829 58.9669 75.9909 58.9669 76.1266V77.5414C58.9669 77.8874 58.977 78.2312 58.9973 78.5727C59.0085 78.774 59.0198 78.9312 59.031 79.0443H58.2171V75.8552C58.2171 75.7444 58.2149 75.5895 58.2104 75.3904L58.207 75.2106L58.1968 74.9358L58.1867 74.7085C57.9233 74.6904 57.6339 74.6814 57.3187 74.6814H56.856C56.7547 74.6837 56.6117 74.6848 56.4271 74.6848C56.4271 75.5759 56.3753 76.3506 56.2718 77.0087C56.1637 77.6985 56.0117 78.2244 55.8158 78.5863C55.6109 78.9617 55.3734 79.1494 55.1032 79.1494C54.9703 79.1494 54.8544 79.1246 54.7553 79.0748C54.717 79.0567 54.6867 79.0397 54.6641 79.0239L54.627 79.0002L54.7317 78.6677C54.7362 78.6677 54.7463 78.6722 54.7621 78.6813C54.8026 78.7084 54.8521 78.7276 54.9107 78.7389C54.9422 78.7435 54.9692 78.7457 54.9917 78.7457Z" fill="#2C2C2C"/>
<path d="M62.358 79.1528C61.9933 79.1528 61.6544 79.0952 61.3414 78.9798C61.0285 78.8645 60.756 78.7005 60.5241 78.4879C60.2899 78.273 60.1087 78.0141 59.9804 77.711C59.852 77.4079 59.7878 77.0732 59.7878 76.7068C59.7878 76.1707 59.9117 75.7082 60.1593 75.3192C60.38 74.9709 60.693 74.7029 61.0983 74.5152C61.472 74.341 61.8886 74.2539 62.3479 74.2539C62.7149 74.2539 63.056 74.3116 63.3712 74.427C63.6864 74.54 63.96 74.7029 64.1919 74.9155C64.4238 75.1326 64.6028 75.3927 64.7289 75.6958C64.8572 75.9989 64.9214 76.3336 64.9214 76.7C64.9214 77.1048 64.8527 77.4633 64.7154 77.7754C64.578 78.0876 64.3855 78.3488 64.1379 78.5591C63.906 78.7559 63.6358 78.904 63.3273 79.0036C63.0211 79.1031 62.698 79.1528 62.358 79.1528ZM60.5984 76.6966C60.5984 76.9838 60.6378 77.2564 60.7166 77.5142C60.7954 77.7698 60.9091 77.9937 61.0577 78.1859C61.2086 78.385 61.3887 78.5399 61.5981 78.6507C61.8097 78.7593 62.0439 78.8136 62.3006 78.8136C62.5933 78.8136 62.8691 78.7435 63.128 78.6032C63.423 78.4426 63.6538 78.2165 63.8204 77.9247C64.0118 77.5855 64.1075 77.1806 64.1075 76.7102C64.1075 76.4229 64.0681 76.1504 63.9893 75.8926C63.9105 75.6347 63.7979 75.4097 63.6515 75.2174C63.4984 75.0184 63.316 74.8646 63.1044 74.756C62.895 74.6475 62.662 74.5932 62.4053 74.5932C62.2679 74.5932 62.1283 74.6113 61.9865 74.6475C61.8447 74.6814 61.7096 74.7334 61.5812 74.8035C61.2863 74.9641 61.0555 75.1903 60.8889 75.482C60.6952 75.819 60.5984 76.2239 60.5984 76.6966Z" fill="#2C2C2C"/>
<path d="M65.6884 75.8552C65.6884 75.5522 65.6794 75.2106 65.6614 74.8307C65.6569 74.7402 65.649 74.5841 65.6377 74.3625H67.9546V74.8069C67.8555 74.7888 67.7418 74.773 67.6135 74.7594C67.2848 74.7278 66.902 74.7074 66.4652 74.6984C66.4584 74.7911 66.4528 74.9596 66.4483 75.2039C66.4438 75.4707 66.4415 75.6879 66.4415 75.8552V77.3208C66.4415 77.4543 66.4438 77.659 66.4483 77.9349C66.4595 78.4076 66.4708 78.7265 66.4821 78.8916L66.4888 79.0443H65.6377C65.6467 78.8271 65.6546 78.67 65.6614 78.5727C65.6794 78.1927 65.6884 77.8489 65.6884 77.5414V75.8552Z" fill="#2C2C2C"/>
<path d="M72.586 77.5515C72.586 77.9021 72.5939 78.2436 72.6097 78.5761L72.6198 78.7796L72.6367 79.0443H71.7721C71.7946 78.7593 71.8126 78.4426 71.8261 78.0943C71.8329 77.9179 71.8363 77.737 71.8363 77.5515V75.0885C71.6089 75.4617 71.3375 75.8982 71.0223 76.398L70.8096 76.7373C70.679 76.9454 70.563 77.1286 70.4617 77.2869C70.3626 77.4452 70.2782 77.5798 70.2084 77.6906L69.8605 78.2368C69.6376 78.5829 69.4868 78.8204 69.408 78.9493C69.3697 79.0058 69.3505 79.0375 69.3505 79.0443H68.5332C68.5557 78.7548 68.5738 78.437 68.5873 78.091C68.594 77.91 68.5974 77.7268 68.5974 77.5414V75.8552C68.5974 75.5522 68.5884 75.2106 68.5704 74.8307C68.5659 74.7402 68.558 74.5841 68.5467 74.3625H69.4113C69.3866 74.6678 69.3697 74.9833 69.3607 75.309C69.3539 75.4877 69.3505 75.6698 69.3505 75.8552V78.3183C69.4879 78.0989 69.6387 77.8636 69.8031 77.6126L70.1071 77.1444L70.4414 76.6321C70.6846 76.2273 71.0099 75.6946 71.4175 75.0342L71.8363 74.3625H72.6502C72.6232 74.652 72.6052 74.9698 72.5962 75.3158C72.5894 75.4945 72.586 75.6777 72.586 75.8654V77.5515Z" fill="#2C2C2C"/>
<path d="M77.8236 77.5515C77.8236 77.9021 77.8315 78.2436 77.8472 78.5761L77.8573 78.7796L77.8742 79.0443H77.0096C77.0321 78.7593 77.0502 78.4426 77.0637 78.0943C77.0704 77.9179 77.0738 77.737 77.0738 77.5515V75.0885C76.8464 75.4617 76.5751 75.8982 76.2599 76.398L76.0471 76.7373C75.9165 76.9454 75.8005 77.1286 75.6992 77.2869C75.6002 77.4452 75.5157 77.5798 75.4459 77.6906L75.098 78.2368C74.8751 78.5829 74.7243 78.8204 74.6455 78.9493C74.6072 79.0058 74.5881 79.0375 74.5881 79.0443H73.7708C73.7933 78.7548 73.8113 78.437 73.8248 78.091C73.8315 77.91 73.8349 77.7268 73.8349 77.5414V75.8552C73.8349 75.5522 73.8259 75.2106 73.8079 74.8307C73.8034 74.7402 73.7955 74.5841 73.7843 74.3625H74.6489C74.6241 74.6678 74.6072 74.9833 74.5982 75.309C74.5915 75.4877 74.5881 75.6698 74.5881 75.8552V78.3183C74.7254 78.0989 74.8763 77.8636 75.0406 77.6126L75.3446 77.1444L75.679 76.6321C75.9221 76.2273 76.2475 75.6946 76.655 75.0342L77.0738 74.3625H77.8877C77.8607 74.652 77.8427 74.9698 77.8337 75.3158C77.827 75.4945 77.8236 75.6777 77.8236 75.8654V77.5515Z" fill="#2C2C2C"/>
<path d="M0.449102 59.6589C0.449102 58.8295 0.418746 57.9025 0.358033 56.8779L0.27607 55.6063H2.47086V64.2055C2.47086 65.1264 2.49818 66.0474 2.55282 66.9683C2.58317 67.511 2.61353 67.9319 2.64389 68.2307H0.312497C0.342854 67.633 0.364104 67.2122 0.376246 66.9683C0.424817 65.9437 0.449102 65.0228 0.449102 64.2055V59.6589ZM10.6125 68.185L10.5397 68.2124C10.4972 68.2368 10.4304 68.2551 10.3393 68.2673C10.23 68.2795 10.145 68.2856 10.0843 68.2856C9.76252 68.2856 9.33146 68.2124 8.79111 68.066C8.32362 67.8343 7.85916 67.4379 7.39774 66.8768C7.01525 66.4194 6.63275 65.837 6.25026 65.1295C5.92848 64.5501 5.50652 63.8793 4.98439 63.1169C4.68689 62.5802 4.34386 62.1899 3.9553 61.946C3.80351 61.8606 3.67905 61.8087 3.58191 61.7904L3.35423 61.7538L3.09924 60.9214L4.85689 58.5612C5.1726 58.1343 5.57027 57.5457 6.0499 56.7956L6.53258 56.0363L6.68739 55.7801C6.72382 55.707 6.76025 55.649 6.79668 55.6063L8.70915 55.6155C8.46629 55.8472 8.09898 56.265 7.6072 56.8688C7.32792 57.2103 7.0456 57.5701 6.76025 57.9482L4.32868 61.1775C5.2576 61.1836 6.09847 61.6014 6.85132 62.4308C7.39774 63.0285 7.92595 63.8762 8.43594 64.974C8.97629 66.1266 9.51056 66.9744 10.0388 67.5172C10.2634 67.7489 10.4698 67.8983 10.658 67.9654L10.6125 68.185Z" fill="#2C2C2C"/>
<path d="M11.333 67.4257C11.8247 67.4257 12.2619 67.0963 12.6444 66.4377C13.0876 65.657 13.4306 64.5288 13.6735 63.0529C13.9588 61.2538 14.1015 59.0704 14.1015 56.5028L13.6097 56.5303C13.4336 56.5364 13.294 56.5425 13.1908 56.5486C13.0876 56.5547 13.0056 56.5608 12.9449 56.5669V55.6063H22.1885L22.1703 56.0363C22.1339 56.6523 22.1005 57.5335 22.0701 58.6801C22.058 59.4363 22.0519 59.9974 22.0519 60.3633V64.1781C22.0519 65.1112 22.0792 66.0382 22.1339 66.9591C22.1642 67.5019 22.1946 67.9258 22.2249 68.2307H20.0301V59.6315C20.0301 59.3327 20.0241 58.9149 20.0119 58.3782L20.0028 57.8934L19.9755 57.1524L19.9482 56.5394C19.2378 56.4906 18.4577 56.4663 17.6077 56.4663H16.36C16.0868 56.4724 15.7013 56.4754 15.2034 56.4754C15.2034 58.8783 15.0638 60.9671 14.7845 62.7418C14.4931 64.602 14.0833 66.0199 13.5551 66.9957C13.0026 68.0081 12.362 68.5143 11.6335 68.5143C11.2753 68.5143 10.9626 68.4472 10.6955 68.313C10.5923 68.2642 10.5103 68.2185 10.4496 68.1758L10.3494 68.1118L10.6317 67.2153C10.6439 67.2153 10.6712 67.2275 10.7137 67.2519C10.823 67.325 10.9565 67.3769 11.1144 67.4074C11.1994 67.4196 11.2722 67.4257 11.333 67.4257Z" fill="#2C2C2C"/>
<path d="M36.1684 64.2055C36.1684 65.1508 36.1897 66.0717 36.2322 66.9683L36.2595 67.5172L36.305 68.2307H33.9737C34.0344 67.4623 34.0829 66.6084 34.1194 65.6692C34.1376 65.1935 34.1467 64.7056 34.1467 64.2055V57.564C33.5335 58.5703 32.8019 59.7474 31.9519 61.0952L31.3782 62.01C31.026 62.5711 30.7134 63.0651 30.4401 63.492C30.173 63.9189 29.9453 64.2818 29.7571 64.5806L28.8191 66.0535C28.218 66.9866 27.8113 67.6269 27.5988 67.9746C27.4955 68.127 27.4439 68.2124 27.4439 68.2307H25.24C25.3008 67.4501 25.3493 66.5932 25.3858 65.6601C25.404 65.1722 25.4131 64.6782 25.4131 64.1781V59.6315C25.4131 58.8143 25.3888 57.8934 25.3402 56.8688C25.3281 56.6248 25.3068 56.204 25.2765 55.6063H27.6079C27.5411 56.4297 27.4956 57.2804 27.4713 58.1586C27.4531 58.6404 27.4439 59.1314 27.4439 59.6315V66.273C27.8143 65.6814 28.2211 65.0472 28.6643 64.3702L29.4839 63.1078L30.3855 61.7264C31.0412 60.6347 31.9185 59.1985 33.0174 57.4177L34.1467 55.6063H36.3415C36.2686 56.387 36.2201 57.2438 36.1958 58.1769C36.1776 58.6587 36.1684 59.1527 36.1684 59.6589V64.2055Z" fill="#2C2C2C"/>
<path d="M50.2914 64.1781C50.2914 65.1112 50.3187 66.0382 50.3734 66.9591C50.4037 67.5019 50.4341 67.9258 50.4644 68.2307H48.2332L48.2514 66.831C48.2514 66.5627 48.2575 66.1602 48.2696 65.6235V62.0649C48.2332 62.0588 48.1543 62.0557 48.0329 62.0557L47.8052 62.0466L47.3043 62.0374L45.9474 62.01H44.891C44.2899 62.01 43.5826 62.0161 42.769 62.0283L41.9949 62.0466L41.7764 62.0557C41.6671 62.0557 41.5973 62.0588 41.5669 62.0649V64.2055C41.5669 65.1264 41.5942 66.0474 41.6489 66.9683L41.7308 68.2307H39.3994C39.4298 67.633 39.451 67.2122 39.4632 66.9683C39.5118 65.9437 39.536 65.0228 39.536 64.2055V59.6589C39.536 58.8295 39.5057 57.9025 39.445 56.8779L39.363 55.6063H41.5942L41.576 57.006V57.6098C41.5699 57.75 41.5669 57.9543 41.5669 58.2227V61.0769C41.6033 61.083 41.6792 61.086 41.7946 61.086L42.0131 61.0952C42.5838 61.1196 43.1728 61.1318 43.7799 61.1318C44.0228 61.1379 44.3961 61.1409 44.9001 61.1409C45.4101 61.1409 46.0961 61.1348 46.9582 61.1226C47.3589 61.1226 47.6413 61.1196 47.8052 61.1135L48.0329 61.1043C48.1604 61.1043 48.2393 61.1013 48.2696 61.0952V59.6315C48.2696 58.8143 48.2393 57.8934 48.1786 56.8688L48.0966 55.6063H50.428C50.3673 56.6614 50.3278 57.5122 50.3096 58.1586C50.2975 58.8051 50.2914 59.2961 50.2914 59.6315V64.1781Z" fill="#2C2C2C"/>
<path d="M64.4144 64.2055C64.4144 65.1508 64.4356 66.0717 64.4781 66.9683L64.5054 67.5172L64.551 68.2307H62.2196C62.2803 67.4623 62.3289 66.6084 62.3653 65.6692C62.3835 65.1935 62.3926 64.7056 62.3926 64.2055V57.564C61.7794 58.5703 61.0478 59.7474 60.1978 61.0952L59.6241 62.01C59.2719 62.5711 58.9593 63.0651 58.6861 63.492C58.4189 63.9189 58.1912 64.2818 58.003 64.5806L57.065 66.0535C56.464 66.9866 56.0572 67.6269 55.8447 67.9746C55.7415 68.127 55.6899 68.2124 55.6899 68.2307H53.486C53.5467 67.4501 53.5952 66.5932 53.6317 65.6601C53.6499 65.1722 53.659 64.6782 53.659 64.1781V59.6315C53.659 58.8143 53.6347 57.8934 53.5861 56.8688C53.574 56.6248 53.5527 56.204 53.5224 55.6063H55.8538C55.787 56.4297 55.7415 57.2804 55.7172 58.1586C55.699 58.6404 55.6899 59.1314 55.6899 59.6315V66.273C56.0602 65.6814 56.467 65.0472 56.9102 64.3702L57.7298 63.1078L58.6314 61.7264C59.2871 60.6347 60.1644 59.1985 61.2633 57.4177L62.3926 55.6063H64.5874C64.5145 56.387 64.466 57.2438 64.4417 58.1769C64.4235 58.6587 64.4144 59.1527 64.4144 59.6589V64.2055Z" fill="#2C2C2C"/>
<path d="M67.7911 59.6589C67.7911 58.8295 67.7607 57.9025 67.7 56.8779L67.618 55.6063H69.8128V64.2055C69.8128 65.1264 69.8401 66.0474 69.8948 66.9683C69.9251 67.511 69.9555 67.9319 69.9858 68.2307H67.6544C67.6848 67.633 67.7061 67.2122 67.7182 66.9683C67.7668 65.9437 67.7911 65.0228 67.7911 64.2055V59.6589ZM77.9545 68.185L77.8816 68.2124C77.8391 68.2368 77.7723 68.2551 77.6813 68.2673C77.572 68.2795 77.487 68.2856 77.4263 68.2856C77.1045 68.2856 76.6734 68.2124 76.1331 68.066C75.6656 67.8343 75.2011 67.4379 74.7397 66.8768C74.3572 66.4194 73.9747 65.837 73.5922 65.1295C73.2704 64.5501 72.8485 63.8793 72.3263 63.1169C72.0288 62.5802 71.6858 62.1899 71.2972 61.946C71.1455 61.8606 71.021 61.8087 70.9239 61.7904L70.6962 61.7538L70.4412 60.9214L72.1988 58.5612C72.5145 58.1343 72.9122 57.5457 73.3919 56.7956L73.8745 56.0363L74.0294 55.7801C74.0658 55.707 74.1022 55.649 74.1386 55.6063L76.0511 55.6155C75.8083 55.8472 75.4409 56.265 74.9492 56.8688C74.6699 57.2103 74.3876 57.5701 74.1022 57.9482L71.6706 61.1775C72.5995 61.1836 73.4404 61.6014 74.1933 62.4308C74.7397 63.0285 75.2679 63.8762 75.7779 64.974C76.3182 66.1266 76.8525 66.9744 77.3807 67.5172C77.6054 67.7489 77.8118 67.8983 78 67.9654L77.9545 68.185Z" fill="#2C2C2C"/>
</svg>
