<svg width="51" height="51" viewBox="0 0 51 51" fill="none" xmlns="http://www.w3.org/2000/svg">
<path d="M27.5181 0.755295C15.0165 0.755295 4.84567 10.9238 4.84567 23.4241C4.84567 28.8346 6.74869 33.8054 9.92041 37.6967L0.42926 47.1984L3.74623 50.5164L13.2374 41.0147C17.1381 44.1864 22.1102 46.0922 27.5181 46.0922C40.0197 46.0922 50.1905 35.9244 50.1905 23.4241C50.1905 10.9238 40.0197 0.755295 27.5181 0.755295ZM27.5181 41.4012C17.6032 41.4012 9.53661 33.339 9.53661 23.4241C9.53661 13.5091 17.6032 5.44626 27.5181 5.44626C37.433 5.44626 45.4996 13.5091 45.4996 23.4241C45.4996 33.339 37.433 41.4012 27.5181 41.4012Z" fill="white"/>
<path d="M29.8635 21.0783V14.0422H25.1726V21.0783H18.1362V25.7693H25.1726V32.8054H29.8635V25.7693H36.8999V21.0783H29.8635Z" fill="white"/>
</svg>
