<svg width="31" height="32" viewBox="0 0 31 32" fill="none" xmlns="http://www.w3.org/2000/svg">
<path d="M4.71611 20.9084C2.11365 15.0345 4.76567 8.16305 10.6395 5.56059C16.5134 2.95814 23.3848 5.61015 25.9873 11.484C28.5898 17.3579 25.9377 24.2293 20.0639 26.8318C14.19 29.4342 7.31856 26.7822 4.71611 20.9084Z" fill="#B78E43"/>
<path d="M15.353 15.2055C18.0298 15.2055 20.1998 15.6488 20.1998 16.1956C20.1998 16.7425 18.0298 17.1858 15.353 17.1858C12.6761 17.1858 10.5061 16.7425 10.5061 16.1956C10.5061 15.6488 12.6761 15.2055 15.353 15.2055Z" fill="white"/>
<path d="M14.3601 16.1962C14.3601 13.5194 14.8038 11.3494 15.351 11.3494C15.8982 11.3494 16.3418 13.5194 16.3418 16.1962C16.3418 18.8731 15.8982 21.0431 15.351 21.0431C14.8038 21.0431 14.3601 18.8731 14.3601 16.1962Z" fill="white"/>
</svg>
