<svg width="50" height="50" viewBox="0 0 50 50" fill="none" xmlns="http://www.w3.org/2000/svg">
<path d="M8.67522 33.4378C4.2315 24.4046 7.95202 13.4794 16.9852 9.03566C26.0185 4.59194 36.9437 8.31247 41.3874 17.3457C45.8311 26.3789 42.1106 37.3041 33.0774 41.7479C24.0442 46.1916 13.1189 42.471 8.67522 33.4378Z" fill="url(#paint0_radial_4_822)"/>
<path d="M31.0282 33.081C30.7897 33.081 30.5792 32.921 30.5099 32.6945C30.4432 32.4679 30.5339 32.2148 30.7351 32.0815C31.2442 31.7484 31.6773 31.3086 32.0064 30.8022C32.3183 30.3225 32.4249 29.9495 32.325 29.6563C32.1211 29.0833 31.0297 28.6702 30.1021 28.377C29.2666 28.1105 28.3497 28.3233 27.7287 28.9497L27.3768 29.2965C27.3142 29.3631 27.2369 29.4163 27.1516 29.4429C26.9104 29.5095 25.5858 29.7496 23.1337 27.2975C22.9218 27.0843 22.9204 26.7377 23.1323 26.5245C23.3429 26.3246 23.6867 26.3246 23.8973 26.5245C25.5058 28.137 26.448 28.3634 26.7572 28.3901L26.9651 28.1903C27.8713 27.2708 29.2092 26.9511 30.4312 27.3509C31.6439 27.7373 32.9673 28.2304 33.3431 29.2965C33.563 29.9228 33.4151 30.6156 32.9113 31.3885C32.4995 32.0282 31.9585 32.5745 31.3228 33.001C31.2348 33.0543 31.1322 33.081 31.0282 33.081ZM28.4322 33.8007C25.9588 33.8007 23.1203 32.3745 20.5856 29.8424C20.4457 29.7092 20.3884 29.5097 20.4377 29.3232C20.4883 29.1233 20.635 28.9766 20.8255 28.9367C21.0134 28.8833 21.2146 28.9365 21.3506 29.0831C23.7414 31.4685 26.4906 32.8278 28.6961 32.7212C28.8387 32.7079 28.9787 32.7613 29.0866 32.8546C29.1932 32.9479 29.2572 33.0942 29.2625 33.2274C29.2785 33.5339 29.048 33.7874 28.7495 33.8007C28.6442 33.8007 28.5389 33.8007 28.4322 33.8007Z" fill="white"/>
<path d="M20.9682 30.0025C20.8256 30.0025 20.687 29.949 20.5857 29.8424C17.8604 27.1105 16.3892 23.9526 16.6517 21.3806C16.805 19.7814 17.6859 18.355 19.0358 17.5154C19.8061 17.009 20.5098 16.8626 21.1254 17.0892C22.1902 17.4623 22.694 18.7819 23.0818 19.9946C23.4763 21.2206 23.1497 22.5528 22.2408 23.459L22.029 23.6724C22.0543 23.9523 22.2648 24.8986 23.896 26.5245C24.0999 26.7377 24.0972 27.0839 23.8893 27.2838C23.6801 27.4971 23.343 27.4974 23.1324 27.2975C20.6803 24.8454 20.9175 23.5127 20.9908 23.2729C21.0161 23.1929 21.0628 23.113 21.1254 23.0464L21.4772 22.6996C22.0996 22.0732 22.3208 21.1673 22.0516 20.3278C21.7545 19.3949 21.34 18.3016 20.7656 18.1017C20.4831 18.0084 20.1006 18.1153 19.6289 18.4218C18.5481 19.0882 17.8431 20.2206 17.7258 21.4867C17.4966 23.7389 18.8492 26.5777 21.3493 29.083C21.5025 29.2296 21.5492 29.4694 21.4653 29.6693C21.3826 29.8692 21.1854 30.0025 20.9668 30.0025H20.9682Z" fill="white"/>
<defs>
<radialGradient id="paint0_radial_4_822" cx="0" cy="0" r="1" gradientUnits="userSpaceOnUse" gradientTransform="translate(25.2808 4.43945) rotate(90.0008) scale(49.9102 31.4841)">
<stop stop-color="#FEE49A"/>
<stop offset="1" stop-color="#BB8D37"/>
</radialGradient>
</defs>
</svg>
