<svg width="184" height="407" viewBox="0 0 184 407" fill="none" xmlns="http://www.w3.org/2000/svg">
<path fill-rule="evenodd" clip-rule="evenodd" d="M139.059 354.197C177.119 289.83 21.7292 216.787 1.23829 326.331C-2.89427 348.426 19.5063 420.456 84.6397 399.96C122.147 388.166 124.519 378.771 139.059 354.197Z" fill="#F3DACB" fill-opacity="0.219608"/>
<path fill-rule="evenodd" clip-rule="evenodd" d="M105.143 406.543C104.648 399.307 103.672 391.99 102.731 384.914C101.22 373.56 99.6569 361.819 100.018 350.052C100.975 318.868 108.658 297.345 121.395 261.684C122.648 258.179 123.94 254.541 125.286 250.743C127.166 245.439 128.578 239.428 129.311 233.192C126.513 238.389 123.98 246.971 120.955 257.153C117.637 268.36 113.498 282.313 107.582 296.732L106.067 300.411L105.561 296.466C104.498 288.15 103.903 268.773 103.328 250.036C102.802 232.872 102.305 216.68 101.488 209.244C100.712 202.194 100.362 194.691 100.433 186.975C98.7787 184.923 96.7251 183.004 94.0851 181.218L90.8427 179.032L94.7488 179.299C96.7784 179.432 98.7321 179.672 100.607 180.032C100.826 174.635 101.247 169.171 101.861 163.707C102.581 157.35 106.829 149.061 111.327 140.292C116.018 131.15 120.862 121.702 121.035 115.185C121.182 109.628 120.023 105.603 117.597 103.138C112.368 106.15 109.455 110.348 105.427 116.145C103.547 118.85 101.415 121.915 98.7121 125.327C92.8497 132.723 81.5422 141.585 72.764 143.597L68.81 144.504L71.8218 141.785C75.6879 138.293 79.7204 132.35 83.9876 126.06C91.2732 115.305 99.493 103.178 109.281 100.18C109.217 100.166 109.155 100.166 109.089 100.166C92.891 100.166 65.0106 119.196 55.8952 125.753L52.3531 128.285L54.34 124.407C58.7444 115.811 74.3472 107.309 82.7282 102.738C83.6984 102.205 84.5779 101.725 85.3376 101.312C90.4469 98.4602 94.1997 97.1009 97.6579 96.6478C82.1552 90.8108 69.0885 70.3279 63.574 61.679C61.6043 58.6006 58.9017 55.5887 56.2897 52.6702C51.147 46.9265 46.2909 41.5161 47.2237 35.919C47.8074 32.4408 50.5806 29.3489 55.7046 26.4837C58.1274 25.1378 60.5902 24.0982 62.9743 23.0987C67.4573 21.2197 71.6899 19.4339 75.2973 15.7691L76.8325 14.2101C86.2637 1.41656 108.091 0.0840454 115.416 0.00408936C124.234 -0.102539 128.418 2.09613 134.229 6.10742C136.201 7.06693 137.907 8.19977 139.226 9.53241C144.13 12.6108 147.302 13.1972 152.886 14.2234C153.992 14.4233 155.178 14.6498 156.484 14.903C162.934 16.1824 166.652 18.861 167.518 22.899C167.612 23.3121 167.678 23.7518 167.692 24.1916C173.342 24.5648 178.473 26.2573 180.325 29.6289C182.671 33.9201 179.352 39.3972 170.437 45.8872C154.218 57.7079 153.166 61.3725 151.233 68.0224C150.367 71.0209 149.288 74.7523 146.556 80.003C144.983 83.0281 140.439 90.9442 133.576 96.2216C136.308 95.8484 139.133 95.5683 141.878 95.3151C154.525 94.1291 167.612 92.9031 174.568 80.7493L178.246 74.3128L176.5 81.5224C173.062 95.7684 163.347 103.018 147.648 103.058C146.716 103.058 145.716 103.058 144.65 103.071C140.572 103.098 135.694 103.138 130.764 102.898C132.736 104.111 134.562 105.763 135.948 108.055C139.652 114.132 139.399 123.421 135.188 135.628L132.27 144.09L133.136 135.188C134.069 125.593 130.577 111.747 123.128 105.164C122.248 104.391 121.329 103.738 120.396 103.205C122.355 106.07 123.274 110.095 123.141 115.239C122.968 122.235 117.997 131.91 113.203 141.265C108.991 149.474 104.633 157.963 103.957 163.934C103.332 169.478 102.914 175.008 102.701 180.459C112.121 182.657 119.423 187.641 124.474 195.317C126.646 198.636 128.285 202.327 129.471 206.258C129.404 191.413 132.563 176.367 144.717 169.051C148.501 166.759 152.513 165.693 156.391 164.653C163.4 162.787 170.01 161.029 174.315 152.22L176.807 147.129L176.314 152.779C175.981 156.617 175.794 160.602 175.594 164.813C174.835 181.338 173.968 200.075 162.614 212.469C155.911 219.785 146.995 224.583 138.266 225.995C163.6 227.768 175.714 246.971 176.607 265.842C179.765 267.907 182.057 270.799 182.884 275.237L183.177 276.796L181.631 276.463C181.018 276.33 175.581 274.957 174.568 267.081C171.263 265.175 166.985 264.056 162.387 262.857C150.1 259.672 136.174 256.047 132.736 236.07C132.416 234.231 132.07 232.179 131.71 229.98C131.163 237.589 129.551 245.039 127.272 251.449C125.926 255.247 124.633 258.885 123.381 262.403C110.715 297.852 103.074 319.254 102.128 350.119C101.77 361.713 103.322 373.36 104.822 384.634C105.768 391.737 106.747 399.094 107.248 406.41L105.143 406.543ZM102.537 189.987C102.57 196.57 102.919 202.967 103.584 209.017C104.411 216.52 104.909 232.778 105.435 249.97C105.926 265.948 106.431 282.393 107.224 291.948C112.265 279.061 115.933 266.681 118.93 256.553C122.781 243.586 125.766 233.511 129.698 228.741C129.751 227.914 129.778 227.088 129.804 226.262C128.711 226.142 127.632 225.955 126.579 225.715C117.944 223.69 111.712 217.48 109.033 208.218C108.692 207.045 108.371 205.886 108.057 204.766C106.5 199.196 105.133 194.305 102.537 189.987ZM177.06 268.853C177.806 271.399 179.152 272.798 180.258 273.557C179.565 271.625 178.473 270.106 177.06 268.853ZM133.576 228.247C134.002 230.979 134.429 233.498 134.815 235.71C138.013 254.341 151.247 257.792 162.921 260.818C167.038 261.897 171.05 262.936 174.421 264.602C172.995 246.691 161.015 228.994 136.587 228.021L136.361 227.981C135.375 227.728 134.455 227.821 133.576 228.247ZM133.003 224.329C133.016 224.329 133.029 224.329 133.029 224.329C142.731 224.329 153.392 219.412 161.068 211.043C171.903 199.222 172.702 181.671 173.489 164.72C173.609 162.081 173.728 159.536 173.888 157.044C169.251 163.414 163.001 165.08 156.937 166.692C153.206 167.692 149.341 168.731 145.796 170.85C129.524 180.658 130.497 205.965 133.003 224.329ZM102.549 186.269C106.543 191.519 108.229 197.543 110.088 204.193C110.401 205.313 110.721 206.458 111.059 207.631C114.21 218.519 121.502 222.357 127.059 223.65C127.965 223.863 128.898 224.036 129.831 224.143C129.831 214.108 127.779 204.193 122.701 196.477C118.05 189.387 111.314 184.749 102.626 182.617C102.59 183.843 102.563 185.056 102.549 186.269ZM98.3096 181.791C99.0919 182.457 99.8142 183.151 100.485 183.844C100.497 183.284 100.511 182.724 100.53 182.164C99.8022 182.018 99.0626 181.898 98.3096 181.791ZM114.115 101.539C113.086 101.539 112.036 101.659 110.963 101.912C101.448 104.058 93.1003 116.371 85.7333 127.232C82.471 132.057 79.342 136.668 76.2676 140.212C83.7837 137.014 92.3966 129.911 97.0609 124.021C99.7209 120.662 101.832 117.624 103.695 114.945C107.629 109.282 110.638 104.95 115.818 101.752C115.751 101.712 115.682 101.672 115.614 101.632C115.12 101.579 114.62 101.539 114.115 101.539ZM122.728 102.192C123.341 102.605 123.94 103.071 124.527 103.591C130.71 109.055 134.349 119.143 135.201 128.112C137.16 119.889 136.814 113.533 134.149 109.148C131.657 105.057 127.405 103.231 123.687 102.312C123.367 102.272 123.048 102.232 122.728 102.192ZM100.579 98.567C96.5105 98.567 92.5312 99.713 86.365 103.151C85.6001 103.578 84.7139 104.058 83.7383 104.591C77.3856 108.056 66.7857 113.826 60.4409 119.996C71.9257 112.173 89.5901 101.405 103.271 98.7268C102.354 98.6202 101.465 98.567 100.579 98.567ZM125.713 100.419C132.19 101.059 139.159 101.006 144.637 100.966C145.703 100.953 146.702 100.939 147.635 100.939C159.935 100.913 168.065 96.4215 172.316 87.2528C164.507 95.3154 153.139 96.3813 142.078 97.4208C138.133 97.794 134.415 98.1405 130.844 98.7935C130.151 98.9134 129.484 99.0468 128.845 99.18C127.832 99.6731 126.792 100.086 125.713 100.419ZM107.4 93.5562C107.514 93.6629 107.631 93.7695 107.747 93.8627C112.119 97.6741 116.635 99.4332 121.289 99.1133C123.287 98.3804 125.553 97.7274 128.165 97.1677C136.947 92.7966 142.877 82.5084 144.677 79.0302C147.315 73.9661 148.315 70.5012 149.208 67.4361C151.193 60.573 152.393 56.4285 169.197 44.1814C176.887 38.5709 180.178 33.7735 178.473 30.6418C177.1 28.1364 172.649 26.6971 167.598 26.3373C165.453 40.9432 135.241 63.6116 125.406 70.6347C116.791 76.7915 111.752 78.6705 109.553 76.5516C106.358 73.4732 111.925 63.8379 115.53 58.3874C122.914 47.1931 140.252 31.1746 153.339 26.0705C156.657 24.7779 161.148 24.0583 165.573 24.1116C165.559 23.845 165.519 23.592 165.453 23.3388C164.786 20.2071 161.628 18.0615 156.084 16.9687C154.778 16.7155 153.592 16.5023 152.499 16.3024C148.208 15.5028 145.183 14.9431 141.678 13.3039C142.664 15.9159 142.491 18.9009 141.118 22.0859C139.652 25.5108 136.374 27.8697 131.363 29.1223C118.437 32.334 97.6513 27.0567 91.4518 22.0592C91.0187 21.6994 90.6068 21.3532 90.2217 21.0067C88.7038 28.7494 89.9725 37.9445 91.0959 46.087C91.1985 46.8333 91.2998 47.5664 91.3971 48.2861C95.3711 53.6833 99.0239 60.3065 100.948 69.835C101.407 72.1138 101.712 74.4859 102.009 76.778C102.649 81.7355 103.268 86.5331 105.309 90.4644C106.03 91.4772 106.64 92.4102 107.128 93.2364C107.216 93.343 107.306 93.4496 107.4 93.5562ZM73.8367 19.8071C70.6557 22.1659 67.1802 23.6184 63.7926 25.0443C61.4618 26.0172 59.0523 27.0303 56.7335 28.323C52.2051 30.855 49.7744 33.4536 49.3066 36.2655C48.539 40.8632 53.0673 45.9139 57.8596 51.2579C60.5289 54.243 63.2902 57.3214 65.3531 60.5464C71.0409 69.4619 88.0389 96.1015 105.888 96.1015C106.022 96.1015 106.154 96.1015 106.288 96.1015C106.155 95.7417 105.948 95.3153 105.677 94.8355C102.858 92.2102 100.535 88.9453 98.6081 85.2405C95.9095 81.9222 92.947 78.4306 90.4682 75.5121C85.1749 69.2886 80.6066 63.9179 78.9901 61.1194C72.3202 49.5653 70.0227 33.6935 73.2731 21.6063C73.4383 20.9933 73.6275 20.3935 73.8367 19.8071ZM100.539 84.2677C100.771 84.5475 100.998 84.8273 101.221 85.1071C100.619 82.4951 100.266 79.7498 99.9181 77.0445C99.6249 74.7923 99.3238 72.4604 98.8813 70.2615C97.4194 63.0252 94.9034 57.508 92.0129 52.9237C93.1376 61.1328 95.3111 74.1928 100.539 84.2677ZM74.4605 26.1906C72.7467 37.105 75.1281 50.2049 80.8172 60.0532C82.3378 62.6918 87.0673 68.2624 92.0741 74.1527C93.3068 75.592 94.4822 76.9781 95.5963 78.3108C92.4513 69.6485 90.7441 59.6001 89.5088 50.085C89.4674 49.7651 89.4235 49.432 89.3808 49.1122C87.5964 46.7134 85.7507 44.5678 83.9809 42.5022C79.5432 37.3315 75.5239 32.654 74.4605 26.1906ZM165.013 26.2439C161.135 26.2439 157.164 26.8434 154.112 28.0295C141.758 32.8537 124.474 48.6458 117.291 59.5469C110.918 69.2086 110.048 74.0993 111.018 75.0322C111.343 75.352 113.517 76.5383 124.18 68.9155C142.838 55.6023 163.694 37.185 165.479 26.2573C165.319 26.244 165.173 26.2439 165.013 26.2439ZM76.7006 18.5145C74.8602 28.6426 79.6284 34.1998 85.5814 41.1296C86.6422 42.3689 87.727 43.6351 88.8132 44.9544C87.6977 36.8253 86.5543 27.3234 88.48 19.2742C85.6681 16.1425 84.8764 13.1704 86.1291 10.4119C86.5209 9.55896 87.0994 8.75961 87.831 8.01334C82.9415 10.5587 78.9741 13.9968 76.7006 18.5145ZM90.7881 18.6479C91.3705 19.2209 92.0341 19.8071 92.7791 20.4201C98.5241 25.0577 118.69 30.0818 130.844 27.07C135.188 25.9906 137.987 24.0451 139.186 21.2598C140.905 17.2352 140.479 13.9301 137.88 11.1715C137.16 10.7184 136.414 10.2122 135.615 9.65247C134.922 9.15939 134.255 8.6929 133.629 8.25311C134.362 9.15933 134.908 10.1187 135.268 11.1449C136.201 13.8768 135.561 16.7552 133.482 19.0474C130.377 22.499 123.234 25.2976 112.506 22.7922C104.44 20.8999 102.314 17.9948 101.952 15.8892C101.6 13.8503 102.782 11.798 105.191 10.2521C110.2 7.04041 119.609 6.41409 127.179 11.6114L127.312 11.7045C128.871 13.1971 128.605 14.4498 128.298 15.0761C126.926 17.9547 119.969 18.1681 115.914 17.635C110.534 16.9154 107.092 14.8631 106.424 11.9713C106.392 11.9846 106.36 12.011 106.33 12.0243C104.669 13.0904 103.829 14.3699 104.031 15.5294C104.197 16.5022 105.406 18.9675 112.987 20.7399C122.808 23.0321 129.218 20.6335 131.923 17.635C133.482 15.9159 133.962 13.8502 133.269 11.8379C132.416 9.37247 130.057 7.25369 126.513 5.65451C117.89 3.60223 107.522 3.8287 102.831 5.57446C95.9988 8.0932 92.4513 12.8508 90.7881 18.6479ZM99.4224 4.76141C94.0065 6.17404 89.3741 8.37311 88.0482 11.2916C87.3005 12.9308 87.6844 14.783 89.185 16.822C90.8748 11.7979 94.0038 7.52002 99.4224 4.76141ZM108.985 12.5309C110.078 13.9702 112.676 15.0763 116.194 15.5427C121.395 16.2357 125.9 15.1962 126.406 14.17C126.499 13.9701 126.206 13.5838 125.913 13.2906C122.874 11.2383 119.529 10.1988 116.368 9.93228C117.024 10.5053 117.557 11.2649 117.877 12.2244C118.117 13.1706 117.797 13.9436 117.031 14.3168C115.49 15.0764 111.328 13.6903 108.985 12.5309ZM109.893 10.6386C111.478 11.3982 114.464 12.4509 115.711 12.4775C114.964 10.9183 113.029 10.3718 111.58 10.3585C110.96 10.3718 110.383 10.4654 109.893 10.6386Z" fill="url(#paint0_linear_4_348)"/>
<defs>
<linearGradient id="paint0_linear_4_348" x1="54.7559" y1="-23.1707" x2="119.771" y2="219.877" gradientUnits="userSpaceOnUse">
<stop stop-color="#FFEEA0"/>
<stop offset="1" stop-color="#B78E43"/>
</linearGradient>
</defs>
</svg>
