<svg width="332" height="328" viewBox="0 0 332 328" fill="none" xmlns="http://www.w3.org/2000/svg">
<path fill-rule="evenodd" clip-rule="evenodd" d="M327.11 68.3596C357.858 16.3594 232.332 -42.6503 215.779 45.8512C212.441 63.7087 230.537 121.893 283.153 105.328C313.45 95.7992 315.372 88.2161 327.11 68.3596Z" fill="#F3DACB" fill-opacity="0.219608"/>
<path fill-rule="evenodd" clip-rule="evenodd" d="M146.41 325.934C158.983 323.495 170.009 317.205 179.988 309.356C185.425 305.092 190.571 300.454 195.679 295.79C201.013 290.926 206.155 285.955 210.774 280.384C219.888 269.39 227.011 257.076 233.471 244.389C239.052 233.435 244.058 222.147 247.656 210.367C251.831 196.707 254.047 182.567 255.557 168.375C255.673 167.282 253.953 167.295 253.836 168.375C252.486 181.075 250.564 193.722 247.13 206.035C243.958 217.403 239.472 228.318 234.287 238.912C228.161 251.426 221.464 263.726 213 274.84C204.449 286.061 193.862 295.59 183.085 304.638C172.164 313.794 160.142 321.523 145.952 324.282C144.867 324.495 145.326 326.147 146.41 325.934Z" fill="url(#paint0_linear_4_295)"/>
<path fill-rule="evenodd" clip-rule="evenodd" d="M145.952 324.282C140.812 325.761 135.46 325.775 130.163 325.415C125.558 325.095 120.898 324.735 116.416 323.576C108.943 321.643 102.717 317.086 96.3626 312.901C80.8798 302.72 66.9763 290.26 54.9038 276.213C42.746 262.061 32.3593 246.215 24.9137 229.091C21.0251 220.135 18.1305 210.78 15.6265 201.358C12.9239 191.177 10.7836 180.862 9.07249 170.481C5.61692 149.518 3.90579 128.315 2.74905 107.126C2.60512 104.514 2.47186 101.902 2.34659 99.2904C2.29062 98.1843 0.571496 98.1843 0.623469 99.2904C1.68026 120.826 3.16884 142.375 6.29124 163.724C9.31503 184.393 13.6342 205.356 21.3116 224.84C28.1854 242.297 38.1683 258.436 49.9689 272.975C61.8296 287.581 75.6625 300.694 91.1173 311.449C94.7834 313.994 98.5268 316.46 102.29 318.858C105.309 320.791 108.414 322.576 111.76 323.882C115.401 325.295 119.243 326.055 123.116 326.508C128.344 327.107 133.696 327.587 138.956 327.227C141.481 327.041 143.976 326.641 146.41 325.934C147.471 325.641 147.021 323.975 145.952 324.282Z" fill="url(#paint1_linear_4_295)"/>
<path fill-rule="evenodd" clip-rule="evenodd" d="M131.305 225.985C127.098 220.294 119.408 219.668 113.15 222.027C105.575 224.905 100.542 231.662 95.6937 237.792C93.7427 240.257 91.853 242.91 89.6754 245.175C88.7759 246.108 87.3939 247.587 85.9613 247.534C85.315 247.507 84.3835 247.094 84.8032 246.361C85.2084 245.668 86.2825 245.548 86.9715 245.748C88.7119 246.254 89.7434 248.227 90.575 249.679C91.4452 251.198 92.3354 252.664 93.4215 254.05C96.1135 257.489 99.4318 260.434 102.998 262.952C111.154 268.683 121.011 271.841 130.98 271.908C132.087 271.921 132.09 270.202 130.98 270.189C121.294 270.122 111.785 267.03 103.867 261.46C99.9182 258.688 96.1788 255.277 93.4935 251.239C91.7997 248.693 90.4977 244.722 87.1034 244.015C84.7952 243.536 81.2757 246.161 83.6878 248.373C86.0919 250.572 89.161 248.2 90.8921 246.388C93.2203 243.962 95.2366 241.124 97.3208 238.485C99.9875 235.1 102.641 231.675 105.821 228.743C109.281 225.572 113.442 223.12 118.177 222.56C122.535 222.04 127.115 223.2 129.819 226.851C130.471 227.731 131.964 226.878 131.305 225.985Z" fill="url(#paint2_linear_4_295)"/>
<path fill-rule="evenodd" clip-rule="evenodd" d="M103.732 244.296C99.2265 245.802 94.4902 245.682 89.8033 245.868C88.6998 245.908 88.6932 247.641 89.8033 247.588C94.6381 247.388 99.5436 247.507 104.189 245.948C105.234 245.602 104.786 243.936 103.732 244.296Z" fill="url(#paint3_linear_4_295)"/>
<path fill-rule="evenodd" clip-rule="evenodd" d="M131.601 226.851C136.717 219.935 146.882 222.173 152.883 226.505C159.33 231.169 163.888 238.272 168.816 244.415C170.423 246.414 172.985 249.679 175.937 249.2C178.948 248.72 179.25 245.282 176.458 244.189C173.077 242.883 170.671 246.494 169.269 248.973C167.043 252.904 164.111 256.196 160.65 259.088C152.214 266.138 141.433 270.122 130.44 270.189C129.334 270.202 129.332 271.921 130.44 271.908C139.194 271.855 147.85 269.416 155.367 264.925C159.173 262.659 162.737 259.861 165.778 256.636C167.192 255.13 168.522 253.517 169.632 251.772C170.55 250.332 171.238 248.746 172.308 247.414C173.159 246.348 175.3 244.669 176.534 246.255C177.123 247.001 176.185 247.494 175.46 247.534C174.788 247.561 174.127 247.174 173.591 246.801C171.14 245.148 169.496 242.43 167.645 240.178C162.597 234.034 157.988 226.971 150.768 223.16C144.136 219.655 134.942 219.455 130.116 225.985C129.458 226.878 130.949 227.731 131.601 226.851Z" fill="url(#paint4_linear_4_295)"/>
<path fill-rule="evenodd" clip-rule="evenodd" d="M129.21 245.055C127.128 245.095 125.033 245.188 122.952 245.082C120.637 244.975 118.371 244.535 116.101 244.109C111.941 243.309 107.951 243.029 103.856 244.322C104.077 244.855 104.299 245.375 104.52 245.895C105.19 245.562 105.864 245.215 106.571 244.948C106.689 244.908 106.932 244.869 107.031 244.789C107.42 244.469 107.654 245.268 106.689 244.496C106.615 244.216 106.543 243.936 106.468 243.656C106.623 243.283 106.84 243.389 106.493 243.403C106.37 243.416 105.944 243.642 105.878 243.669C105.218 243.936 104.536 244.136 103.856 244.322C104.077 244.855 104.299 245.375 104.52 245.895C108.686 243.19 113.322 241.564 118.302 241.31C120.714 241.204 123.138 241.35 125.526 241.697C127.516 241.977 129.486 242.537 131.499 242.577C133.313 242.617 135.143 242.03 136.943 241.83C139.059 241.59 141.197 241.51 143.323 241.617C148.166 241.87 152.823 243.256 156.901 245.895C157.122 245.375 157.345 244.855 157.565 244.322C156.886 244.136 156.203 243.936 155.543 243.669C155.376 243.603 155.187 243.483 155.011 243.443C154.649 243.363 154.684 243.003 154.953 243.656C154.878 243.936 154.805 244.216 154.731 244.496C154.42 244.749 153.941 244.482 154.304 244.762C154.406 244.842 154.745 244.908 154.851 244.948C155.556 245.215 156.231 245.562 156.901 245.895C157.19 245.402 157.481 244.909 157.77 244.416C153.773 242.59 148.953 243.456 144.818 244.242C139.618 245.242 134.476 244.962 129.21 245.055C128.104 245.082 128.101 246.801 129.21 246.788C133.863 246.694 138.574 247.081 143.18 246.294C147.458 245.561 152.701 243.976 156.901 245.895C157.893 246.348 158.769 244.922 157.77 244.416C156.828 243.936 154.594 242.416 153.515 243.283C153.303 243.443 153.19 243.869 153.294 244.122C153.783 245.322 156.045 245.681 157.106 245.988C158.068 246.268 158.572 244.935 157.77 244.416C153.691 241.764 149.038 240.337 144.204 239.951C141.923 239.778 139.627 239.831 137.352 240.058C135.425 240.258 133.429 240.897 131.499 240.857C129.256 240.817 127.028 240.151 124.804 239.885C122.348 239.578 119.861 239.458 117.392 239.658C112.438 240.044 107.807 241.71 103.651 244.416C102.858 244.935 103.343 246.268 104.313 245.988C105.389 245.681 107.634 245.322 108.127 244.122C108.23 243.869 108.119 243.443 107.906 243.283C106.824 242.416 104.593 243.936 103.651 244.416C102.782 244.855 103.384 246.281 104.313 245.988C108.695 244.602 112.808 245.228 117.221 246.068C121.23 246.814 125.147 246.854 129.21 246.788C130.316 246.761 130.32 245.042 129.21 245.055Z" fill="url(#paint5_linear_4_295)"/>
<path fill-rule="evenodd" clip-rule="evenodd" d="M157.23 245.947C161.877 247.506 166.783 247.387 171.618 247.587C172.726 247.64 172.724 245.907 171.618 245.868C166.928 245.681 162.194 245.801 157.687 244.295C156.636 243.935 156.184 245.601 157.23 245.947Z" fill="url(#paint6_linear_4_295)"/>
<path fill-rule="evenodd" clip-rule="evenodd" d="M103.739 39.2944C116.539 47.0105 120.193 64.0683 121.567 77.8213C123.474 96.8649 121.579 116.308 118.374 135.112C116.655 145.187 114.468 155.182 111.763 165.043C111.47 166.123 113.129 166.576 113.422 165.51C118.515 146.946 121.959 127.809 123.384 108.606C124.094 99.0239 124.28 89.3487 123.467 79.7536C122.766 71.4911 121.378 63.122 118.299 55.366C115.508 48.3429 111.195 41.7863 104.606 37.815C103.656 37.242 102.79 38.7214 103.739 39.2944Z" fill="url(#paint7_linear_4_295)"/>
<path fill-rule="evenodd" clip-rule="evenodd" d="M104.401 37.7218C95.3658 36.4558 86.4117 34.6436 77.6015 32.2715C68.9486 29.9393 60.5236 26.7408 51.7667 24.8085C43.8454 23.0494 35.483 22.4499 27.667 25.0219C21.3555 27.1142 15.7517 31.0054 11.2927 35.9096C6.18063 41.5201 2.50783 48.3567 0.468876 55.6596C0.169029 56.7257 1.82818 57.1786 2.12803 56.1125C5.66889 43.439 14.6483 31.4852 27.3418 26.9542C43.295 21.2505 59.9972 29.1529 75.2774 33.4174C84.6899 36.0427 94.2703 38.015 103.944 39.3876C105.028 39.5342 105.495 37.8817 104.401 37.7218Z" fill="url(#paint8_linear_4_295)"/>
<path fill-rule="evenodd" clip-rule="evenodd" d="M2.57185 57.2181C9.70955 46.3703 22.7882 41.1062 35.3804 40.4666C51.1804 39.6537 66.3753 45.0508 81.217 49.7151C89.5022 52.3271 97.8699 54.7528 106.492 55.9522C107.577 56.0988 108.045 54.4463 106.949 54.2863C77.5616 50.2351 46.9812 29.6723 17.1937 42.9988C10.7117 45.8907 5.00794 50.3951 1.08595 56.352C0.475591 57.2716 1.96416 58.1376 2.57185 57.2181Z" fill="url(#paint9_linear_4_295)"/>
<path fill-rule="evenodd" clip-rule="evenodd" d="M2.34664 101.263C2.27867 94.28 4.25499 86.9235 8.66341 81.4063C12.1763 77.0219 17.9254 74.33 22.9628 72.1178C29.0637 69.4258 35.6656 67.8668 42.197 66.6541C49.5999 65.2815 57.164 64.5484 64.6988 64.8282C72.0084 65.0947 79.1314 66.614 85.7374 69.8123C88.9091 71.3582 91.9316 73.2238 94.7075 75.3961C97.4234 77.5283 100.205 79.9407 101.896 82.9924C102.757 84.5516 103.371 86.4039 102.99 88.1897C102.59 90.0687 101.204 91.4146 99.6876 92.4674C96.8917 94.4131 93.7093 95.9592 90.5936 97.3185C84.2115 100.117 77.3737 101.956 70.4585 102.822C55.0517 104.741 39.1105 101.903 25.5228 94.32C24.554 93.7869 23.6851 95.266 24.6539 95.8124C37.55 102.995 52.553 106.061 67.2535 104.875C74.5924 104.275 81.8527 102.649 88.7079 99.9571C92.1328 98.5978 95.4604 97.0118 98.6375 95.1461C101.428 93.5202 104.313 91.4681 104.756 88.0032C105.189 84.5916 103.226 81.3799 101.076 78.9144C98.6908 76.1825 95.715 73.8503 92.7112 71.838C86.4157 67.6135 79.1488 64.7881 71.6433 63.7087C63.8446 62.5759 55.8233 62.9627 48.038 63.9888C40.6631 64.975 33.1176 66.4542 26.1105 68.9996C22.8095 70.199 19.5925 71.6779 16.5101 73.3704C13.6449 74.9296 10.6824 76.7021 8.41021 79.0875C2.93034 84.8179 0.550219 93.4937 0.62618 101.263C0.638174 102.369 2.3573 102.369 2.34664 101.263Z" fill="url(#paint10_linear_4_295)"/>
<path fill-rule="evenodd" clip-rule="evenodd" d="M28.6758 93.5325C25.1856 90.8539 21.0983 89.1347 16.7419 88.5217C15.6638 88.3751 15.2173 89.801 16.2861 90.1875C21.9286 92.1865 26.1718 96.5976 31.0799 99.8359C36.0201 103.101 41.6825 105.166 47.4649 106.339C59.6787 108.818 72.692 107.965 84.7205 104.9C90.5003 103.434 96.4772 101.502 101.761 98.6897C103.618 97.7035 105.267 96.2244 106.791 94.7984C111.727 90.1741 116.155 84.3371 118.006 77.7538C119.12 73.8091 119.126 69.5712 117.576 65.7199C115.589 60.8024 111.551 57.1642 107.156 54.379C106.219 53.7793 105.354 55.272 106.288 55.8717C110.182 58.3371 113.835 61.5221 115.754 65.8132C117.212 69.0649 117.416 72.7164 116.635 76.168C115.174 82.6447 110.939 88.3618 106.26 92.9195C104.738 94.3988 103.108 95.9181 101.265 96.9975C99.2971 98.1569 97.0649 98.983 94.9473 99.8092C92.1101 100.929 89.2169 101.888 86.2811 102.714C74.6497 105.953 62.0494 107.059 50.0915 105.086C43.7588 104.034 37.5459 102.008 32.1434 98.4766C26.9993 95.1183 22.6376 90.614 16.7419 88.5217C16.5886 89.0814 16.4367 89.6278 16.2861 90.1875C20.5133 90.7739 24.418 92.4129 27.8083 95.0115C28.6851 95.6912 29.542 94.1988 28.6758 93.5325Z" fill="url(#paint11_linear_4_295)"/>
<path fill-rule="evenodd" clip-rule="evenodd" d="M251.184 60.5094C251.499 55.2455 245.722 53.3931 241.608 52.5802C240.345 52.327 239.07 52.0739 237.857 51.6341C236.504 51.1277 235.33 50.2745 234 49.7282C232.055 48.9286 230.028 49.0754 228.291 50.2881C226.549 51.5008 225.337 53.3798 224.368 55.2322C223.095 57.6576 221.924 60.2029 221.014 62.8016C219.934 65.8667 217.879 73.2629 222.673 74.489C223.758 74.7688 224.902 74.5288 225.983 74.3689C227.685 74.1157 229.383 73.8627 231.084 73.6229C234.046 73.1831 237.065 72.8765 239.991 72.2369C243.811 71.3973 248.476 68.2656 246.966 63.6813C246.285 61.6024 244.125 61.1358 242.127 61.2291C239.908 61.3224 237.78 62.2552 235.995 63.5346C231.674 66.6397 229.825 71.7303 226.563 75.7549C222.739 80.4592 216.766 82.4317 210.82 81.9119C204.514 81.3522 198.781 77.9806 194.065 73.9427C193.444 73.4096 192.376 73.9025 192.627 74.7821C193.826 78.9666 196.448 82.6448 200.047 85.1102C201.974 86.4295 204.122 87.2425 206.346 87.9089C208.84 88.6685 211.485 89.3216 213.539 91.0007C216.988 93.8526 218.402 98.3967 221.168 101.795C223.706 104.927 227.356 106.713 231.324 107.166C239.825 108.125 247.717 103.194 251.533 95.7314C253.606 91.6801 254.584 87.1493 254.77 82.6183C254.866 80.2995 254.744 77.9673 254.437 75.6485C254.201 73.8761 253.79 71.9171 252.435 70.6244C250.853 69.1185 248.814 69.598 246.998 70.3709C244.294 71.517 241.596 72.6899 238.895 73.8493C233.755 76.0615 228.331 78.7667 222.581 78.3802C212.898 77.7139 206.608 68.812 203.159 60.6562C202.339 58.7238 201.342 57.6311 199.338 56.9914C195.707 55.8186 200.291 52.4469 201.797 51.5674C204.08 50.2347 206.664 49.4084 209.292 49.1552C211.974 48.902 214.54 49.5552 217.201 49.6751C222.113 49.9017 225.793 46.7165 229.893 44.5443C234.872 41.9056 240.529 42.2521 245.949 42.8785C248.432 43.1583 251.357 43.2782 252.955 45.5038C254.053 47.0363 254.341 49.0486 254.604 50.861C254.888 52.8067 255.07 54.8058 255.7 56.6716C256.402 58.7505 257.716 60.1362 259.113 61.7754C262.871 66.1998 259.757 71.9301 257.123 76.0214C255.832 78.0337 254.51 80.0462 253.64 82.2851C252.705 84.6839 252.562 87.1757 252.773 89.7211C253.005 92.5197 253.525 95.3183 252.995 98.1035C252.832 98.9564 253.77 99.5296 254.431 98.9433C261.716 92.4399 270.025 84.537 270.181 74.0224C270.27 67.8789 267.766 62.042 267.748 55.8718C267.739 52.9 267.9 49.8617 267 46.9831C266.224 44.5044 264.722 42.3053 262.976 40.4129C259.658 36.8148 255.183 34.2961 250.424 33.1767C245.14 31.9507 240.052 32.7235 234.969 34.4293C232.127 35.3755 229.317 36.4817 226.386 37.1347C223.173 37.8676 219.909 37.8012 216.637 37.6812C211.483 37.4947 205.955 37.3879 201.405 40.2132C199.314 41.5192 197.893 43.3182 196.783 45.5038C195.535 47.9558 194.166 49.9414 192.06 51.7405C188.232 55.0055 183.877 57.5245 181.788 62.3353C179.685 67.1995 180.128 72.5299 182.637 77.1409C183.997 79.633 185.792 81.8585 187.524 84.1107C189.574 86.7626 191.623 89.4146 193.672 92.0666C196.985 96.3444 200.088 101.768 205.291 103.941C207.86 105.007 210.636 105.473 213.354 106.006C216.543 106.619 219.744 107.206 222.977 107.539C228.864 108.139 234.763 107.725 240.318 105.593C245.099 103.741 249.415 100.942 253.482 97.8504C257.652 94.692 261.594 91.2536 265.717 88.0419C266.297 87.5888 268.238 85.6035 269.062 86.0033C270.183 86.523 269.715 89.6145 269.497 90.4675C268.803 93.1594 266.929 95.425 264.829 97.1707C262.618 99.0098 260.08 100.422 257.766 102.115C255.751 103.581 254.026 105.26 252.519 107.246C251.022 109.218 249.722 111.364 248.032 113.176C246.038 115.335 243.614 116.561 240.686 116.854C237.734 117.147 234.699 116.934 231.741 116.841C228.714 116.734 225.685 116.574 222.678 116.188C216.639 115.415 210.78 113.616 205.703 110.191C203.357 108.605 201.466 106.579 199.278 104.807C197.571 103.434 195.595 102.488 193.354 102.875C190.985 103.274 189.125 104.913 186.927 105.753C184.062 106.872 181.671 105.433 179.629 103.447C175.755 99.6627 171.052 94.1724 172.749 88.3087C173.505 85.71 175.723 83.7111 178.511 83.6711C179.043 83.6711 179.583 83.7377 180.087 83.9109C180.826 84.1774 181.003 84.3506 180.827 85.1368C180.486 86.6694 179.072 87.6689 177.842 88.4685C175.765 89.8145 173.807 91.134 173.101 93.6527C172.49 95.8116 172.892 98.1969 173.714 100.236C174.735 102.781 176.499 104.9 178 107.152C179.477 109.378 180.39 111.71 181.103 114.255C182.335 118.68 183.538 123.251 187.94 125.516C190.375 126.769 193.121 127.342 195.201 129.221C197.051 130.887 198.411 133.059 200.587 134.365C205.07 137.057 210.702 135.284 214.949 132.992C220.007 130.274 224.557 126.782 230.614 127.369C233.289 127.635 235.97 128.328 238.671 128.075C241.117 127.848 243.097 126.716 244.71 124.89C246.467 122.904 247.86 120.839 250.349 119.679C252.757 118.56 255.489 118.307 258.111 118.267C260.807 118.227 263.629 118.693 266.284 118.107C268.588 117.6 270.492 116.108 271.918 114.269C275.253 109.991 275.69 104.14 279.233 100.022C281.997 96.8108 285.998 94.9853 288.902 91.9202C291.813 88.8417 292.435 84.9769 290.65 81.1255C289.672 79.02 288.241 77.1676 287.084 75.1686C285.637 72.6499 285.122 70.1446 285.173 67.2661C285.217 64.734 285.533 62.1887 285.186 59.6567C284.816 56.9514 283.562 54.7524 281.551 52.9134C279.276 50.8478 276.731 49.0219 274.32 47.1162C271.792 45.1039 269.266 43.1049 266.738 41.0926C266.681 41.5457 266.624 41.9988 266.565 42.4519C269.2 40.7595 271.656 44.9042 273.665 46.0103C275.886 47.223 278.35 46.7299 280.622 45.9436C283.251 45.0374 285.826 43.838 288.652 44.611C291.246 45.3173 293.434 47.2362 294.761 49.5417C296.319 52.2337 296.624 55.4854 296.311 58.5371C295.994 61.6289 294.781 64.4407 294.047 67.4258C293.455 69.8379 293.329 72.4767 294.883 74.5557C296.535 76.7812 299.047 77.8871 298.867 81.0722C298.713 83.8308 296.999 86.4296 295.365 88.5618C293.57 90.9073 291.596 93.1327 289.668 95.3715C285.814 99.8359 281.773 104.167 277.217 107.925C272.469 111.843 267.151 114.749 261.585 117.321C257.496 119.213 252.552 121.465 251.189 126.196C250.291 129.314 251.178 132.766 251.582 135.898C252.014 139.256 252.402 142.627 252.728 145.999C253.452 153.435 253.869 160.898 253.836 168.374C253.833 169.494 255.552 169.494 255.557 168.374C255.588 161.431 255.23 154.488 254.598 147.572C254.31 144.413 253.965 141.255 253.578 138.11C253.211 135.098 252.511 131.993 252.542 128.955C252.603 122.625 259.314 120.305 264.104 118.04C269.757 115.348 275.005 112.15 279.741 108.045C284.395 104.007 288.514 99.3961 292.489 94.7052C295.782 90.8272 300.624 86.1632 300.6 80.6593C300.588 78.0073 299.104 76.3281 297.271 74.609C294.66 72.1703 295.262 69.1449 296.235 66.0398C297.997 60.416 299.392 54.1262 296.247 48.6756C294.912 46.3568 292.834 44.4242 290.366 43.3981C287.596 42.2386 284.884 42.5986 282.124 43.5715C280.59 44.1179 279.032 44.8243 277.401 45.0108C275.499 45.2241 274.123 44.3976 272.778 43.1316C270.9 41.3725 268.316 39.2937 265.697 40.9595C265.278 41.2261 265.067 41.9457 265.523 42.3189C268.124 44.3711 270.724 46.4366 273.324 48.5022C275.782 50.4612 278.427 52.3003 280.693 54.4725C285.193 58.7903 282.927 64.8007 283.574 70.2645C284.16 75.1954 287.93 78.3804 289.523 82.8714C291.208 87.629 287.874 90.9206 284.349 93.546C280.677 96.2779 277.328 98.7698 275.361 103.061C273.335 107.485 272.177 113.696 267.287 115.961C264.642 117.187 261.378 116.521 258.552 116.534C256.102 116.561 253.592 116.747 251.248 117.507C249.058 118.2 247.128 119.413 245.601 121.132C243.795 123.171 242.377 125.583 239.52 126.209C236.831 126.809 233.994 126.049 231.318 125.729C228.722 125.423 226.22 125.57 223.743 126.449C218.51 128.288 214.284 132.26 208.845 133.592C206.159 134.259 203.215 134.192 200.897 132.513C198.812 131.007 197.474 128.701 195.401 127.169C193.23 125.556 190.516 125.05 188.209 123.704C186.012 122.411 184.779 120.266 183.967 117.92C183.186 115.668 182.719 113.309 181.916 111.057C181.035 108.591 179.624 106.459 178.128 104.327C176.618 102.182 175.105 99.9695 174.655 97.3308C174.433 96.0381 174.475 94.6653 174.992 93.4526C175.605 92.0133 176.842 91.1473 178.124 90.321C180.052 89.095 182.181 87.6423 182.56 85.2035C182.679 84.4439 182.652 83.5509 182.062 83.0178C181.366 82.3781 180.152 82.0853 179.244 81.992C174.587 81.5255 171.111 85.4434 170.746 89.8278C170.29 95.3183 173.883 99.9025 177.445 103.674C179.078 105.393 180.966 107.192 183.35 107.752C185.573 108.272 187.625 107.432 189.55 106.379C191.823 105.153 194.087 103.754 196.658 105.087C198.952 106.286 200.675 108.512 202.691 110.111C207.146 113.616 212.347 115.908 217.877 117.107C223.619 118.347 229.523 118.52 235.374 118.653C238.189 118.707 241.119 118.84 243.838 117.974C246.018 117.281 247.86 115.935 249.386 114.255C250.966 112.51 252.236 110.511 253.632 108.618C255.308 106.34 257.283 104.514 259.605 102.901C263.804 99.996 268.528 97.4106 270.62 92.4664C271.472 90.4675 271.868 87.9488 270.976 85.8699C270.666 85.1502 270.134 84.4306 269.341 84.2174C268.226 83.8975 267.295 84.6972 266.468 85.3102C262.283 88.4553 258.341 91.8934 254.234 95.1184C250.131 98.3434 245.794 101.409 240.975 103.474C235.424 105.86 229.515 106.433 223.531 105.873C220.17 105.553 216.848 104.94 213.537 104.287C210.695 103.728 207.715 103.274 205.099 101.968C202.564 100.702 200.823 98.5169 199.123 96.3313C197.127 93.746 195.138 91.1739 193.144 88.5885C191.137 85.9899 189.101 83.4044 187.126 80.779C185.408 78.5002 183.727 76.0883 182.834 73.3431C181.078 67.9458 182.737 62.082 186.798 58.204C190.296 54.859 194.844 52.6202 197.287 48.2758C198.67 45.8104 199.638 43.4248 202.101 41.8123C204.193 40.453 206.712 39.76 209.176 39.4801C215.247 38.7872 221.317 40.1333 227.341 38.6807C232.996 37.3214 238.286 34.4162 244.2 34.2562C249.306 34.1096 254.427 35.7353 258.55 38.7605C260.768 40.373 262.752 42.4386 264.146 44.8107C265.785 47.596 266.04 50.6344 266.037 53.8062C266.035 56.6847 266.1 59.4835 266.618 62.3353C267.187 65.4537 268.07 68.5189 268.359 71.6772C268.86 77.1145 267.025 82.1118 263.912 86.5095C260.921 90.734 257.062 94.2921 253.215 97.7303C253.694 98.0102 254.174 98.2902 254.652 98.5701C255.684 93.1595 253.207 87.6822 255.432 82.4315C257.347 77.9138 260.993 74.329 262.185 69.4782C262.708 67.3459 262.775 65.0539 261.907 63.0017C260.972 60.7895 258.866 59.4568 257.814 57.3379C256.08 53.833 256.713 49.6615 255.21 46.0767C253.309 41.559 248.453 41.386 244.179 40.9595C239.071 40.4664 233.878 40.5464 229.223 42.9585C227.043 44.0779 225.052 45.5439 222.857 46.6366C220.222 47.956 217.723 48.089 214.847 47.7025C209.977 47.0495 205.242 47.5693 200.928 50.088C199.181 51.1008 197.32 52.3937 196.541 54.3394C195.83 56.1118 196.482 57.7908 198.3 58.4704C199.497 58.9102 200.388 59.0836 201.076 60.2697C201.645 61.2425 201.994 62.3617 202.458 63.3879C203.388 65.4535 204.503 67.4394 205.803 69.3051C208.296 72.8633 211.482 76.0747 215.386 78.0604C219.492 80.166 224.019 80.5926 228.495 79.5531C233.919 78.3137 239.063 75.635 244.151 73.4494C246.361 72.5033 250.283 69.7713 251.906 72.7698C252.963 74.7288 252.967 77.3542 253.052 79.5131C253.412 88.7084 250.335 99.2498 241.507 103.621C237.749 105.487 233.246 106.126 229.169 105.02C224.544 103.767 221.973 100.342 219.665 96.3844C218.588 94.532 217.506 92.6663 216.069 91.0671C214.514 89.3346 212.573 88.1885 210.406 87.3889C207.998 86.4961 205.438 86.0298 203.116 84.9104C201.009 83.8976 199.142 82.4184 197.631 80.6326C196.065 78.7936 194.951 76.6347 194.287 74.3159C193.806 74.5957 193.328 74.8754 192.849 75.1553C199.357 80.7258 207.611 84.8436 216.387 83.4043C220.497 82.738 224.379 80.8056 227.17 77.6872C230.152 74.3422 231.819 70.0379 234.887 66.7862C236.37 65.2003 238.228 63.8811 240.321 63.2681C241.333 62.9749 242.385 62.8418 243.432 63.015C244.755 63.2282 245.47 63.7344 245.484 65.1604C245.534 70.3444 238.569 70.7977 234.879 71.3307C232.233 71.7172 229.588 72.1169 226.943 72.5033C225.711 72.6766 224.056 73.1962 222.861 72.7298C221.776 72.29 221.476 70.9975 221.403 69.9447C221.076 65.2405 223.739 60.1362 225.852 56.0983C226.831 54.2326 228.121 52.0471 230.166 51.2076C232.686 50.1681 234.943 52.3403 237.175 53.2065C240.983 54.6724 249.824 54.4725 249.464 60.5094C249.398 61.6155 251.118 61.6022 251.184 60.5094Z" fill="url(#paint12_linear_4_295)"/>
<path fill-rule="evenodd" clip-rule="evenodd" d="M255.557 167.508C256.713 157.833 263.48 149.571 270.447 143.241C278.035 136.324 287.047 131.46 295.726 126.103C300.71 123.024 305.571 119.746 309.96 115.855C309.482 115.721 309.002 115.601 308.524 115.468C311.703 125.343 309.087 136.697 302.015 144.294C297.881 148.718 292.373 151.277 286.856 153.555C281.43 155.794 276.118 158.166 270.964 160.991C265.017 164.243 259.238 167.855 253.79 171.893C254.21 172.066 254.633 172.239 255.054 172.399C254.543 170.747 255.536 169.027 256.41 167.681C257.435 166.082 258.688 164.657 259.963 163.257C262.863 160.086 266.033 157.22 269.46 154.635C276.452 149.344 284.111 145 291.101 139.709C294.948 136.804 298.57 133.606 301.682 129.901C301.202 129.634 300.724 129.354 300.244 129.074C298.229 134.418 295.269 139.389 291.506 143.68C287.6 148.145 282.906 151.57 277.875 154.661C273.079 157.593 267.855 160.338 263.815 164.323C260.374 167.708 257.866 172.039 255.824 176.384C253.47 181.381 251.635 186.658 250.413 192.042C250.977 192.122 251.541 192.202 252.103 192.269C252.595 187.138 251.27 181.888 249.309 177.183C247.356 172.492 244.615 167.921 240.876 164.43C236.378 160.219 230.352 157.58 224.846 154.995C218.976 152.236 213.112 149.491 207.743 145.826C201.653 141.655 196.24 136.564 191.633 130.794C191.018 130.034 189.774 131.02 190.281 131.847C196.364 141.668 197.077 153.529 201.326 164.083C203.499 169.481 206.666 174.172 210.903 178.17C215.477 182.487 220.739 186.059 225.793 189.777C232.321 194.574 238.849 199.385 245.379 204.183C245.776 204.476 246.31 204.223 246.554 203.876C251.369 197.093 248.905 188.191 244.223 182.087C241.597 178.663 238.345 175.797 235.052 173.039C231.502 170.054 227.829 167.228 224.049 164.537C219.614 161.391 215.026 158.46 210.314 155.741C209.436 155.234 208.652 156.367 209.273 157.087C215.137 163.923 223.091 168.348 229.732 174.318C236.069 180.008 240.52 187.578 243.349 195.574C244.904 199.959 245.99 204.556 246.226 209.207C246.262 209.927 247.158 210.393 247.696 209.82C258.881 198.026 275.581 193.628 286.805 181.861C286.316 181.661 285.826 181.461 285.337 181.261C284.416 191.203 280.222 200.771 273.574 208.221C266.832 215.777 257.583 220.614 249.134 225.972C244.443 228.943 239.785 232.022 235.618 235.713C236.098 235.993 236.578 236.273 237.056 236.553C238.4 232.662 240.093 228.89 242.19 225.359C243.148 223.733 244.19 222.147 245.411 220.721C246.478 219.468 247.735 218.389 248.903 217.243C253.373 212.819 257.339 207.901 262.313 203.996C265.913 201.184 269.923 198.959 274.103 197.12C273.709 196.733 273.318 196.334 272.926 195.947C266.251 206.515 255.539 212.618 245.596 219.655C244.482 220.441 243.39 221.254 242.3 222.08C240.984 223.067 239.139 224.479 237.392 223.906C235.969 223.453 235.177 221.694 234.398 220.535C233.434 219.109 232.448 217.696 231.428 216.31C228.202 211.912 224.649 207.794 220.775 203.956C215.995 199.212 210.862 194.841 205.835 190.377C205.01 189.644 203.789 190.856 204.619 191.589C213.869 199.812 223.177 207.821 230.474 217.909C231.5 219.335 232.495 220.775 233.466 222.24C234.227 223.373 234.972 224.626 236.222 225.292C239.055 226.811 241.99 224.439 244.141 222.827C249.075 219.135 254.354 215.937 259.315 212.285C265.182 207.967 270.5 203.01 274.41 196.813C274.916 196.014 273.956 195.321 273.234 195.64C266.224 198.719 260.17 203.01 254.85 208.501C252.614 210.806 250.483 213.205 248.218 215.484C245.726 218.003 243.338 220.295 241.426 223.306C238.903 227.291 236.936 231.649 235.397 236.087C235.097 236.953 236.239 237.459 236.835 236.926C244.812 229.877 254.443 224.972 263.243 219.069C267.363 216.297 271.304 213.298 274.642 209.607C277.93 205.955 280.67 201.811 282.732 197.346C285.085 192.256 286.54 186.832 287.057 181.261C287.128 180.502 286.075 180.142 285.587 180.648C274.373 192.402 257.674 196.8 246.478 208.607C246.968 208.807 247.458 209.007 247.947 209.207C247.518 200.718 244.57 192.322 240.376 184.979C238.361 181.448 235.975 178.076 233.124 175.171C229.928 171.906 226.239 169.187 222.596 166.455C218.294 163.23 214.007 159.979 210.49 155.874C210.141 156.327 209.794 156.781 209.446 157.234C219.116 162.804 228.331 169.281 236.68 176.704C240.516 180.102 244.307 183.993 246.202 188.857C248.001 193.468 248.015 198.866 245.071 203.01C245.463 202.903 245.854 202.797 246.246 202.704C240.562 198.519 234.88 194.335 229.195 190.15C223.935 186.285 218.463 182.581 213.555 178.263C209.12 174.345 205.6 169.814 203.285 164.35C201.115 159.232 199.867 153.782 198.464 148.411C196.883 142.374 195.078 136.324 191.767 130.967C191.316 131.314 190.866 131.673 190.416 132.02C194.258 136.817 198.656 141.135 203.536 144.88C208.593 148.771 214.116 151.81 219.864 154.542C225.621 157.274 231.507 159.832 236.81 163.404C241.165 166.349 244.29 170.693 246.598 175.344C249.153 180.502 250.938 186.472 250.383 192.269C250.289 193.242 251.859 193.442 252.073 192.496C253.164 187.685 254.742 182.954 256.762 178.449C258.792 173.918 261.269 169.361 264.771 165.802C268.844 161.658 274.275 158.899 279.173 155.874C284.034 152.876 288.599 149.531 292.416 145.253C296.531 140.642 299.723 135.311 301.903 129.528C302.202 128.728 301.009 128.048 300.465 128.688C294.471 135.818 286.656 140.922 278.948 145.986C271.519 150.877 264.261 155.901 258.283 162.551C255.991 165.11 252.23 169.081 253.393 172.866C253.541 173.345 254.193 173.718 254.658 173.372C264.878 165.802 276.052 159.885 287.777 155.021C293.282 152.742 298.765 150.157 302.952 145.799C306.542 142.068 309.125 137.364 310.481 132.379C312.027 126.689 311.99 120.625 310.182 115.015C309.978 114.375 309.237 114.202 308.745 114.629C300.462 121.985 290.516 126.956 281.263 132.913C272.931 138.27 265.078 144.786 259.518 153.076C256.601 157.433 254.461 162.284 253.836 167.508C253.706 168.601 255.427 168.601 255.557 167.508Z" fill="url(#paint13_linear_4_295)"/>
<path fill-rule="evenodd" clip-rule="evenodd" d="M205.662 190.243C184.232 173.718 168.191 150.823 159.029 125.423C156.464 118.32 154.437 111.03 152.927 103.621C152.506 103.94 152.085 104.274 151.664 104.593C159.085 108.845 164.677 115.574 168.479 123.157C172.343 130.873 174.012 139.442 175.088 147.945C175.687 152.662 176.079 157.406 176.34 162.164C176.831 161.964 177.32 161.764 177.809 161.551C166.411 148.118 154.075 134.378 138.445 125.796C137.84 125.463 136.901 126.022 137.18 126.769C140.887 136.564 147.259 145.239 155.472 151.729C159.573 154.981 164.072 157.673 168.894 159.698C171.368 160.751 174.341 161.271 176.575 162.777C178.862 164.323 179.86 167.108 181.679 169.107C185.151 172.932 190.85 175.73 192.496 180.901C192.917 180.581 193.337 180.248 193.76 179.928C186.842 175.957 178.951 173.851 171.155 172.412C163.214 170.946 155.149 170.213 147.09 169.8C146.312 169.76 146 170.746 146.482 171.266C156.176 181.674 171.19 186.458 185.168 186.165C189.099 186.085 193.02 185.565 196.829 184.593C197.235 184.486 197.61 183.953 197.43 183.526C193.095 173.238 187.763 163.043 186.509 151.796C186.02 151.996 185.529 152.196 185.04 152.396C193.276 160.698 194.706 172.665 195.74 183.753C195.841 184.846 197.563 184.859 197.46 183.753C196.381 172.185 194.838 159.832 186.257 151.183C185.774 150.69 184.703 151.023 184.788 151.796C186.064 163.23 191.361 173.518 195.771 183.979C195.97 183.633 196.17 183.287 196.372 182.927C179.813 187.191 159.561 182.78 147.699 170.053C147.495 170.533 147.293 171.026 147.09 171.519C154.997 171.919 162.906 172.639 170.698 174.064C178.349 175.477 186.101 177.516 192.891 181.421C193.52 181.781 194.386 181.168 194.155 180.448C192.745 176.024 188.697 173.225 185.372 170.28C183.409 168.547 181.978 166.722 180.526 164.563C178.984 162.257 177.103 160.858 174.5 159.939C169.355 158.126 164.509 155.994 159.974 152.915C155.534 149.917 151.532 146.265 148.096 142.147C144.161 137.43 141.013 132.059 138.84 126.316C138.418 126.636 137.997 126.955 137.575 127.289C153.076 135.791 165.29 149.45 176.594 162.777C177.072 163.337 178.101 162.884 178.062 162.164C177.109 144.893 175.069 126.356 163.644 112.549C160.523 108.778 156.784 105.539 152.533 103.101C151.849 102.714 151.121 103.354 151.268 104.074C156.724 130.833 169.175 156.154 187.777 176.224C193.005 181.861 198.705 187.031 204.793 191.722C205.67 192.402 206.526 190.909 205.662 190.243Z" fill="url(#paint14_linear_4_295)"/>
<path fill-rule="evenodd" clip-rule="evenodd" d="M205.302 190.87C195.5 196.694 184.632 200.479 173.334 202.025C173.658 202.451 173.982 202.877 174.306 203.291C181.61 193.429 194.387 190.844 205.949 190.431C206.532 190.404 206.9 189.897 206.78 189.338C205.722 184.42 206.251 179.316 208.326 174.732C207.802 174.665 207.277 174.599 206.753 174.532C208.949 180.023 208.439 186.193 205.315 191.23C205.049 191.657 205.26 192.123 205.623 192.403C208.124 194.295 210.439 196.387 212.581 198.68C212.706 198.2 212.834 197.72 212.959 197.241C207.523 199.066 202.047 200.918 196.979 203.637C192.574 206.009 187.501 209.208 185.744 214.152C185.568 214.645 186.04 215.285 186.574 215.231C190.872 214.845 195.026 213.126 198.988 211.487C202.367 210.101 205.691 208.461 208.455 206.036C211.507 203.344 213.167 199.852 214.372 196.028C215.003 194.029 215.49 191.963 216.472 190.097C217.43 188.272 218.784 186.792 220.354 185.473C219.876 185.34 219.395 185.22 218.915 185.1C220.122 190.484 218.885 197 213.547 199.692C213.01 199.972 213.046 200.652 213.374 201.052C215.968 204.21 216.16 208.288 216.581 212.18C216.938 215.445 217.272 218.736 217.165 222.041C217.07 224.96 216.685 228.344 214.725 230.677C213.683 231.916 210.959 233.928 209.46 232.396C208.054 230.957 210.658 230.024 211.736 230.463C212.455 230.757 212.749 232.009 212.514 232.702C212.161 233.755 213.82 234.195 214.173 233.155C214.557 232.023 214.137 230.05 213.178 229.291C211.82 228.224 209.332 228.491 208.13 229.704C206.84 231.01 207.27 233.035 208.737 234.008C210.515 235.208 212.717 234.421 214.329 233.315C220.374 229.184 219.068 219.443 218.416 213.246C217.921 208.528 217.731 203.664 214.589 199.826C214.53 200.279 214.473 200.732 214.414 201.185C220.455 198.133 221.943 190.737 220.574 184.633C220.422 183.954 219.601 183.874 219.137 184.261C216.412 186.539 214.661 189.311 213.595 192.696C212.314 196.747 211.243 200.838 208.155 203.957C205.558 206.569 202.199 208.301 198.83 209.714C194.959 211.327 190.784 213.139 186.574 213.512C186.851 213.872 187.127 214.245 187.403 214.605C189.087 209.861 194.491 206.835 198.716 204.663C203.411 202.264 208.427 200.572 213.418 198.906C214.037 198.693 214.254 197.947 213.797 197.467C211.552 195.068 209.112 192.896 206.49 190.91C206.594 191.31 206.697 191.697 206.8 192.096C210.142 186.712 210.767 179.956 208.412 174.079C208.171 173.479 207.181 173.119 206.841 173.866C204.563 178.89 203.958 184.394 205.12 189.791C205.398 189.431 205.674 189.071 205.949 188.698C193.69 189.138 180.526 192.016 172.82 202.424C172.312 203.117 173.15 203.77 173.791 203.69C185.227 202.118 196.25 198.253 206.171 192.349C207.121 191.79 206.257 190.297 205.302 190.87Z" fill="url(#paint15_linear_4_295)"/>
<path fill-rule="evenodd" clip-rule="evenodd" d="M212.987 231.503C214.152 233.528 213.078 236.274 212.441 238.326C211.766 240.498 210.81 242.51 209.488 244.376C206.897 248.001 203.108 250.839 198.909 252.332C190.247 255.437 179.679 252.665 172.924 246.628C172.099 245.895 170.879 247.108 171.706 247.854C177.625 253.145 186.182 256.05 194.109 255.184C201.752 254.358 208.903 249.613 212.485 242.777C213.504 240.831 214.2 238.713 214.733 236.594C215.229 234.621 215.526 232.462 214.472 230.623C213.923 229.664 212.435 230.53 212.987 231.503Z" fill="url(#paint16_linear_4_295)"/>
<path fill-rule="evenodd" clip-rule="evenodd" d="M111.071 87.8957C108.439 90.5743 105.594 93.093 102.467 95.1719C99.3811 97.2109 95.9535 98.3571 92.4006 99.3166C85.5695 101.169 78.5104 102.128 71.4353 102.208C64.3589 102.288 57.2786 101.502 50.3981 99.8362C43.4563 98.1704 36.9623 95.5183 30.5669 92.3732C23.8543 89.0816 16.7339 85.6168 9.04317 86.4697C8.21559 86.5496 7.84645 87.5757 8.60872 88.0688C13.205 91.0273 17.7987 93.9859 22.395 96.9311C26.7595 99.743 31.1026 102.835 35.8508 104.954C40.6111 107.086 45.6898 107.366 50.8192 107.765C56.2338 108.179 61.6417 108.312 67.0509 107.712C72.8786 107.072 78.5983 105.74 84.1089 103.741C85.143 103.368 84.6966 101.702 83.6518 102.075C73.7955 105.66 63.5274 106.873 53.0874 106.206C48.0499 105.873 42.69 105.807 37.9258 103.968C33.1855 102.155 28.9157 99.0764 24.6632 96.3445C19.5938 93.1062 14.5377 89.8414 9.47628 86.5764C9.33369 87.1094 9.18843 87.6558 9.04317 88.1888C16.4421 87.3759 23.2399 90.6942 29.698 93.8659C36.072 96.9844 42.5447 99.6762 49.4559 101.382C63.1662 104.767 77.7081 104.794 91.4105 101.355C95.2285 100.396 99.0852 99.2899 102.465 97.2109C106.068 94.9987 109.324 92.1201 112.288 89.1216C113.066 88.322 111.852 87.1094 111.071 87.8957Z" fill="url(#paint17_linear_4_295)"/>
<path fill-rule="evenodd" clip-rule="evenodd" d="M111.763 165.044C110.738 168.309 109.343 171.294 107.705 174.279C106.134 177.145 103.927 180.583 103.92 183.941C103.904 191.564 113.578 195.202 119.967 194.082C122.321 193.669 126.501 192.004 125.69 188.899C125.332 187.539 124.075 186.58 122.881 185.953C121.294 185.127 119.392 184.394 117.652 183.968C116.59 183.714 115.002 183.341 114.227 184.367C113.258 185.633 114.587 187.046 115.531 187.806C118.89 190.551 122.512 193.296 126.287 195.428C130.032 197.534 133.966 196.588 137.476 194.442C141.178 192.177 144.379 188.485 148.914 187.965C150.001 187.846 150.014 186.113 148.914 186.247C142.967 186.926 139.433 192.097 134.134 194.229C132.667 194.829 131.068 195.162 129.491 194.856C127.796 194.536 126.349 193.47 124.939 192.523C123.581 191.617 122.237 190.698 120.915 189.738C119.392 188.632 117.676 187.566 116.322 186.26C116.214 186.153 115.606 185.607 115.653 185.42C115.679 185.314 116.769 185.54 116.964 185.58C117.642 185.727 118.297 185.953 118.944 186.207C120.372 186.753 122.019 187.206 123.205 188.219C126.387 190.938 119.635 192.537 117.844 192.563C111.649 192.63 103.431 188.325 106.307 181.022C107.338 178.41 108.763 175.972 110.089 173.506C111.467 170.948 112.549 168.282 113.422 165.51C113.755 164.444 112.095 163.991 111.763 165.044Z" fill="url(#paint18_linear_4_295)"/>
<defs>
<linearGradient id="paint0_linear_4_295" x1="17.9226" y1="5.95085" x2="92.2593" y2="96.8411" gradientUnits="userSpaceOnUse">
<stop stop-color="#FFEEA0"/>
<stop offset="1" stop-color="#B78E43"/>
</linearGradient>
<linearGradient id="paint1_linear_4_295" x1="17.9226" y1="5.95145" x2="92.2593" y2="96.8417" gradientUnits="userSpaceOnUse">
<stop stop-color="#FFEEA0"/>
<stop offset="1" stop-color="#B78E43"/>
</linearGradient>
<linearGradient id="paint2_linear_4_295" x1="17.9227" y1="5.94926" x2="92.2598" y2="96.8396" gradientUnits="userSpaceOnUse">
<stop stop-color="#FFEEA0"/>
<stop offset="1" stop-color="#B78E43"/>
</linearGradient>
<linearGradient id="paint3_linear_4_295" x1="17.9227" y1="5.9303" x2="92.267" y2="96.8221" gradientUnits="userSpaceOnUse">
<stop stop-color="#FFEEA0"/>
<stop offset="1" stop-color="#B78E43"/>
</linearGradient>
<linearGradient id="paint4_linear_4_295" x1="17.9226" y1="5.94964" x2="92.2596" y2="96.84" gradientUnits="userSpaceOnUse">
<stop stop-color="#FFEEA0"/>
<stop offset="1" stop-color="#B78E43"/>
</linearGradient>
<linearGradient id="paint5_linear_4_295" x1="17.9226" y1="5.9484" x2="92.2602" y2="96.8388" gradientUnits="userSpaceOnUse">
<stop stop-color="#FFEEA0"/>
<stop offset="1" stop-color="#B78E43"/>
</linearGradient>
<linearGradient id="paint6_linear_4_295" x1="17.9226" y1="5.92933" x2="92.2669" y2="96.8212" gradientUnits="userSpaceOnUse">
<stop stop-color="#FFEEA0"/>
<stop offset="1" stop-color="#B78E43"/>
</linearGradient>
<linearGradient id="paint7_linear_4_295" x1="17.9227" y1="5.95131" x2="92.2594" y2="96.8416" gradientUnits="userSpaceOnUse">
<stop stop-color="#FFEEA0"/>
<stop offset="1" stop-color="#B78E43"/>
</linearGradient>
<linearGradient id="paint8_linear_4_295" x1="17.9226" y1="5.95159" x2="92.2592" y2="96.8418" gradientUnits="userSpaceOnUse">
<stop stop-color="#FFEEA0"/>
<stop offset="1" stop-color="#B78E43"/>
</linearGradient>
<linearGradient id="paint9_linear_4_295" x1="17.9227" y1="5.95116" x2="92.2591" y2="96.8414" gradientUnits="userSpaceOnUse">
<stop stop-color="#FFEEA0"/>
<stop offset="1" stop-color="#B78E43"/>
</linearGradient>
<linearGradient id="paint10_linear_4_295" x1="17.9227" y1="5.95149" x2="92.2596" y2="96.8418" gradientUnits="userSpaceOnUse">
<stop stop-color="#FFEEA0"/>
<stop offset="1" stop-color="#B78E43"/>
</linearGradient>
<linearGradient id="paint11_linear_4_295" x1="17.9226" y1="5.95032" x2="92.2594" y2="96.8406" gradientUnits="userSpaceOnUse">
<stop stop-color="#FFEEA0"/>
<stop offset="1" stop-color="#B78E43"/>
</linearGradient>
<linearGradient id="paint12_linear_4_295" x1="17.9227" y1="5.9506" x2="92.2593" y2="96.8409" gradientUnits="userSpaceOnUse">
<stop stop-color="#FFEEA0"/>
<stop offset="1" stop-color="#B78E43"/>
</linearGradient>
<linearGradient id="paint13_linear_4_295" x1="17.9227" y1="5.95073" x2="92.2595" y2="96.841" gradientUnits="userSpaceOnUse">
<stop stop-color="#FFEEA0"/>
<stop offset="1" stop-color="#B78E43"/>
</linearGradient>
<linearGradient id="paint14_linear_4_295" x1="17.9227" y1="5.95024" x2="92.2594" y2="96.8405" gradientUnits="userSpaceOnUse">
<stop stop-color="#FFEEA0"/>
<stop offset="1" stop-color="#B78E43"/>
</linearGradient>
<linearGradient id="paint15_linear_4_295" x1="17.9227" y1="5.95175" x2="92.2592" y2="96.842" gradientUnits="userSpaceOnUse">
<stop stop-color="#FFEEA0"/>
<stop offset="1" stop-color="#B78E43"/>
</linearGradient>
<linearGradient id="paint16_linear_4_295" x1="17.9227" y1="5.94943" x2="92.2601" y2="96.8398" gradientUnits="userSpaceOnUse">
<stop stop-color="#FFEEA0"/>
<stop offset="1" stop-color="#B78E43"/>
</linearGradient>
<linearGradient id="paint17_linear_4_295" x1="17.9226" y1="5.95093" x2="92.2592" y2="96.8412" gradientUnits="userSpaceOnUse">
<stop stop-color="#FFEEA0"/>
<stop offset="1" stop-color="#B78E43"/>
</linearGradient>
<linearGradient id="paint18_linear_4_295" x1="17.9226" y1="5.9517" x2="92.2594" y2="96.842" gradientUnits="userSpaceOnUse">
<stop stop-color="#FFEEA0"/>
<stop offset="1" stop-color="#B78E43"/>
</linearGradient>
</defs>
</svg>
