<svg width="227" height="150" viewBox="0 0 227 150" fill="none" xmlns="http://www.w3.org/2000/svg">
<mask id="mask0_37_910" style="mask-type:alpha" maskUnits="userSpaceOnUse" x="0" y="0" width="227" height="150">
<rect width="227" height="150" fill="#C4C4C4"/>
</mask>
<g mask="url(#mask0_37_910)">
<path d="M245.557 153H208.315C208.248 153 208.182 152.985 208.122 152.955C208.062 152.926 208.009 152.883 207.968 152.83C207.927 152.777 207.898 152.716 207.884 152.65C207.869 152.585 207.87 152.517 207.886 152.452L211.298 138.434C212.699 132.584 213.512 127.12 213.733 122.103C209.245 133.652 202.608 152.463 202.524 152.705C202.493 152.791 202.436 152.866 202.361 152.919C202.286 152.972 202.197 153 202.105 153H176.037C175.946 153 175.857 152.971 175.782 152.919C175.708 152.866 175.651 152.791 175.621 152.704C175.59 152.618 175.587 152.524 175.612 152.436C175.636 152.348 175.687 152.27 175.758 152.212C182.373 146.781 185.193 124.999 185.219 124.792C185.23 124.72 185.256 124.651 185.297 124.59C188.267 120.37 189.017 115.339 188.804 110.704C186.591 114.051 183.874 116.663 180.687 118.478C174.973 121.725 169.843 121.27 169.621 121.25C169.52 121.24 169.425 121.196 169.353 121.125C169.28 121.053 169.234 120.959 169.223 120.857C169.212 120.756 169.235 120.654 169.29 120.568C169.345 120.482 169.427 120.418 169.524 120.386C174.063 118.867 177.352 115.448 179.297 110.224C179.447 109.816 179.587 109.411 179.711 109.014C175.887 115.817 168.099 118.009 163.701 118.142C158.284 118.307 152.136 116.81 152.074 116.797C151.978 116.773 151.894 116.719 151.833 116.642C151.772 116.565 151.738 116.47 151.736 116.372C151.735 116.274 151.766 116.178 151.824 116.099C151.883 116.02 151.966 115.963 152.06 115.937C160.835 113.472 165.631 108.725 168.134 103.157C164.128 104.365 158.576 104.86 152.565 101.889C152.481 101.847 152.412 101.779 152.368 101.696C152.324 101.612 152.309 101.517 152.323 101.424C152.337 101.33 152.38 101.244 152.446 101.177C152.512 101.11 152.598 101.066 152.691 101.051C152.846 101.027 161.632 99.6387 169.9 97.5331C171.259 90.7543 170.343 83.5225 169.639 78.0098C169.55 77.3101 169.466 76.6394 169.389 76.0108C168.763 70.7868 169.168 66.5446 169.57 62.4445C170.035 57.6403 170.476 53.1004 169.393 47.0701C168.185 40.338 165.025 31.2871 156.821 26.4141C151.932 23.5045 147.526 23.46 147.484 23.46C147.371 23.4596 147.262 23.4159 147.18 23.3379C146.774 22.9519 146.343 22.5942 145.888 22.2673C145.82 22.6262 145.775 22.9889 145.753 23.3534C145.746 23.4666 145.697 23.5728 145.614 23.6504C145.532 23.7281 145.423 23.7712 145.31 23.771C145.242 23.771 138.029 23.7132 135.057 29.0039C131.036 36.1691 133.815 45.0178 133.844 45.1067C133.862 45.1648 133.868 45.226 133.862 45.2866C133.862 45.3577 133.178 52.4918 134.262 56.5386C135.956 62.8531 140.922 75.2157 147.592 76.8015C155.117 78.5895 161.198 75.5977 161.258 75.5666C161.348 75.5208 161.452 75.5076 161.551 75.5292C161.65 75.5507 161.739 75.6058 161.802 75.6851C161.866 75.7644 161.9 75.8632 161.9 75.9649C161.899 76.0667 161.864 76.1652 161.8 76.244C161.659 76.4195 158.297 80.4796 149.9 80.1198C150.684 84.2308 151.136 88.3984 151.253 92.5823C151.474 102.082 149.648 108.932 145.822 112.947C142.502 116.43 137.711 117.654 131.587 116.581C131.483 116.563 131.389 116.508 131.321 116.427C131.254 116.346 131.218 116.243 131.219 116.137C131.218 116.029 131.256 115.925 131.326 115.843C131.395 115.762 131.492 115.708 131.598 115.693C131.673 115.682 138.547 114.582 141.707 109.06C139.551 110.478 137.251 111.663 134.847 112.596C129.925 114.489 125.246 114.904 121.106 113.847C120.663 116.734 120.065 119.904 119.373 123.384C115.71 141.764 117.188 152.405 117.204 152.509C117.213 152.573 117.208 152.637 117.191 152.698C117.173 152.76 117.142 152.816 117.1 152.865C117.058 152.909 117.007 152.943 116.95 152.967C116.894 152.99 116.833 153.001 116.772 153H109.624C109.545 153.001 109.468 152.981 109.399 152.942C109.331 152.903 109.274 152.846 109.234 152.778C109.197 152.709 105.452 145.742 102.985 134.596C100.479 123.289 110.129 112.505 110.228 112.399C110.298 112.321 110.393 112.271 110.496 112.257C111.802 112.083 112.618 111.013 113.125 109.618C111.638 110.542 109.336 110.951 107.123 110.873C104.467 110.769 101.732 111.244 99.6584 111.748C100.858 115.253 102.226 120.808 100.628 124.744C100.283 125.63 99.7538 126.433 99.0757 127.098C98.3976 127.763 97.586 128.276 96.695 128.602C96.1285 128.992 91.4743 131.918 84.6137 128.077C79.7714 125.365 79.6497 119.055 80.3933 114.26C78.6671 115.593 77.1732 117.447 76.4739 118.389C77.0036 118.55 77.4851 118.841 77.8748 119.235C79.2735 120.606 80.7518 124.053 79.8843 132.695C79.1362 140.096 80.1764 145.024 81.1834 147.854C82.2678 150.91 83.547 152.241 83.558 152.254C83.619 152.316 83.6603 152.395 83.6769 152.481C83.6934 152.566 83.6844 152.655 83.651 152.736C83.6161 152.815 83.559 152.882 83.4866 152.929C83.4143 152.976 83.3299 153.001 83.2438 153H0.442621C0.325231 153 0.212648 152.953 0.12964 152.87C0.0466328 152.787 0 152.674 0 152.556C0 152.438 0.0466328 152.325 0.12964 152.242C0.212648 152.159 0.325231 152.112 0.442621 152.112H82.3275C80.9466 150.173 77.8239 144.358 79.0079 132.595C79.4682 128.053 79.5434 122.156 77.2949 119.897C76.5004 119.098 75.7679 119.16 75.7458 119.162C75.6618 119.172 75.5769 119.157 75.5009 119.12C75.425 119.083 75.3613 119.024 75.3173 118.952C75.2733 118.879 75.2509 118.796 75.2527 118.711C75.2545 118.626 75.2805 118.544 75.3275 118.473C75.4536 118.287 77.7818 114.853 80.6234 113.016C80.9331 111.401 81.3539 109.809 81.8827 108.252V102.411C81.8511 101.918 81.7612 101.431 81.6149 100.96C81.3693 100.003 81.0616 98.8102 81.2675 97.3643C81.387 96.5247 81.7101 94.9211 82.1062 93.0754C82.6971 90.2391 83.4341 86.7075 83.4341 85.5903C83.4341 83.6735 84.0626 80.7617 85.0762 79.4068C85.9172 78.2808 89.2656 75.8087 90.2062 75.1268L90.0446 74.4383L88.9381 75.7043C88.8838 75.7663 88.8135 75.8119 88.7348 75.836C88.6562 75.8601 88.5725 75.8617 88.493 75.8407C88.4135 75.8197 88.3414 75.777 88.2848 75.7172C88.2281 75.6574 88.1892 75.5829 88.1723 75.5022L85.915 64.8232C84.9036 60.099 88.6659 59.0107 88.7123 58.9995C88.7621 58.9862 88.8138 58.9817 88.8651 58.9862L104.074 60.23C108.367 60.5632 109.42 64.2569 109.429 64.2946C109.77 65.7894 117.658 100.525 117.658 103.346C117.658 105.969 115.407 107.328 114.681 107.699C114.618 107.954 114.516 108.198 114.378 108.421C113.882 110.68 112.857 112.73 110.793 113.103C109.781 114.273 101.593 124.155 103.859 134.396C106.05 144.291 109.246 150.832 109.903 152.112H116.263C116.018 149.773 115.254 139.48 118.501 123.191C119.2 119.675 119.791 116.486 120.245 113.587C119.295 113.293 118.373 112.916 117.489 112.461C117.411 112.42 117.346 112.356 117.304 112.278C117.262 112.199 117.244 112.11 117.253 112.021C117.262 111.933 117.298 111.849 117.355 111.781C117.412 111.713 117.488 111.663 117.573 111.639C117.62 111.626 118.866 111.27 120.672 110.593C122.033 100.258 121.238 94.1304 116.79 90.6033C116.731 90.5562 116.685 90.4947 116.656 90.4247C116.627 90.3547 116.617 90.2784 116.626 90.2032C116.635 90.1279 116.662 90.0562 116.707 89.9949C116.751 89.9335 116.81 89.8845 116.879 89.8526L121.117 87.8536C119.924 85.4104 114.139 73.1056 114.451 64.3746C114.606 60.0435 118.375 48.8625 123.217 38.3679C131.374 20.6904 137.498 15.0466 140.422 13.2431C140.935 12.9277 141.488 12.5767 142.075 12.1992C147.304 8.86754 155.205 3.82346 163.763 6.97518L163.827 7.00405C166.992 6.00456 169.139 6.20446 169.243 6.21557H169.272C186.857 9.19626 188.552 24.2774 189.674 34.2567C189.82 35.5494 189.958 36.7688 190.117 37.846C191.29 45.7086 195.459 57.4581 202.132 65.9804C208.992 74.7492 207.266 87.8781 207.189 88.4311C207.179 88.501 207.153 88.5676 207.112 88.6254C207.072 88.6831 207.018 88.7303 206.956 88.7631C206.894 88.7959 206.824 88.8133 206.754 88.8139C206.684 88.8145 206.614 88.7982 206.551 88.7665C203.632 87.3028 200.766 87.5982 198.035 89.6438C196.75 90.6325 195.643 91.8344 194.762 93.1975C193.877 99.6076 192.131 105.043 189.597 109.371C190.108 115.564 188.917 120.886 186.071 124.979C185.835 126.787 183.25 145.635 177.146 152.089H201.795C202.727 149.451 209.623 129.979 213.797 119.508C213.807 117.729 213.727 115.95 213.558 114.178C213.018 108.603 211.566 103.752 209.249 99.7586C205.308 92.9754 200.144 90.992 200.091 90.9742C199.995 90.9392 199.913 90.8714 199.861 90.7826C199.808 90.6937 199.788 90.5894 199.804 90.4874C199.82 90.3854 199.871 90.2923 199.948 90.2238C200.025 90.1554 200.124 90.116 200.226 90.1124C205.996 89.877 210.407 91.4962 213.312 94.9344C215.047 96.98 217.154 100.818 217.342 107.488C217.416 109.88 217.24 112.273 216.818 114.629C216.81 114.664 216.798 114.698 216.783 114.731C216.247 115.857 215.521 117.581 214.682 119.684C214.647 125.412 213.797 131.758 212.159 138.628L208.88 152.112H245.557C245.675 152.112 245.787 152.159 245.87 152.242C245.953 152.325 246 152.438 246 152.556C246 152.674 245.953 152.787 245.87 152.87C245.787 152.953 245.675 153 245.557 153ZM81.4379 113.545C80.6079 118.182 80.4198 124.704 85.0452 127.291C91.7023 131.018 96.0444 127.971 96.2258 127.838C96.2578 127.814 96.2928 127.796 96.3299 127.782C97.1173 127.501 97.8354 127.054 98.4356 126.47C99.0358 125.886 99.5041 125.18 99.8089 124.399C101.296 120.732 99.9439 115.346 98.7864 111.961C97.8215 112.221 97.0624 112.465 96.6043 112.628C97.2682 113.878 98.9723 117.345 98.8462 119.571C98.5983 124.013 96.6508 126.569 93.3643 126.789C89.1793 127.073 84.4145 125.177 83.2172 124.053C83.0986 123.961 83.0003 123.845 82.9287 123.712C82.8571 123.58 82.8136 123.434 82.8011 123.284V112.936C82.3243 113.084 81.8667 113.289 81.4379 113.545ZM83.6864 123.238C84.0493 123.997 88.9492 126.185 93.3068 125.89C96.8721 125.652 97.806 122.287 97.9543 119.506C98.0915 117.063 95.5995 112.621 95.5752 112.588C95.5438 112.532 95.5246 112.471 95.5189 112.408C95.5131 112.344 95.521 112.28 95.542 112.22C95.563 112.16 95.5966 112.106 95.6405 112.06C95.6844 112.014 95.7376 111.978 95.7965 111.955C95.8961 111.917 96.9163 111.53 98.4744 111.108C97.9676 109.722 97.5581 108.834 97.5449 108.805C97.5107 108.731 97.4975 108.649 97.5065 108.569C97.5155 108.488 97.5465 108.411 97.596 108.347C97.6456 108.282 97.7118 108.233 97.7875 108.203C97.8631 108.174 97.9453 108.166 98.0251 108.181C100.347 108.612 105.193 107.93 108.192 107.421C107.336 107.149 106.504 106.803 105.707 106.389C105.076 106.071 102.87 105.944 100.924 105.827C97.5891 105.629 96.2944 105.505 95.9381 104.976C95.886 104.9 95.8522 104.813 95.8396 104.721C95.8269 104.63 95.8356 104.537 95.8651 104.45C96.2812 103.197 100.718 101.276 102.051 100.896C104.043 100.327 109.308 99.0501 109.907 98.8968C111.136 98.2305 111.788 97.5264 111.793 96.8579C111.793 96.045 110.89 95.3564 110.509 95.1055C109.299 95.5119 106.844 95.7984 104.664 96.0516C103.64 96.1716 102.755 96.2737 102.177 96.3715C100.353 96.6757 93.3599 98.4548 93.2913 98.4726C93.2231 98.4899 93.1518 98.4907 93.0833 98.4748C93.0148 98.459 92.9511 98.427 92.8973 98.3815C92.6838 98.2106 92.5212 97.9841 92.4272 97.7268C92.3331 97.4695 92.3112 97.1912 92.364 96.9223C92.6959 94.87 96.6109 92.1136 98.1756 91.4984C98.6691 91.3029 99.1604 91.1408 99.6805 90.9676C101.915 90.2781 104.04 89.2729 105.992 87.9824C107.194 87.2139 107.792 86.4499 107.763 85.7103C107.738 84.8574 106.878 84.1755 106.495 83.909C105.851 84.2221 104.007 85.1106 103.257 85.3771C102.546 85.6303 101.544 85.9057 100.482 86.1967C98.9701 86.6098 97.2549 87.0851 96.2944 87.5293C95.885 87.7181 95.3096 88.0535 94.701 88.4067C92.6295 89.6105 91.087 90.4456 90.111 90.1991C89.7171 90.1013 88.5198 89.8015 88.5198 83.4026C88.5198 82.8495 88.989 82.3364 89.6972 81.5568C90.6178 80.5485 91.8749 79.167 92.769 77.0303C93.2116 75.9975 93.2492 75.0979 92.9106 74.365C92.5803 73.7169 92.038 73.2025 91.3747 72.908L90.7506 73.6209L91.1246 75.2134C91.1451 75.2993 91.1395 75.3893 91.1088 75.4719C91.0781 75.5546 91.0235 75.6262 90.952 75.6777C89.7591 76.5328 86.5015 78.9649 85.7733 79.9421C84.8881 81.1126 84.3083 83.809 84.3083 85.5926C84.3083 86.8008 83.5934 90.2324 82.9605 93.2597C82.5953 95.0188 82.2479 96.6802 82.1328 97.4931C81.9513 98.7614 82.2235 99.8119 82.4625 100.74C82.628 101.284 82.7269 101.845 82.7569 102.413V108.33C82.7572 108.381 82.7482 108.432 82.7303 108.481C82.2943 109.775 81.9366 111.095 81.6592 112.432C82.1392 112.2 82.6485 112.035 83.1729 111.941C83.2369 111.93 83.3024 111.934 83.3648 111.951C83.4273 111.969 83.4851 112 83.5343 112.042C83.5835 112.085 83.6228 112.137 83.6495 112.197C83.6761 112.256 83.6895 112.32 83.6886 112.385L83.6864 123.238ZM181.313 102.268H181.351C181.462 102.278 181.565 102.329 181.64 102.411C181.715 102.493 181.756 102.601 181.756 102.713C181.611 105.371 181.065 107.992 180.138 110.486C178.443 115.051 175.645 118.398 171.974 120.29C174.899 120.016 177.733 119.122 180.288 117.667C183.655 115.744 186.472 112.874 188.698 109.156C188.529 107.358 188.239 105.573 187.831 103.814C186.948 100.044 185.66 96.3808 183.991 92.8888C182.884 93.8927 181.012 94.85 178.702 95.7429C178.217 96.6555 177.649 97.521 177.004 98.3282C176.989 98.3463 176.973 98.3634 176.956 98.3793C174.809 100.186 172.373 101.613 169.75 102.599L169.261 102.779C166.589 109.245 161.455 113.78 153.952 116.277C156.124 116.703 160.076 117.35 163.69 117.241C168.964 117.081 179.343 113.829 180.888 102.662C180.902 102.557 180.953 102.462 181.031 102.391C181.108 102.321 181.208 102.281 181.313 102.277V102.268ZM202.092 91.0009C204.022 92.1447 207.251 94.5946 209.977 99.2567C212.374 103.359 213.875 108.334 214.434 114.042C214.541 115.14 214.614 116.263 214.656 117.412C215.16 116.192 215.603 115.171 215.964 114.409C216.128 113.54 218.177 102.029 212.644 95.5163C210.221 92.6756 206.678 91.1608 202.092 91.0098V91.0009ZM134.035 115.972C138.755 116.35 142.497 115.12 145.182 112.303C149.737 107.524 150.516 98.9368 150.367 92.5756C150.252 88.2514 149.766 83.9451 148.915 79.7045C148.901 79.6369 148.902 79.5668 148.919 79.4997C148.935 79.4326 148.968 79.3704 149.013 79.318C149.057 79.2649 149.113 79.2233 149.177 79.1966C149.24 79.17 149.309 79.159 149.378 79.1647C153.95 79.4624 157.031 78.3829 158.883 77.3435C155.134 78.4194 151.173 78.518 147.375 77.63C138.523 75.5266 133.601 57.4981 133.395 56.7318C132.322 52.7339 132.877 46.1417 132.952 45.2533C132.64 44.2316 130.228 35.7226 134.267 28.5308C137.106 23.4756 143.226 22.9092 144.89 22.8515C144.938 22.4752 145.008 22.1021 145.1 21.7343C143.524 20.8236 141.929 20.5415 140.333 20.8925C133.745 22.3451 129.017 33.948 128.969 34.0657C128.965 34.0772 128.959 34.0884 128.953 34.099C125.132 41.618 123.067 49.9118 122.916 58.351C122.801 65.0831 123.887 71.9907 126.147 78.8827C129.998 90.6255 135.984 98.3327 136.044 98.4082C136.081 98.4557 136.109 98.5103 136.124 98.5687C136.14 98.6271 136.144 98.6882 136.135 98.748C135.599 102.524 132.335 105.98 126.435 109.045C124.828 109.877 123.176 110.618 121.486 111.266C121.411 111.821 121.329 112.39 121.241 112.972C126.145 114.251 131.025 113.118 134.53 111.77C137.39 110.668 140.091 109.191 142.564 107.377C142.64 107.317 142.734 107.284 142.831 107.283C142.928 107.282 143.023 107.313 143.101 107.372C143.179 107.43 143.235 107.512 143.262 107.606C143.288 107.7 143.283 107.799 143.248 107.89C141.294 112.867 136.797 115.066 134.035 115.972ZM118.921 112.152C119.4 112.36 119.889 112.543 120.386 112.701C120.442 112.328 120.497 111.957 120.548 111.59C119.908 111.824 119.355 112.01 118.917 112.152H118.921ZM98.6846 109.167C98.8639 109.591 99.1007 110.18 99.3618 110.891C101.497 110.364 104.339 109.865 107.163 109.976C109.801 110.076 112.634 109.389 113.554 108.054C114.106 105.3 113.869 102.157 113.844 101.851L107.017 68.5502C106.209 64.761 103.976 63.7393 103.626 63.6016L90.6577 62.3623C89.8941 62.2845 89.3431 62.4311 89.0133 62.7954C88.4313 63.4395 88.6482 64.6233 88.6504 64.6367L90.5072 72.557L90.921 72.0817C90.9779 72.0162 91.0527 71.9689 91.136 71.9456C91.2194 71.9223 91.3078 71.9241 91.3902 71.9507C91.4566 71.9729 93.0323 72.4948 93.7162 73.983C94.1588 74.9602 94.1234 76.1019 93.59 77.3768C92.6384 79.6556 91.2641 81.1637 90.3567 82.161C89.9141 82.6474 89.4095 83.2005 89.4095 83.407C89.4095 87.5627 89.9738 89.2529 90.3279 89.3417C91.0361 89.5194 92.9836 88.3889 94.2606 87.6426C94.8891 87.2784 95.4822 86.9319 95.9271 86.7275C96.9562 86.2522 98.6315 85.7924 100.251 85.3482C101.298 85.0617 102.288 84.7907 102.965 84.5486C103.815 84.2466 106.307 83.025 106.331 83.0117C106.395 82.9803 106.466 82.9649 106.537 82.9668C106.608 82.9688 106.678 82.988 106.74 83.0228C106.818 83.065 108.604 84.0778 108.652 85.6881C108.686 86.7631 107.951 87.7892 106.468 88.7398C104.453 90.0711 102.259 91.1083 99.9527 91.8205C99.4459 91.9893 98.9657 92.1492 98.4943 92.3335C96.9119 92.9554 93.4794 95.5408 93.2337 97.0733C93.2155 97.1554 93.2137 97.2403 93.2286 97.323C93.2434 97.4058 93.2745 97.4847 93.32 97.5553C94.6125 97.2288 100.344 95.7784 102.026 95.503C102.626 95.4031 103.52 95.2987 104.558 95.1765C106.709 94.9277 109.385 94.6146 110.392 94.2104C110.453 94.186 110.518 94.1756 110.584 94.1798C110.649 94.1841 110.713 94.2028 110.77 94.2348C110.848 94.2792 112.685 95.312 112.674 96.8734C112.674 97.9107 111.857 98.8724 110.27 99.7164C110.237 99.7342 110.201 99.7477 110.164 99.7564C110.106 99.7697 104.375 101.156 102.29 101.755C100.661 102.22 97.5537 103.779 96.8389 104.534C97.5294 104.74 99.4946 104.856 100.973 104.943C103.202 105.076 105.306 105.2 106.099 105.609C107.719 106.422 109.15 106.964 110.868 106.964C110.985 106.952 111.102 106.988 111.194 107.062C111.285 107.137 111.343 107.246 111.355 107.364C111.366 107.481 111.331 107.599 111.256 107.691C111.182 107.782 111.074 107.84 110.956 107.852C110.596 107.912 102.701 109.505 98.6802 109.167H98.6846ZM117.879 90.3657C122.084 94.1126 122.863 100.252 121.606 110.229C126.517 108.288 134.267 104.378 135.216 98.788C134.344 97.6286 128.889 90.1147 125.293 79.1448C123.002 72.1595 121.9 65.1519 122.017 58.3199C122.171 49.7527 124.265 41.333 128.143 33.6992C128.427 32.9996 133.158 21.5477 140.129 20.0107C141.884 19.622 143.626 19.8996 145.33 20.8347C146.466 17.3565 149.575 14.0338 154.466 11.1153C156.94 9.66102 159.536 8.42729 162.225 7.42828C154.532 5.31825 147.371 9.88923 142.548 12.9654C141.957 13.3408 141.402 13.6962 140.88 14.016C136.051 16.9811 129.905 25.9987 124.018 38.7566C119.297 48.9891 115.482 60.2634 115.334 64.4234C115 73.7187 122.037 87.7448 122.108 87.878C122.135 87.9312 122.151 87.9893 122.155 88.0488C122.159 88.1083 122.151 88.1681 122.132 88.2244C122.112 88.2808 122.082 88.3327 122.042 88.377C122.002 88.4213 121.954 88.457 121.9 88.4822L117.879 90.3657ZM184.108 91.6983H184.153C184.224 91.7046 184.292 91.7281 184.352 91.7668C184.412 91.8055 184.462 91.8582 184.498 91.9204C186.344 95.6354 187.753 99.553 188.698 103.594C189.021 104.991 189.274 106.403 189.455 107.826C191.615 103.759 193.122 98.7836 193.919 93.0065C193.928 92.9479 193.947 92.8914 193.977 92.8399C194.027 92.7555 198.987 84.542 206.399 87.7315C206.651 85.0462 207.284 73.9852 201.459 66.5535C194.685 57.9046 190.453 45.9818 189.265 38.0014C189.101 36.9087 188.964 35.6804 188.822 34.3811C187.731 24.6683 186.08 9.99363 169.168 7.11733C168.964 7.10178 166.279 6.92187 162.623 8.41222C159.2 9.80483 154.238 12.9721 149.748 20.1795C153.968 21.0707 157.981 22.7591 161.572 25.1547C167.353 29.0127 174.408 36.52 175.229 50.3773C176.741 76.1729 179.472 80.6373 179.501 80.6795C179.518 80.7062 179.533 80.7345 179.545 80.7639C179.576 80.8439 182.232 87.7004 179.251 94.5902C181.353 93.7217 182.971 92.8022 183.759 91.856C183.801 91.8051 183.855 91.7645 183.916 91.7372C183.976 91.7099 184.042 91.6966 184.108 91.6983ZM90.2726 61.465C90.4271 61.4645 90.5815 61.4727 90.7351 61.4894L103.768 62.7354C103.802 62.7378 103.835 62.7445 103.868 62.7554C103.989 62.7976 106.911 63.8215 107.884 68.3792L114.712 101.693C114.714 101.709 114.714 101.726 114.712 101.742C114.842 103.387 114.819 105.041 114.643 106.682C115.42 106.193 116.755 105.098 116.755 103.35C116.755 101.171 111.397 76.9948 108.566 64.5145C108.535 64.4057 107.659 61.405 103.998 61.1207L88.8872 59.8769C88.4446 60.0301 86.0102 61.0318 86.7869 64.63L88.8496 74.4516L89.7901 73.3766L87.7806 64.8232C87.7651 64.741 87.4641 63.1796 88.3538 62.1957C88.7987 61.7137 89.4427 61.4538 90.2726 61.4538V61.465ZM154.278 101.689C158.897 103.612 163.699 103.743 168.588 102.08C169.04 100.917 169.41 99.7233 169.694 98.5081C163.469 100.07 157.088 101.207 154.278 101.678V101.689ZM170.655 98.2594C170.568 98.6518 170.474 99.0442 170.374 99.4366C170.172 100.205 169.941 100.951 169.683 101.675C172.094 100.731 174.34 99.4071 176.336 97.753C176.722 97.2673 177.079 96.7593 177.405 96.2315C175.347 96.9489 173.027 97.6308 170.657 98.2483L170.655 98.2594ZM147.665 22.5472C148.568 22.5805 152.68 22.887 157.274 25.6211C165.766 30.6719 169.026 39.976 170.268 46.8902C171.374 53.0426 170.905 57.8535 170.453 62.5066C170.062 66.5623 169.657 70.7535 170.27 75.882C170.347 76.5194 170.431 77.188 170.52 77.881C171.204 83.2715 172.118 90.4589 170.854 97.2732C173.439 96.5936 175.944 95.8451 178.062 95.0521C181.382 88.4822 178.947 81.6635 178.744 81.1193C178.403 80.5485 175.822 75.4755 174.355 50.4217C174.005 44.4559 172.452 39.1964 169.741 34.7875C167.536 31.2248 164.584 28.1876 161.09 25.8877C154.999 21.8231 149.035 20.9436 148.975 20.9347C148.903 20.9241 148.835 20.8959 148.777 20.8526C148.718 20.8093 148.671 20.7521 148.64 20.6863C148.609 20.6204 148.594 20.5478 148.597 20.4749C148.6 20.402 148.622 20.3311 148.659 20.2683C150.429 17.3276 153.074 13.7406 156.661 10.9109C156.086 11.2174 155.499 11.5439 154.915 11.8949C151.449 13.9649 147.36 17.181 146.116 21.3189C146.663 21.6874 147.181 22.0981 147.665 22.5472Z" fill="url(#paint0_radial_37_910)"/>
</g>
<defs>
<radialGradient id="paint0_radial_37_910" cx="0" cy="0" r="1" gradientUnits="userSpaceOnUse" gradientTransform="translate(124.22 163.943) rotate(-90) scale(201.244 212.433)">
<stop stop-color="#FEE49A"/>
<stop offset="1" stop-color="#BB8D37"/>
</radialGradient>
</defs>
</svg>
