<svg width="17" height="10" viewBox="0 0 17 10" fill="none" xmlns="http://www.w3.org/2000/svg">
<path fill-rule="evenodd" clip-rule="evenodd" d="M9.2201 9.49394C9.2201 9.49394 9.51994 9.46775 9.6732 9.30783C9.81446 9.14792 9.80914 8.86796 9.80914 8.86796C9.80914 8.86796 9.7918 7.5618 10.4101 7.37523C11.0192 7.17533 11.8041 8.6414 12.6357 9.20112C13.2634 9.61424 13.7391 9.52062 13.7391 9.52062L15.9633 9.49394C15.9633 9.49394 17.1241 9.42767 16.5737 8.53479C16.5284 8.45483 16.2525 7.86826 14.9225 6.65554C13.5286 5.38952 13.7151 5.58916 15.3929 3.39028C16.4151 2.05763 16.8242 1.24487 16.6949 0.88505C16.575 0.551887 15.8234 0.645588 15.8234 0.645588L13.3207 0.658603C13.3207 0.658603 13.1354 0.632002 12.9982 0.711961C12.8636 0.79192 12.7756 0.978752 12.7756 0.978752C12.7756 0.978752 12.3812 2.01814 11.8534 2.89769C10.7393 4.75008 10.2942 4.85654 10.113 4.7366C9.68786 4.47007 9.79313 3.65684 9.79313 3.0838C9.79313 1.28472 10.0717 0.525024 9.25341 0.338453C8.98155 0.271821 8.78166 0.232049 8.08602 0.218723C7.19314 0.205397 6.43751 0.218931 6.00972 0.432156C5.72454 0.565421 5.50466 0.871723 5.63926 0.88505C5.80451 0.911702 6.17764 0.992026 6.37754 1.25856C6.63341 1.59172 6.62542 2.36411 6.62542 2.36411C6.62542 2.36411 6.77202 4.48308 6.2816 4.74961C5.94311 4.92286 5.48067 4.56348 4.48652 2.87102C3.97877 2.00479 3.59496 1.05814 3.59496 1.05814C3.59496 1.05814 3.52167 0.871619 3.38707 0.778333C3.22848 0.671721 3.0046 0.631924 3.0046 0.631924L0.628479 0.645588C0.628479 0.645588 0.271331 0.658421 0.140731 0.805012C0.0234579 0.938277 0.130066 1.21821 0.130066 1.21821C0.130066 1.21821 1.99179 5.49613 4.09871 7.65503C6.03106 9.62736 8.22594 9.49394 8.22594 9.49394H9.2201Z" fill="#5C5956"/>
</svg>
