<svg width="13" height="14" viewBox="0 0 13 14" fill="none" xmlns="http://www.w3.org/2000/svg">
<path fill-rule="evenodd" clip-rule="evenodd" d="M12.7895 1.08609L10.9851 11.9072C10.9611 12.0538 10.8878 12.1604 10.7599 12.2271C10.6946 12.267 10.6213 12.2804 10.5427 12.2804C10.4907 12.2804 10.4347 12.2804 10.3734 12.2537L7.18041 10.9478L5.47593 13.0266C5.39064 13.1332 5.27603 13.1865 5.13077 13.1865C5.06947 13.1865 5.01751 13.1867 4.97487 13.16C4.88558 13.1334 4.81493 13.0667 4.7603 13.0001C4.70699 12.9201 4.67902 12.8268 4.67902 12.7335V10.2814L10.7679 2.81861L3.23574 9.3353L0.451826 8.18907C0.278581 8.12244 0.185297 8.00261 0.170638 7.80272C0.161309 7.61614 0.235946 7.4828 0.395865 7.38951L12.1192 0.619696C12.1912 0.579716 12.2658 0.566337 12.3458 0.566337C12.439 0.566337 12.5243 0.593068 12.599 0.646375C12.7536 0.752987 12.8175 0.89952 12.7895 1.08609Z" fill="#666666"/>
</svg>
