<svg width="16" height="15" viewBox="0 0 16 15" fill="none" xmlns="http://www.w3.org/2000/svg">
<path fill-rule="evenodd" clip-rule="evenodd" d="M7.73378 1.39874C9.68745 1.39874 9.91933 1.39846 10.6909 1.43844C11.4052 1.46509 11.7931 1.58495 12.0516 1.69156C12.3927 1.82483 12.6366 1.98495 12.8925 2.23816C13.1484 2.49136 13.3083 2.73108 13.4402 3.07757C13.5415 3.33078 13.6601 3.71727 13.6934 4.4369C13.7294 5.20984 13.736 5.43668 13.736 7.39568C13.736 9.35468 13.7294 9.58087 13.6934 10.3538C13.6601 11.0734 13.5415 11.4599 13.4402 11.7131C13.3083 12.0596 13.1484 12.3 12.8925 12.5532C12.6366 12.8064 12.3927 12.9659 12.0516 13.0992C11.7931 13.2058 11.4052 13.3256 10.6909 13.3523C9.91933 13.3923 9.68745 13.3926 7.73378 13.3926C5.78011 13.3926 5.54823 13.3923 4.77662 13.3523C4.06232 13.3256 3.67586 13.2058 3.41599 13.0992C3.07483 12.9659 2.83095 12.8064 2.57508 12.5532C2.31921 12.3 2.16063 12.0596 2.02736 11.7131C1.92742 11.4599 1.80881 11.0734 1.77416 10.3538C1.74084 9.58087 1.73285 9.35468 1.73285 7.39568C1.73285 5.43668 1.74084 5.20984 1.77416 4.4369C1.80881 3.71727 1.92742 3.33078 2.02736 3.07757C2.16063 2.73108 2.31921 2.49136 2.57508 2.23816C2.83095 1.98495 3.07483 1.82483 3.41599 1.69156C3.67586 1.58495 4.06232 1.46509 4.77662 1.43844C5.54823 1.39846 5.78011 1.39874 7.73378 1.39874ZM7.73378 0.0791035C5.7468 0.0791035 5.49626 0.0794678 4.71666 0.119447C3.93705 0.159427 3.40399 0.279053 2.9389 0.465625C2.45781 0.652196 2.05002 0.892569 1.64223 1.30569C1.23577 1.70549 0.985224 2.11825 0.798653 2.598C0.617412 3.06443 0.493479 3.59728 0.457498 4.38355C0.421516 5.15649 0.414856 5.41003 0.414856 7.39568C0.414856 9.38133 0.421516 9.63456 0.457498 10.4208C0.493479 11.1938 0.617412 11.7269 0.798653 12.1934C0.985224 12.6731 1.23577 13.0859 1.64223 13.4857C2.05002 13.8988 2.45781 14.1392 2.9389 14.3257C3.40399 14.5123 3.93705 14.6319 4.71666 14.6719C5.49626 14.7119 5.7468 14.7116 7.73378 14.7116C9.7221 14.7116 9.97131 14.7119 10.7522 14.6719C11.5305 14.6319 12.0636 14.5123 12.53 14.3257C13.0111 14.1392 13.4175 13.8988 13.8253 13.4857C14.2318 13.0859 14.4823 12.6731 14.6702 12.1934C14.8502 11.7269 14.9741 11.1938 15.0101 10.4208C15.0461 9.63456 15.0554 9.38133 15.0554 7.39568C15.0554 5.41003 15.0461 5.15649 15.0101 4.38355C14.9741 3.59728 14.8502 3.06443 14.6702 2.598C14.4823 2.11825 14.2318 1.70549 13.8253 1.30569C13.4175 0.892569 13.0111 0.652196 12.53 0.465625C12.0636 0.279053 11.5305 0.159427 10.7522 0.119447C9.97131 0.0794678 9.7221 0.0791035 7.73378 0.0791035ZM7.74977 3.65085C5.67083 3.65085 3.98637 5.32976 3.98637 7.4087C3.98637 9.48763 5.67083 11.1672 7.74977 11.1672C9.82604 11.1672 11.5105 9.48763 11.5105 7.4087C11.5105 5.32976 9.82604 3.65085 7.74977 3.65085ZM7.74977 9.84756C6.39979 9.84756 5.30702 8.75468 5.30702 7.4087C5.30702 6.06272 6.39979 4.97049 7.74977 4.97049C9.09708 4.97049 10.1912 6.06272 10.1912 7.4087C10.1912 8.75468 9.09708 9.84756 7.74977 9.84756ZM12.498 3.47776C12.498 3.95751 12.1076 4.34385 11.6265 4.34385C11.1467 4.34385 10.7549 3.95751 10.7549 3.47776C10.7549 2.998 11.1467 2.598 11.6265 2.598C12.1076 2.598 12.498 2.998 12.498 3.47776Z" fill="#5C5956"/>
</svg>
