<svg width="14" height="14" viewBox="0 0 14 14" fill="none" xmlns="http://www.w3.org/2000/svg">
<path fill-rule="evenodd" clip-rule="evenodd" d="M9.78442 8.13588C8.94218 8.97545 8.94218 9.82837 8.10128 9.82837C7.25904 9.82837 6.4168 8.97545 5.57589 8.13588C4.73366 7.29631 3.89143 6.45672 3.89143 5.61714C3.89143 4.76425 4.73366 4.76422 5.57589 3.92465C6.4168 3.08508 3.89143 0.566337 3.05053 0.566337C2.20963 0.566337 0.525146 3.08507 0.525146 3.08507C0.525146 4.76421 2.25493 8.18921 3.89143 9.82837C5.52793 11.4542 8.94218 13.1865 10.6253 13.1865C10.6253 13.1865 13.1507 11.5075 13.1507 10.668C13.1507 9.82838 10.6253 7.29631 9.78442 8.13588Z" fill="#666666"/>
</svg>
