<svg width="18" height="18" viewBox="0 0 18 18" fill="none" xmlns="http://www.w3.org/2000/svg">
<path d="M15.3493 17.0811C15.1107 17.0811 14.9002 16.9211 14.8309 16.6946C14.7642 16.468 14.8549 16.2145 15.0561 16.0946C15.5652 15.7481 15.9983 15.3087 16.3274 14.8023C16.6393 14.3225 16.7459 13.9496 16.6459 13.6564C16.442 13.0967 15.3506 12.6703 14.4231 12.3771C13.5875 12.1106 12.6706 12.3234 12.0496 12.9497L11.6978 13.2966C11.6352 13.3632 11.5579 13.4163 11.4726 13.443C11.2314 13.5096 9.9067 13.7497 7.45462 11.2976C7.24272 11.0844 7.24142 10.7374 7.45331 10.5375C7.66387 10.3243 8.00766 10.3246 8.21822 10.5245C9.82674 12.137 10.769 12.3635 11.0781 12.3901L11.286 12.1903C12.1922 11.2708 13.5302 10.9511 14.7522 11.3509C15.965 11.7374 17.2883 12.2438 17.6641 13.2966C17.884 13.9229 17.736 14.629 17.2323 15.3886C16.8205 16.0283 16.2795 16.5746 15.6438 17.001C15.5558 17.0544 15.4532 17.0811 15.3493 17.0811ZM12.7533 17.8138C10.2799 17.8138 7.44131 16.3745 4.9066 13.8425C4.76667 13.7092 4.70938 13.5098 4.75869 13.3232C4.80933 13.1233 4.9559 12.9767 5.14647 12.9367C5.33437 12.8834 5.53562 12.9365 5.67155 13.0831C8.06233 15.4686 10.8116 16.8279 13.0171 16.7212C13.1597 16.7079 13.2996 16.7614 13.4076 16.8546C13.5142 16.9479 13.5782 17.0942 13.5835 17.2275C13.5995 17.534 13.369 17.7874 13.0704 17.8008C12.9652 17.8008 12.8599 17.8138 12.7533 17.8138Z" fill="#535A64"/>
<path d="M5.28909 14.0025C5.1465 14.0025 5.00792 13.9491 4.90664 13.8425C2.18136 11.1105 0.710121 7.95267 0.972654 5.38065C1.12591 3.79479 2.00679 2.36833 3.35677 1.51543C4.12705 1.00902 4.83068 0.862665 5.44636 1.08922C6.51115 1.46236 7.01488 2.78192 7.40268 3.99463C7.79715 5.22068 7.47067 6.55281 6.5618 7.45901L6.34991 7.67245C6.37523 7.9523 6.58579 8.89836 8.21696 10.5375C8.42086 10.7374 8.41819 11.084 8.21029 11.2839C8.00107 11.4971 7.66391 11.4974 7.45335 11.2975C5.00127 8.84547 5.23845 7.51279 5.31175 7.27291C5.33707 7.19295 5.38373 7.1131 5.44636 7.04646L5.79819 6.69963C6.42054 6.07329 6.64176 5.16737 6.37257 4.3278C6.07539 3.39494 5.66093 2.30162 5.08656 2.10172C4.80404 2.00843 4.42153 2.11536 3.94977 2.42187C2.86899 3.0882 2.16405 4.22069 2.04677 5.48671C1.81756 7.7389 3.17019 10.5777 5.67025 13.0831C5.8235 13.2297 5.87015 13.4695 5.7862 13.6694C5.70357 13.8693 5.50635 14.0025 5.28779 14.0025H5.28909Z" fill="#535A64"/>
</svg>
