<svg width="26" height="33" viewBox="0 0 26 33" fill="none" xmlns="http://www.w3.org/2000/svg">
<path d="M12.637 0.00514244V0C12.6026 0 12.5689 0.00205697 12.5352 0.00205697C12.5015 0.00205697 12.4678 0 12.4334 0V0.00514244C5.54843 0.114676 0 5.72585 0 12.637C0 21.9502 10.9344 30.7901 12.5352 32.0461C14.1363 30.7903 25.0704 21.95 25.0704 12.637C25.0704 5.72585 19.5222 0.114676 12.637 0.00514244ZM12.637 18.0728C9.03449 18.0728 6.11461 15.1535 6.11461 11.5515C6.11461 7.94841 9.03449 5.02853 12.637 5.02853C16.2396 5.02853 19.1597 7.94841 19.1597 11.5515C19.1597 15.1535 16.2396 18.0728 12.637 18.0728Z" fill="#00375B"/>
</svg>
