<svg width="40" height="40" viewBox="0 0 40 40" fill="none" xmlns="http://www.w3.org/2000/svg">
<circle cx="20" cy="20" r="20" fill="white"/>
<path fill-rule="evenodd" clip-rule="evenodd" d="M16.0679 13.6894C15.773 13.0339 15.4626 13.0207 15.182 13.0092C14.9526 12.9994 14.6899 13 14.4276 13C14.1652 13 13.7386 13.0986 13.378 13.4925C13.0171 13.8864 12 14.8387 12 16.7755C12 18.7125 13.4108 20.5839 13.6074 20.8468C13.8042 21.1094 16.3308 25.2108 20.332 26.7888C23.6574 28.1001 24.3341 27.8393 25.0559 27.7737C25.7777 27.7081 27.385 26.8216 27.713 25.9024C28.0411 24.9832 28.0411 24.1955 27.9427 24.0308C27.8442 23.8667 27.5818 23.7683 27.1881 23.5714C26.7943 23.3745 24.859 22.422 24.4981 22.2908C24.1372 22.1596 23.8747 22.094 23.6123 22.4881C23.3498 22.8819 22.5959 23.7683 22.3661 24.0308C22.1365 24.2939 21.9069 24.3267 21.5131 24.1298C21.1194 23.9324 19.8516 23.5171 18.3475 22.1761C17.1772 21.1327 16.3872 19.8441 16.1574 19.45C15.9278 19.0563 16.1329 18.843 16.3304 18.6468C16.5071 18.4704 16.7241 18.1873 16.9209 17.9574C17.1174 17.7276 17.183 17.5635 17.3142 17.301C17.4454 17.0381 17.3798 16.8082 17.2814 16.6114C17.183 16.4145 16.4179 14.4677 16.0679 13.6894Z" fill="#41C452"/>
</svg>
