<svg width="40" height="40" viewBox="0 0 40 40" fill="none" xmlns="http://www.w3.org/2000/svg">
<circle cx="20" cy="20" r="20" fill="white"/>
<path d="M24 20C23.8698 17.4613 22.5365 16.128 20 16" stroke="#7360F2" stroke-linecap="round" stroke-linejoin="round"/>
<path d="M26.9974 21C27.0475 18.7967 26.3619 16.9558 24.9406 15.4773C23.5127 13.9937 21.5363 13.1767 19 13" stroke="#7360F2" stroke-linecap="round" stroke-linejoin="round"/>
<path d="M30 22C29.9705 18.2901 28.813 15.3683 26.5274 13.2346C24.2418 11.1009 21.3994 10.0227 18 10" stroke="#7360F2" stroke-linecap="round" stroke-linejoin="round"/>
<path d="M19.6233 25.6174C19.6233 25.6174 20.1889 25.6651 20.4934 25.29L21.0872 24.5431C21.3736 24.1728 22.0647 23.9365 22.7415 24.3136C23.2486 24.6028 23.741 24.9172 24.2168 25.2556C24.6659 25.5859 25.5856 26.3533 25.5885 26.3533C26.0267 26.7232 26.1278 27.2663 25.8295 27.839C25.8295 27.8423 25.8271 27.8481 25.8271 27.8509C25.4986 28.4204 25.0815 28.934 24.5914 29.3724C24.5857 29.3753 24.5857 29.3781 24.5805 29.381C24.1547 29.7367 23.7365 29.9389 23.3257 29.9876C23.2652 29.9982 23.2037 30.002 23.1424 29.999C22.9613 30.0008 22.781 29.9731 22.6088 29.9169L22.5954 29.8974C21.9625 29.7189 20.9058 29.2722 19.1461 28.3015C18.1277 27.7463 17.1582 27.106 16.248 26.3872C15.7917 26.0272 15.3565 25.6412 14.9445 25.2313L14.9006 25.1874L14.8567 25.1435L14.8127 25.0996C14.7979 25.0853 14.7836 25.0705 14.7688 25.0557C14.3589 24.6437 13.9729 24.2085 13.6128 23.7523C12.8941 22.8422 12.2537 21.873 11.6984 20.8549C10.7276 19.0948 10.2809 18.0392 10.1024 17.4054L10.0828 17.392C10.0269 17.2198 9.99929 17.0396 10.0012 16.8585C9.99785 16.7971 10.0015 16.7357 10.0122 16.6752C10.0634 16.2651 10.2659 15.8465 10.6198 15.4195C10.6226 15.4143 10.6255 15.4143 10.6284 15.4086C11.0666 14.9186 11.5803 14.5016 12.1499 14.1735C12.1528 14.1735 12.1585 14.1706 12.1619 14.1706C12.7346 13.8723 13.2778 13.9735 13.6472 14.4092C13.6501 14.4121 14.4161 15.3317 14.745 15.7808C15.0835 16.257 15.3979 16.7498 15.6871 17.2574C16.0642 17.9337 15.8279 18.6262 15.4576 18.9116L14.7106 19.5053C14.3335 19.8098 14.3832 20.3753 14.3832 20.3753C14.3832 20.3753 15.4895 24.5622 19.6233 25.6174Z" fill="#7360F2"/>
</svg>
