<svg width="40" height="40" viewBox="0 0 40 40" fill="none" xmlns="http://www.w3.org/2000/svg">
<circle cx="20" cy="20" r="20" fill="white"/>
<path d="M11.0422 19.1389L21.1686 14.9549C22.1682 14.5191 25.5581 13.1244 25.5581 13.1244C25.5581 13.1244 27.1227 12.5143 26.9923 13.9961C26.9488 14.6063 26.6011 16.7418 26.2535 19.0517L25.1669 25.8942C25.1669 25.8942 25.08 26.8966 24.3412 27.071C23.6024 27.2453 22.3855 26.4608 22.1682 26.2865C21.9943 26.1557 18.9086 24.1945 17.7786 23.2357C17.4744 22.9742 17.1267 22.4512 17.8221 21.841C19.3867 20.4028 21.2555 18.6159 22.3855 17.4827C22.907 16.9597 23.4285 15.7394 21.2555 17.2212L15.1275 21.3616C15.1275 21.3616 14.4322 21.7974 13.1283 21.4052C11.8245 21.013 10.3034 20.49 10.3034 20.49C10.3034 20.49 9.26034 19.8362 11.0422 19.1389Z" fill="#25A3E1"/>
</svg>
