<svg width="40" height="40" viewBox="0 0 40 40" fill="none" xmlns="http://www.w3.org/2000/svg">
<circle cx="20" cy="20" r="20" fill="white"/>
<path d="M14.1 12H26C27.1 12 28.1 12.9 28.1 14.1V26C28.1 27.1 27.2 28.1 26 28.1H14.1C13 28.1 12 27.2 12 26V14.1C12.1 12.9 13 12 14.1 12ZM23.7 13.8C23.3 13.8 23 14.1 23 14.5V16.2C23 16.6 23.3 16.9 23.7 16.9H25.5C25.9 16.9 26.2 16.6 26.2 16.2V14.5C26.2 14.1 25.9 13.8 25.5 13.8H23.7ZM26.3 18.8H24.9C25 19.2 25.1 19.7 25.1 20.2C25.1 22.9 22.9 25 20.1 25C17.4 25 15.1 22.8 15.1 20.2C15.1 19.7 15.2 19.3 15.3 18.8H13.8V25.6C13.8 25.9 14.1 26.2 14.4 26.2H25.5C25.8 26.2 26.1 25.9 26.1 25.6V18.8H26.3ZM20.1 16.9C18.3 16.9 16.9 18.3 16.9 20C16.9 21.7 18.3 23.1 20.1 23.1C21.9 23.1 23.3 21.7 23.3 20C23.3 18.2 21.9 16.9 20.1 16.9Z" fill="url(#paint0_linear_87_3078)"/>
<defs>
<linearGradient id="paint0_linear_87_3078" x1="20.05" y1="12" x2="20.05" y2="28.1" gradientUnits="userSpaceOnUse">
<stop stop-color="#FF0399"/>
<stop offset="0.520833" stop-color="#FF0000"/>
<stop offset="1" stop-color="#FF7D00"/>
</linearGradient>
</defs>
</svg>
