<svg width="40" height="40" viewBox="0 0 40 40" fill="none" xmlns="http://www.w3.org/2000/svg">
<circle cx="20" cy="20" r="20" fill="white"/>
<path d="M13.6001 12H20.9001C23.3001 12 25.3001 13.2 25.3001 15.5C25.3001 17.5 24.6001 18.2 23.1001 19.1C23.2001 19.2 24.1001 19.5 24.4001 19.6C24.9001 19.8 25.1001 20 25.4001 20.4C26.2001 21.2 26.4001 22 26.4001 23.4C26.4001 26.5 23.4001 28 20.5001 28H13.6001V12ZM17.6001 16.2V18.3C19.5001 18.3 21.2001 18.5 21.2001 16.5C21.2001 14.6 19.2001 14.9 17.6001 14.9V16.2ZM17.6001 25.1C19.7001 25.1 22.2001 25.4 22.2001 23.1C22.2001 20.7 19.6001 21.1 17.6001 21.1V25.1Z" fill="#007FCA"/>
</svg>
