<svg width="54" height="54" viewBox="0 0 54 54" fill="none" xmlns="http://www.w3.org/2000/svg">
<circle cx="27" cy="27" r="27" fill="#E7F7FF"/>
<path d="M35.5 13H17.5C15.0187 13 13 15.0187 13 17.5V35.5C13 37.9813 15.0187 40 17.5 40H35.5C37.9813 40 40 37.9813 40 35.5V17.5C40 15.0187 37.9813 13 35.5 13ZM38.2 17.5V25.6H27.4V14.8H35.5C36.9886 14.8 38.2 16.0114 38.2 17.5ZM17.5 14.8H25.6V25.6H14.8V17.5C14.8 16.0114 16.0114 14.8 17.5 14.8ZM14.8 35.5V27.4H25.6V38.2H17.5C16.0114 38.2 14.8 36.9886 14.8 35.5ZM35.5 38.2H27.4V27.4H38.2V35.5C38.2 36.9886 36.9886 38.2 35.5 38.2Z" fill="#00375B"/>
<path d="M17.5016 21.1H19.3016V22.9C19.3016 23.3968 19.7039 23.8 20.2016 23.8C20.6993 23.8 21.1016 23.3968 21.1016 22.9V21.1H22.9016C23.3993 21.1 23.8016 20.6968 23.8016 20.2C23.8016 19.7032 23.3993 19.3 22.9016 19.3H21.1016V17.5C21.1016 17.0032 20.6993 16.6 20.2016 16.6C19.7039 16.6 19.3016 17.0032 19.3016 17.5V19.3H17.5016C17.0039 19.3 16.6016 19.7032 16.6016 20.2C16.6016 20.6968 17.0039 21.1 17.5016 21.1Z" fill="#00375B"/>
<path d="M30.0992 21.1H35.4992C35.9969 21.1 36.3992 20.6968 36.3992 20.2C36.3992 19.7032 35.9969 19.3 35.4992 19.3H30.0992C29.6015 19.3 29.1992 19.7032 29.1992 20.2C29.1992 20.6968 29.6015 21.1 30.0992 21.1Z" fill="#00375B"/>
<path d="M35.4992 33.7H30.0992C29.6015 33.7 29.1992 34.1032 29.1992 34.6C29.1992 35.0968 29.6015 35.5 30.0992 35.5H35.4992C35.9969 35.5 36.3992 35.0968 36.3992 34.6C36.3992 34.1032 35.9969 33.7 35.4992 33.7Z" fill="#00375B"/>
<path d="M35.4992 30.1H30.0992C29.6015 30.1 29.1992 30.5032 29.1992 31C29.1992 31.4968 29.6015 31.9 30.0992 31.9H35.4992C35.9969 31.9 36.3992 31.4968 36.3992 31C36.3992 30.5032 35.9969 30.1 35.4992 30.1Z" fill="#00375B"/>
<path d="M21.4723 32.8L22.745 31.5274C23.0969 31.1755 23.0969 30.6067 22.745 30.2548C22.3931 29.9029 21.8242 29.9029 21.4723 30.2548L20.1998 31.5274L18.9272 30.2548C18.5753 29.9029 18.0065 29.9029 17.6546 30.2548C17.3026 30.6067 17.3026 31.1755 17.6546 31.5274L18.9272 32.8L17.6546 34.0735C17.3026 34.4254 17.3026 34.9942 17.6546 35.3461C17.8301 35.5216 18.0605 35.6098 18.2909 35.6098C18.5213 35.6098 18.7517 35.5216 18.9272 35.3461L20.1998 34.0735L21.4723 35.3461C21.6478 35.5216 21.8783 35.6098 22.1087 35.6098C22.3391 35.6098 22.5695 35.5216 22.745 35.3461C23.0969 34.9942 23.0969 34.4254 22.745 34.0735L21.4723 32.8Z" fill="#00375B"/>
</svg>
