<svg width="54" height="54" viewBox="0 0 54 54" fill="none" xmlns="http://www.w3.org/2000/svg">
<circle cx="27" cy="27" r="27" fill="#E7F7FF"/>
<path d="M32.6713 21.328C31.2321 19.8889 29.2004 18.9576 26.9993 18.9576C24.7983 18.9576 22.7665 19.8465 21.3274 21.328C19.8882 22.7672 18.957 24.7989 18.957 26.9999C18.957 29.201 19.8882 31.2327 21.3274 32.6719C22.7665 34.111 24.7983 35.0422 26.9993 35.0422C29.2004 35.0422 31.2321 34.1534 32.6713 32.6719C34.1104 31.2327 35.0416 29.201 35.0416 26.9999C35.0416 24.7989 34.1527 22.7672 32.6713 21.328ZM31.1475 31.1481C30.0893 32.2063 28.6078 32.8412 26.9993 32.8412C25.3909 32.8412 23.9094 32.2063 22.8512 31.1481C21.793 30.0899 21.1581 28.6084 21.1581 26.9999C21.1581 25.3915 21.793 23.91 22.8512 22.8518C23.9094 21.7936 25.3909 21.1587 26.9993 21.1587C28.6078 21.1587 30.0893 21.7936 31.1475 22.8518C32.2057 23.91 32.8406 25.3915 32.8406 26.9999C32.8406 28.6084 32.2057 30.0899 31.1475 31.1481Z" fill="#00375B"/>
<path d="M41.8988 25.8994H38.6396C38.047 25.8994 37.5391 26.4073 37.5391 26.9999C37.5391 27.5925 38.047 28.1005 38.6396 28.1005H41.8988C42.4914 28.1005 42.9994 27.5925 42.9994 26.9999C42.9994 26.4073 42.4914 25.8994 41.8988 25.8994Z" fill="#00375B"/>
<path d="M26.999 37.5396C26.4064 37.5396 25.8984 38.0475 25.8984 38.6401V41.8993C25.8984 42.4919 26.4064 42.9998 26.999 42.9998C27.5916 42.9998 28.0995 42.4919 28.0995 41.8993V38.6401C28.0995 38.0475 27.5916 37.5396 26.999 37.5396Z" fill="#00375B"/>
<path d="M38.3021 36.7777L35.9741 34.4497C35.5931 34.0264 34.8736 34.0264 34.4503 34.4497C34.027 34.8729 34.027 35.5502 34.4503 35.9735L36.7783 38.3015C37.2016 38.7248 37.8788 38.7248 38.3021 38.3015C38.7254 37.8782 38.7254 37.201 38.3021 36.7777Z" fill="#00375B"/>
<path d="M26.999 11C26.4064 11 25.8984 11.5079 25.8984 12.1005V15.3598C25.8984 15.9524 26.4064 16.4603 26.999 16.4603C27.5916 16.4603 28.0995 15.9524 28.0995 15.3598V12.1005C28.0995 11.5079 27.5916 11 26.999 11Z" fill="#00375B"/>
<path d="M38.3451 15.6983C37.9218 15.275 37.2446 15.275 36.8213 15.6983L34.4932 18.0264C34.07 18.4496 34.07 19.1269 34.4932 19.5502C34.8742 19.9734 35.5938 19.9734 36.017 19.5502L38.3451 17.2221C38.7684 16.7988 38.7684 16.1216 38.3451 15.6983Z" fill="#00375B"/>
<path d="M15.3598 25.8994H12.1005C11.5079 25.8994 11 26.4073 11 26.9999C11 27.5925 11.4656 28.1005 12.1005 28.1005H15.3598C15.9524 28.1005 16.4603 27.5925 16.4603 26.9999C16.4603 26.4073 15.9524 25.8994 15.3598 25.8994Z" fill="#00375B"/>
<path d="M19.5052 34.4497C19.1243 34.0264 18.4047 34.0264 17.9814 34.4497L15.6534 36.7777C15.2301 37.201 15.2301 37.8782 15.6534 38.3015C16.0767 38.7248 16.7539 38.7248 17.1772 38.3015L19.5052 35.9735C19.9285 35.5502 19.9285 34.8729 19.5052 34.4497Z" fill="#00375B"/>
<path d="M19.5052 18.0264L17.1772 15.6983C16.7539 15.275 16.0767 15.275 15.6534 15.6983C15.2301 16.1216 15.2301 16.7988 15.6534 17.2221L17.9814 19.5502C18.4047 19.9734 19.082 19.9734 19.5052 19.5502C19.9285 19.1269 19.9285 18.4496 19.5052 18.0264Z" fill="#00375B"/>
</svg>
