<svg width="54" height="54" viewBox="0 0 54 54" fill="none" xmlns="http://www.w3.org/2000/svg">
<circle cx="27" cy="27" r="27" fill="#00375B"/>
<path d="M42.8655 18.7402C42.5893 18.2742 41.9977 18.1186 41.5244 18.3907L38.1319 20.294V16.4871C38.1319 15.9433 37.698 15.516 37.1457 15.516C36.5935 15.516 36.1595 15.9433 36.1595 16.4871V21.4207L28.4673 25.8103V17.0311L32.8066 14.545C33.2799 14.2729 33.4379 13.6904 33.1616 13.2243C32.8853 12.7582 32.2938 12.6027 31.8205 12.8747L28.4673 14.7783V10.9711C28.4673 10.4273 28.0333 10 27.4811 10C26.9288 10 26.4949 10.4273 26.4949 10.9711V14.778L23.1417 12.8747C22.6684 12.6026 22.0766 12.7582 21.8006 13.2242C21.5243 13.6903 21.6823 14.2731 22.1555 14.5449L26.4949 17.0311V25.8102L18.8026 21.4209V16.4874C18.8026 15.9435 18.3687 15.5162 17.8165 15.5162C17.2642 15.5162 16.8303 15.9435 16.8303 16.4874V20.2942L13.4771 18.3907C13.0038 18.1186 12.4119 18.2742 12.1359 18.7402C11.8597 19.2063 12.0176 19.7891 12.4909 20.0609L15.8441 21.9644L12.4909 23.868C12.0176 24.14 11.8597 24.7226 12.1359 25.1887C12.3332 25.4995 12.6488 25.6937 13.0038 25.6937C13.1615 25.6937 13.3588 25.655 13.4771 25.5772L17.8164 23.0911L25.5087 27.4807L17.8164 31.8704L13.4771 29.3843C13.0038 29.1122 12.4119 29.2677 12.1359 29.7338C11.8597 30.1999 12.0176 30.7827 12.4909 31.0545L15.8441 32.958L12.4909 34.8615C12.0176 35.1336 11.8597 35.7162 12.1359 36.1822C12.3332 36.493 12.6488 36.6873 13.0038 36.6873C13.1614 36.6873 13.3587 36.6486 13.4771 36.5708L16.8302 34.6673V38.4741C16.8302 39.0179 17.2642 39.4453 17.8164 39.4453C18.3687 39.4453 18.8026 39.0179 18.8026 38.4741V33.5406L26.4949 29.1509V37.9301L22.1555 40.4163C21.6822 40.6883 21.5243 41.2709 21.8005 41.737C21.9978 42.0478 22.3134 42.2421 22.6684 42.2421C22.8261 42.2421 23.0234 42.2033 23.1417 42.1255L26.4949 40.222V44.0289C26.4949 44.5727 26.9288 45 27.481 45C28.0333 45 28.4672 44.5727 28.4672 44.0289V40.222L31.8204 42.1255C31.9781 42.2033 32.136 42.2421 32.2937 42.2421C32.6487 42.2421 32.9643 42.0868 33.1615 41.737C33.4378 41.2709 33.2799 40.6881 32.8066 40.4163L28.4672 37.9301V29.1509L36.1595 33.5406V38.4741C36.1595 39.0179 36.5934 39.4453 37.1457 39.4453C37.6979 39.4453 38.1318 39.0179 38.1318 38.4741V34.6673L41.485 36.5708C41.6427 36.6486 41.8006 36.6873 41.9583 36.6873C42.3133 36.6873 42.6289 36.5321 42.8262 36.1822C43.1024 35.7162 42.9445 35.1333 42.4712 34.8615L39.118 32.958L42.4712 31.0545C42.9445 30.7825 43.1024 30.1999 42.8262 29.7338C42.5499 29.2677 41.9583 29.1122 41.485 29.3843L37.1456 31.8704L29.4534 27.4807L37.1456 23.0911L41.485 25.5772C41.6427 25.655 41.8006 25.6937 41.9583 25.6937C42.3133 25.6937 42.6289 25.5385 42.8261 25.1887C43.1024 24.7226 42.9445 24.1397 42.4712 23.868L39.118 21.9644L42.4712 20.0609C42.9838 19.7894 43.1418 19.2066 42.8655 18.7405L42.8655 18.7402Z" fill="white"/>
</svg>
