<svg width="31" height="30" viewBox="0 0 31 30" fill="none" xmlns="http://www.w3.org/2000/svg">
<path d="M22.8294 19.8C21.7794 18.9 20.5794 18.9 19.6794 19.8L17.4294 22.05C17.2794 22.2 17.1294 22.35 16.8294 22.2C16.3794 21.9 15.7794 21.75 15.3294 21.45C13.2294 20.1 11.4294 18.3 9.77942 16.35C9.02942 15.45 8.27942 14.4 7.82942 13.2C7.67942 12.9 7.82942 12.75 7.97942 12.6L10.2294 10.35C11.2794 9.3 11.2794 8.1 10.2294 7.05C9.62942 6.6 9.02942 6 8.42942 5.4L6.62942 3.6C5.57942 2.7 4.37942 2.7 3.47942 3.6L1.22942 5.85C0.479423 6.45 0.179423 7.35 0.0294229 8.25C-0.120577 9.75 0.329423 11.25 0.779423 12.75C1.82942 15.75 3.47942 18.3 5.57942 20.7C8.27942 24 11.5794 26.55 15.4794 28.35C17.1294 29.25 18.9294 29.85 20.8794 30C22.2294 30 23.4294 29.7 24.3294 28.65C24.9294 27.9 25.6794 27.3 26.4294 26.55C27.4794 25.5 27.4794 24.3 26.4294 23.25C25.2294 22.2 24.0294 21 22.8294 19.8V19.8ZM21.6294 14.85L24.0294 14.4C23.5794 12.3 22.5294 10.5 21.0294 8.85C19.3794 7.2 17.4294 6.3 15.1794 5.85L14.8794 8.25C16.6794 8.55 18.1794 9.3 19.3794 10.5C20.5794 11.7 21.3294 13.2 21.6294 14.85ZM25.2294 4.8C22.5294 2.1 19.2294 0.45 15.4794 0L15.1794 2.25C18.3294 2.7 21.3294 4.2 23.5794 6.45C25.8294 8.7 27.1794 11.4 27.7794 14.4L30.0294 14.1C29.4294 10.5 27.7794 7.35 25.2294 4.8V4.8Z" fill="white"/>
</svg>
