<svg width="28" height="28" viewBox="0 0 28 28" fill="none" xmlns="http://www.w3.org/2000/svg">
<path d="M27.1996 3.82753C26.7877 3.41491 26.1193 3.4142 25.7074 3.82578L13.0477 16.4521L8.48004 11.4913C8.08537 11.0628 7.41807 11.0351 6.98894 11.4297C6.56013 11.8244 6.53268 12.492 6.92736 12.9208L12.2389 18.6893C12.4335 18.9007 12.7057 19.0235 12.9927 19.0294C13.0005 19.0298 13.0079 19.0298 13.0153 19.0298C13.2942 19.0298 13.5626 18.919 13.7603 18.722L27.1975 5.32C27.6104 4.90848 27.6112 4.24014 27.1996 3.82753Z" fill="#FF6230"/>
<path d="M26.9447 12.9447C26.3618 12.9447 25.8894 13.4171 25.8894 14C25.8894 20.5561 20.5561 25.8894 14 25.8894C7.44428 25.8894 2.11055 20.5561 2.11055 14C2.11055 7.44428 7.44428 2.11055 14 2.11055C14.5829 2.11055 15.0553 1.63816 15.0553 1.0553C15.0553 0.472391 14.5829 0 14 0C6.28031 0 0 6.28031 0 14C0 21.7194 6.28031 28 14 28C21.7194 28 28 21.7194 28 14C28 13.4171 27.5276 12.9447 26.9447 12.9447Z" fill="#FF6230"/>
</svg>
