<svg width="40" height="41" viewBox="0 0 40 41" fill="none" xmlns="http://www.w3.org/2000/svg">
<g clip-path="url(#clip0_74_2110)">
<path fill-rule="evenodd" clip-rule="evenodd" d="M30 25.4239L38 34.399C39 35.3962 39.5995 37.8498 38 39.3851C37.6061 39.7633 36.547 40.3824 36 40.3824C35.4221 40.3824 34 40.3824 33 39.3851L25 30.4101C22.2763 32.3189 20.1839 32.7037 16.8409 32.7037C7.93594 32.7037 0.690918 25.4787 0.690918 16.5984C0.690918 7.71812 7.93594 0.493164 16.8409 0.493164C25.7459 0.493164 32.9909 7.71812 32.9909 16.5984C32.9909 20.3993 32.4478 22.5222 30 25.4239ZM17 27.4184C23.0751 27.4184 28 22.5071 28 16.4488C28 10.3905 23.0751 5.47931 17 5.47931C10.9249 5.47931 6 10.3905 6 16.4488C6 22.5071 10.9249 27.4184 17 27.4184Z" fill="white"/>
<path d="M16.9453 22.8719C17.1501 22.8742 17.3349 22.7928 17.4677 22.6604C17.6005 22.528 17.682 22.3437 17.6798 22.1395L17.6343 17.3323L22.4548 17.3777C22.6597 17.3798 22.8444 17.2986 22.9772 17.1662C23.1099 17.0338 23.1914 16.8496 23.1893 16.6452C23.1854 16.2368 22.8504 15.9027 22.4408 15.8988L17.6203 15.8537L17.5772 11.293C17.5735 10.8846 17.2383 10.5504 16.8287 10.5467C16.4191 10.5427 16.0904 10.8705 16.0942 11.2791L16.1373 15.8396L11.5641 15.7965C11.1545 15.7926 10.8256 16.1205 10.8297 16.5289C10.8334 16.9373 11.1686 17.2716 11.5782 17.2753L16.1514 17.3183L16.1969 22.1253C16.2005 22.5339 16.5355 22.868 16.9453 22.8719Z" fill="white"/>
</g>
<defs>
<clipPath id="clip0_74_2110">
<rect width="40" height="39.8892" fill="white" transform="translate(0 0.493164)"/>
</clipPath>
</defs>
</svg>
