<svg width="40" height="40" viewBox="0 0 40 40" fill="none" xmlns="http://www.w3.org/2000/svg">
<circle cx="20" cy="20" r="20" fill="url(#paint0_linear_511_4374)"/>
<g filter="url(#filter0_d_511_4374)">
<path d="M19.6429 21.5714C18.8659 21.5714 18.1063 21.341 17.4603 20.9093C16.8142 20.4777 16.3107 19.8641 16.0133 19.1463C15.716 18.4284 15.6382 17.6385 15.7898 16.8764C15.9414 16.1144 16.3155 15.4144 16.8649 14.8649C17.4144 14.3155 18.1144 13.9414 18.8764 13.7898C19.6385 13.6382 20.4284 13.716 21.1463 14.0133C21.8641 14.3107 22.4777 14.8142 22.9094 15.4603C23.341 16.1063 23.5714 16.8659 23.5714 17.6429C23.5703 18.6844 23.156 19.683 22.4195 20.4195C21.683 21.156 20.6844 21.5702 19.6429 21.5714ZM19.6429 15.2857C19.1767 15.2857 18.7209 15.424 18.3333 15.683C17.9457 15.942 17.6436 16.3101 17.4651 16.7408C17.2867 17.1715 17.2401 17.6455 17.331 18.1027C17.422 18.56 17.6465 18.98 17.9761 19.3096C18.3058 19.6393 18.7258 19.8638 19.183 19.9547C19.6403 20.0457 20.1142 19.999 20.5449 19.8206C20.9756 19.6422 21.3438 19.34 21.6028 18.9524C21.8618 18.5648 22 18.1091 22 17.6429C21.9993 17.0179 21.7508 16.4188 21.3089 15.9769C20.867 15.535 20.2678 15.2864 19.6429 15.2857Z" fill="white"/>
<path d="M19.6429 31L13.015 23.1832C12.9773 23.1383 12.7414 22.8284 12.7414 22.8284C11.6091 21.337 10.9974 19.5154 11 17.6429C11 15.3506 11.9106 13.1523 13.5314 11.5314C15.1523 9.91058 17.3506 9 19.6429 9C21.9351 9 24.1334 9.91058 25.7543 11.5314C27.3751 13.1523 28.2857 15.3506 28.2857 17.6429C28.2885 19.5146 27.6772 21.3356 26.5455 22.8265L26.5443 22.8284C26.5443 22.8284 26.3086 23.1383 26.2735 23.1799L19.6429 31ZM13.9955 21.8818C13.9963 21.8823 14.1789 22.1239 14.2207 22.176L19.6429 28.5705L25.0722 22.1669C25.1066 22.1236 25.2908 21.8802 25.2912 21.8796C26.2162 20.661 26.7161 19.1727 26.7143 17.6429C26.7143 15.7674 25.9693 13.9688 24.6431 12.6426C23.317 11.3165 21.5183 10.5714 19.6429 10.5714C17.7674 10.5714 15.9688 11.3165 14.6426 12.6426C13.3165 13.9688 12.5714 15.7674 12.5714 17.6429C12.5697 19.1736 13.07 20.6626 13.9955 21.8818Z" fill="white"/>
</g>
<defs>
<filter id="filter0_d_511_4374" x="9" y="8" width="21.2856" height="26" filterUnits="userSpaceOnUse" color-interpolation-filters="sRGB">
<feFlood flood-opacity="0" result="BackgroundImageFix"/>
<feColorMatrix in="SourceAlpha" type="matrix" values="0 0 0 0 0 0 0 0 0 0 0 0 0 0 0 0 0 0 127 0" result="hardAlpha"/>
<feOffset dy="1"/>
<feGaussianBlur stdDeviation="1"/>
<feComposite in2="hardAlpha" operator="out"/>
<feColorMatrix type="matrix" values="0 0 0 0 0 0 0 0 0 0 0 0 0 0 0 0 0 0 0.1 0"/>
<feBlend mode="normal" in2="BackgroundImageFix" result="effect1_dropShadow_511_4374"/>
<feBlend mode="normal" in="SourceGraphic" in2="effect1_dropShadow_511_4374" result="shape"/>
</filter>
<linearGradient id="paint0_linear_511_4374" x1="20" y1="0" x2="20" y2="40" gradientUnits="userSpaceOnUse">
<stop stop-color="#4CBAC6"/>
<stop offset="1" stop-color="#009DAE"/>
</linearGradient>
</defs>
</svg>
