<svg width="46" height="60" viewBox="0 0 46 60" fill="none" xmlns="http://www.w3.org/2000/svg">
<path d="M17.3274 27.0531C17.3274 28.0297 18.1189 28.8212 19.0955 28.8212H34.8123C35.7889 28.8212 36.5804 28.0297 36.5804 27.0531C36.5804 26.0765 35.7889 25.285 34.8123 25.285H19.0955C18.1189 25.285 17.3274 26.0765 17.3274 27.0531Z" fill="#009DAE"/>
<path d="M34.8123 34.9082H19.0955C18.1189 34.9082 17.3274 35.6997 17.3274 36.6763C17.3274 37.6529 18.1189 38.4444 19.0955 38.4444H34.8123C35.7889 38.4444 36.5804 37.6529 36.5804 36.6763C36.5804 35.6997 35.7889 34.9082 34.8123 34.9082Z" fill="#009DAE"/>
<path d="M34.8123 44.5313H19.0955C18.1189 44.5313 17.3274 45.3229 17.3274 46.2995C17.3274 47.2761 18.1189 48.0676 19.0955 48.0676H34.8123C35.7889 48.0676 36.5804 47.2761 36.5804 46.2995C36.5804 45.3229 35.7889 44.5313 34.8123 44.5313Z" fill="#009DAE"/>
<path d="M13.0052 28.899C14.0247 28.899 14.8512 28.0726 14.8512 27.0531C14.8512 26.0336 14.0247 25.2072 13.0052 25.2072C11.9858 25.2072 11.1593 26.0336 11.1593 27.0531C11.1593 28.0726 11.9858 28.899 13.0052 28.899Z" fill="#009DAE"/>
<path d="M13.0052 38.5222C14.0247 38.5222 14.8512 37.6958 14.8512 36.6763C14.8512 35.6568 14.0247 34.8304 13.0052 34.8304C11.9858 34.8304 11.1593 35.6568 11.1593 36.6763C11.1593 37.6958 11.9858 38.5222 13.0052 38.5222Z" fill="#009DAE"/>
<path d="M13.0052 48.1454C14.0247 48.1454 14.8512 47.319 14.8512 46.2995C14.8512 45.28 14.0247 44.4535 13.0052 44.4535C11.9858 44.4535 11.1593 45.28 11.1593 46.2995C11.1593 47.319 11.9858 48.1454 13.0052 48.1454Z" fill="#009DAE"/>
<path d="M45.4537 13.8726L32.0992 0.517868C31.7674 0.186244 31.3177 0 30.8489 0H1.76814C0.791537 0 0 0.791536 0 1.76814V58.2319C0 59.2085 0.791537 60 1.76814 60H44.2035C45.1801 60 45.9716 59.2085 45.9716 58.2319V15.1229C45.9716 14.6539 45.7853 14.2042 45.4537 13.8726ZM32.2241 5.6439L40.3279 13.7477H32.2241V5.6439ZM42.4353 56.4637H3.53628V3.53628H28.6876V15.5158C28.6876 16.4924 29.4792 17.2839 30.4558 17.2839H42.4353V56.4637Z" fill="#009DAE"/>
</svg>
