<svg width="239" height="90" viewBox="0 0 239 90" fill="none" xmlns="http://www.w3.org/2000/svg">
<path d="M93.756 26.159H95.664C95.934 26.159 96.15 26.165 96.312 26.177C96.48 26.189 96.657 26.216 96.843 26.258C97.035 26.3 97.188 26.363 97.302 26.447C97.422 26.531 97.524 26.645 97.608 26.789C97.686 26.927 97.725 27.101 97.725 27.311V28.526C97.725 29.012 97.536 29.363 97.158 29.579C96.786 29.789 96.234 29.894 95.502 29.894H94.629V32H93.756V26.159ZM95.619 29.345C95.997 29.345 96.3 29.276 96.528 29.138C96.756 29 96.87 28.781 96.87 28.481V27.419C96.87 27.257 96.828 27.125 96.744 27.023C96.66 26.915 96.54 26.84 96.384 26.798C96.234 26.762 96.108 26.738 96.006 26.726C95.904 26.714 95.769 26.708 95.601 26.708H94.62V29.345H95.619ZM100.86 26.159H101.868L104.136 32H103.227L102.561 30.227H100.059L99.4018 32H98.5378L100.86 26.159ZM102.345 29.624L101.355 26.987H101.274L100.284 29.624H102.345ZM105.3 26.159H108.873V26.78H106.173V28.679H107.046C107.358 28.679 107.613 28.688 107.811 28.706C108.009 28.718 108.204 28.748 108.396 28.796C108.594 28.844 108.753 28.91 108.873 28.994C108.993 29.078 109.089 29.192 109.161 29.336C109.233 29.486 109.269 29.663 109.269 29.867V30.731C109.269 31.577 108.582 32 107.208 32H105.3V26.159ZM107.145 31.406C107.313 31.406 107.448 31.4 107.55 31.388C107.652 31.376 107.778 31.352 107.928 31.316C108.084 31.274 108.204 31.202 108.288 31.1C108.372 30.992 108.414 30.857 108.414 30.695V29.966C108.414 29.714 108.318 29.537 108.126 29.435C107.934 29.327 107.613 29.273 107.163 29.273H106.164V31.406H107.145ZM112.989 32.09C111.357 32.09 110.541 31.562 110.541 30.506V27.743C110.541 26.627 111.357 26.069 112.989 26.069C114.639 26.069 115.464 26.624 115.464 27.734V30.506C115.464 31.07 115.236 31.475 114.78 31.721C114.324 31.967 113.727 32.09 112.989 32.09ZM113.007 31.505C114.081 31.505 114.618 31.169 114.618 30.497V27.716C114.618 26.996 114.078 26.636 112.998 26.636C112.476 26.636 112.074 26.717 111.792 26.879C111.516 27.041 111.378 27.32 111.378 27.716V30.497C111.378 31.169 111.921 31.505 113.007 31.505ZM118.521 26.771H116.541V26.159H121.374V26.771H119.394V32H118.521V26.771ZM124.317 26.159H125.325L127.593 32H126.684L126.018 30.227H123.516L122.859 32H121.995L124.317 26.159ZM125.802 29.624L124.812 26.987H124.731L123.741 29.624H125.802ZM128.757 26.159H132.681V26.771H129.63V28.679H132.384V29.291H129.63V31.388H132.771V32H128.757V26.159ZM134.248 26.159H135.553L137.425 31.019L137.452 31.028L139.225 26.159H140.485V32H139.72V27.059H139.675L137.794 32H137.011L135.076 27.059H135.031V32H134.248V26.159ZM144.614 26.159H146.702C147.2 26.159 147.596 26.21 147.89 26.312C148.16 26.408 148.34 26.528 148.43 26.672C148.526 26.816 148.574 27.014 148.574 27.266V28.049C148.574 28.283 148.508 28.466 148.376 28.598C148.244 28.724 148.043 28.817 147.773 28.877V28.913C148.091 28.967 148.346 29.078 148.538 29.246C148.736 29.408 148.835 29.612 148.835 29.858V30.839C148.835 31.265 148.676 31.565 148.358 31.739C148.04 31.913 147.509 32 146.765 32H144.614V26.159ZM146.729 28.715C147.095 28.715 147.356 28.661 147.512 28.553C147.674 28.439 147.755 28.262 147.755 28.022V27.338C147.755 27.116 147.674 26.96 147.512 26.87C147.35 26.78 147.08 26.735 146.702 26.735H145.487V28.715H146.729ZM146.765 31.397C147.203 31.397 147.512 31.352 147.692 31.262C147.872 31.172 147.962 31.019 147.962 30.803V29.921C147.962 29.765 147.929 29.642 147.863 29.552C147.803 29.456 147.707 29.387 147.575 29.345C147.443 29.309 147.326 29.288 147.224 29.282C147.122 29.27 146.969 29.264 146.765 29.264H145.487V31.397H146.765ZM155.024 32.09C153.386 32.09 152.567 31.562 152.567 30.506V27.734C152.567 26.618 153.386 26.06 155.024 26.06C155.582 26.06 156.116 26.117 156.626 26.231V26.879C156.05 26.735 155.522 26.663 155.042 26.663C154.808 26.663 154.604 26.678 154.43 26.708C154.256 26.732 154.088 26.777 153.926 26.843C153.578 26.993 153.404 27.287 153.404 27.725V30.461C153.404 31.133 153.962 31.469 155.078 31.469C155.558 31.469 156.086 31.397 156.662 31.253V31.919C156.152 32.033 155.606 32.09 155.024 32.09ZM161.293 26.366C162.955 26.366 163.777 26.924 163.759 28.04L163.741 29.813C163.759 30.341 163.561 30.737 163.147 31.001C162.739 31.265 162.121 31.397 161.293 31.397V32.18H160.42V31.397C158.764 31.397 157.936 30.869 157.936 29.813V28.04C157.936 26.924 158.764 26.366 160.42 26.366V25.709H161.293V26.366ZM158.773 29.804C158.773 30.476 159.322 30.812 160.42 30.812V26.933C159.892 26.933 159.484 27.014 159.196 27.176C158.914 27.338 158.773 27.617 158.773 28.013V29.804ZM161.293 30.812C162.391 30.812 162.94 30.476 162.94 29.804L162.931 28.013C162.937 27.617 162.796 27.338 162.508 27.176C162.226 27.014 161.821 26.933 161.293 26.933V30.812ZM165.381 26.159H169.305V26.771H166.254V28.679H169.008V29.291H166.254V31.388H169.395V32H165.381V26.159ZM170.872 26.159H172.78C173.05 26.159 173.266 26.165 173.428 26.177C173.596 26.189 173.773 26.216 173.959 26.258C174.151 26.3 174.304 26.363 174.418 26.447C174.538 26.531 174.64 26.645 174.724 26.789C174.802 26.927 174.841 27.101 174.841 27.311V28.526C174.841 29.012 174.652 29.363 174.274 29.579C173.902 29.789 173.35 29.894 172.618 29.894H171.745V32H170.872V26.159ZM172.735 29.345C173.113 29.345 173.416 29.276 173.644 29.138C173.872 29 173.986 28.781 173.986 28.481V27.419C173.986 27.257 173.944 27.125 173.86 27.023C173.776 26.915 173.656 26.84 173.5 26.798C173.35 26.762 173.224 26.738 173.122 26.726C173.02 26.714 172.885 26.708 172.717 26.708H171.736V29.345H172.735ZM176.275 26.159H180.199V26.771H177.148V28.679H179.902V29.291H177.148V31.388H180.289V32H176.275V26.159ZM95.196 42.771H93.216V42.159H98.049V42.771H96.069V48H95.196V42.771ZM99.2906 42.159H101.199C101.469 42.159 101.685 42.165 101.847 42.177C102.015 42.189 102.192 42.216 102.378 42.258C102.57 42.3 102.723 42.363 102.837 42.447C102.957 42.531 103.059 42.645 103.143 42.789C103.221 42.927 103.26 43.101 103.26 43.311V44.526C103.26 45.012 103.071 45.363 102.693 45.579C102.321 45.789 101.769 45.894 101.037 45.894H100.164V48H99.2906V42.159ZM101.154 45.345C101.532 45.345 101.835 45.276 102.063 45.138C102.291 45 102.405 44.781 102.405 44.481V43.419C102.405 43.257 102.363 43.125 102.279 43.023C102.195 42.915 102.075 42.84 101.919 42.798C101.769 42.762 101.643 42.738 101.541 42.726C101.439 42.714 101.304 42.708 101.136 42.708H100.155V45.345H101.154ZM106.394 42.159H107.402L109.67 48H108.761L108.095 46.227H105.593L104.936 48H104.072L106.394 42.159ZM107.879 45.624L106.889 42.987H106.808L105.818 45.624H107.879ZM110.835 42.159H111.708V44.679H114.813V42.159H115.686V48H114.813V45.291H111.708V48H110.835V42.159ZM119.745 48.09C118.107 48.09 117.288 47.562 117.288 46.506V43.734C117.288 42.618 118.107 42.06 119.745 42.06C120.303 42.06 120.837 42.117 121.347 42.231V42.879C120.771 42.735 120.243 42.663 119.763 42.663C119.529 42.663 119.325 42.678 119.151 42.708C118.977 42.732 118.809 42.777 118.647 42.843C118.299 42.993 118.125 43.287 118.125 43.725V46.461C118.125 47.133 118.683 47.469 119.799 47.469C120.279 47.469 120.807 47.397 121.383 47.253V47.919C120.873 48.033 120.327 48.09 119.745 48.09ZM122.818 42.159H127.489V48H126.616V42.762H123.691V48H122.818V42.159ZM131.553 48.09C129.921 48.09 129.105 47.562 129.105 46.506V43.743C129.105 42.627 129.921 42.069 131.553 42.069C133.203 42.069 134.028 42.624 134.028 43.734V46.506C134.028 47.07 133.8 47.475 133.344 47.721C132.888 47.967 132.291 48.09 131.553 48.09ZM131.571 47.505C132.645 47.505 133.182 47.169 133.182 46.497V43.716C133.182 42.996 132.642 42.636 131.562 42.636C131.04 42.636 130.638 42.717 130.356 42.879C130.08 43.041 129.942 43.32 129.942 43.716V46.497C129.942 47.169 130.485 47.505 131.571 47.505ZM135.645 42.159H137.553C137.823 42.159 138.039 42.165 138.201 42.177C138.369 42.189 138.546 42.216 138.732 42.258C138.924 42.3 139.077 42.363 139.191 42.447C139.311 42.531 139.413 42.645 139.497 42.789C139.575 42.927 139.614 43.101 139.614 43.311V44.526C139.614 45.012 139.425 45.363 139.047 45.579C138.675 45.789 138.123 45.894 137.391 45.894H136.518V48H135.645V42.159ZM137.508 45.345C137.886 45.345 138.189 45.276 138.417 45.138C138.645 45 138.759 44.781 138.759 44.481V43.419C138.759 43.257 138.717 43.125 138.633 43.023C138.549 42.915 138.429 42.84 138.273 42.798C138.123 42.762 137.997 42.738 137.895 42.726C137.793 42.714 137.658 42.708 137.49 42.708H136.509V45.345H137.508ZM142.488 42.771H140.508V42.159H145.341V42.771H143.361V48H142.488V42.771ZM146.582 42.159H147.455V44.679H150.56V42.159H151.433V48H150.56V45.291H147.455V48H146.582V42.159ZM155.502 48.09C153.87 48.09 153.054 47.562 153.054 46.506V43.743C153.054 42.627 153.87 42.069 155.502 42.069C157.152 42.069 157.977 42.624 157.977 43.734V46.506C157.977 47.07 157.749 47.475 157.293 47.721C156.837 47.967 156.24 48.09 155.502 48.09ZM155.52 47.505C156.594 47.505 157.131 47.169 157.131 46.497V43.716C157.131 42.996 156.591 42.636 155.511 42.636C154.989 42.636 154.587 42.717 154.305 42.879C154.029 43.041 153.891 43.32 153.891 43.716V46.497C153.891 47.169 154.434 47.505 155.52 47.505ZM159.198 45.102H161.7V45.75H159.198V45.102ZM163 48.018C162.862 48.018 162.73 48.009 162.604 47.991V47.118C162.694 47.136 162.781 47.145 162.865 47.145C163.099 47.145 163.294 47.04 163.45 46.83C163.606 46.62 163.723 46.251 163.801 45.723C163.885 45.195 163.927 44.463 163.927 43.527V42.159H167.446V48H166.573V42.771H164.692V43.851C164.692 45.159 164.554 46.182 164.278 46.92C164.002 47.652 163.576 48.018 163 48.018ZM171.517 48.09C169.885 48.09 169.069 47.562 169.069 46.506V43.743C169.069 42.627 169.885 42.069 171.517 42.069C173.167 42.069 173.992 42.624 173.992 43.734V46.506C173.992 47.07 173.764 47.475 173.308 47.721C172.852 47.967 172.255 48.09 171.517 48.09ZM171.535 47.505C172.609 47.505 173.146 47.169 173.146 46.497V43.716C173.146 42.996 172.606 42.636 171.526 42.636C171.004 42.636 170.602 42.717 170.32 42.879C170.044 43.041 169.906 43.32 169.906 43.716V46.497C169.906 47.169 170.449 47.505 171.535 47.505ZM175.609 42.159H179.173V42.771H176.482V48H175.609V42.159ZM180.476 42.159H181.277V46.893L184.58 42.159H185.381V48H184.58V43.185L181.277 48H180.476V42.159ZM189.518 48.09C187.88 48.09 187.061 47.562 187.061 46.506V43.734C187.061 42.618 187.88 42.06 189.518 42.06C190.076 42.06 190.61 42.117 191.12 42.231V42.879C190.544 42.735 190.016 42.663 189.536 42.663C189.302 42.663 189.098 42.678 188.924 42.708C188.75 42.732 188.582 42.777 188.42 42.843C188.072 42.993 187.898 43.287 187.898 43.725V46.461C187.898 47.133 188.456 47.469 189.572 47.469C190.052 47.469 190.58 47.397 191.156 47.253V47.919C190.646 48.033 190.1 48.09 189.518 48.09ZM194.031 42.771H192.051V42.159H196.884V42.771H194.904V48H194.031V42.771ZM198.135 42.159H198.936V46.893L202.239 42.159H203.04V48H202.239V43.185L198.936 48H198.135V42.159ZM208.878 42.159V48H208.005V45.759C207.537 45.999 207.027 46.119 206.475 46.119C205.869 46.119 205.431 45.999 205.161 45.759C204.897 45.513 204.765 45.144 204.765 44.652V42.159H205.629V44.58C205.629 44.916 205.713 45.156 205.881 45.3C206.055 45.438 206.322 45.507 206.682 45.507C206.964 45.507 207.207 45.477 207.411 45.417C207.621 45.357 207.819 45.267 208.005 45.147V42.159H208.878ZM210.663 42.159H214.587V42.771H211.536V44.679H214.29V45.291H211.536V47.388H214.677V48H210.663V42.159ZM218.431 48.09C216.793 48.09 215.974 47.562 215.974 46.506V43.734C215.974 42.618 216.793 42.06 218.431 42.06C218.989 42.06 219.523 42.117 220.033 42.231V42.879C219.457 42.735 218.929 42.663 218.449 42.663C218.215 42.663 218.011 42.678 217.837 42.708C217.663 42.732 217.495 42.777 217.333 42.843C216.985 42.993 216.811 43.287 216.811 43.725V46.461C216.811 47.133 217.369 47.469 218.485 47.469C218.965 47.469 219.493 47.397 220.069 47.253V47.919C219.559 48.033 219.013 48.09 218.431 48.09ZM223.682 44.94C224.006 45.024 224.288 45.165 224.528 45.363C224.768 45.561 224.978 45.831 225.158 46.173L226.112 48H225.239L224.384 46.416C224.216 46.11 224.045 45.879 223.871 45.723C223.697 45.561 223.493 45.45 223.259 45.39C223.031 45.324 222.74 45.291 222.386 45.291V48H221.504V42.159H222.386V44.679C222.746 44.679 223.025 44.646 223.223 44.58C223.421 44.508 223.601 44.355 223.763 44.121L225.158 42.159H226.112L224.447 44.346C224.225 44.634 223.97 44.832 223.682 44.94ZM227.241 42.159H228.042V46.893L231.345 42.159H232.146V48H231.345V43.185L228.042 48H227.241V42.159ZM235.473 45.021L233.412 42.159H234.411L235.968 44.418L237.525 42.159H238.524L236.463 45.021L238.614 48H237.615L235.968 45.624L234.321 48H233.322L235.473 45.021ZM98.166 58.159L95.916 62.965C95.79 63.235 95.673 63.448 95.565 63.604C95.457 63.76 95.328 63.88 95.178 63.964C95.028 64.048 94.842 64.09 94.62 64.09C94.38 64.09 94.128 64.06 93.864 64V63.37C94.038 63.412 94.221 63.433 94.413 63.433C94.611 63.433 94.767 63.376 94.881 63.262C94.995 63.142 95.115 62.947 95.241 62.677L95.34 62.452L93 58.159H93.972L95.736 61.588L97.302 58.159H98.166ZM101.199 64.09C99.5605 64.09 98.7415 63.562 98.7415 62.506V59.734C98.7415 58.618 99.5605 58.06 101.199 58.06C101.757 58.06 102.291 58.117 102.801 58.231V58.879C102.225 58.735 101.697 58.663 101.217 58.663C100.983 58.663 100.779 58.678 100.605 58.708C100.431 58.732 100.263 58.777 100.101 58.843C99.7525 58.993 99.5785 59.287 99.5785 59.725V62.461C99.5785 63.133 100.137 63.469 101.253 63.469C101.733 63.469 102.261 63.397 102.837 63.253V63.919C102.327 64.033 101.781 64.09 101.199 64.09ZM104.182 64.018C104.044 64.018 103.912 64.009 103.786 63.991V63.118C103.876 63.136 103.963 63.145 104.047 63.145C104.281 63.145 104.476 63.04 104.632 62.83C104.788 62.62 104.905 62.251 104.983 61.723C105.067 61.195 105.109 60.463 105.109 59.527V58.159H108.628V64H107.755V58.771H105.874V59.851C105.874 61.159 105.736 62.182 105.46 62.92C105.184 63.652 104.758 64.018 104.182 64.018ZM114.823 58.159L112.573 62.965C112.447 63.235 112.33 63.448 112.222 63.604C112.114 63.76 111.985 63.88 111.835 63.964C111.685 64.048 111.499 64.09 111.277 64.09C111.037 64.09 110.785 64.06 110.521 64V63.37C110.695 63.412 110.878 63.433 111.07 63.433C111.268 63.433 111.424 63.376 111.538 63.262C111.652 63.142 111.772 62.947 111.898 62.677L111.997 62.452L109.657 58.159H110.629L112.393 61.588L113.959 58.159H114.823ZM115.578 58.159H119.142V58.771H116.451V64H115.578V58.159ZM122.78 58.159H126.353V58.78H123.653V60.679H124.526C124.838 60.679 125.093 60.688 125.291 60.706C125.489 60.718 125.684 60.748 125.876 60.796C126.074 60.844 126.233 60.91 126.353 60.994C126.473 61.078 126.569 61.192 126.641 61.336C126.713 61.486 126.749 61.663 126.749 61.867V62.731C126.749 63.577 126.062 64 124.688 64H122.78V58.159ZM124.625 63.406C124.793 63.406 124.928 63.4 125.03 63.388C125.132 63.376 125.258 63.352 125.408 63.316C125.564 63.274 125.684 63.202 125.768 63.1C125.852 62.992 125.894 62.857 125.894 62.695V61.966C125.894 61.714 125.798 61.537 125.606 61.435C125.414 61.327 125.093 61.273 124.643 61.273H123.644V63.406H124.625ZM130.469 64.09C128.837 64.09 128.021 63.562 128.021 62.506V59.743C128.021 58.627 128.837 58.069 130.469 58.069C132.119 58.069 132.944 58.624 132.944 59.734V62.506C132.944 63.07 132.716 63.475 132.26 63.721C131.804 63.967 131.207 64.09 130.469 64.09ZM130.487 63.505C131.561 63.505 132.098 63.169 132.098 62.497V59.716C132.098 58.996 131.558 58.636 130.478 58.636C129.956 58.636 129.554 58.717 129.272 58.879C128.996 59.041 128.858 59.32 128.858 59.716V62.497C128.858 63.169 129.401 63.505 130.487 63.505ZM134.472 64.018C134.334 64.018 134.202 64.009 134.076 63.991V63.118C134.166 63.136 134.253 63.145 134.337 63.145C134.571 63.145 134.766 63.04 134.922 62.83C135.078 62.62 135.195 62.251 135.273 61.723C135.357 61.195 135.399 60.463 135.399 59.527V58.159H138.918V64H138.045V58.771H136.164V59.851C136.164 61.159 136.026 62.182 135.75 62.92C135.474 63.652 135.048 64.018 134.472 64.018ZM140.703 58.159H144.627V58.771H141.576V60.679H144.33V61.291H141.576V63.388H144.717V64H140.703V58.159ZM146.193 58.159H150.117V58.771H147.066V60.679H149.82V61.291H147.066V63.388H150.207V64H146.193V58.159ZM156.143 58.969L154.37 60.13V59.392L156.152 58.159H156.926V64H156.143V58.969ZM161.364 64.09C161.1 64.09 160.884 64.081 160.716 64.063C160.554 64.045 160.38 64.009 160.194 63.955C159.996 63.901 159.837 63.823 159.717 63.721C159.603 63.613 159.507 63.463 159.429 63.271C159.351 63.091 159.312 62.866 159.312 62.596V59.644C159.312 59.374 159.351 59.137 159.429 58.933C159.507 58.729 159.609 58.567 159.735 58.447C159.849 58.345 159.999 58.264 160.185 58.204C160.377 58.138 160.569 58.096 160.761 58.078C160.977 58.066 161.178 58.06 161.364 58.06C161.628 58.06 161.841 58.069 162.003 58.087C162.171 58.105 162.348 58.141 162.534 58.195C162.732 58.255 162.891 58.339 163.011 58.447C163.137 58.555 163.239 58.708 163.317 58.906C163.395 59.104 163.434 59.347 163.434 59.635V62.596C163.434 62.842 163.395 63.061 163.317 63.253C163.239 63.445 163.137 63.595 163.011 63.703C162.891 63.805 162.738 63.889 162.552 63.955C162.366 64.015 162.177 64.051 161.985 64.063C161.817 64.081 161.61 64.09 161.364 64.09ZM161.382 63.559C161.7 63.559 161.946 63.538 162.12 63.496C162.294 63.448 162.42 63.358 162.498 63.226C162.576 63.094 162.615 62.899 162.615 62.641V59.581C162.615 59.299 162.573 59.089 162.489 58.951C162.411 58.807 162.285 58.711 162.111 58.663C161.943 58.615 161.697 58.591 161.373 58.591C161.043 58.591 160.791 58.615 160.617 58.663C160.449 58.711 160.326 58.807 160.248 58.951C160.17 59.089 160.131 59.299 160.131 59.581V62.641C160.131 62.899 160.17 63.094 160.248 63.226C160.332 63.358 160.461 63.448 160.635 63.496C160.809 63.538 161.058 63.559 161.382 63.559ZM167.264 64.018C167.126 64.018 166.994 64.009 166.868 63.991V63.118C166.958 63.136 167.045 63.145 167.129 63.145C167.363 63.145 167.558 63.04 167.714 62.83C167.87 62.62 167.987 62.251 168.065 61.723C168.149 61.195 168.191 60.463 168.191 59.527V58.159H171.71V64H170.837V58.771H168.956V59.851C168.956 61.159 168.818 62.182 168.542 62.92C168.266 63.652 167.84 64.018 167.264 64.018ZM173.495 58.159H177.419V58.771H174.368V60.679H177.122V61.291H174.368V63.388H177.509V64H173.495V58.159ZM180.426 58.771H178.446V58.159H183.279V58.771H181.299V64H180.426V58.771Z" fill="#009DAE"/>
<path fill-rule="evenodd" clip-rule="evenodd" d="M41.4629 90C33.0872 78.9048 24.2262 68.1671 15.021 57.6843C24.1006 64.4538 32.9327 71.3272 41.4629 78.3286V90V90Z" fill="url(#paint0_linear_511_4381)"/>
<path fill-rule="evenodd" clip-rule="evenodd" d="M41.4629 90C49.8386 78.9048 58.6996 68.1671 67.9048 57.6843C58.824 64.4538 49.9919 71.3272 41.4629 78.3286V90V90Z" fill="#009DAE"/>
<path fill-rule="evenodd" clip-rule="evenodd" d="M41.4629 0C49.8386 11.0952 58.6996 21.8317 67.9048 32.3157C58.824 25.545 49.9919 18.6716 41.4629 11.6714V0V0Z" fill="url(#paint1_linear_511_4381)"/>
<path fill-rule="evenodd" clip-rule="evenodd" d="M41.4629 0C33.0872 11.0952 24.2262 21.8317 15.021 32.3157C24.1006 25.545 32.9327 18.6716 41.4629 11.6714V0V0Z" fill="#009DAE"/>
<path fill-rule="evenodd" clip-rule="evenodd" d="M0 44.9994C4.42389 41.6569 8.7041 38.1212 12.8841 34.4465C10.1856 38.0705 7.44479 41.5953 4.65329 44.9994H0H0Z" fill="url(#paint2_linear_511_4381)"/>
<path fill-rule="evenodd" clip-rule="evenodd" d="M0 44.9993C4.42389 48.3417 8.7041 51.8787 12.8841 55.5521C10.1856 51.9282 7.44479 48.4033 4.65329 44.9993H0H0Z" fill="#009DAE"/>
<path fill-rule="evenodd" clip-rule="evenodd" d="M82.9262 44.9993C78.5023 48.3417 74.2209 51.8787 70.0421 55.5521C72.7406 51.9282 75.4814 48.4033 78.2729 44.9993H82.9262V44.9993Z" fill="url(#paint3_linear_511_4381)"/>
<path fill-rule="evenodd" clip-rule="evenodd" d="M82.9262 44.9994C78.5023 41.6569 74.2209 38.1212 70.0421 34.4465C72.7406 38.0705 75.4814 41.5953 78.2729 44.9994H82.9262Z" fill="#009DAE"/>
<path fill-rule="evenodd" clip-rule="evenodd" d="M19.811 47.9311V36.0676L20.2529 36.099L20.5741 36.1171L20.8711 36.099L21.3372 36.0651V47.9311L21.022 47.9045C20.9206 47.9045 20.8518 47.8997 20.8108 47.8876L20.5741 47.8791L20.3109 47.8876L20.0924 47.9045L19.811 47.9311V47.9311ZM37.7867 36.0676H38.1513L38.4954 39.1286L38.8528 42.3406C38.9663 43.3408 39.0352 43.9423 39.0617 44.1501C39.0871 44.3555 39.1245 44.6442 39.174 45.0174L39.5555 47.9311L39.2175 47.9045C39.116 47.9045 39.0436 47.8997 38.9977 47.8876L38.743 47.8791L38.4628 47.8876L38.2346 47.9045L37.9316 47.9311C37.9316 47.466 37.8942 46.8813 37.8157 46.1771C37.7722 45.8147 37.7324 45.4511 37.6949 45.0839L37.4667 42.7368L37.2579 40.7134C37.1806 39.9186 37.1082 39.3424 37.0478 38.9812C36.6288 39.7277 36.2847 40.3402 36.013 40.8258C35.675 41.4358 35.3828 41.9673 35.1401 42.4239C34.9216 42.8382 34.7501 43.1559 34.6318 43.3806C34.5919 43.4616 34.4302 43.7805 34.1404 44.3386C34.0172 44.5753 33.8542 44.893 33.6586 45.2953C33.2191 46.1904 32.8352 47.0058 32.5056 47.7402H32.3124L31.3646 45.7772C30.9999 45.015 30.6184 44.254 30.2115 43.4906L29.0126 41.193L27.8571 38.9812C27.8076 39.433 27.7581 39.8546 27.7183 40.2508C27.6748 40.6434 27.6205 41.077 27.5589 41.5421L27.2763 44.1272L27.0675 46.4477C27.0675 46.6277 27.059 46.885 27.0385 47.2172C27.0216 47.5518 27.0107 47.7897 27.0107 47.9311L26.7584 47.9045C26.6775 47.9045 26.6231 47.8997 26.5881 47.8876L26.401 47.8791L26.1812 47.8876L26.0134 47.9045L25.7768 47.9311L26.378 43.9423L27.0795 39.0041C27.2534 37.6947 27.3717 36.715 27.4406 36.0676L27.8861 36.0712L29.1394 38.5536C29.4002 39.0658 29.7491 39.7362 30.191 40.56C30.6945 41.5083 31.1509 42.3369 31.5602 43.0521C31.9707 43.766 32.2255 44.2105 32.3269 44.3845C32.3788 44.4763 32.5345 44.7336 32.7941 45.1563L34.1935 42.6063L35.5313 40.1578L36.397 38.5657L37.7867 36.0676V36.0676ZM45.5297 36.8829V41.2365H48.2186H48.6846L49.199 41.187L49.7556 41.1471L49.7242 41.4092L49.7073 41.6037L49.7242 41.7825L49.7556 42.0857L49.199 42.0422L48.6846 41.9999H48.2186H45.5297V47.0637C45.642 47.0637 46.1069 47.0529 46.9279 47.0287C47.7477 47.0058 48.3285 46.9949 48.6665 46.9949C48.9044 46.9949 49.135 46.9828 49.3608 46.9562C49.5854 46.9333 49.886 46.8934 50.2651 46.8378L50.2386 47.0239L50.2156 47.2027L50.2072 47.3621C50.2072 47.4708 50.212 47.5554 50.2241 47.6158L50.2651 47.8791H44.0036V36.0676H50.1552L50.1202 36.3804L50.1057 36.5882L50.1202 36.7996L50.1552 37.1028C49.8462 37.0424 49.6119 36.9989 49.4525 36.9784C49.1785 36.9373 48.8923 36.918 48.5977 36.918L46.8639 36.8829H45.5297V36.8829ZM55.8855 44.864L57.8101 41.9625L57.1364 40.8753L56.3745 39.5948L55.8107 38.6901L54.0998 36.0676L54.6431 36.099L55.0331 36.1171L55.4146 36.099L55.9749 36.0615L56.3769 36.7525L56.8539 37.5534L58.7084 40.6893L59.5463 39.3714L60.2913 38.2467L60.8805 37.3287C61.1184 36.9325 61.3574 36.5097 61.5977 36.0651L61.9623 36.099L62.2425 36.1171L62.502 36.0966L62.8836 36.0615L62.589 36.4118L59.9363 40.1034L59.0863 41.3899L63.1142 47.9311L62.7278 47.9045H62.618C62.5829 47.9045 62.531 47.8997 62.4646 47.8876L62.1579 47.8791L61.7184 47.896L61.2053 47.9311C61.0689 47.6713 60.9361 47.4104 60.8057 47.1507C60.604 46.7666 60.3988 46.3897 60.1971 46.0176C59.882 45.4366 59.5608 44.8785 59.2397 44.3494C59.0549 44.0341 58.9306 43.824 58.8678 43.7225C58.6541 43.3722 58.4343 43.0194 58.2086 42.6643C57.8125 43.2562 57.4576 43.8083 57.1424 44.3228L56.1596 45.9971L55.0705 47.9311L54.782 47.896C54.6926 47.896 54.6347 47.89 54.6117 47.8791H54.4318L54.2036 47.8876L54.0249 47.9045L53.7883 47.9311L54.3195 47.1423L55.0802 46.037L55.8855 44.864V44.864Z" fill="url(#paint4_linear_511_4381)"/>
<path fill-rule="evenodd" clip-rule="evenodd" d="M21.575 50.2118V53.8743L21.4724 53.8719C21.4386 53.8719 21.4157 53.8695 21.4024 53.8659L21.3251 53.8623L21.2068 53.8683L21.0703 53.8792V50.2118C20.6719 50.2118 20.2529 50.2359 19.811 50.2818L19.8231 50.1888L19.8291 50.1103L19.8255 50.0547L19.8207 50.0088L19.811 49.9364H22.7764L22.7643 50.0414L22.7595 50.1115L22.7643 50.1816L22.7764 50.283L22.221 50.2359C22.1485 50.2359 22.0701 50.2335 21.9855 50.2287C21.7718 50.2178 21.6354 50.2118 21.575 50.2118V50.2118ZM24.1927 50.2069V51.6493H25.0837H25.2383L25.4085 51.6336L25.5932 51.6203L25.5836 51.7072L25.5775 51.7713L25.5836 51.8305L25.5932 51.9307L25.4085 51.9162L25.2383 51.9029H25.0837H24.1927V53.5808C24.2301 53.5808 24.3846 53.5772 24.6563 53.5699C24.928 53.5615 25.1211 53.5579 25.2334 53.5579C25.3107 53.5579 25.388 53.5542 25.4628 53.5458C25.5377 53.5385 25.6367 53.524 25.7623 53.5059L25.7538 53.5675L25.7466 53.6267L25.743 53.6799C25.743 53.7161 25.7454 53.7439 25.749 53.7644L25.7623 53.8514H23.6868V49.9364H25.7261L25.714 50.0402L25.7091 50.1091L25.714 50.1792L25.7261 50.2794C25.6234 50.2589 25.5462 50.2456 25.493 50.2383C25.4025 50.2251 25.3071 50.2178 25.2093 50.2178L24.6346 50.2069H24.1927ZM29.8155 53.2474L29.7841 53.6098C29.6742 53.6847 29.5475 53.7463 29.4038 53.797C29.2722 53.8417 29.1309 53.8768 28.9788 53.9009C28.8278 53.9251 28.6733 53.9372 28.5163 53.9372C28.2012 53.9372 27.9199 53.8901 27.67 53.7958C27.42 53.7004 27.2087 53.5639 27.0349 53.3851C26.861 53.2039 26.727 52.9865 26.634 52.728C26.5398 52.4695 26.4927 52.1868 26.4927 51.88C26.4927 51.4584 26.5881 51.0948 26.7765 50.7892C26.9648 50.4836 27.2256 50.2492 27.5565 50.0898C27.8873 49.9303 28.2555 49.8506 28.6588 49.8506C28.8001 49.8506 28.9413 49.8602 29.0838 49.8784C29.2251 49.8965 29.3651 49.9279 29.5028 49.969C29.6404 50.0112 29.7696 50.0596 29.894 50.1163C29.8469 50.2359 29.807 50.3833 29.7732 50.5572L29.7334 50.5657C29.6887 50.5077 29.6187 50.4425 29.5221 50.37C29.4255 50.2987 29.2987 50.2299 29.1418 50.1659C28.9848 50.1006 28.8158 50.068 28.6359 50.068C28.3002 50.068 28.0129 50.1502 27.7762 50.3144C27.5396 50.4775 27.3609 50.7022 27.2389 50.9873C27.117 51.2724 27.0566 51.578 27.0566 51.9029C27.0566 52.2629 27.1206 52.5794 27.2498 52.8524C27.379 53.1266 27.5613 53.3392 27.7955 53.489C28.031 53.6388 28.2978 53.7137 28.5936 53.7137C28.7856 53.7137 28.9643 53.6847 29.1321 53.6279C29.2987 53.5699 29.4376 53.5071 29.5475 53.4371C29.6573 53.367 29.7467 53.3042 29.8155 53.2474V53.2474ZM33.7745 51.5864V49.9364L33.9218 49.9472L34.0281 49.9533L34.1295 49.9472L34.2804 49.9351V53.8683L34.1766 53.8599C34.1452 53.8599 34.1223 53.8574 34.109 53.8538L34.0281 53.8514L33.9412 53.8538L33.8675 53.8599L33.7745 53.8683V51.8909L33.3713 51.88L32.9028 51.857H32.5684H32.2315C32.1759 51.857 32.0914 51.8607 31.9791 51.8679C31.8669 51.8751 31.7932 51.88 31.7606 51.88L31.3561 51.8909V53.8683L31.2523 53.8599C31.2197 53.8599 31.1955 53.8574 31.1823 53.8538L31.1026 53.8514L30.9879 53.8574L30.8502 53.8683V49.9364L30.9963 49.9472L31.1026 49.9533L31.2028 49.9472L31.3561 49.9351V51.5877L32.5684 51.6154C32.741 51.607 32.9426 51.6009 33.1757 51.5949C33.4087 51.5889 33.6079 51.5864 33.7745 51.5864V51.5864ZM38.9361 49.9364V53.8683H38.7611C38.6886 53.7717 38.5896 53.6545 38.4641 53.5192L35.9792 50.7711L35.9249 50.7686V53.8683L35.838 53.8574L35.7643 53.8514L35.7076 53.8538L35.6629 53.8599L35.6037 53.8683V49.9364H35.8271L38.5546 52.8971H38.6138V49.9351L38.7031 49.9472L38.7744 49.9533L38.8408 49.9472L38.9361 49.9364V49.9364ZM43.7053 51.8607C43.7053 51.6722 43.6957 51.5128 43.6776 51.3811C43.6595 51.2506 43.622 51.1165 43.5665 50.9788C43.511 50.8411 43.4373 50.7131 43.3443 50.5959C43.2502 50.4775 43.1403 50.3785 43.0159 50.2963C42.8916 50.2154 42.7527 50.1526 42.5994 50.1067C42.446 50.062 42.2963 50.0402 42.1478 50.0402C41.8991 50.0402 41.6733 50.0861 41.4717 50.1779C41.27 50.2685 41.0986 50.399 40.9573 50.5693C40.8173 50.7384 40.711 50.9438 40.6374 51.1842C40.5649 51.4246 40.5287 51.6867 40.5287 51.9718C40.5287 52.2508 40.5673 52.4997 40.6458 52.7183C40.7231 52.9394 40.8354 53.1266 40.9815 53.2824C41.1288 53.4371 41.2978 53.553 41.491 53.6303C41.6842 53.7089 41.8858 53.7475 42.0971 53.7475C42.3688 53.7475 42.6078 53.6895 42.8119 53.5724C43.0159 53.4552 43.1838 53.3018 43.3142 53.1121C43.4446 52.9225 43.5423 52.7135 43.6075 52.4864C43.6727 52.2593 43.7053 52.0515 43.7053 51.8607V51.8607ZM42.0802 53.9372C41.7687 53.9372 41.4801 53.8901 41.2181 53.7946C40.9561 53.6992 40.7303 53.5615 40.5444 53.3803C40.3585 53.1991 40.2148 52.9829 40.1134 52.7304C40.0638 52.6023 40.0252 52.4731 40.0023 52.3378C39.9781 52.2049 39.9648 52.06 39.9648 51.9029C39.9648 51.5949 40.0192 51.3146 40.1254 51.0598C40.2317 50.8049 40.3838 50.5874 40.583 50.4026C40.7738 50.2275 40.9972 50.091 41.2543 49.9943C41.5115 49.8977 41.7904 49.8506 42.0923 49.8506C42.3688 49.8506 42.638 49.8892 42.9 49.9665C43.162 50.0451 43.395 50.1634 43.5991 50.3241C43.8044 50.4848 43.9674 50.6901 44.0881 50.9402C44.2088 51.1902 44.2692 51.4814 44.2692 51.8148C44.2692 52.2315 44.1762 52.5987 43.9915 52.9213C43.8068 53.2426 43.546 53.4926 43.2115 53.6714C42.8771 53.849 42.4992 53.9372 42.0802 53.9372V53.9372ZM46.6152 50.2118V53.8743L46.5113 53.8719C46.4787 53.8719 46.4558 53.8695 46.4413 53.8659L46.364 53.8623L46.2469 53.8683L46.1093 53.8792V50.2118C45.712 50.2118 45.2931 50.2359 44.8512 50.2818L44.8632 50.1888L44.8681 50.1103L44.8657 50.0547L44.8596 50.0088L44.8512 49.9364H47.8165L47.8044 50.0414L47.7984 50.1115L47.8044 50.1816L47.8165 50.283L47.2611 50.2359C47.1875 50.2359 47.109 50.2335 47.0257 50.2287C46.812 50.2178 46.6755 50.2118 46.6152 50.2118V50.2118ZM49.0613 50.149V51.7278L49.1833 51.7302H49.3318C49.5202 51.7302 49.6783 51.7181 49.8051 51.6964C50.0261 51.6517 50.206 51.5562 50.34 51.4125C50.4752 51.2675 50.544 51.0888 50.544 50.8762C50.544 50.4667 50.3315 50.2263 49.9101 50.155C49.8474 50.1429 49.729 50.1381 49.5515 50.1381C49.5214 50.1381 49.4791 50.1393 49.4248 50.1429C49.3704 50.1477 49.3306 50.149 49.3064 50.149C49.2835 50.149 49.2449 50.149 49.1905 50.149C49.1374 50.149 49.0927 50.149 49.0613 50.149V50.149ZM48.5554 53.8683V49.9364H49.7725C50.2108 49.9364 50.5332 50.0088 50.7384 50.1538C50.9461 50.2987 51.0487 50.5174 51.0487 50.8121C51.0487 50.9692 51.0173 51.1105 50.9557 51.2361C50.8918 51.3606 50.8048 51.4681 50.6925 51.5587C50.5802 51.648 50.4559 51.7205 50.317 51.7749C50.1782 51.8305 50.0297 51.8727 49.8715 51.9029L51.056 53.3972L51.3324 53.7246L51.4399 53.8683L51.3059 53.8599H51.2697C51.2564 53.8599 51.2383 53.8574 51.2153 53.8538L51.1091 53.8514H51.0149L50.9219 53.8574L50.7819 53.8683C50.614 53.6328 50.4921 53.4673 50.4172 53.3694L49.7423 52.4876L49.2787 51.944L49.0613 51.9428V53.8683L48.9575 53.8599C48.9237 53.8599 48.9008 53.8574 48.8875 53.8538L48.8078 53.8514L48.6919 53.8574L48.5554 53.8683V53.8683ZM53.7907 49.8506L55.5137 53.8683L55.3929 53.8599H55.3591C55.3494 53.8599 55.335 53.8574 55.312 53.8538L55.2166 53.8514L55.073 53.8574L54.91 53.8683C54.8122 53.5796 54.7132 53.3114 54.6166 53.0602C54.5188 52.8089 54.4161 52.5613 54.3075 52.3161H52.8489L52.6219 52.8814L52.4372 53.3755C52.3732 53.5542 52.3213 53.7185 52.2778 53.8683L52.1909 53.8599C52.1631 53.8599 52.1438 53.8574 52.1317 53.8538L52.0653 53.8514L51.9953 53.8538L51.9398 53.8599L51.8673 53.8683L53.6591 49.8506H53.7907V49.8506ZM54.2193 52.0745L53.5818 50.6007L52.9564 52.0745H54.2193ZM56.913 50.1659V53.5929C56.9335 53.5929 56.9613 53.5929 56.9975 53.5965C57.035 53.5977 57.076 53.6026 57.1231 53.6098L57.4117 53.6267H57.6423C58.0492 53.6267 58.3679 53.5699 58.5961 53.4552C58.8871 53.3102 59.0996 53.0928 59.2288 52.8065C59.3592 52.519 59.4232 52.1856 59.4232 51.8051C59.4232 51.4898 59.3918 51.2313 59.3278 51.0259C59.265 50.8218 59.1624 50.6527 59.0199 50.5222C58.8775 50.3918 58.6927 50.2951 58.4633 50.2347C58.2339 50.1743 57.9586 50.1429 57.6363 50.1429C57.5976 50.1429 57.5288 50.1453 57.431 50.149C57.332 50.1526 57.2728 50.155 57.2523 50.155L56.913 50.1659V50.1659ZM56.4071 53.8514V49.9364H57.7111H58.1071C58.38 49.9364 58.6154 49.9581 58.8135 50.004C59.0127 50.0487 59.1986 50.1417 59.3725 50.2818C59.5717 50.4461 59.725 50.6563 59.8301 50.91C59.9339 51.1649 59.987 51.4342 59.987 51.7181C59.987 51.9742 59.9581 52.2073 59.9001 52.4175C59.8422 52.6265 59.7576 52.8113 59.649 52.972C59.5391 53.1339 59.4111 53.28 59.2626 53.4129C59.1503 53.5144 59.0235 53.5953 58.8811 53.6581C58.8195 53.6835 58.7519 53.7089 58.6794 53.7318C58.607 53.756 58.5333 53.7741 58.4597 53.7886C58.386 53.8019 58.3124 53.8139 58.2399 53.8248C58.1687 53.8345 58.1023 53.8393 58.0431 53.8393L57.5264 53.8514H56.4071ZM61.5446 50.2069V51.6493H62.4368H62.5902L62.7616 51.6336L62.9464 51.6203L62.9355 51.7072L62.9295 51.7713L62.9355 51.8305L62.9464 51.9307L62.7616 51.9162L62.5902 51.9029H62.4368H61.5446V53.5808C61.582 53.5808 61.7366 53.5772 62.0082 53.5699C62.2799 53.5615 62.4731 53.5579 62.5854 53.5579C62.6638 53.5579 62.7399 53.5542 62.8148 53.5458C62.8896 53.5385 62.9886 53.524 63.1142 53.5059L63.1057 53.5675L63.0985 53.6267L63.0949 53.6799C63.0949 53.7161 63.0973 53.7439 63.1009 53.7644L63.1142 53.8514H61.0399V49.9364H63.078L63.0671 50.0402L63.0623 50.1091L63.0671 50.1792L63.078 50.2794C62.9753 50.2589 62.8981 50.2456 62.8449 50.2383C62.7544 50.2251 62.6602 50.2178 62.5624 50.2178L61.9877 50.2069H61.5446V50.2069Z" fill="url(#paint5_linear_511_4381)"/>
<defs>
<linearGradient id="paint0_linear_511_4381" x1="40.9998" y1="91" x2="14.9998" y2="58" gradientUnits="userSpaceOnUse">
<stop stop-color="#009DAE"/>
<stop offset="1" stop-color="#CCEBEF"/>
</linearGradient>
<linearGradient id="paint1_linear_511_4381" x1="40.9998" y1="1.53328e-07" x2="67.9998" y2="32" gradientUnits="userSpaceOnUse">
<stop stop-color="#009DAE"/>
<stop offset="1" stop-color="#CCEBEF"/>
</linearGradient>
<linearGradient id="paint2_linear_511_4381" x1="-0.5" y1="45" x2="14.7508" y2="40.6782" gradientUnits="userSpaceOnUse">
<stop stop-color="#009DAE"/>
<stop offset="1" stop-color="#CCEBEF"/>
</linearGradient>
<linearGradient id="paint3_linear_511_4381" x1="83.0001" y1="44.9999" x2="68.1788" y2="49.4957" gradientUnits="userSpaceOnUse">
<stop stop-color="#009DAE"/>
<stop offset="1" stop-color="#CCEBEF"/>
</linearGradient>
<linearGradient id="paint4_linear_511_4381" x1="41.4626" y1="36.0615" x2="41.4626" y2="47.9311" gradientUnits="userSpaceOnUse">
<stop stop-color="#4CBAC6"/>
<stop offset="1" stop-color="#009DAE"/>
</linearGradient>
<linearGradient id="paint5_linear_511_4381" x1="41.4626" y1="49.8506" x2="41.4626" y2="53.9372" gradientUnits="userSpaceOnUse">
<stop stop-color="#4CBAC6"/>
<stop offset="1" stop-color="#009DAE"/>
</linearGradient>
</defs>
</svg>
