<svg xmlns="http://www.w3.org/2000/svg" width="155.569" height="68.528" viewBox="0 0 155.569 68.528">
  <g id="Сгруппировать_122" data-name="Сгруппировать 122" transform="translate(-48.598 -26)">
    <path id="Контур_74" data-name="Контур 74" d="M37.88,11.845V0L65.812,16.127,55.556,22.053Z" transform="translate(40.811 26)" fill="#d92b3a"/>
    <path id="Контур_75" data-name="Контур 75" d="M60.85,28.579,71.106,22.74V54.629L60.85,49.211Z" transform="translate(36.089 21.325)" fill="#d92b3a"/>
    <path id="Контур_77" data-name="Контур 77" d="M27.932,11.845V0L0,16.127l10.256,5.926Z" transform="translate(48.598 26)" fill="#d92b3a"/>
    <path id="Контур_78" data-name="Контур 78" d="M27.932,68.708V80.553L0,64.426,10.256,58.5Z" transform="translate(48.598 13.975)" fill="#d92b3a"/>
    <path id="Контур_76" data-name="Контур 76" d="M37.88,68.708V80.553L65.812,64.426,55.556,58.5Z" transform="translate(40.811 13.975)" fill="#d92b3a"/>
    <path id="Контур_79" data-name="Контур 79" d="M18.836,40.316,0,29.44V51.192Z" transform="translate(48.598 19.948)"/>
    <path id="Контур_54" data-name="Контур 54" d="M104.83,60.181V33.865l.551.6L88.615,60.181H84.78V26.76h4.649V53.439l-.551-.589,16.8-26.09h3.759V60.181Z" transform="translate(39.373 5.266)"/>
    <path id="Контур_55" data-name="Контур 55" d="M108.89,26.76h23.6v4.474h-23.6Zm9.461,2.807h4.687v30.7h-4.687Z" transform="translate(45.473 5.266)"/>
    <path id="Контур_56" data-name="Контур 56" d="M135.637,59.084a10.489,10.489,0,0,1-4.073-4.386,14.223,14.223,0,0,1-1.454-6.554v-9.16a14.235,14.235,0,0,1,1.454-6.566,10.489,10.489,0,0,1,4.073-4.373,11.8,11.8,0,0,1,6.115-1.554,11.567,11.567,0,0,1,5.288,1.253,11.278,11.278,0,0,1,4.035,3.484,13.032,13.032,0,0,1,2.193,5.226h-4.8A7.519,7.519,0,0,0,147,33.658a7.055,7.055,0,0,0-2.406-1.9,6.454,6.454,0,0,0-8.772,3.1,9.411,9.411,0,0,0-.852,4.16v9.173a9.386,9.386,0,0,0,.852,4.135,6.378,6.378,0,0,0,2.381,2.769,6.579,6.579,0,0,0,3.6.977,6.855,6.855,0,0,0,2.857-.614,6.654,6.654,0,0,0,2.393-1.842,7.355,7.355,0,0,0,1.466-2.895h4.8a12.819,12.819,0,0,1-2.256,5.238,11.278,11.278,0,0,1-9.311,4.724,11.918,11.918,0,0,1-6.115-1.591Z" transform="translate(50.848 5.196)"/>
    <path id="Контур_57" data-name="Контур 57" d="M175.406,34.483V29.324l.11.123-3.3,5.049h-.754V27.912h.916v5.249l-.11-.123,3.308-5.158h.748v6.6Z" transform="translate(-47.92 45.732)"/>
    <path id="Контур_58" data-name="Контур 58" d="M181.52,27.93h.954v6.577h-.922Zm.574,2.9h3.65v.877h-3.65Zm3.166-2.9h.922v6.577h-.922Z" transform="translate(-51.494 45.715)"/>
    <path id="Контур_59" data-name="Контур 59" d="M191.27,27.93h.922v6.577h-.922Zm.574,2.9h3.649v.877h-3.649Zm3.166-2.9h.922v6.577h-.922Z" transform="translate(-54.956 45.715)"/>
    <path id="Контур_60" data-name="Контур 60" d="M201.912,34.218a1.992,1.992,0,0,1-.812-.851,2.7,2.7,0,0,1-.29-1.29v-1.87a2.7,2.7,0,0,1,.29-1.29,1.992,1.992,0,0,1,.812-.851,2.624,2.624,0,0,1,2.424,0,2.07,2.07,0,0,1,.812.851,2.773,2.773,0,0,1,.284,1.29v1.87a2.773,2.773,0,0,1-.284,1.29,2.07,2.07,0,0,1-.812.851,2.579,2.579,0,0,1-2.424,0Zm1.934-.793a1.212,1.212,0,0,0,.477-.522,1.657,1.657,0,0,0,.174-.78V30.188a1.657,1.657,0,0,0-.174-.78,1.212,1.212,0,0,0-.477-.522,1.509,1.509,0,0,0-1.431,0,1.225,1.225,0,0,0-.484.522,1.741,1.741,0,0,0-.168.78v1.934a1.742,1.742,0,0,0,.168.78,1.225,1.225,0,0,0,.484.522A1.464,1.464,0,0,0,203.846,33.425Z" transform="translate(-58.347 45.771)"/>
    <path id="Контур_61" data-name="Контур 61" d="M210.16,27.929h.916v6.577h-.916Zm.542,5.719h1.78a1.573,1.573,0,0,0,1.025-.264.922.922,0,0,0,.322-.748h0a1.328,1.328,0,0,0-.116-.58.845.845,0,0,0-.368-.368,1.425,1.425,0,0,0-.645-.129h-2v-.845h2.005a.959.959,0,0,0,.742-1.689,1.328,1.328,0,0,0-.864-.239H210.7v-.858h2.05a2.3,2.3,0,0,1,1.064.219,1.419,1.419,0,0,1,.645.613,1.979,1.979,0,0,1,.213.948,1.534,1.534,0,0,1-.135.645,1.212,1.212,0,0,1-.4.5,1.444,1.444,0,0,1-.645.284,1.419,1.419,0,0,1,.683.284,1.463,1.463,0,0,1,.445.561,1.689,1.689,0,0,1,.155.722h0a1.87,1.87,0,0,1-.232.941,1.644,1.644,0,0,1-.677.645,2.225,2.225,0,0,1-1.025.219H210.7Z" transform="translate(-61.668 45.716)"/>
    <path id="Контур_62" data-name="Контур 62" d="M220.671,27.93h.787l2.437,6.577h-1L221.078,29.2l-1.825,5.307h-.993Zm-1.29,4.256h3.462v.877h-3.462Z" transform="translate(-64.545 45.715)"/>
    <path id="Контур_63" data-name="Контур 63" d="M228.52,27.93h.954v6.577h-.922Zm.574,5.7h4.378v.877h-4.378Zm3.166-5.7h.922v6.577h-.922Zm.883,5.7h.922v2.237h-.922Z" transform="translate(-68.188 45.715)"/>
    <path id="Контур_64" data-name="Контур 64" d="M242.907,34.483V29.324l.11.123L239.722,34.5H239V27.912h.909v5.249l-.11-.123,3.308-5.158h.748v6.6Z" transform="translate(-71.911 45.732)"/>
    <path id="Контур_65" data-name="Контур 65" d="M249.892,34.218a2.07,2.07,0,0,1-.812-.851,2.7,2.7,0,0,1-.29-1.29v-1.87a2.7,2.7,0,0,1,.29-1.29,2.07,2.07,0,0,1,.812-.851,2.624,2.624,0,0,1,2.424,0,2.07,2.07,0,0,1,.812.851,2.689,2.689,0,0,1,.284,1.29v1.87a2.689,2.689,0,0,1-.284,1.29,2.07,2.07,0,0,1-.812.851,2.579,2.579,0,0,1-2.424,0Zm1.934-.793a1.212,1.212,0,0,0,.477-.522,1.657,1.657,0,0,0,.174-.78V30.188a1.657,1.657,0,0,0-.174-.78,1.212,1.212,0,0,0-.477-.522,1.509,1.509,0,0,0-1.431,0,1.289,1.289,0,0,0-.484.522,1.741,1.741,0,0,0-.168.78v1.934a1.741,1.741,0,0,0,.168.78,1.289,1.289,0,0,0,.484.522,1.464,1.464,0,0,0,1.431,0Z" transform="translate(-75.388 45.771)"/>
    <path id="Контур_66" data-name="Контур 66" d="M258.14,27.93h.922v6.577h-.922Zm.574,2.9h3.649v.877h-3.669Zm3.159-2.9h.922v6.577h-.922Z" transform="translate(-78.711 45.715)"/>
    <path id="Контур_67" data-name="Контур 67" d="M267.89,27.93h.922v6.577h-.922Zm.574,2.9h3.65v.877h-3.65Zm3.159-2.9h.928v6.577h-.928Z" transform="translate(-82.175 45.715)"/>
    <path id="Контур_68" data-name="Контур 68" d="M277.64,27.93h.922v6.577h-.922Zm.477,5.7h1.9a1.083,1.083,0,0,0,.542-.129.819.819,0,0,0,.342-.368,1.56,1.56,0,0,0,0-1.18.806.806,0,0,0-.342-.374,1.019,1.019,0,0,0-.542-.129h-1.9v-.9h1.863a2.366,2.366,0,0,1,1.07.226,1.56,1.56,0,0,1,.677.645,2.579,2.579,0,0,1,0,2.128,1.547,1.547,0,0,1-.677.645,2.282,2.282,0,0,1-1.07.232h-1.863Zm5.635.877h-.922V27.93h.922Z" transform="translate(-85.637 45.715)"/>
    <path id="Контур_69" data-name="Контур 69" d="M289.64,27.93h.922v6.577h-.922Zm.451,0h3.772v.877h-3.772Zm0,2.869h3.276v.883h-3.276Zm0,2.831h3.772v.877h-3.772Z" transform="translate(-89.9 45.715)"/>
    <path id="Контур_70" data-name="Контур 70" d="M170.09,43h4.278v.812H170.09Zm1.712.5h.853v5.564H171.8Z" transform="translate(-47.477 40.072)"/>
    <path id="Контур_71" data-name="Контур 71" d="M177.65,43h.806v5.8h-.806Zm.387,0h3.321v.774h-3.321Zm0,2.528h2.882v.767h-2.882Zm0,2.482h3.321v.767h-3.321Z" transform="translate(-50.119 40.362)"/>
    <path id="Контур_72" data-name="Контур 72" d="M186.212,45.457,187.662,43h.922l-1.934,3.127-1.547,2.65h-.9Zm.032.767-.122-.2L184.245,43h.909l1.4,2.354.129.219,1.973,3.224h-.909Z" transform="translate(-52.444 40.362)"/>
    <path id="Контур_73" data-name="Контур 73" d="M192.47,43h.806v5.8h-.806Zm.5,2.579H196.2v.774h-3.224ZM195.752,43h.806v5.8h-.806Z" transform="translate(-55.383 40.362)"/>
    <path id="Контур_43" data-name="Контур 43" d="M201.81,48.516a1.844,1.844,0,0,1-.709-.748,2.4,2.4,0,0,1-.251-1.122V45.008a2.392,2.392,0,0,1,.251-1.116,1.844,1.844,0,0,1,.709-.748,2.289,2.289,0,0,1,2.134,0,1.844,1.844,0,0,1,.709.748,2.392,2.392,0,0,1,.251,1.116v1.638a2.4,2.4,0,0,1-.251,1.122,1.844,1.844,0,0,1-.709.748,2.289,2.289,0,0,1-2.134,0Zm1.715-.7a1.109,1.109,0,0,0,.419-.458,1.464,1.464,0,0,0,.148-.683v-1.7a1.445,1.445,0,0,0-.148-.683,1.07,1.07,0,0,0-.419-.458,1.29,1.29,0,0,0-1.257,0,1.122,1.122,0,0,0-.426.458,1.521,1.521,0,0,0-.148.683v1.7a1.541,1.541,0,0,0,.148.683,1.167,1.167,0,0,0,.426.458A1.29,1.29,0,0,0,203.526,47.819Z" transform="translate(-58.358 40.404)"/>
    <path id="Контур_44" data-name="Контур 44" d="M208.56,47.991a.967.967,0,0,0,.567-.161.942.942,0,0,0,.316-.5,3.045,3.045,0,0,0,.1-.883V43h.812v3.417a4.1,4.1,0,0,1-.181,1.348,1.4,1.4,0,0,1-.554.767,1.747,1.747,0,0,1-.987.245h-.077Zm1.5-4.991h2.766v.774h-2.766Zm2.334,0h.812v5.8h-.812Z" transform="translate(-61.098 40.362)"/>
    <path id="Контур_45" data-name="Контур 45" d="M218.757,48.515a1.844,1.844,0,0,1-.709-.748,2.4,2.4,0,0,1-.258-1.122V45.008a2.392,2.392,0,0,1,.258-1.116,1.844,1.844,0,0,1,.709-.748,2.134,2.134,0,0,1,1.064-.264,2.1,2.1,0,0,1,1.064.264,1.818,1.818,0,0,1,.716.748,2.392,2.392,0,0,1,.251,1.116v1.638a2.4,2.4,0,0,1-.251,1.122,1.819,1.819,0,0,1-.716.748,2.1,2.1,0,0,1-1.064.264A2.134,2.134,0,0,1,218.757,48.515Zm1.7-.7a1.109,1.109,0,0,0,.419-.458,1.463,1.463,0,0,0,.148-.683v-1.7a1.444,1.444,0,0,0-.148-.683,1.071,1.071,0,0,0-.419-.458,1.2,1.2,0,0,0-.645-.161,1.173,1.173,0,0,0-.645.161,1.122,1.122,0,0,0-.426.458,1.522,1.522,0,0,0-.148.683v1.7a1.541,1.541,0,0,0,.148.683,1.167,1.167,0,0,0,.426.458,1.238,1.238,0,0,0,.645.161,1.29,1.29,0,0,0,.645-.161Z" transform="translate(-64.378 40.404)"/>
    <path id="Контур_46" data-name="Контур 46" d="M226,43h.812v5.8H226Zm.4,0h2.824v.774h-2.837Z" transform="translate(-67.295 40.362)"/>
    <path id="Контур_47" data-name="Контур 47" d="M235.966,48.758V44.244l.084.045-2.9,4.443h-.645V43h.806v4.61l-.1-.1,2.9-4.514h.645v5.8Z" transform="translate(-69.606 40.362)"/>
    <path id="Контур_48" data-name="Контур 48" d="M244.81,48.755V44.241l.1.1L242,48.787h-.645V43h.8v4.61l-.1-.1,2.908-4.514h.645v5.8Z" transform="translate(-72.749 40.365)"/>
    <path id="Контур_49" data-name="Контур 49" d="M259.57,48.509a1.772,1.772,0,0,1-.709-.754,2.423,2.423,0,0,1-.251-1.128V45.04a2.449,2.449,0,0,1,.251-1.135,1.844,1.844,0,0,1,.7-.754,2.141,2.141,0,0,1,1.973-.058,1.933,1.933,0,0,1,.7.606,2.288,2.288,0,0,1,.38.9h-.832a1.334,1.334,0,0,0-.251-.484,1.353,1.353,0,0,0-.419-.322,1.1,1.1,0,0,0-.49-.116,1.141,1.141,0,0,0-.645.168,1.122,1.122,0,0,0-.413.484,1.631,1.631,0,0,0-.148.716v1.586a1.656,1.656,0,0,0,.148.709,1.089,1.089,0,0,0,.413.484,1.141,1.141,0,0,0,.645.168,1.186,1.186,0,0,0,.909-.426,1.29,1.29,0,0,0,.251-.5h.832a2.23,2.23,0,0,1-.387.9,1.934,1.934,0,0,1-.7.606,1.967,1.967,0,0,1-.909.213A2.031,2.031,0,0,1,259.57,48.509Z" transform="translate(-78.875 40.404)"/>
    <path id="Контур_50" data-name="Контур 50" d="M266.49,43h.806v5.8h-.806Zm.477,5.029h1.567a1.367,1.367,0,0,0,.9-.239.806.806,0,0,0,.284-.645h0a1.207,1.207,0,0,0-.1-.5.709.709,0,0,0-.322-.322,1.173,1.173,0,0,0-.561-.116h-1.76V45.43h1.786a.864.864,0,0,0,.677-1.5,1.154,1.154,0,0,0-.761-.213h-1.651V43h1.734a2.031,2.031,0,0,1,.935.193,1.289,1.289,0,0,1,.567.542,1.761,1.761,0,0,1,.187.832,1.368,1.368,0,0,1-.116.561,1.122,1.122,0,0,1-.355.445,1.245,1.245,0,0,1-.587.245,1.251,1.251,0,0,1,.606.251,1.206,1.206,0,0,1,.387.49,1.483,1.483,0,0,1,.135.645h0a1.573,1.573,0,0,1-.206.825,1.392,1.392,0,0,1-.587.555,2,2,0,0,1-.9.193h-1.863Z" transform="translate(-81.678 40.363)"/>
    <path id="Контур_51" data-name="Контур 51" d="M275.664,46.065l.813.181-1.406,2.5h-.961Zm-.709.148a1.573,1.573,0,0,1-.593-.606,2.109,2.109,0,0,1,0-1.818,1.515,1.515,0,0,1,.587-.606,1.773,1.773,0,0,1,.883-.213h1.9v.767h-1.934a.742.742,0,0,0-.413.123.78.78,0,0,0-.271.335,1.115,1.115,0,0,0-.1.5,1.146,1.146,0,0,0,.1.5.78.78,0,0,0,.271.335.754.754,0,0,0,.413.116h1.934v.774h-1.9A1.747,1.747,0,0,1,274.955,46.213Zm2.308-3.224h.812v5.8h-.812Z" transform="translate(-84.383 40.373)"/>
    <path id="Контур_52" data-name="Контур 52" d="M283.059,48.585a1.586,1.586,0,0,1-.677-.529,1.761,1.761,0,0,1-.322-.832h.825a.864.864,0,0,0,.387.561,1.477,1.477,0,0,0,.793.2,1.077,1.077,0,0,0,.748-.245.9.9,0,0,0,.258-.7h0a1,1,0,0,0-.232-.709.845.845,0,0,0-.645-.251h-.845v-.767h.845a.767.767,0,0,0,.58-.219.858.858,0,0,0,.206-.645v-.039a.748.748,0,0,0-.232-.593,1.019,1.019,0,0,0-.677-.2,1.244,1.244,0,0,0-.7.187.948.948,0,0,0-.393.535h-.832a2.019,2.019,0,0,1,.348-.812,1.605,1.605,0,0,1,.645-.516,2.147,2.147,0,0,1,.89-.174,2.488,2.488,0,0,1,.98.174,1.29,1.29,0,0,1,.613.5,1.581,1.581,0,0,1,.206.825h0a1.509,1.509,0,0,1-.2.793,1.231,1.231,0,0,1-.574.5,1.006,1.006,0,0,1,.645.464,1.767,1.767,0,0,1,.226.929h0a1.734,1.734,0,0,1-.219.9,1.418,1.418,0,0,1-.645.574,2.463,2.463,0,0,1-1.025.2A2.489,2.489,0,0,1,283.059,48.585Z" transform="translate(-87.207 40.42)"/>
    <path id="Контур_53" data-name="Контур 53" d="M293.417,48.758V44.244l.1.1-2.869,4.41H290V43h.8v4.61l-.155-.1,2.9-4.514h.645v5.8Z" transform="translate(-90.024 40.362)"/>
  </g>
</svg>
