<svg width="97" height="40" viewBox="0 0 97 40" fill="none" xmlns="http://www.w3.org/2000/svg">
<path fill-rule="evenodd" clip-rule="evenodd" d="M0 26.5604V0.0135131L0.988847 0.0837955L1.70752 0.12434L2.37215 0.0837955L3.41504 0.00810991V26.5604L2.70987 26.5009C2.48292 26.5009 2.32893 26.4901 2.23707 26.4631L1.70752 26.4441L1.11853 26.4631L0.629512 26.5009L0 26.5604ZM40.224 0.0135131H41.0399L41.8099 6.86309L42.6097 14.0505C42.8636 16.2887 43.0176 17.6348 43.0771 18.0997C43.1338 18.5593 43.2176 19.2053 43.3283 20.0405L44.1821 26.5604L43.4256 26.5009C43.1986 26.5009 43.0365 26.4901 42.9339 26.4631L42.3638 26.4441L41.737 26.4631L41.2263 26.5009L40.5482 26.5604C40.5482 25.5197 40.4644 24.2114 40.2888 22.6355C40.1916 21.8246 40.1024 21.011 40.0187 20.1892L39.508 14.9372L39.0406 10.4095C38.8677 8.63089 38.7056 7.34154 38.5705 6.53332C37.633 8.20381 36.863 9.57427 36.2551 10.6609C35.4986 12.026 34.8448 13.2153 34.3017 14.2371C33.8127 15.1642 33.429 15.8751 33.1643 16.3779C33.0751 16.559 32.7131 17.2726 32.0646 18.5214C31.7891 19.0512 31.4243 19.7621 30.9866 20.6623C30.0032 22.6652 29.144 24.4898 28.4064 26.1333H27.9741L25.8533 21.7408C25.0373 20.0351 24.1836 18.3322 23.2731 16.6239L20.5902 11.4826L18.0046 6.53332C17.8938 7.54427 17.7831 8.48763 17.6939 9.37424C17.5966 10.2527 17.4751 11.2231 17.3373 12.2638L16.7051 18.0484L16.2376 23.241C16.2376 23.6437 16.2187 24.2195 16.1728 24.9628C16.135 25.7116 16.1107 26.2441 16.1107 26.5604L15.546 26.5009C15.365 26.5009 15.2434 26.4901 15.165 26.4631L14.7463 26.4441L14.2545 26.4631L13.879 26.5009L13.3495 26.5604L14.6949 17.6348L16.2647 6.58468C16.6537 3.65455 16.9185 1.46236 17.0725 0.0135131L18.0695 0.021623L20.8739 5.57643C21.4575 6.72253 22.2383 8.22273 23.2271 10.0662C24.3538 12.1881 25.375 14.0424 26.2909 15.6427C27.2096 17.2402 27.7796 18.2349 28.0066 18.6241C28.1227 18.8296 28.4713 19.4053 29.0522 20.3514L32.1835 14.6452L35.1771 9.1661L37.1143 5.60346L40.224 0.0135131ZM57.5505 1.83809V11.5799H63.5673H64.6102L65.7611 11.4691L67.0067 11.3799L66.9364 11.9665L66.8986 12.4017L66.9364 12.8017L67.0067 13.4802L65.7611 13.3829L64.6102 13.2883H63.5673H57.5505V24.6195C57.8017 24.6195 58.8419 24.5952 60.6791 24.5412C62.5136 24.4898 63.8132 24.4655 64.5697 24.4655C65.1019 24.4655 65.618 24.4385 66.1232 24.379C66.6257 24.3276 67.2985 24.2384 68.1468 24.1141L68.0874 24.5304L68.036 24.9304L68.0171 25.2872C68.0171 25.5305 68.0279 25.7197 68.0549 25.8549L68.1468 26.4441H54.1354V0.0135131H67.9009L67.8226 0.71361L67.7902 1.17854L67.8226 1.65158L67.9009 2.33004C67.2093 2.19489 66.6852 2.09758 66.3285 2.05163C65.7152 1.95972 65.0749 1.91648 64.4157 1.91648L60.5359 1.83809H57.5505ZM80.7236 19.6973L85.0302 13.2045L83.5226 10.7717L81.8178 7.90648L80.556 5.88188L76.7276 0.0135131L77.9434 0.0837955L78.8161 0.12434L79.6699 0.0837955L80.9235 0L81.8232 1.54615L82.8904 3.33829L87.0403 10.3555L88.9153 7.4064L90.5823 4.88985L91.9008 2.83552C92.433 1.94891 92.968 1.00284 93.5056 0.00810991L94.3216 0.0837955L94.9484 0.12434L95.5293 0.0783872L96.383 0L95.7238 0.783887L89.788 9.04447L87.886 11.9232L96.8991 26.5604L96.0345 26.5009H95.7886C95.7103 26.5009 95.5941 26.4901 95.4455 26.4631L94.7593 26.4441L93.7758 26.482L92.6276 26.5604C92.3223 25.9792 92.0251 25.3953 91.7333 24.8142C91.2821 23.9546 90.8228 23.1112 90.3716 22.2787C89.6664 20.9785 88.9478 19.7297 88.2291 18.5458C87.8157 17.8403 87.5374 17.3699 87.3969 17.1429C86.9187 16.359 86.427 15.5697 85.9218 14.775C85.0356 16.0995 84.2413 17.3348 83.5361 18.4863L81.3369 22.2327L78.8999 26.5604L78.2541 26.482C78.0542 26.482 77.9245 26.4685 77.8732 26.4441H77.4706L76.96 26.4631L76.5601 26.5009L76.0306 26.5604L77.2194 24.7953L78.9215 22.3219L80.7236 19.6973Z" fill="white"/>
<path fill-rule="evenodd" clip-rule="evenodd" d="M3.94729 31.6637V39.8594L3.71764 39.854C3.64199 39.854 3.59065 39.8486 3.56093 39.8405L3.38802 39.8324L3.12324 39.8459L2.81795 39.8702V31.6637C1.92636 31.6637 0.988849 31.7177 0 31.8205L0.0270132 31.6123L0.0405249 31.4366L0.0324189 31.3123L0.0216126 31.2096L0 31.0474H6.63555L6.60853 31.2825L6.59773 31.4393L6.60853 31.5961L6.63555 31.8232L5.39273 31.7177C5.23063 31.7177 5.05501 31.7123 4.86589 31.7015C4.38768 31.6772 4.08237 31.6637 3.94729 31.6637ZM9.80473 31.6529V34.8803H11.7986H12.1445L12.5254 34.8452L12.9388 34.8155L12.9172 35.0101L12.9037 35.1534L12.9172 35.2858L12.9388 35.5102L12.5254 35.4777L12.1445 35.448H11.7986H9.80473V39.2025C9.88849 39.2025 10.2343 39.1944 10.8422 39.1782C11.4501 39.1593 11.8824 39.1512 12.1337 39.1512C12.3066 39.1512 12.4795 39.1431 12.647 39.1242C12.8145 39.1079 13.0361 39.0755 13.317 39.035L13.2981 39.1728L13.2819 39.3053L13.2738 39.4242C13.2738 39.5053 13.2792 39.5675 13.2873 39.6134L13.317 39.808H8.67269V31.0474H13.236L13.209 31.2798L13.1982 31.4339L13.209 31.5907L13.236 31.8151C13.0063 31.7691 12.8334 31.7394 12.7145 31.7232C12.5119 31.6934 12.2985 31.6772 12.0796 31.6772L10.7936 31.6529H9.80473ZM22.3869 38.4565L22.3166 39.2674C22.0708 39.435 21.7871 39.5729 21.4656 39.6864C21.1711 39.7864 20.855 39.8648 20.5146 39.9189C20.1768 39.9729 19.831 40 19.4798 40C18.7746 40 18.1451 39.8945 17.5858 39.6837C17.0266 39.4702 16.5538 39.1647 16.1647 38.7647C15.7757 38.3592 15.4758 37.8726 15.2677 37.2942C15.057 36.7157 14.9516 36.0832 14.9516 35.3966C14.9516 34.4533 15.165 33.6396 15.5865 32.9557C16.008 32.2719 16.5916 31.7475 17.3319 31.3907C18.0722 31.0339 18.8962 30.8555 19.7986 30.8555C20.1147 30.8555 20.4308 30.8771 20.7496 30.9176C21.0657 30.9582 21.3791 31.0285 21.6871 31.1204C21.9951 31.215 22.2842 31.3231 22.5625 31.4501C22.4571 31.7177 22.368 32.0475 22.2923 32.4368L22.2032 32.4557C22.1032 32.3259 21.9465 32.18 21.7304 32.0178C21.5142 31.8583 21.2305 31.7042 20.8793 31.561C20.5281 31.415 20.1498 31.342 19.7473 31.342C18.9962 31.342 18.3531 31.5258 17.8236 31.8934C17.294 32.2584 16.8942 32.7611 16.6213 33.3991C16.3484 34.037 16.2133 34.7209 16.2133 35.448C16.2133 36.2535 16.3565 36.9617 16.6456 37.5726C16.9347 38.1862 17.3427 38.6619 17.8668 38.9971C18.3937 39.3323 18.9908 39.4999 19.6527 39.4999C20.0823 39.4999 20.4821 39.435 20.8577 39.308C21.2305 39.1782 21.5412 39.0377 21.7871 38.8809C22.033 38.7241 22.2329 38.5836 22.3869 38.4565ZM31.246 34.7398V31.0474L31.5756 31.0717L31.8134 31.0852L32.0403 31.0717L32.378 31.0447V39.8459L32.1457 39.827C32.0754 39.827 32.0241 39.8216 31.9944 39.8134L31.8134 39.808L31.6188 39.8134L31.454 39.827L31.246 39.8459V35.421L30.3436 35.3966L29.2953 35.3453H28.5469H27.7931C27.6688 35.3453 27.4797 35.3534 27.2285 35.3696C26.9772 35.3858 26.8124 35.3966 26.7394 35.3966L25.8343 35.421V39.8459L25.602 39.827C25.529 39.827 25.475 39.8216 25.4453 39.8134L25.267 39.808L25.0103 39.8216L24.7023 39.8459V31.0474L25.0292 31.0717L25.267 31.0852L25.4912 31.0717L25.8343 31.0447V34.7425L28.5469 34.8047C28.9333 34.7857 29.3845 34.7722 29.9059 34.7587C30.4274 34.7452 30.8732 34.7398 31.246 34.7398ZM42.7961 31.0474V39.8459H42.4043C42.2422 39.6296 42.0207 39.3674 41.7397 39.0647L36.1794 32.9152L36.0579 32.9098V39.8459L35.8633 39.8216L35.6985 39.808L35.5715 39.8134L35.4716 39.827L35.3392 39.8459V31.0474H35.839L41.9423 37.6726H42.0747V31.0447L42.2746 31.0717L42.434 31.0852L42.5826 31.0717L42.7961 31.0474ZM53.4681 35.3534C53.4681 34.9317 53.4465 34.5749 53.4059 34.2803C53.3654 33.9883 53.2817 33.6883 53.1574 33.3801C53.0331 33.072 52.8683 32.7855 52.6602 32.5233C52.4495 32.2584 52.2036 32.0367 51.9254 31.8529C51.6471 31.6718 51.3364 31.5312 50.9933 31.4285C50.6501 31.3285 50.3151 31.2798 49.9828 31.2798C49.4262 31.2798 48.921 31.3826 48.4698 31.588C48.0186 31.7907 47.635 32.0827 47.3188 32.4638C47.0054 32.8422 46.7677 33.3017 46.6029 33.8397C46.4408 34.3776 46.3597 34.9641 46.3597 35.6021C46.3597 36.2265 46.4462 36.7833 46.6218 37.2726C46.7947 37.7672 47.046 38.1862 47.3729 38.5349C47.7025 38.8809 48.0807 39.1404 48.513 39.3134C48.9453 39.4891 49.3965 39.5756 49.8693 39.5756C50.4772 39.5756 51.0122 39.4458 51.4688 39.1836C51.9254 38.9214 52.3009 38.5781 52.5927 38.1538C52.8845 37.7294 53.1033 37.2617 53.2492 36.7536C53.3951 36.2454 53.4681 35.7805 53.4681 35.3534ZM49.8315 40C49.1344 40 48.4887 39.8945 47.9024 39.681C47.3161 39.4675 46.8109 39.1593 46.3948 38.7538C45.9788 38.3484 45.6573 37.8645 45.4303 37.2996C45.3195 37.0131 45.2331 36.7238 45.1817 36.4211C45.1277 36.1238 45.098 35.7994 45.098 35.448C45.098 34.7587 45.2196 34.1316 45.4573 33.5612C45.6951 32.9909 46.0355 32.5043 46.4813 32.0908C46.9082 31.6988 47.408 31.3934 47.9835 31.1771C48.559 30.9609 49.1831 30.8555 49.8585 30.8555C50.4772 30.8555 51.0797 30.942 51.666 31.115C52.2523 31.2907 52.7737 31.5556 53.2303 31.9151C53.6896 32.2746 54.0544 32.7341 54.3245 33.2936C54.5947 33.8532 54.7298 34.5046 54.7298 35.2507C54.7298 36.1832 54.5218 37.005 54.1084 37.7267C53.695 38.4457 53.1115 39.0052 52.3631 39.4053C51.6147 39.8026 50.769 40 49.8315 40ZM59.9794 31.6637V39.8594L59.747 39.854C59.674 39.854 59.6227 39.8486 59.5903 39.8405L59.4174 39.8324L59.1553 39.8459L58.8473 39.8702V31.6637C57.9584 31.6637 57.0209 31.7177 56.0321 31.8205L56.0591 31.6123L56.0699 31.4366L56.0645 31.3123L56.051 31.2096L56.0321 31.0474H62.6676L62.6406 31.2825L62.6271 31.4393L62.6406 31.5961L62.6676 31.8232L61.4248 31.7177C61.26 31.7177 61.0844 31.7123 60.898 31.7015C60.4197 31.6772 60.1144 31.6637 59.9794 31.6637ZM65.4531 31.5231V35.056L65.726 35.0614H66.0583C66.4798 35.0614 66.8337 35.0344 67.1174 34.9858C67.6119 34.8857 68.0144 34.6722 68.3143 34.3505C68.6169 34.0262 68.7709 33.6261 68.7709 33.1504C68.7709 32.234 68.2954 31.6961 67.3525 31.5366C67.212 31.5096 66.9472 31.4988 66.5501 31.4988C66.4825 31.4988 66.388 31.5015 66.2664 31.5096C66.1448 31.5204 66.0556 31.5231 66.0016 31.5231C65.9503 31.5231 65.8638 31.5231 65.7422 31.5231C65.6234 31.5231 65.5234 31.5231 65.4531 31.5231ZM64.3211 39.8459V31.0474H67.0445C68.0252 31.0474 68.7466 31.2096 69.2059 31.5339C69.6706 31.8583 69.9003 32.3476 69.9003 33.0071C69.9003 33.3585 69.83 33.6748 69.6922 33.9559C69.549 34.2343 69.3545 34.4749 69.1032 34.6776C68.852 34.8776 68.5737 35.0398 68.263 35.1615C67.9523 35.2858 67.62 35.3804 67.266 35.448L69.9165 38.7917L70.5352 39.5242L70.7756 39.8459L70.4757 39.827H70.3947C70.365 39.827 70.3244 39.8216 70.2731 39.8134L70.0354 39.808H69.8246L69.6166 39.8216L69.3032 39.8459C68.9276 39.3188 68.6547 38.9485 68.4872 38.7295L66.9769 36.7563L65.9395 35.5399L65.4531 35.5372V39.8459L65.2208 39.827C65.1451 39.827 65.0938 39.8216 65.0641 39.8134L64.8858 39.808L64.6264 39.8216L64.3211 39.8459ZM76.036 30.8555L79.8914 39.8459L79.6212 39.827H79.5456C79.524 39.827 79.4916 39.8216 79.4402 39.8134L79.2268 39.808L78.9053 39.8216L78.5405 39.8459C78.3217 39.1999 78.1001 38.5998 77.884 38.0375C77.6652 37.4753 77.4355 36.9212 77.1923 36.3724H73.9286L73.4207 37.6375L73.0073 38.743C72.8641 39.1431 72.7479 39.5107 72.6507 39.8459L72.4561 39.827C72.394 39.827 72.3508 39.8216 72.3237 39.8134L72.1752 39.808L72.0184 39.8134L71.8942 39.827L71.7321 39.8459L75.7415 30.8555H76.036ZM76.9951 35.8318L75.5686 32.5341L74.1691 35.8318H76.9951ZM83.0228 31.561V39.2296C83.0687 39.2296 83.1308 39.2296 83.2119 39.2377C83.2957 39.2404 83.3875 39.2512 83.4929 39.2674L84.1386 39.3053H84.6546C85.5651 39.3053 86.2784 39.1782 86.789 38.9214C87.4402 38.5971 87.9157 38.1105 88.2048 37.4699C88.4966 36.8266 88.6398 36.0805 88.6398 35.229C88.6398 34.5235 88.5695 33.9451 88.4263 33.4856C88.2858 33.0287 88.0562 32.6503 87.7374 32.3584C87.4186 32.0664 87.0052 31.8502 86.4919 31.715C85.9785 31.5799 85.3625 31.5096 84.6411 31.5096C84.5547 31.5096 84.4007 31.515 84.1818 31.5231C83.9603 31.5312 83.8279 31.5366 83.782 31.5366L83.0228 31.561ZM81.8907 39.808V31.0474H84.8086H85.6948C86.3054 31.0474 86.8323 31.096 87.2754 31.1988C87.7211 31.2988 88.1372 31.5069 88.5263 31.8205C88.9721 32.1881 89.3152 32.6584 89.5503 33.2261C89.7826 33.7964 89.9015 34.3992 89.9015 35.0344C89.9015 35.6075 89.8366 36.1292 89.707 36.5995C89.5773 37.0671 89.3881 37.4807 89.145 37.8402C88.8991 38.2024 88.6127 38.5295 88.2804 38.8268C88.0292 39.0539 87.7455 39.235 87.4267 39.3755C87.2889 39.4323 87.1376 39.4891 86.9755 39.5404C86.8134 39.5945 86.6485 39.635 86.4837 39.6675C86.3189 39.6972 86.1541 39.7242 85.992 39.7486C85.8326 39.7702 85.684 39.781 85.5516 39.781L84.3953 39.808H81.8907ZM93.3868 31.6529V34.8803H95.3834H95.7265L96.1102 34.8452L96.5235 34.8155L96.4992 35.0101L96.4857 35.1534L96.4992 35.2858L96.5235 35.5102L96.1102 35.4777L95.7265 35.448H95.3834H93.3868V39.2025C93.4705 39.2025 93.8163 39.1944 94.4242 39.1782C95.0321 39.1593 95.4644 39.1512 95.7157 39.1512C95.8913 39.1512 96.0615 39.1431 96.229 39.1242C96.3966 39.1079 96.6181 39.0755 96.8991 39.035L96.8802 39.1728L96.8639 39.3053L96.8559 39.4242C96.8559 39.5053 96.8613 39.5675 96.8694 39.6134L96.8991 39.808H92.2574V31.0474H96.818L96.7937 31.2798L96.7829 31.4339L96.7937 31.5907L96.818 31.8151C96.5884 31.7691 96.4155 31.7394 96.2966 31.7232C96.0939 31.6934 95.8832 31.6772 95.6644 31.6772L94.3783 31.6529H93.3868Z" fill="white"/>
</svg>
