<svg width="40" height="40" viewBox="0 0 40 40" fill="none" xmlns="http://www.w3.org/2000/svg">
<circle cx="20" cy="20" r="20" fill="url(#paint0_linear_511_4358)"/>
<g filter="url(#filter0_d_511_4358)">
<path d="M11.5393 15.6619L16.4824 19.9521L11.5393 24.2424C11.2419 24.5005 11.21 24.9509 11.4681 25.2483C11.7263 25.5457 12.1766 25.5775 12.474 25.3194L17.5703 20.8963L19.5327 22.5995C19.6667 22.7159 19.8334 22.774 20 22.774C20.1667 22.774 20.3333 22.7159 20.4674 22.5995L22.4298 20.8963L27.5261 25.3194C27.8235 25.5775 28.2738 25.5457 28.5319 25.2483C28.7901 24.9509 28.7582 24.5005 28.4608 24.2424L23.5176 19.9521L28.4608 15.6619C28.7582 15.4038 28.7901 14.9534 28.5319 14.656C28.2738 14.3586 27.8234 14.3268 27.5261 14.5849C27.1114 14.9447 20.4415 20.7336 20 21.1168C19.5584 20.7335 12.8885 14.9447 12.474 14.5849C12.1766 14.3268 11.7262 14.3587 11.4681 14.656C11.21 14.9534 11.2419 15.4038 11.5393 15.6619Z" fill="white"/>
<path d="M30.2871 12H9.713C9.31924 12 9 12.3193 9 12.713V27.1913C9 27.5851 9.31924 27.9043 9.713 27.9043H30.287C30.6808 27.9043 31 27.5851 31 27.1913V12.713C31 12.3193 30.6809 12 30.2871 12ZM29.5741 26.4782H10.426V13.426H29.5741V26.4782Z" fill="white"/>
</g>
<defs>
<filter id="filter0_d_511_4358" x="7" y="11" width="26" height="19.9043" filterUnits="userSpaceOnUse" color-interpolation-filters="sRGB">
<feFlood flood-opacity="0" result="BackgroundImageFix"/>
<feColorMatrix in="SourceAlpha" type="matrix" values="0 0 0 0 0 0 0 0 0 0 0 0 0 0 0 0 0 0 127 0" result="hardAlpha"/>
<feOffset dy="1"/>
<feGaussianBlur stdDeviation="1"/>
<feComposite in2="hardAlpha" operator="out"/>
<feColorMatrix type="matrix" values="0 0 0 0 0 0 0 0 0 0 0 0 0 0 0 0 0 0 0.1 0"/>
<feBlend mode="normal" in2="BackgroundImageFix" result="effect1_dropShadow_511_4358"/>
<feBlend mode="normal" in="SourceGraphic" in2="effect1_dropShadow_511_4358" result="shape"/>
</filter>
<linearGradient id="paint0_linear_511_4358" x1="20" y1="0" x2="20" y2="40" gradientUnits="userSpaceOnUse">
<stop stop-color="#4CBAC6"/>
<stop offset="1" stop-color="#009DAE"/>
</linearGradient>
</defs>
</svg>
