<svg width="40" height="40" viewBox="0 0 40 40" fill="none" xmlns="http://www.w3.org/2000/svg">
<circle cx="20" cy="20" r="20" fill="#009DAE"/>
<path d="M31.8727 25.1661C31.8437 25.1035 31.8166 25.0516 31.7914 25.0099C31.375 24.26 30.5793 23.3395 29.4047 22.2481L29.3799 22.2232L29.3675 22.2109L29.3549 22.1983H29.3423C28.8092 21.6902 28.4716 21.3485 28.3303 21.1735C28.0716 20.8403 28.0137 20.503 28.155 20.1612C28.2549 19.903 28.6301 19.3576 29.2797 18.5245C29.6213 18.0829 29.892 17.729 30.0918 17.4624C31.5331 15.5463 32.1579 14.3218 31.9662 13.7886L31.8918 13.664C31.8418 13.589 31.7127 13.5204 31.5046 13.4578C31.2961 13.3953 31.0296 13.385 30.7047 13.4266L27.106 13.4515C27.0477 13.4308 26.9644 13.4327 26.856 13.4578C26.7477 13.4828 26.6935 13.4954 26.6935 13.4954L26.6308 13.5267L26.5811 13.5643C26.5395 13.5891 26.4936 13.6328 26.4436 13.6953C26.3938 13.7576 26.3522 13.8307 26.319 13.914C25.9272 14.922 25.4817 15.8592 24.9817 16.7255C24.6735 17.2421 24.3904 17.6898 24.1319 18.0688C23.8737 18.4478 23.6571 18.727 23.4823 18.9059C23.3072 19.0851 23.1492 19.2286 23.0073 19.337C22.8657 19.4454 22.7575 19.4913 22.6826 19.4745C22.6076 19.4577 22.5369 19.4411 22.47 19.4245C22.3534 19.3495 22.2597 19.2474 22.189 19.1183C22.118 18.9892 22.0702 18.8267 22.0452 18.6309C22.0203 18.435 22.0056 18.2665 22.0014 18.1249C21.9975 17.9834 21.9993 17.7832 22.0078 17.525C22.0164 17.2666 22.0203 17.0918 22.0203 17.0002C22.0203 16.6836 22.0265 16.34 22.0389 15.9693C22.0515 15.5986 22.0617 15.3048 22.0702 15.0884C22.0787 14.8718 22.0827 14.6427 22.0827 14.4011C22.0827 14.1595 22.068 13.97 22.0389 13.8325C22.0102 13.6952 21.9661 13.5619 21.908 13.4326C21.8496 13.3035 21.7641 13.2036 21.6519 13.1327C21.5394 13.0619 21.3996 13.0057 21.2333 12.964C20.7917 12.864 20.2294 12.81 19.5462 12.8016C17.9968 12.785 17.0012 12.885 16.5597 13.1016C16.3848 13.1931 16.2265 13.3182 16.0849 13.4763C15.9349 13.6597 15.914 13.7597 16.0223 13.7762C16.5222 13.8511 16.8761 14.0302 17.0844 14.3134L17.1595 14.4635C17.2178 14.5718 17.2761 14.7635 17.3345 15.0383C17.3927 15.3132 17.4303 15.6172 17.4469 15.9503C17.4885 16.5585 17.4885 17.0792 17.4469 17.5123C17.4052 17.9456 17.3658 18.2829 17.3282 18.5245C17.2906 18.7661 17.2344 18.9619 17.1595 19.1118C17.0844 19.2617 17.0345 19.3534 17.0094 19.3866C16.9844 19.4199 16.9636 19.4409 16.9471 19.4491C16.8388 19.4906 16.7262 19.5117 16.6096 19.5117C16.4929 19.5117 16.3513 19.4533 16.1848 19.3366C16.0182 19.22 15.8454 19.0597 15.6663 18.8556C15.4871 18.6514 15.2851 18.3661 15.0601 17.9996C14.8353 17.6331 14.602 17.1999 14.3604 16.7001L14.1605 16.3376C14.0355 16.1044 13.8649 15.7649 13.6483 15.3193C13.4315 14.8735 13.24 14.4423 13.0734 14.0258C13.0068 13.8509 12.9068 13.7177 12.7736 13.626L12.711 13.5884C12.6695 13.5552 12.6027 13.5198 12.5111 13.4822C12.4195 13.4446 12.3238 13.4176 12.2237 13.4011L8.79988 13.4259C8.45001 13.4259 8.21262 13.5052 8.08762 13.6635L8.0376 13.7384C8.0126 13.7801 8 13.8467 8 13.9384C8 14.03 8.02499 14.1425 8.07502 14.2757C8.57483 15.4504 9.11838 16.5833 9.70564 17.6746C10.2929 18.7659 10.8032 19.6449 11.2363 20.311C11.6695 20.9775 12.111 21.6066 12.5609 22.1979C13.0107 22.7894 13.3085 23.1684 13.4542 23.335C13.6001 23.5018 13.7147 23.6265 13.798 23.7098L14.1104 24.0097C14.3104 24.2097 14.6039 24.4491 14.9913 24.7282C15.3788 25.0073 15.8078 25.2822 16.2784 25.5532C16.7492 25.8237 17.2968 26.0444 17.9217 26.2152C18.5465 26.3861 19.1546 26.4547 19.7461 26.4216H21.1831C21.4746 26.3964 21.6954 26.3048 21.8455 26.1466L21.8952 26.084C21.9286 26.0343 21.9599 25.957 21.9888 25.8531C22.018 25.7489 22.0326 25.6342 22.0326 25.5094C22.024 25.1513 22.0513 24.8285 22.1136 24.5411C22.1759 24.2539 22.2469 24.0373 22.3263 23.8914C22.4056 23.7456 22.4952 23.6226 22.5948 23.5229C22.6947 23.423 22.7659 23.3625 22.8076 23.3417C22.8491 23.3207 22.8822 23.3065 22.9072 23.2979C23.1072 23.2313 23.3425 23.2958 23.6135 23.4918C23.8842 23.6876 24.1382 23.9293 24.3758 24.2166C24.6132 24.5041 24.8985 24.8267 25.2317 25.1849C25.565 25.5431 25.8565 25.8095 26.1063 25.9847L26.3562 26.1346C26.523 26.2347 26.7396 26.3263 27.0062 26.4096C27.2724 26.4928 27.5056 26.5137 27.7058 26.4721L30.9046 26.4222C31.221 26.4222 31.4672 26.3698 31.6418 26.2658C31.8168 26.1617 31.9207 26.047 31.9543 25.9222C31.9877 25.7973 31.9895 25.6556 31.9606 25.4971C31.931 25.3391 31.9018 25.2286 31.8727 25.1661Z" fill="white"/>
</svg>
