<svg width="40" height="40" viewBox="0 0 40 40" fill="none" xmlns="http://www.w3.org/2000/svg">
<circle cx="20" cy="20" r="20" fill="#009DAE"/>
<path d="M18.8242 24.9047C16.9637 24.7106 15.2861 24.2524 13.8499 23.1291C13.6717 22.9893 13.4877 22.8546 13.3251 22.6985C12.6964 22.0948 12.6331 21.4033 13.1305 20.6907C13.5561 20.0809 14.2704 19.9178 15.0129 20.2679C15.1567 20.3358 15.2937 20.4205 15.4249 20.5115C18.1016 22.3506 21.7786 22.4014 24.4654 20.5942C24.7316 20.3901 25.0161 20.2237 25.3459 20.1387C25.9871 19.9741 26.5851 20.2096 26.9292 20.7706C27.3223 21.4113 27.3173 22.0367 26.8329 22.5341C26.0899 23.2967 25.1963 23.8485 24.2035 24.2335C23.2647 24.5975 22.2364 24.7807 21.2186 24.9024C21.3722 25.0695 21.4446 25.1517 21.5406 25.2483C22.9226 26.6367 24.3105 28.0194 25.688 29.4122C26.1573 29.8868 26.2553 30.4752 25.9969 31.0272C25.7144 31.6304 25.082 32.0273 24.4619 31.9848C24.069 31.9577 23.7626 31.7621 23.4904 31.4879C22.4475 30.4385 21.385 29.4084 20.3633 28.3392C20.0659 28.0282 19.9229 28.0871 19.6605 28.357C18.6113 29.4371 17.5451 30.5006 16.4725 31.558C15.9909 32.0328 15.4179 32.1183 14.8593 31.8471C14.2656 31.5593 13.8879 30.9533 13.917 30.3442C13.9371 29.9323 14.1397 29.6176 14.4225 29.3353C15.7901 27.9697 17.154 26.6005 18.5183 25.2327C18.6086 25.1417 18.6928 25.0452 18.8242 24.9047Z" fill="white"/>
<path d="M19.9576 20.1478C16.6384 20.1364 13.9168 17.3849 13.9361 14.0604C13.9552 10.6993 16.6787 7.99072 20.0305 8.00002C23.3891 8.00907 26.0849 10.7566 26.068 14.1527C26.0509 17.4703 23.3104 20.1593 19.9576 20.1478ZM22.9741 14.0685C22.9683 12.4178 21.6537 11.1038 20.0063 11.1022C18.3451 11.1005 17.0187 12.4385 17.0316 14.1042C17.0439 15.7485 18.3698 17.0533 20.0217 17.0473C21.6686 17.0415 22.9796 15.7189 22.9741 14.0685Z" fill="white"/>
</svg>
