<svg width="40" height="40" viewBox="0 0 40 40" fill="none" xmlns="http://www.w3.org/2000/svg">
<circle cx="20" cy="20" r="20" fill="#009DAE"/>
<path fill-rule="evenodd" clip-rule="evenodd" d="M27.0157 11.2002H12.9843C10.2316 11.2002 8 13.4301 8 16.1806V23.1895C8 25.94 10.2316 28.1699 12.9843 28.1699H27.0157C29.7684 28.1699 32 25.94 32 23.1895V16.1806C32 13.4301 29.7684 11.2002 27.0157 11.2002ZM23.6445 20.0261L17.0816 23.1535C16.9068 23.2369 16.7048 23.1097 16.7048 22.9161V16.4652C16.7048 16.2692 16.9122 16.1416 17.0874 16.2305L23.6502 19.5536C23.8454 19.6523 23.842 19.9321 23.6445 20.0261Z" fill="white"/>
</svg>
