<svg width="40" height="40" viewBox="0 0 40 40" fill="none" xmlns="http://www.w3.org/2000/svg">
<circle cx="20" cy="20" r="20" fill="url(#paint0_linear_511_4366)"/>
<g filter="url(#filter0_d_511_4366)">
<path d="M28.4624 30.9919H28.3186C11.6978 30.0361 9.33794 16.012 9.00806 11.7321C8.98148 11.3993 9.02082 11.0646 9.12383 10.747C9.22684 10.4295 9.3915 10.1354 9.60837 9.88158C9.82523 9.62778 10.09 9.41927 10.3876 9.268C10.6852 9.11672 11.0097 9.02565 11.3426 9H16.0032C16.342 8.99967 16.6731 9.10109 16.9536 9.29111C17.2341 9.48113 17.4511 9.751 17.5764 10.0658L18.8621 13.2292C18.9859 13.5367 19.0166 13.8738 18.9505 14.1986C18.8843 14.5234 18.7242 14.8217 18.49 15.0562L16.6883 16.8748C16.9697 18.4741 17.7356 19.9483 18.8823 21.098C20.0291 22.2478 21.5013 23.0176 23.0998 23.3032L24.9353 21.4846C25.1734 21.253 25.4744 21.0966 25.8008 21.0349C26.1272 20.9733 26.4645 21.0091 26.7707 21.1378L29.9596 22.4151C30.2696 22.5444 30.5341 22.7631 30.7194 23.0432C30.9047 23.3234 31.0023 23.6524 31 23.9883V28.4544C31 29.1274 30.7326 29.7728 30.2567 30.2487C29.7809 30.7246 29.1354 30.9919 28.4624 30.9919ZM11.5456 10.6917C11.3213 10.6917 11.1061 10.7808 10.9475 10.9394C10.7889 11.0981 10.6997 11.3132 10.6997 11.5375V11.6052C11.0888 16.6126 13.5841 28.4544 28.4117 29.3002C28.5228 29.3071 28.6342 29.2919 28.7394 29.2557C28.8447 29.2194 28.9418 29.1627 29.0251 29.0888C29.1084 29.015 29.1763 28.9254 29.2249 28.8252C29.2735 28.725 29.3018 28.6163 29.3083 28.5051V23.9883L26.1194 22.7111L23.6919 25.1218L23.2859 25.071C15.927 24.149 14.929 16.7902 14.929 16.7141L14.8782 16.3081L17.2804 13.8805L16.0116 10.6917H11.5456Z" fill="white"/>
</g>
<defs>
<filter id="filter0_d_511_4366" x="7" y="8" width="26" height="25.9919" filterUnits="userSpaceOnUse" color-interpolation-filters="sRGB">
<feFlood flood-opacity="0" result="BackgroundImageFix"/>
<feColorMatrix in="SourceAlpha" type="matrix" values="0 0 0 0 0 0 0 0 0 0 0 0 0 0 0 0 0 0 127 0" result="hardAlpha"/>
<feOffset dy="1"/>
<feGaussianBlur stdDeviation="1"/>
<feComposite in2="hardAlpha" operator="out"/>
<feColorMatrix type="matrix" values="0 0 0 0 0 0 0 0 0 0 0 0 0 0 0 0 0 0 0.1 0"/>
<feBlend mode="normal" in2="BackgroundImageFix" result="effect1_dropShadow_511_4366"/>
<feBlend mode="normal" in="SourceGraphic" in2="effect1_dropShadow_511_4366" result="shape"/>
</filter>
<linearGradient id="paint0_linear_511_4366" x1="20" y1="0" x2="20" y2="40" gradientUnits="userSpaceOnUse">
<stop stop-color="#4CBAC6"/>
<stop offset="1" stop-color="#009DAE"/>
</linearGradient>
</defs>
</svg>
