<svg xmlns="http://www.w3.org/2000/svg" width="292.177" height="93.182" viewBox="0 0 292.177 93.182">
  <g id="Сгруппировать_8354" data-name="Сгруппировать 8354" transform="translate(-650.011 -684.636)">
    <path id="Прямоугольник_3602" data-name="Прямоугольник 3602" d="M11.727,0h0A11.209,11.209,0,0,1,22.937,11.209v0A11.727,11.727,0,0,1,11.209,22.937H0a0,0,0,0,1,0,0V11.727A11.727,11.727,0,0,1,11.727,0Z" transform="translate(779.116 699.244)" fill="#3dc9b9"/>
    <path id="Контур_2817" data-name="Контур 2817" d="M830.267,740.415s3.348,22.476,1.218,30.526c-2.852,10.777,28,.191,29.4-26.052S835.872,723.653,830.267,740.415Z" transform="translate(-32.221 -7.584)" fill="#3dc9b9"/>
    <path id="Контур_2818" data-name="Контур 2818" d="M830.119,740.618s-5.122-8.055,12.171-17.2,45.7-15.811,57.561-6.177-17.293,27.916-22.481,27.916c0,0,15.81.247,12.847,10.128s-18.034,19.023-48.42,17.046c0,0-10.623,9.635-23.222,10.623,0,0,11.333-8.413,11.086-16.813l23.265-7.6-4.46,6.382s14.965.672,22.481-3.458c6.518-3.583,3.884-7.371.741-8.894-3.16-1.531-20.87-6.858-41.128,5.247l-.494-8.646s13.966-12.124,29.283-12.371l-.507,5.642s26.68-3.706,26.68-14.576S850.87,723.325,830.119,740.618Z" transform="translate(-30.18 -5.141)"/>
    <g id="Сгруппировать_8097" data-name="Сгруппировать 8097" transform="translate(773.762 691.148)">
      <path id="Контур_2819" data-name="Контур 2819" d="M804.095,708.364h0l-3.249,20.15,20.4-.579a15.026,15.026,0,0,0,8.374-24.641h0A15.026,15.026,0,0,0,804.095,708.364Zm19.319.371h0a6.9,6.9,0,0,1-3.843,11.31h0l-9.364.265,1.491-9.249h0A6.9,6.9,0,0,1,823.414,708.735Z" transform="translate(-800.846 -693.781)"/>
      <path id="Контур_2820" data-name="Контур 2820" d="M802.526,692.853s6.374,4.66,6.044,11.248,7.955-4,7.955-4A16.574,16.574,0,0,0,802.526,692.853Z" transform="translate(-801.139 -692.853)"/>
    </g>
    <text id="Mem" transform="translate(650.011 724.636)" font-size="53" font-family="MyriadPro-Bold, Myriad Pro" font-weight="700"><tspan x="0" y="0">Mem</tspan></text>
    <text id="eez" transform="translate(862.188 761.551)" font-size="52" font-family="MyriadPro-Bold, Myriad Pro" font-weight="700"><tspan x="0" y="0">eez</tspan></text>
  </g>
</svg>
